<?xml version="1.0" encoding="utf-8" standalone="no"?>
<!DOCTYPE svg PUBLIC "-//W3C//DTD SVG 1.1//EN"
  "http://www.w3.org/Graphics/SVG/1.1/DTD/svg11.dtd">
<svg xmlns:xlink="http://www.w3.org/1999/xlink" width="425.869866pt" height="331.080312pt" viewBox="0 0 425.869866 331.080312" xmlns="http://www.w3.org/2000/svg" version="1.1">
 <metadata>
  <rdf:RDF xmlns:dc="http://purl.org/dc/elements/1.1/" xmlns:cc="http://creativecommons.org/ns#" xmlns:rdf="http://www.w3.org/1999/02/22-rdf-syntax-ns#">
   <cc:Work>
    <dc:type rdf:resource="http://purl.org/dc/dcmitype/StillImage"/>
    <dc:date>2024-03-02T18:58:50.729653</dc:date>
    <dc:format>image/svg+xml</dc:format>
    <dc:creator>
     <cc:Agent>
      <dc:title>Matplotlib v3.7.1, https://matplotlib.org/</dc:title>
     </cc:Agent>
    </dc:creator>
   </cc:Work>
  </rdf:RDF>
 </metadata>
 <defs>
  <style type="text/css">*{stroke-linejoin: round; stroke-linecap: butt}</style>
 </defs>
 <g id="figure_1">
  <g id="patch_1">
   <path d="M 0 331.080312 
L 425.869866 331.080312 
L 425.869866 0 
L 0 0 
z
" style="fill: #ffffff"/>
  </g>
  <g id="axes_1">
   <g id="patch_2">
    <path d="M 59.435938 273.312 
L 416.555938 273.312 
L 416.555938 7.2 
L 59.435938 7.2 
z
" style="fill: #ffffff"/>
   </g>
   <g id="patch_3">
    <path d="M 84.944509 420.503869 
L 84.944509 420.503869 
L 84.944509 420.503869 
L 84.944509 420.503869 
z
" clip-path="url(#peeb16e2064)" style="fill: #b4d4df; stroke: #737373; stroke-linejoin: miter"/>
   </g>
   <g id="patch_4">
    <path d="M 84.944509 420.503869 
L 84.944509 420.503869 
L 84.944509 420.503869 
L 84.944509 420.503869 
z
" clip-path="url(#peeb16e2064)" style="fill: #9ce29c; stroke: #737373; stroke-linejoin: miter"/>
   </g>
   <g id="matplotlib.axis_1">
    <g id="xtick_1">
     <g id="line2d_1">
      <defs>
       <path id="m49de059798" d="M 0 0 
L 0 3.5 
" style="stroke: #000000; stroke-width: 0.8"/>
      </defs>
      <g>
       <use xlink:href="#m49de059798" x="84.944509" y="273.312" style="stroke: #000000; stroke-width: 0.8"/>
      </g>
     </g>
     <g id="text_1">
      <!-- SVM -->
      <g transform="translate(71.854196 289.430125) scale(0.12 -0.12)">
       <defs>
        <path id="DejaVuSans-53" d="M 3425 4513 
L 3425 3897 
Q 3066 4069 2747 4153 
Q 2428 4238 2131 4238 
Q 1616 4238 1336 4038 
Q 1056 3838 1056 3469 
Q 1056 3159 1242 3001 
Q 1428 2844 1947 2747 
L 2328 2669 
Q 3034 2534 3370 2195 
Q 3706 1856 3706 1288 
Q 3706 609 3251 259 
Q 2797 -91 1919 -91 
Q 1588 -91 1214 -16 
Q 841 59 441 206 
L 441 856 
Q 825 641 1194 531 
Q 1563 422 1919 422 
Q 2459 422 2753 634 
Q 3047 847 3047 1241 
Q 3047 1584 2836 1778 
Q 2625 1972 2144 2069 
L 1759 2144 
Q 1053 2284 737 2584 
Q 422 2884 422 3419 
Q 422 4038 858 4394 
Q 1294 4750 2059 4750 
Q 2388 4750 2728 4690 
Q 3069 4631 3425 4513 
z
" transform="scale(0.015625)"/>
        <path id="DejaVuSans-56" d="M 1831 0 
L 50 4666 
L 709 4666 
L 2188 738 
L 3669 4666 
L 4325 4666 
L 2547 0 
L 1831 0 
z
" transform="scale(0.015625)"/>
        <path id="DejaVuSans-4d" d="M 628 4666 
L 1569 4666 
L 2759 1491 
L 3956 4666 
L 4897 4666 
L 4897 0 
L 4281 0 
L 4281 4097 
L 3078 897 
L 2444 897 
L 1241 4097 
L 1241 0 
L 628 0 
L 628 4666 
z
" transform="scale(0.015625)"/>
       </defs>
       <use xlink:href="#DejaVuSans-53"/>
       <use xlink:href="#DejaVuSans-56" x="63.476562"/>
       <use xlink:href="#DejaVuSans-4d" x="131.884766"/>
      </g>
     </g>
    </g>
    <g id="xtick_2">
     <g id="line2d_2">
      <g>
       <use xlink:href="#m49de059798" x="135.961652" y="273.312" style="stroke: #000000; stroke-width: 0.8"/>
      </g>
     </g>
     <g id="text_2">
      <!-- RF -->
      <g transform="translate(128.341652 289.430125) scale(0.12 -0.12)">
       <defs>
        <path id="DejaVuSans-52" d="M 2841 2188 
Q 3044 2119 3236 1894 
Q 3428 1669 3622 1275 
L 4263 0 
L 3584 0 
L 2988 1197 
Q 2756 1666 2539 1819 
Q 2322 1972 1947 1972 
L 1259 1972 
L 1259 0 
L 628 0 
L 628 4666 
L 2053 4666 
Q 2853 4666 3247 4331 
Q 3641 3997 3641 3322 
Q 3641 2881 3436 2590 
Q 3231 2300 2841 2188 
z
M 1259 4147 
L 1259 2491 
L 2053 2491 
Q 2509 2491 2742 2702 
Q 2975 2913 2975 3322 
Q 2975 3731 2742 3939 
Q 2509 4147 2053 4147 
L 1259 4147 
z
" transform="scale(0.015625)"/>
        <path id="DejaVuSans-46" d="M 628 4666 
L 3309 4666 
L 3309 4134 
L 1259 4134 
L 1259 2759 
L 3109 2759 
L 3109 2228 
L 1259 2228 
L 1259 0 
L 628 0 
L 628 4666 
z
" transform="scale(0.015625)"/>
       </defs>
       <use xlink:href="#DejaVuSans-52"/>
       <use xlink:href="#DejaVuSans-46" x="69.482422"/>
      </g>
     </g>
    </g>
    <g id="xtick_3">
     <g id="line2d_3">
      <g>
       <use xlink:href="#m49de059798" x="186.978795" y="273.312" style="stroke: #000000; stroke-width: 0.8"/>
      </g>
     </g>
     <g id="text_3">
      <!-- DT -->
      <g transform="translate(178.694107 289.430125) scale(0.12 -0.12)">
       <defs>
        <path id="DejaVuSans-44" d="M 1259 4147 
L 1259 519 
L 2022 519 
Q 2988 519 3436 956 
Q 3884 1394 3884 2338 
Q 3884 3275 3436 3711 
Q 2988 4147 2022 4147 
L 1259 4147 
z
M 628 4666 
L 1925 4666 
Q 3281 4666 3915 4102 
Q 4550 3538 4550 2338 
Q 4550 1131 3912 565 
Q 3275 0 1925 0 
L 628 0 
L 628 4666 
z
" transform="scale(0.015625)"/>
        <path id="DejaVuSans-54" d="M -19 4666 
L 3928 4666 
L 3928 4134 
L 2272 4134 
L 2272 0 
L 1638 0 
L 1638 4134 
L -19 4134 
L -19 4666 
z
" transform="scale(0.015625)"/>
       </defs>
       <use xlink:href="#DejaVuSans-44"/>
       <use xlink:href="#DejaVuSans-54" x="77.001953"/>
      </g>
     </g>
    </g>
    <g id="xtick_4">
     <g id="line2d_4">
      <g>
       <use xlink:href="#m49de059798" x="237.995937" y="273.312" style="stroke: #000000; stroke-width: 0.8"/>
      </g>
     </g>
     <g id="text_4">
      <!-- KNN -->
      <g transform="translate(225.08375 289.430125) scale(0.12 -0.12)">
       <defs>
        <path id="DejaVuSans-4b" d="M 628 4666 
L 1259 4666 
L 1259 2694 
L 3353 4666 
L 4166 4666 
L 1850 2491 
L 4331 0 
L 3500 0 
L 1259 2247 
L 1259 0 
L 628 0 
L 628 4666 
z
" transform="scale(0.015625)"/>
        <path id="DejaVuSans-4e" d="M 628 4666 
L 1478 4666 
L 3547 763 
L 3547 4666 
L 4159 4666 
L 4159 0 
L 3309 0 
L 1241 3903 
L 1241 0 
L 628 0 
L 628 4666 
z
" transform="scale(0.015625)"/>
       </defs>
       <use xlink:href="#DejaVuSans-4b"/>
       <use xlink:href="#DejaVuSans-4e" x="65.576172"/>
       <use xlink:href="#DejaVuSans-4e" x="140.380859"/>
      </g>
     </g>
    </g>
    <g id="xtick_5">
     <g id="line2d_5">
      <g>
       <use xlink:href="#m49de059798" x="289.01308" y="273.312" style="stroke: #000000; stroke-width: 0.8"/>
      </g>
     </g>
     <g id="text_5">
      <!-- MBC -->
      <g transform="translate(275.634955 289.430125) scale(0.12 -0.12)">
       <defs>
        <path id="DejaVuSans-42" d="M 1259 2228 
L 1259 519 
L 2272 519 
Q 2781 519 3026 730 
Q 3272 941 3272 1375 
Q 3272 1813 3026 2020 
Q 2781 2228 2272 2228 
L 1259 2228 
z
M 1259 4147 
L 1259 2741 
L 2194 2741 
Q 2656 2741 2882 2914 
Q 3109 3088 3109 3444 
Q 3109 3797 2882 3972 
Q 2656 4147 2194 4147 
L 1259 4147 
z
M 628 4666 
L 2241 4666 
Q 2963 4666 3353 4366 
Q 3744 4066 3744 3513 
Q 3744 3084 3544 2831 
Q 3344 2578 2956 2516 
Q 3422 2416 3680 2098 
Q 3938 1781 3938 1306 
Q 3938 681 3513 340 
Q 3088 0 2303 0 
L 628 0 
L 628 4666 
z
" transform="scale(0.015625)"/>
        <path id="DejaVuSans-43" d="M 4122 4306 
L 4122 3641 
Q 3803 3938 3442 4084 
Q 3081 4231 2675 4231 
Q 1875 4231 1450 3742 
Q 1025 3253 1025 2328 
Q 1025 1406 1450 917 
Q 1875 428 2675 428 
Q 3081 428 3442 575 
Q 3803 722 4122 1019 
L 4122 359 
Q 3791 134 3420 21 
Q 3050 -91 2638 -91 
Q 1578 -91 968 557 
Q 359 1206 359 2328 
Q 359 3453 968 4101 
Q 1578 4750 2638 4750 
Q 3056 4750 3426 4639 
Q 3797 4528 4122 4306 
z
" transform="scale(0.015625)"/>
       </defs>
       <use xlink:href="#DejaVuSans-4d"/>
       <use xlink:href="#DejaVuSans-42" x="86.279297"/>
       <use xlink:href="#DejaVuSans-43" x="153.132812"/>
      </g>
     </g>
    </g>
    <g id="xtick_6">
     <g id="line2d_6">
      <g>
       <use xlink:href="#m49de059798" x="340.030223" y="273.312" style="stroke: #000000; stroke-width: 0.8"/>
      </g>
     </g>
     <g id="text_6">
      <!-- MBC- -->
      <g transform="translate(324.487411 289.430125) scale(0.12 -0.12)">
       <defs>
        <path id="DejaVuSans-2d" d="M 313 2009 
L 1997 2009 
L 1997 1497 
L 313 1497 
L 313 2009 
z
" transform="scale(0.015625)"/>
       </defs>
       <use xlink:href="#DejaVuSans-4d"/>
       <use xlink:href="#DejaVuSans-42" x="86.279297"/>
       <use xlink:href="#DejaVuSans-43" x="153.132812"/>
       <use xlink:href="#DejaVuSans-2d" x="222.957031"/>
      </g>
      <!-- Attention -->
      <g transform="translate(312.339286 302.8675) scale(0.12 -0.12)">
       <defs>
        <path id="DejaVuSans-41" d="M 2188 4044 
L 1331 1722 
L 3047 1722 
L 2188 4044 
z
M 1831 4666 
L 2547 4666 
L 4325 0 
L 3669 0 
L 3244 1197 
L 1141 1197 
L 716 0 
L 50 0 
L 1831 4666 
z
" transform="scale(0.015625)"/>
        <path id="DejaVuSans-74" d="M 1172 4494 
L 1172 3500 
L 2356 3500 
L 2356 3053 
L 1172 3053 
L 1172 1153 
Q 1172 725 1289 603 
Q 1406 481 1766 481 
L 2356 481 
L 2356 0 
L 1766 0 
Q 1100 0 847 248 
Q 594 497 594 1153 
L 594 3053 
L 172 3053 
L 172 3500 
L 594 3500 
L 594 4494 
L 1172 4494 
z
" transform="scale(0.015625)"/>
        <path id="DejaVuSans-65" d="M 3597 1894 
L 3597 1613 
L 953 1613 
Q 991 1019 1311 708 
Q 1631 397 2203 397 
Q 2534 397 2845 478 
Q 3156 559 3463 722 
L 3463 178 
Q 3153 47 2828 -22 
Q 2503 -91 2169 -91 
Q 1331 -91 842 396 
Q 353 884 353 1716 
Q 353 2575 817 3079 
Q 1281 3584 2069 3584 
Q 2775 3584 3186 3129 
Q 3597 2675 3597 1894 
z
M 3022 2063 
Q 3016 2534 2758 2815 
Q 2500 3097 2075 3097 
Q 1594 3097 1305 2825 
Q 1016 2553 972 2059 
L 3022 2063 
z
" transform="scale(0.015625)"/>
        <path id="DejaVuSans-6e" d="M 3513 2113 
L 3513 0 
L 2938 0 
L 2938 2094 
Q 2938 2591 2744 2837 
Q 2550 3084 2163 3084 
Q 1697 3084 1428 2787 
Q 1159 2491 1159 1978 
L 1159 0 
L 581 0 
L 581 3500 
L 1159 3500 
L 1159 2956 
Q 1366 3272 1645 3428 
Q 1925 3584 2291 3584 
Q 2894 3584 3203 3211 
Q 3513 2838 3513 2113 
z
" transform="scale(0.015625)"/>
        <path id="DejaVuSans-69" d="M 603 3500 
L 1178 3500 
L 1178 0 
L 603 0 
L 603 3500 
z
M 603 4863 
L 1178 4863 
L 1178 4134 
L 603 4134 
L 603 4863 
z
" transform="scale(0.015625)"/>
        <path id="DejaVuSans-6f" d="M 1959 3097 
Q 1497 3097 1228 2736 
Q 959 2375 959 1747 
Q 959 1119 1226 758 
Q 1494 397 1959 397 
Q 2419 397 2687 759 
Q 2956 1122 2956 1747 
Q 2956 2369 2687 2733 
Q 2419 3097 1959 3097 
z
M 1959 3584 
Q 2709 3584 3137 3096 
Q 3566 2609 3566 1747 
Q 3566 888 3137 398 
Q 2709 -91 1959 -91 
Q 1206 -91 779 398 
Q 353 888 353 1747 
Q 353 2609 779 3096 
Q 1206 3584 1959 3584 
z
" transform="scale(0.015625)"/>
       </defs>
       <use xlink:href="#DejaVuSans-41"/>
       <use xlink:href="#DejaVuSans-74" x="66.658203"/>
       <use xlink:href="#DejaVuSans-74" x="105.867188"/>
       <use xlink:href="#DejaVuSans-65" x="145.076172"/>
       <use xlink:href="#DejaVuSans-6e" x="206.599609"/>
       <use xlink:href="#DejaVuSans-74" x="269.978516"/>
       <use xlink:href="#DejaVuSans-69" x="309.1875"/>
       <use xlink:href="#DejaVuSans-6f" x="336.970703"/>
       <use xlink:href="#DejaVuSans-6e" x="398.152344"/>
      </g>
     </g>
    </g>
    <g id="xtick_7">
     <g id="line2d_7">
      <g>
       <use xlink:href="#m49de059798" x="391.047366" y="273.312" style="stroke: #000000; stroke-width: 0.8"/>
      </g>
     </g>
     <g id="text_7">
      <!-- Proposed -->
      <g transform="translate(363.424866 289.430125) scale(0.12 -0.12)">
       <defs>
        <path id="DejaVuSans-50" d="M 1259 4147 
L 1259 2394 
L 2053 2394 
Q 2494 2394 2734 2622 
Q 2975 2850 2975 3272 
Q 2975 3691 2734 3919 
Q 2494 4147 2053 4147 
L 1259 4147 
z
M 628 4666 
L 2053 4666 
Q 2838 4666 3239 4311 
Q 3641 3956 3641 3272 
Q 3641 2581 3239 2228 
Q 2838 1875 2053 1875 
L 1259 1875 
L 1259 0 
L 628 0 
L 628 4666 
z
" transform="scale(0.015625)"/>
        <path id="DejaVuSans-72" d="M 2631 2963 
Q 2534 3019 2420 3045 
Q 2306 3072 2169 3072 
Q 1681 3072 1420 2755 
Q 1159 2438 1159 1844 
L 1159 0 
L 581 0 
L 581 3500 
L 1159 3500 
L 1159 2956 
Q 1341 3275 1631 3429 
Q 1922 3584 2338 3584 
Q 2397 3584 2469 3576 
Q 2541 3569 2628 3553 
L 2631 2963 
z
" transform="scale(0.015625)"/>
        <path id="DejaVuSans-70" d="M 1159 525 
L 1159 -1331 
L 581 -1331 
L 581 3500 
L 1159 3500 
L 1159 2969 
Q 1341 3281 1617 3432 
Q 1894 3584 2278 3584 
Q 2916 3584 3314 3078 
Q 3713 2572 3713 1747 
Q 3713 922 3314 415 
Q 2916 -91 2278 -91 
Q 1894 -91 1617 61 
Q 1341 213 1159 525 
z
M 3116 1747 
Q 3116 2381 2855 2742 
Q 2594 3103 2138 3103 
Q 1681 3103 1420 2742 
Q 1159 2381 1159 1747 
Q 1159 1113 1420 752 
Q 1681 391 2138 391 
Q 2594 391 2855 752 
Q 3116 1113 3116 1747 
z
" transform="scale(0.015625)"/>
        <path id="DejaVuSans-73" d="M 2834 3397 
L 2834 2853 
Q 2591 2978 2328 3040 
Q 2066 3103 1784 3103 
Q 1356 3103 1142 2972 
Q 928 2841 928 2578 
Q 928 2378 1081 2264 
Q 1234 2150 1697 2047 
L 1894 2003 
Q 2506 1872 2764 1633 
Q 3022 1394 3022 966 
Q 3022 478 2636 193 
Q 2250 -91 1575 -91 
Q 1294 -91 989 -36 
Q 684 19 347 128 
L 347 722 
Q 666 556 975 473 
Q 1284 391 1588 391 
Q 1994 391 2212 530 
Q 2431 669 2431 922 
Q 2431 1156 2273 1281 
Q 2116 1406 1581 1522 
L 1381 1569 
Q 847 1681 609 1914 
Q 372 2147 372 2553 
Q 372 3047 722 3315 
Q 1072 3584 1716 3584 
Q 2034 3584 2315 3537 
Q 2597 3491 2834 3397 
z
" transform="scale(0.015625)"/>
        <path id="DejaVuSans-64" d="M 2906 2969 
L 2906 4863 
L 3481 4863 
L 3481 0 
L 2906 0 
L 2906 525 
Q 2725 213 2448 61 
Q 2172 -91 1784 -91 
Q 1150 -91 751 415 
Q 353 922 353 1747 
Q 353 2572 751 3078 
Q 1150 3584 1784 3584 
Q 2172 3584 2448 3432 
Q 2725 3281 2906 2969 
z
M 947 1747 
Q 947 1113 1208 752 
Q 1469 391 1925 391 
Q 2381 391 2643 752 
Q 2906 1113 2906 1747 
Q 2906 2381 2643 2742 
Q 2381 3103 1925 3103 
Q 1469 3103 1208 2742 
Q 947 2381 947 1747 
z
" transform="scale(0.015625)"/>
       </defs>
       <use xlink:href="#DejaVuSans-50"/>
       <use xlink:href="#DejaVuSans-72" x="58.552734"/>
       <use xlink:href="#DejaVuSans-6f" x="97.416016"/>
       <use xlink:href="#DejaVuSans-70" x="158.597656"/>
       <use xlink:href="#DejaVuSans-6f" x="222.074219"/>
       <use xlink:href="#DejaVuSans-73" x="283.255859"/>
       <use xlink:href="#DejaVuSans-65" x="335.355469"/>
       <use xlink:href="#DejaVuSans-64" x="396.878906"/>
      </g>
      <!-- model -->
      <g transform="translate(372.363929 302.8675) scale(0.12 -0.12)">
       <defs>
        <path id="DejaVuSans-6d" d="M 3328 2828 
Q 3544 3216 3844 3400 
Q 4144 3584 4550 3584 
Q 5097 3584 5394 3201 
Q 5691 2819 5691 2113 
L 5691 0 
L 5113 0 
L 5113 2094 
Q 5113 2597 4934 2840 
Q 4756 3084 4391 3084 
Q 3944 3084 3684 2787 
Q 3425 2491 3425 1978 
L 3425 0 
L 2847 0 
L 2847 2094 
Q 2847 2600 2669 2842 
Q 2491 3084 2119 3084 
Q 1678 3084 1418 2786 
Q 1159 2488 1159 1978 
L 1159 0 
L 581 0 
L 581 3500 
L 1159 3500 
L 1159 2956 
Q 1356 3278 1631 3431 
Q 1906 3584 2284 3584 
Q 2666 3584 2933 3390 
Q 3200 3197 3328 2828 
z
" transform="scale(0.015625)"/>
        <path id="DejaVuSans-6c" d="M 603 4863 
L 1178 4863 
L 1178 0 
L 603 0 
L 603 4863 
z
" transform="scale(0.015625)"/>
       </defs>
       <use xlink:href="#DejaVuSans-6d"/>
       <use xlink:href="#DejaVuSans-6f" x="97.412109"/>
       <use xlink:href="#DejaVuSans-64" x="158.59375"/>
       <use xlink:href="#DejaVuSans-65" x="222.070312"/>
       <use xlink:href="#DejaVuSans-6c" x="283.59375"/>
      </g>
     </g>
    </g>
    <g id="text_8">
     <!-- Models -->
     <g transform="translate(211.568984 320.760781) scale(0.15 -0.15)">
      <use xlink:href="#DejaVuSans-4d"/>
      <use xlink:href="#DejaVuSans-6f" x="86.279297"/>
      <use xlink:href="#DejaVuSans-64" x="147.460938"/>
      <use xlink:href="#DejaVuSans-65" x="210.9375"/>
      <use xlink:href="#DejaVuSans-6c" x="272.460938"/>
      <use xlink:href="#DejaVuSans-73" x="300.244141"/>
     </g>
    </g>
   </g>
   <g id="matplotlib.axis_2">
    <g id="ytick_1">
     <g id="line2d_8">
      <defs>
       <path id="m17ed0f1fb2" d="M 0 0 
L -3.5 0 
" style="stroke: #000000; stroke-width: 0.8"/>
      </defs>
      <g>
       <use xlink:href="#m17ed0f1fb2" x="59.435938" y="250.606049" style="stroke: #000000; stroke-width: 0.8"/>
      </g>
     </g>
     <g id="text_9">
      <!-- 0.25 -->
      <g transform="translate(25.717188 255.165112) scale(0.12 -0.12)">
       <defs>
        <path id="DejaVuSans-30" d="M 2034 4250 
Q 1547 4250 1301 3770 
Q 1056 3291 1056 2328 
Q 1056 1369 1301 889 
Q 1547 409 2034 409 
Q 2525 409 2770 889 
Q 3016 1369 3016 2328 
Q 3016 3291 2770 3770 
Q 2525 4250 2034 4250 
z
M 2034 4750 
Q 2819 4750 3233 4129 
Q 3647 3509 3647 2328 
Q 3647 1150 3233 529 
Q 2819 -91 2034 -91 
Q 1250 -91 836 529 
Q 422 1150 422 2328 
Q 422 3509 836 4129 
Q 1250 4750 2034 4750 
z
" transform="scale(0.015625)"/>
        <path id="DejaVuSans-2e" d="M 684 794 
L 1344 794 
L 1344 0 
L 684 0 
L 684 794 
z
" transform="scale(0.015625)"/>
        <path id="DejaVuSans-32" d="M 1228 531 
L 3431 531 
L 3431 0 
L 469 0 
L 469 531 
Q 828 903 1448 1529 
Q 2069 2156 2228 2338 
Q 2531 2678 2651 2914 
Q 2772 3150 2772 3378 
Q 2772 3750 2511 3984 
Q 2250 4219 1831 4219 
Q 1534 4219 1204 4116 
Q 875 4013 500 3803 
L 500 4441 
Q 881 4594 1212 4672 
Q 1544 4750 1819 4750 
Q 2544 4750 2975 4387 
Q 3406 4025 3406 3419 
Q 3406 3131 3298 2873 
Q 3191 2616 2906 2266 
Q 2828 2175 2409 1742 
Q 1991 1309 1228 531 
z
" transform="scale(0.015625)"/>
        <path id="DejaVuSans-35" d="M 691 4666 
L 3169 4666 
L 3169 4134 
L 1269 4134 
L 1269 2991 
Q 1406 3038 1543 3061 
Q 1681 3084 1819 3084 
Q 2600 3084 3056 2656 
Q 3513 2228 3513 1497 
Q 3513 744 3044 326 
Q 2575 -91 1722 -91 
Q 1428 -91 1123 -41 
Q 819 9 494 109 
L 494 744 
Q 775 591 1075 516 
Q 1375 441 1709 441 
Q 2250 441 2565 725 
Q 2881 1009 2881 1497 
Q 2881 1984 2565 2268 
Q 2250 2553 1709 2553 
Q 1456 2553 1204 2497 
Q 953 2441 691 2322 
L 691 4666 
z
" transform="scale(0.015625)"/>
       </defs>
       <use xlink:href="#DejaVuSans-30"/>
       <use xlink:href="#DejaVuSans-2e" x="63.623047"/>
       <use xlink:href="#DejaVuSans-32" x="95.410156"/>
       <use xlink:href="#DejaVuSans-35" x="159.033203"/>
      </g>
     </g>
    </g>
    <g id="ytick_2">
     <g id="line2d_9">
      <g>
       <use xlink:href="#m17ed0f1fb2" x="59.435938" y="216.626485" style="stroke: #000000; stroke-width: 0.8"/>
      </g>
     </g>
     <g id="text_10">
      <!-- 0.30 -->
      <g transform="translate(25.717188 221.185548) scale(0.12 -0.12)">
       <defs>
        <path id="DejaVuSans-33" d="M 2597 2516 
Q 3050 2419 3304 2112 
Q 3559 1806 3559 1356 
Q 3559 666 3084 287 
Q 2609 -91 1734 -91 
Q 1441 -91 1130 -33 
Q 819 25 488 141 
L 488 750 
Q 750 597 1062 519 
Q 1375 441 1716 441 
Q 2309 441 2620 675 
Q 2931 909 2931 1356 
Q 2931 1769 2642 2001 
Q 2353 2234 1838 2234 
L 1294 2234 
L 1294 2753 
L 1863 2753 
Q 2328 2753 2575 2939 
Q 2822 3125 2822 3475 
Q 2822 3834 2567 4026 
Q 2313 4219 1838 4219 
Q 1578 4219 1281 4162 
Q 984 4106 628 3988 
L 628 4550 
Q 988 4650 1302 4700 
Q 1616 4750 1894 4750 
Q 2613 4750 3031 4423 
Q 3450 4097 3450 3541 
Q 3450 3153 3228 2886 
Q 3006 2619 2597 2516 
z
" transform="scale(0.015625)"/>
       </defs>
       <use xlink:href="#DejaVuSans-30"/>
       <use xlink:href="#DejaVuSans-2e" x="63.623047"/>
       <use xlink:href="#DejaVuSans-33" x="95.410156"/>
       <use xlink:href="#DejaVuSans-30" x="159.033203"/>
      </g>
     </g>
    </g>
    <g id="ytick_3">
     <g id="line2d_10">
      <g>
       <use xlink:href="#m17ed0f1fb2" x="59.435938" y="182.646921" style="stroke: #000000; stroke-width: 0.8"/>
      </g>
     </g>
     <g id="text_11">
      <!-- 0.35 -->
      <g transform="translate(25.717188 187.205984) scale(0.12 -0.12)">
       <use xlink:href="#DejaVuSans-30"/>
       <use xlink:href="#DejaVuSans-2e" x="63.623047"/>
       <use xlink:href="#DejaVuSans-33" x="95.410156"/>
       <use xlink:href="#DejaVuSans-35" x="159.033203"/>
      </g>
     </g>
    </g>
    <g id="ytick_4">
     <g id="line2d_11">
      <g>
       <use xlink:href="#m17ed0f1fb2" x="59.435938" y="148.667357" style="stroke: #000000; stroke-width: 0.8"/>
      </g>
     </g>
     <g id="text_12">
      <!-- 0.40 -->
      <g transform="translate(25.717188 153.22642) scale(0.12 -0.12)">
       <defs>
        <path id="DejaVuSans-34" d="M 2419 4116 
L 825 1625 
L 2419 1625 
L 2419 4116 
z
M 2253 4666 
L 3047 4666 
L 3047 1625 
L 3713 1625 
L 3713 1100 
L 3047 1100 
L 3047 0 
L 2419 0 
L 2419 1100 
L 313 1100 
L 313 1709 
L 2253 4666 
z
" transform="scale(0.015625)"/>
       </defs>
       <use xlink:href="#DejaVuSans-30"/>
       <use xlink:href="#DejaVuSans-2e" x="63.623047"/>
       <use xlink:href="#DejaVuSans-34" x="95.410156"/>
       <use xlink:href="#DejaVuSans-30" x="159.033203"/>
      </g>
     </g>
    </g>
    <g id="ytick_5">
     <g id="line2d_12">
      <g>
       <use xlink:href="#m17ed0f1fb2" x="59.435938" y="114.687793" style="stroke: #000000; stroke-width: 0.8"/>
      </g>
     </g>
     <g id="text_13">
      <!-- 0.45 -->
      <g transform="translate(25.717188 119.246856) scale(0.12 -0.12)">
       <use xlink:href="#DejaVuSans-30"/>
       <use xlink:href="#DejaVuSans-2e" x="63.623047"/>
       <use xlink:href="#DejaVuSans-34" x="95.410156"/>
       <use xlink:href="#DejaVuSans-35" x="159.033203"/>
      </g>
     </g>
    </g>
    <g id="ytick_6">
     <g id="line2d_13">
      <g>
       <use xlink:href="#m17ed0f1fb2" x="59.435938" y="80.708229" style="stroke: #000000; stroke-width: 0.8"/>
      </g>
     </g>
     <g id="text_14">
      <!-- 0.50 -->
      <g transform="translate(25.717188 85.267292) scale(0.12 -0.12)">
       <use xlink:href="#DejaVuSans-30"/>
       <use xlink:href="#DejaVuSans-2e" x="63.623047"/>
       <use xlink:href="#DejaVuSans-35" x="95.410156"/>
       <use xlink:href="#DejaVuSans-30" x="159.033203"/>
      </g>
     </g>
    </g>
    <g id="ytick_7">
     <g id="line2d_14">
      <g>
       <use xlink:href="#m17ed0f1fb2" x="59.435938" y="46.728665" style="stroke: #000000; stroke-width: 0.8"/>
      </g>
     </g>
     <g id="text_15">
      <!-- 0.55 -->
      <g transform="translate(25.717188 51.287728) scale(0.12 -0.12)">
       <use xlink:href="#DejaVuSans-30"/>
       <use xlink:href="#DejaVuSans-2e" x="63.623047"/>
       <use xlink:href="#DejaVuSans-35" x="95.410156"/>
       <use xlink:href="#DejaVuSans-35" x="159.033203"/>
      </g>
     </g>
    </g>
    <g id="ytick_8">
     <g id="line2d_15">
      <g>
       <use xlink:href="#m17ed0f1fb2" x="59.435938" y="12.749101" style="stroke: #000000; stroke-width: 0.8"/>
      </g>
     </g>
     <g id="text_16">
      <!-- 0.60 -->
      <g transform="translate(25.717188 17.308164) scale(0.12 -0.12)">
       <defs>
        <path id="DejaVuSans-36" d="M 2113 2584 
Q 1688 2584 1439 2293 
Q 1191 2003 1191 1497 
Q 1191 994 1439 701 
Q 1688 409 2113 409 
Q 2538 409 2786 701 
Q 3034 994 3034 1497 
Q 3034 2003 2786 2293 
Q 2538 2584 2113 2584 
z
M 3366 4563 
L 3366 3988 
Q 3128 4100 2886 4159 
Q 2644 4219 2406 4219 
Q 1781 4219 1451 3797 
Q 1122 3375 1075 2522 
Q 1259 2794 1537 2939 
Q 1816 3084 2150 3084 
Q 2853 3084 3261 2657 
Q 3669 2231 3669 1497 
Q 3669 778 3244 343 
Q 2819 -91 2113 -91 
Q 1303 -91 875 529 
Q 447 1150 447 2328 
Q 447 3434 972 4092 
Q 1497 4750 2381 4750 
Q 2619 4750 2861 4703 
Q 3103 4656 3366 4563 
z
" transform="scale(0.015625)"/>
       </defs>
       <use xlink:href="#DejaVuSans-30"/>
       <use xlink:href="#DejaVuSans-2e" x="63.623047"/>
       <use xlink:href="#DejaVuSans-36" x="95.410156"/>
       <use xlink:href="#DejaVuSans-30" x="159.033203"/>
      </g>
     </g>
    </g>
    <g id="text_17">
     <!-- KTC -->
     <g transform="translate(18.597656 153.970453) rotate(-90) scale(0.15 -0.15)">
      <use xlink:href="#DejaVuSans-4b"/>
      <use xlink:href="#DejaVuSans-54" x="57.826172"/>
      <use xlink:href="#DejaVuSans-43" x="113.035156"/>
     </g>
    </g>
   </g>
   <g id="patch_5">
    <path d="M 64.537652 116.63774 
L 84.944509 116.63774 
L 84.944509 93.862691 
L 64.537652 93.862691 
L 64.537652 116.63774 
z
" clip-path="url(#peeb16e2064)" style="fill: #b4d4df; stroke: #737373; stroke-linejoin: miter"/>
   </g>
   <g id="line2d_16">
    <path d="M 74.74108 116.63774 
L 74.74108 119.816357 
" clip-path="url(#peeb16e2064)" style="fill: none; stroke: #737373"/>
   </g>
   <g id="line2d_17">
    <path d="M 74.74108 93.862691 
L 74.74108 90.427045 
" clip-path="url(#peeb16e2064)" style="fill: none; stroke: #737373"/>
   </g>
   <g id="line2d_18">
    <path d="M 69.639366 119.816357 
L 79.842795 119.816357 
" clip-path="url(#peeb16e2064)" style="fill: none; stroke: #737373; stroke-linecap: square"/>
   </g>
   <g id="line2d_19">
    <path d="M 69.639366 90.427045 
L 79.842795 90.427045 
" clip-path="url(#peeb16e2064)" style="fill: none; stroke: #737373; stroke-linecap: square"/>
   </g>
   <g id="patch_6">
    <path d="M 115.554795 81.067007 
L 135.961652 81.067007 
L 135.961652 65.940206 
L 115.554795 65.940206 
L 115.554795 81.067007 
z
" clip-path="url(#peeb16e2064)" style="fill: #b4d4df; stroke: #737373; stroke-linejoin: miter"/>
   </g>
   <g id="line2d_20">
    <path d="M 125.758223 81.067007 
L 125.758223 82.993989 
" clip-path="url(#peeb16e2064)" style="fill: none; stroke: #737373"/>
   </g>
   <g id="line2d_21">
    <path d="M 125.758223 65.940206 
L 125.758223 62.874639 
" clip-path="url(#peeb16e2064)" style="fill: none; stroke: #737373"/>
   </g>
   <g id="line2d_22">
    <path d="M 120.656509 82.993989 
L 130.859938 82.993989 
" clip-path="url(#peeb16e2064)" style="fill: none; stroke: #737373; stroke-linecap: square"/>
   </g>
   <g id="line2d_23">
    <path d="M 120.656509 62.874639 
L 130.859938 62.874639 
" clip-path="url(#peeb16e2064)" style="fill: none; stroke: #737373; stroke-linecap: square"/>
   </g>
   <g id="patch_7">
    <path d="M 166.571937 196.999032 
L 186.978795 196.999032 
L 186.978795 173.683878 
L 166.571937 173.683878 
L 166.571937 196.999032 
z
" clip-path="url(#peeb16e2064)" style="fill: #b4d4df; stroke: #737373; stroke-linejoin: miter"/>
   </g>
   <g id="line2d_24">
    <path d="M 176.775366 196.999032 
L 176.775366 202.457425 
" clip-path="url(#peeb16e2064)" style="fill: none; stroke: #737373"/>
   </g>
   <g id="line2d_25">
    <path d="M 176.775366 173.683878 
L 176.775366 159.493758 
" clip-path="url(#peeb16e2064)" style="fill: none; stroke: #737373"/>
   </g>
   <g id="line2d_26">
    <path d="M 171.673652 202.457425 
L 181.87708 202.457425 
" clip-path="url(#peeb16e2064)" style="fill: none; stroke: #737373; stroke-linecap: square"/>
   </g>
   <g id="line2d_27">
    <path d="M 171.673652 159.493758 
L 181.87708 159.493758 
" clip-path="url(#peeb16e2064)" style="fill: none; stroke: #737373; stroke-linecap: square"/>
   </g>
   <g id="patch_8">
    <path d="M 217.58908 127.508404 
L 237.995937 127.508404 
L 237.995937 114.419073 
L 217.58908 114.419073 
L 217.58908 127.508404 
z
" clip-path="url(#peeb16e2064)" style="fill: #b4d4df; stroke: #737373; stroke-linejoin: miter"/>
   </g>
   <g id="line2d_28">
    <path d="M 227.792509 127.508404 
L 227.792509 142.20611 
" clip-path="url(#peeb16e2064)" style="fill: none; stroke: #737373"/>
   </g>
   <g id="line2d_29">
    <path d="M 227.792509 114.419073 
L 227.792509 100.384464 
" clip-path="url(#peeb16e2064)" style="fill: none; stroke: #737373"/>
   </g>
   <g id="line2d_30">
    <path d="M 222.690795 142.20611 
L 232.894223 142.20611 
" clip-path="url(#peeb16e2064)" style="fill: none; stroke: #737373; stroke-linecap: square"/>
   </g>
   <g id="line2d_31">
    <path d="M 222.690795 100.384464 
L 232.894223 100.384464 
" clip-path="url(#peeb16e2064)" style="fill: none; stroke: #737373; stroke-linecap: square"/>
   </g>
   <g id="patch_9">
    <path d="M 268.606223 66.164976 
L 289.01308 66.164976 
L 289.01308 38.913366 
L 268.606223 38.913366 
L 268.606223 66.164976 
z
" clip-path="url(#peeb16e2064)" style="fill: #b4d4df; stroke: #737373; stroke-linejoin: miter"/>
   </g>
   <g id="line2d_32">
    <path d="M 278.809652 66.164976 
L 278.809652 78.125782 
" clip-path="url(#peeb16e2064)" style="fill: none; stroke: #737373"/>
   </g>
   <g id="line2d_33">
    <path d="M 278.809652 38.913366 
L 278.809652 34.6999 
" clip-path="url(#peeb16e2064)" style="fill: none; stroke: #737373"/>
   </g>
   <g id="line2d_34">
    <path d="M 273.707937 78.125782 
L 283.911366 78.125782 
" clip-path="url(#peeb16e2064)" style="fill: none; stroke: #737373; stroke-linecap: square"/>
   </g>
   <g id="line2d_35">
    <path d="M 273.707937 34.6999 
L 283.911366 34.6999 
" clip-path="url(#peeb16e2064)" style="fill: none; stroke: #737373; stroke-linecap: square"/>
   </g>
   <g id="patch_10">
    <path d="M 319.623366 59.029268 
L 340.030223 59.029268 
L 340.030223 30.554393 
L 319.623366 30.554393 
L 319.623366 59.029268 
z
" clip-path="url(#peeb16e2064)" style="fill: #b4d4df; stroke: #737373; stroke-linejoin: miter"/>
   </g>
   <g id="line2d_36">
    <path d="M 329.826795 59.029268 
L 329.826795 65.961099 
" clip-path="url(#peeb16e2064)" style="fill: none; stroke: #737373"/>
   </g>
   <g id="line2d_37">
    <path d="M 329.826795 30.554393 
L 329.826795 24.370112 
" clip-path="url(#peeb16e2064)" style="fill: none; stroke: #737373"/>
   </g>
   <g id="line2d_38">
    <path d="M 324.72508 65.961099 
L 334.928509 65.961099 
" clip-path="url(#peeb16e2064)" style="fill: none; stroke: #737373; stroke-linecap: square"/>
   </g>
   <g id="line2d_39">
    <path d="M 324.72508 24.370112 
L 334.928509 24.370112 
" clip-path="url(#peeb16e2064)" style="fill: none; stroke: #737373; stroke-linecap: square"/>
   </g>
   <g id="patch_11">
    <path d="M 370.640509 30.201235 
L 391.047366 30.201235 
L 391.047366 19.554335 
L 370.640509 19.554335 
L 370.640509 30.201235 
z
" clip-path="url(#peeb16e2064)" style="fill: #b4d4df; stroke: #737373; stroke-linejoin: miter"/>
   </g>
   <g id="line2d_40">
    <path d="M 380.843938 30.201235 
L 380.843938 35.569946 
" clip-path="url(#peeb16e2064)" style="fill: none; stroke: #737373"/>
   </g>
   <g id="line2d_41">
    <path d="M 380.843938 19.554335 
L 380.843938 19.296 
" clip-path="url(#peeb16e2064)" style="fill: none; stroke: #737373"/>
   </g>
   <g id="line2d_42">
    <path d="M 375.742223 35.569946 
L 385.945652 35.569946 
" clip-path="url(#peeb16e2064)" style="fill: none; stroke: #737373; stroke-linecap: square"/>
   </g>
   <g id="line2d_43">
    <path d="M 375.742223 19.296 
L 385.945652 19.296 
" clip-path="url(#peeb16e2064)" style="fill: none; stroke: #737373; stroke-linecap: square"/>
   </g>
   <g id="patch_12">
    <path d="M 84.944509 153.274026 
L 105.351366 153.274026 
L 105.351366 149.815147 
L 84.944509 149.815147 
L 84.944509 153.274026 
z
" clip-path="url(#peeb16e2064)" style="fill: #9ce29c; stroke: #737373; stroke-linejoin: miter"/>
   </g>
   <g id="line2d_44">
    <path d="M 95.147937 153.274026 
L 95.147937 153.274026 
" clip-path="url(#peeb16e2064)" style="fill: none; stroke: #737373"/>
   </g>
   <g id="line2d_45">
    <path d="M 95.147937 149.815147 
L 95.147937 145.074895 
" clip-path="url(#peeb16e2064)" style="fill: none; stroke: #737373"/>
   </g>
   <g id="line2d_46">
    <path d="M 90.046223 153.274026 
L 100.249652 153.274026 
" clip-path="url(#peeb16e2064)" style="fill: none; stroke: #737373; stroke-linecap: square"/>
   </g>
   <g id="line2d_47">
    <path d="M 90.046223 145.074895 
L 100.249652 145.074895 
" clip-path="url(#peeb16e2064)" style="fill: none; stroke: #737373; stroke-linecap: square"/>
   </g>
   <g id="patch_13">
    <path d="M 135.961652 132.410186 
L 156.368509 132.410186 
L 156.368509 96.48308 
L 135.961652 96.48308 
L 135.961652 132.410186 
z
" clip-path="url(#peeb16e2064)" style="fill: #9ce29c; stroke: #737373; stroke-linejoin: miter"/>
   </g>
   <g id="line2d_48">
    <path d="M 146.16508 132.410186 
L 146.16508 135.058014 
" clip-path="url(#peeb16e2064)" style="fill: none; stroke: #737373"/>
   </g>
   <g id="line2d_49">
    <path d="M 146.16508 96.48308 
L 146.16508 80.725848 
" clip-path="url(#peeb16e2064)" style="fill: none; stroke: #737373"/>
   </g>
   <g id="line2d_50">
    <path d="M 141.063366 135.058014 
L 151.266795 135.058014 
" clip-path="url(#peeb16e2064)" style="fill: none; stroke: #737373; stroke-linecap: square"/>
   </g>
   <g id="line2d_51">
    <path d="M 141.063366 80.725848 
L 151.266795 80.725848 
" clip-path="url(#peeb16e2064)" style="fill: none; stroke: #737373; stroke-linecap: square"/>
   </g>
   <g id="patch_14">
    <path d="M 186.978795 251.081821 
L 207.385652 251.081821 
L 207.385652 224.983997 
L 186.978795 224.983997 
L 186.978795 251.081821 
z
" clip-path="url(#peeb16e2064)" style="fill: #9ce29c; stroke: #737373; stroke-linejoin: miter"/>
   </g>
   <g id="line2d_52">
    <path d="M 197.182223 251.081821 
L 197.182223 261.216 
" clip-path="url(#peeb16e2064)" style="fill: none; stroke: #737373"/>
   </g>
   <g id="line2d_53">
    <path d="M 197.182223 224.983997 
L 197.182223 224.983997 
" clip-path="url(#peeb16e2064)" style="fill: none; stroke: #737373"/>
   </g>
   <g id="line2d_54">
    <path d="M 192.080509 261.216 
L 202.283938 261.216 
" clip-path="url(#peeb16e2064)" style="fill: none; stroke: #737373; stroke-linecap: square"/>
   </g>
   <g id="line2d_55">
    <path d="M 192.080509 224.983997 
L 202.283938 224.983997 
" clip-path="url(#peeb16e2064)" style="fill: none; stroke: #737373; stroke-linecap: square"/>
   </g>
   <g id="patch_15">
    <path d="M 237.995937 166.628433 
L 258.402795 166.628433 
L 258.402795 159.963242 
L 237.995937 159.963242 
L 237.995937 166.628433 
z
" clip-path="url(#peeb16e2064)" style="fill: #9ce29c; stroke: #737373; stroke-linejoin: miter"/>
   </g>
   <g id="line2d_56">
    <path d="M 248.199366 166.628433 
L 248.199366 176.056369 
" clip-path="url(#peeb16e2064)" style="fill: none; stroke: #737373"/>
   </g>
   <g id="line2d_57">
    <path d="M 248.199366 159.963242 
L 248.199366 155.279033 
" clip-path="url(#peeb16e2064)" style="fill: none; stroke: #737373"/>
   </g>
   <g id="line2d_58">
    <path d="M 243.097652 176.056369 
L 253.30108 176.056369 
" clip-path="url(#peeb16e2064)" style="fill: none; stroke: #737373; stroke-linecap: square"/>
   </g>
   <g id="line2d_59">
    <path d="M 243.097652 155.279033 
L 253.30108 155.279033 
" clip-path="url(#peeb16e2064)" style="fill: none; stroke: #737373; stroke-linecap: square"/>
   </g>
   <g id="patch_16">
    <path d="M 289.01308 115.911058 
L 309.419938 115.911058 
L 309.419938 73.708439 
L 289.01308 73.708439 
L 289.01308 115.911058 
z
" clip-path="url(#peeb16e2064)" style="fill: #9ce29c; stroke: #737373; stroke-linejoin: miter"/>
   </g>
   <g id="line2d_60">
    <path d="M 299.216509 115.911058 
L 299.216509 118.969218 
" clip-path="url(#peeb16e2064)" style="fill: none; stroke: #737373"/>
   </g>
   <g id="line2d_61">
    <path d="M 299.216509 73.708439 
L 299.216509 63.854366 
" clip-path="url(#peeb16e2064)" style="fill: none; stroke: #737373"/>
   </g>
   <g id="line2d_62">
    <path d="M 294.114795 118.969218 
L 304.318223 118.969218 
" clip-path="url(#peeb16e2064)" style="fill: none; stroke: #737373; stroke-linecap: square"/>
   </g>
   <g id="line2d_63">
    <path d="M 294.114795 63.854366 
L 304.318223 63.854366 
" clip-path="url(#peeb16e2064)" style="fill: none; stroke: #737373; stroke-linecap: square"/>
   </g>
   <g id="patch_17">
    <path d="M 340.030223 107.008412 
L 360.43708 107.008412 
L 360.43708 73.776398 
L 340.030223 73.776398 
L 340.030223 107.008412 
z
" clip-path="url(#peeb16e2064)" style="fill: #9ce29c; stroke: #737373; stroke-linejoin: miter"/>
   </g>
   <g id="line2d_64">
    <path d="M 350.233652 107.008412 
L 350.233652 108.979227 
" clip-path="url(#peeb16e2064)" style="fill: none; stroke: #737373"/>
   </g>
   <g id="line2d_65">
    <path d="M 350.233652 73.776398 
L 350.233652 59.301104 
" clip-path="url(#peeb16e2064)" style="fill: none; stroke: #737373"/>
   </g>
   <g id="line2d_66">
    <path d="M 345.131938 108.979227 
L 355.335366 108.979227 
" clip-path="url(#peeb16e2064)" style="fill: none; stroke: #737373; stroke-linecap: square"/>
   </g>
   <g id="line2d_67">
    <path d="M 345.131938 59.301104 
L 355.335366 59.301104 
" clip-path="url(#peeb16e2064)" style="fill: none; stroke: #737373; stroke-linecap: square"/>
   </g>
   <g id="patch_18">
    <path d="M 391.047366 72.852785 
L 411.454223 72.852785 
L 411.454223 61.864825 
L 391.047366 61.864825 
L 391.047366 72.852785 
z
" clip-path="url(#peeb16e2064)" style="fill: #9ce29c; stroke: #737373; stroke-linejoin: miter"/>
   </g>
   <g id="line2d_68">
    <path d="M 401.250795 72.852785 
L 401.250795 73.265827 
" clip-path="url(#peeb16e2064)" style="fill: none; stroke: #737373"/>
   </g>
   <g id="line2d_69">
    <path d="M 401.250795 61.864825 
L 401.250795 53.000926 
" clip-path="url(#peeb16e2064)" style="fill: none; stroke: #737373"/>
   </g>
   <g id="line2d_70">
    <path d="M 396.14908 73.265827 
L 406.352509 73.265827 
" clip-path="url(#peeb16e2064)" style="fill: none; stroke: #737373; stroke-linecap: square"/>
   </g>
   <g id="line2d_71">
    <path d="M 396.14908 53.000926 
L 406.352509 53.000926 
" clip-path="url(#peeb16e2064)" style="fill: none; stroke: #737373; stroke-linecap: square"/>
   </g>
   <g id="line2d_72">
    <path d="M 64.537652 111.816524 
L 84.944509 111.816524 
" clip-path="url(#peeb16e2064)" style="fill: none; stroke: #737373"/>
   </g>
   <g id="line2d_73">
    <path d="M 115.554795 66.080308 
L 135.961652 66.080308 
" clip-path="url(#peeb16e2064)" style="fill: none; stroke: #737373"/>
   </g>
   <g id="line2d_74">
    <path d="M 166.571937 180.36326 
L 186.978795 180.36326 
" clip-path="url(#peeb16e2064)" style="fill: none; stroke: #737373"/>
   </g>
   <g id="line2d_75">
    <path d="M 217.58908 119.937819 
L 237.995937 119.937819 
" clip-path="url(#peeb16e2064)" style="fill: none; stroke: #737373"/>
   </g>
   <g id="line2d_76">
    <path d="M 268.606223 58.621513 
L 289.01308 58.621513 
" clip-path="url(#peeb16e2064)" style="fill: none; stroke: #737373"/>
   </g>
   <g id="line2d_77">
    <path d="M 319.623366 45.913156 
L 340.030223 45.913156 
" clip-path="url(#peeb16e2064)" style="fill: none; stroke: #737373"/>
   </g>
   <g id="line2d_78">
    <path d="M 370.640509 28.211086 
L 391.047366 28.211086 
" clip-path="url(#peeb16e2064)" style="fill: none; stroke: #737373"/>
   </g>
   <g id="line2d_79">
    <path d="M 84.944509 149.865789 
L 105.351366 149.865789 
" clip-path="url(#peeb16e2064)" style="fill: none; stroke: #737373"/>
   </g>
   <g id="line2d_80">
    <path d="M 135.961652 103.035335 
L 156.368509 103.035335 
" clip-path="url(#peeb16e2064)" style="fill: none; stroke: #737373"/>
   </g>
   <g id="line2d_81">
    <path d="M 186.978795 248.534765 
L 207.385652 248.534765 
" clip-path="url(#peeb16e2064)" style="fill: none; stroke: #737373"/>
   </g>
   <g id="line2d_82">
    <path d="M 237.995937 160.915779 
L 258.402795 160.915779 
" clip-path="url(#peeb16e2064)" style="fill: none; stroke: #737373"/>
   </g>
   <g id="line2d_83">
    <path d="M 289.01308 93.14475 
L 309.419938 93.14475 
" clip-path="url(#peeb16e2064)" style="fill: none; stroke: #737373"/>
   </g>
   <g id="line2d_84">
    <path d="M 340.030223 79.484965 
L 360.43708 79.484965 
" clip-path="url(#peeb16e2064)" style="fill: none; stroke: #737373"/>
   </g>
   <g id="line2d_85">
    <path d="M 391.047366 67.117547 
L 411.454223 67.117547 
" clip-path="url(#peeb16e2064)" style="fill: none; stroke: #737373"/>
   </g>
   <g id="patch_19">
    <path d="M 59.435938 273.312 
L 59.435938 7.2 
" style="fill: none; stroke: #000000; stroke-width: 0.8; stroke-linejoin: miter; stroke-linecap: square"/>
   </g>
   <g id="patch_20">
    <path d="M 416.555938 273.312 
L 416.555938 7.2 
" style="fill: none; stroke: #000000; stroke-width: 0.8; stroke-linejoin: miter; stroke-linecap: square"/>
   </g>
   <g id="patch_21">
    <path d="M 59.435937 273.312 
L 416.555938 273.312 
" style="fill: none; stroke: #000000; stroke-width: 0.8; stroke-linejoin: miter; stroke-linecap: square"/>
   </g>
   <g id="patch_22">
    <path d="M 59.435937 7.2 
L 416.555938 7.2 
" style="fill: none; stroke: #000000; stroke-width: 0.8; stroke-linejoin: miter; stroke-linecap: square"/>
   </g>
   <g id="legend_1">
    <g id="patch_23">
     <path d="M 66.435937 59.234375 
L 145.192187 59.234375 
Q 147.192187 59.234375 147.192187 57.234375 
L 147.192187 14.2 
Q 147.192187 12.2 145.192187 12.2 
L 66.435937 12.2 
Q 64.435937 12.2 64.435937 14.2 
L 64.435937 57.234375 
Q 64.435937 59.234375 66.435937 59.234375 
z
" style="fill: #ffffff; opacity: 0.8; stroke: #cccccc; stroke-linejoin: miter"/>
    </g>
    <g id="text_18">
     <!-- species -->
     <g transform="translate(87.139062 23.798437) scale(0.1 -0.1)">
      <defs>
       <path id="DejaVuSans-63" d="M 3122 3366 
L 3122 2828 
Q 2878 2963 2633 3030 
Q 2388 3097 2138 3097 
Q 1578 3097 1268 2742 
Q 959 2388 959 1747 
Q 959 1106 1268 751 
Q 1578 397 2138 397 
Q 2388 397 2633 464 
Q 2878 531 3122 666 
L 3122 134 
Q 2881 22 2623 -34 
Q 2366 -91 2075 -91 
Q 1284 -91 818 406 
Q 353 903 353 1747 
Q 353 2603 823 3093 
Q 1294 3584 2113 3584 
Q 2378 3584 2631 3529 
Q 2884 3475 3122 3366 
z
" transform="scale(0.015625)"/>
      </defs>
      <use xlink:href="#DejaVuSans-73"/>
      <use xlink:href="#DejaVuSans-70" x="52.099609"/>
      <use xlink:href="#DejaVuSans-65" x="115.576172"/>
      <use xlink:href="#DejaVuSans-63" x="177.099609"/>
      <use xlink:href="#DejaVuSans-69" x="232.080078"/>
      <use xlink:href="#DejaVuSans-65" x="259.863281"/>
      <use xlink:href="#DejaVuSans-73" x="321.386719"/>
     </g>
    </g>
    <g id="patch_24">
     <path d="M 68.435937 38.476562 
L 88.435937 38.476562 
L 88.435937 31.476562 
L 68.435937 31.476562 
z
" style="fill: #b4d4df; stroke: #737373; stroke-linejoin: miter"/>
    </g>
    <g id="text_19">
     <!-- E. coli -->
     <g transform="translate(96.435937 38.476562) scale(0.1 -0.1)">
      <defs>
       <path id="DejaVuSans-45" d="M 628 4666 
L 3578 4666 
L 3578 4134 
L 1259 4134 
L 1259 2753 
L 3481 2753 
L 3481 2222 
L 1259 2222 
L 1259 531 
L 3634 531 
L 3634 0 
L 628 0 
L 628 4666 
z
" transform="scale(0.015625)"/>
       <path id="DejaVuSans-20" transform="scale(0.015625)"/>
      </defs>
      <use xlink:href="#DejaVuSans-45"/>
      <use xlink:href="#DejaVuSans-2e" x="63.183594"/>
      <use xlink:href="#DejaVuSans-20" x="94.970703"/>
      <use xlink:href="#DejaVuSans-63" x="126.757812"/>
      <use xlink:href="#DejaVuSans-6f" x="181.738281"/>
      <use xlink:href="#DejaVuSans-6c" x="242.919922"/>
      <use xlink:href="#DejaVuSans-69" x="270.703125"/>
     </g>
    </g>
    <g id="patch_25">
     <path d="M 68.435937 53.154687 
L 88.435937 53.154687 
L 88.435937 46.154687 
L 68.435937 46.154687 
z
" style="fill: #9ce29c; stroke: #737373; stroke-linejoin: miter"/>
    </g>
    <g id="text_20">
     <!-- S. aureus -->
     <g transform="translate(96.435937 53.154687) scale(0.1 -0.1)">
      <defs>
       <path id="DejaVuSans-61" d="M 2194 1759 
Q 1497 1759 1228 1600 
Q 959 1441 959 1056 
Q 959 750 1161 570 
Q 1363 391 1709 391 
Q 2188 391 2477 730 
Q 2766 1069 2766 1631 
L 2766 1759 
L 2194 1759 
z
M 3341 1997 
L 3341 0 
L 2766 0 
L 2766 531 
Q 2569 213 2275 61 
Q 1981 -91 1556 -91 
Q 1019 -91 701 211 
Q 384 513 384 1019 
Q 384 1609 779 1909 
Q 1175 2209 1959 2209 
L 2766 2209 
L 2766 2266 
Q 2766 2663 2505 2880 
Q 2244 3097 1772 3097 
Q 1472 3097 1187 3025 
Q 903 2953 641 2809 
L 641 3341 
Q 956 3463 1253 3523 
Q 1550 3584 1831 3584 
Q 2591 3584 2966 3190 
Q 3341 2797 3341 1997 
z
" transform="scale(0.015625)"/>
       <path id="DejaVuSans-75" d="M 544 1381 
L 544 3500 
L 1119 3500 
L 1119 1403 
Q 1119 906 1312 657 
Q 1506 409 1894 409 
Q 2359 409 2629 706 
Q 2900 1003 2900 1516 
L 2900 3500 
L 3475 3500 
L 3475 0 
L 2900 0 
L 2900 538 
Q 2691 219 2414 64 
Q 2138 -91 1772 -91 
Q 1169 -91 856 284 
Q 544 659 544 1381 
z
M 1991 3584 
L 1991 3584 
z
" transform="scale(0.015625)"/>
      </defs>
      <use xlink:href="#DejaVuSans-53"/>
      <use xlink:href="#DejaVuSans-2e" x="63.476562"/>
      <use xlink:href="#DejaVuSans-20" x="95.263672"/>
      <use xlink:href="#DejaVuSans-61" x="127.050781"/>
      <use xlink:href="#DejaVuSans-75" x="188.330078"/>
      <use xlink:href="#DejaVuSans-72" x="251.708984"/>
      <use xlink:href="#DejaVuSans-65" x="290.572266"/>
      <use xlink:href="#DejaVuSans-75" x="352.095703"/>
      <use xlink:href="#DejaVuSans-73" x="415.474609"/>
     </g>
    </g>
   </g>
  </g>
 </g>
 <defs>
  <clipPath id="peeb16e2064">
   <rect x="59.435938" y="7.2" width="357.12" height="266.112"/>
  </clipPath>
 </defs>
</svg>
