<?xml version="1.0" encoding="utf-8" standalone="no"?>
<!DOCTYPE svg PUBLIC "-//W3C//DTD SVG 1.1//EN"
  "http://www.w3.org/Graphics/SVG/1.1/DTD/svg11.dtd">
<svg xmlns:xlink="http://www.w3.org/1999/xlink" width="418.234866pt" height="331.080312pt" viewBox="0 0 418.234866 331.080312" xmlns="http://www.w3.org/2000/svg" version="1.1">
 <metadata>
  <rdf:RDF xmlns:dc="http://purl.org/dc/elements/1.1/" xmlns:cc="http://creativecommons.org/ns#" xmlns:rdf="http://www.w3.org/1999/02/22-rdf-syntax-ns#">
   <cc:Work>
    <dc:type rdf:resource="http://purl.org/dc/dcmitype/StillImage"/>
    <dc:date>2024-03-02T18:58:20.304374</dc:date>
    <dc:format>image/svg+xml</dc:format>
    <dc:creator>
     <cc:Agent>
      <dc:title>Matplotlib v3.7.1, https://matplotlib.org/</dc:title>
     </cc:Agent>
    </dc:creator>
   </cc:Work>
  </rdf:RDF>
 </metadata>
 <defs>
  <style type="text/css">*{stroke-linejoin: round; stroke-linecap: butt}</style>
 </defs>
 <g id="figure_1">
  <g id="patch_1">
   <path d="M 0 331.080312 
L 418.234866 331.080312 
L 418.234866 0 
L 0 0 
z
" style="fill: #ffffff"/>
  </g>
  <g id="axes_1">
   <g id="patch_2">
    <path d="M 51.800937 273.312 
L 408.920938 273.312 
L 408.920938 7.2 
L 51.800937 7.2 
z
" style="fill: #ffffff"/>
   </g>
   <g id="patch_3">
    <path d="M 77.309509 465.633768 
L 77.309509 465.633768 
L 77.309509 465.633768 
L 77.309509 465.633768 
z
" clip-path="url(#pf5b476db4c)" style="fill: #b4d4df; stroke: #737373; stroke-linejoin: miter"/>
   </g>
   <g id="patch_4">
    <path d="M 77.309509 465.633768 
L 77.309509 465.633768 
L 77.309509 465.633768 
L 77.309509 465.633768 
z
" clip-path="url(#pf5b476db4c)" style="fill: #9ce29c; stroke: #737373; stroke-linejoin: miter"/>
   </g>
   <g id="matplotlib.axis_1">
    <g id="xtick_1">
     <g id="line2d_1">
      <defs>
       <path id="mc53ea3e46a" d="M 0 0 
L 0 3.5 
" style="stroke: #000000; stroke-width: 0.8"/>
      </defs>
      <g>
       <use xlink:href="#mc53ea3e46a" x="77.309509" y="273.312" style="stroke: #000000; stroke-width: 0.8"/>
      </g>
     </g>
     <g id="text_1">
      <!-- SVM -->
      <g transform="translate(64.219196 289.430125) scale(0.12 -0.12)">
       <defs>
        <path id="DejaVuSans-53" d="M 3425 4513 
L 3425 3897 
Q 3066 4069 2747 4153 
Q 2428 4238 2131 4238 
Q 1616 4238 1336 4038 
Q 1056 3838 1056 3469 
Q 1056 3159 1242 3001 
Q 1428 2844 1947 2747 
L 2328 2669 
Q 3034 2534 3370 2195 
Q 3706 1856 3706 1288 
Q 3706 609 3251 259 
Q 2797 -91 1919 -91 
Q 1588 -91 1214 -16 
Q 841 59 441 206 
L 441 856 
Q 825 641 1194 531 
Q 1563 422 1919 422 
Q 2459 422 2753 634 
Q 3047 847 3047 1241 
Q 3047 1584 2836 1778 
Q 2625 1972 2144 2069 
L 1759 2144 
Q 1053 2284 737 2584 
Q 422 2884 422 3419 
Q 422 4038 858 4394 
Q 1294 4750 2059 4750 
Q 2388 4750 2728 4690 
Q 3069 4631 3425 4513 
z
" transform="scale(0.015625)"/>
        <path id="DejaVuSans-56" d="M 1831 0 
L 50 4666 
L 709 4666 
L 2188 738 
L 3669 4666 
L 4325 4666 
L 2547 0 
L 1831 0 
z
" transform="scale(0.015625)"/>
        <path id="DejaVuSans-4d" d="M 628 4666 
L 1569 4666 
L 2759 1491 
L 3956 4666 
L 4897 4666 
L 4897 0 
L 4281 0 
L 4281 4097 
L 3078 897 
L 2444 897 
L 1241 4097 
L 1241 0 
L 628 0 
L 628 4666 
z
" transform="scale(0.015625)"/>
       </defs>
       <use xlink:href="#DejaVuSans-53"/>
       <use xlink:href="#DejaVuSans-56" x="63.476562"/>
       <use xlink:href="#DejaVuSans-4d" x="131.884766"/>
      </g>
     </g>
    </g>
    <g id="xtick_2">
     <g id="line2d_2">
      <g>
       <use xlink:href="#mc53ea3e46a" x="128.326652" y="273.312" style="stroke: #000000; stroke-width: 0.8"/>
      </g>
     </g>
     <g id="text_2">
      <!-- RF -->
      <g transform="translate(120.706652 289.430125) scale(0.12 -0.12)">
       <defs>
        <path id="DejaVuSans-52" d="M 2841 2188 
Q 3044 2119 3236 1894 
Q 3428 1669 3622 1275 
L 4263 0 
L 3584 0 
L 2988 1197 
Q 2756 1666 2539 1819 
Q 2322 1972 1947 1972 
L 1259 1972 
L 1259 0 
L 628 0 
L 628 4666 
L 2053 4666 
Q 2853 4666 3247 4331 
Q 3641 3997 3641 3322 
Q 3641 2881 3436 2590 
Q 3231 2300 2841 2188 
z
M 1259 4147 
L 1259 2491 
L 2053 2491 
Q 2509 2491 2742 2702 
Q 2975 2913 2975 3322 
Q 2975 3731 2742 3939 
Q 2509 4147 2053 4147 
L 1259 4147 
z
" transform="scale(0.015625)"/>
        <path id="DejaVuSans-46" d="M 628 4666 
L 3309 4666 
L 3309 4134 
L 1259 4134 
L 1259 2759 
L 3109 2759 
L 3109 2228 
L 1259 2228 
L 1259 0 
L 628 0 
L 628 4666 
z
" transform="scale(0.015625)"/>
       </defs>
       <use xlink:href="#DejaVuSans-52"/>
       <use xlink:href="#DejaVuSans-46" x="69.482422"/>
      </g>
     </g>
    </g>
    <g id="xtick_3">
     <g id="line2d_3">
      <g>
       <use xlink:href="#mc53ea3e46a" x="179.343795" y="273.312" style="stroke: #000000; stroke-width: 0.8"/>
      </g>
     </g>
     <g id="text_3">
      <!-- DT -->
      <g transform="translate(171.059107 289.430125) scale(0.12 -0.12)">
       <defs>
        <path id="DejaVuSans-44" d="M 1259 4147 
L 1259 519 
L 2022 519 
Q 2988 519 3436 956 
Q 3884 1394 3884 2338 
Q 3884 3275 3436 3711 
Q 2988 4147 2022 4147 
L 1259 4147 
z
M 628 4666 
L 1925 4666 
Q 3281 4666 3915 4102 
Q 4550 3538 4550 2338 
Q 4550 1131 3912 565 
Q 3275 0 1925 0 
L 628 0 
L 628 4666 
z
" transform="scale(0.015625)"/>
        <path id="DejaVuSans-54" d="M -19 4666 
L 3928 4666 
L 3928 4134 
L 2272 4134 
L 2272 0 
L 1638 0 
L 1638 4134 
L -19 4134 
L -19 4666 
z
" transform="scale(0.015625)"/>
       </defs>
       <use xlink:href="#DejaVuSans-44"/>
       <use xlink:href="#DejaVuSans-54" x="77.001953"/>
      </g>
     </g>
    </g>
    <g id="xtick_4">
     <g id="line2d_4">
      <g>
       <use xlink:href="#mc53ea3e46a" x="230.360938" y="273.312" style="stroke: #000000; stroke-width: 0.8"/>
      </g>
     </g>
     <g id="text_4">
      <!-- KNN -->
      <g transform="translate(217.44875 289.430125) scale(0.12 -0.12)">
       <defs>
        <path id="DejaVuSans-4b" d="M 628 4666 
L 1259 4666 
L 1259 2694 
L 3353 4666 
L 4166 4666 
L 1850 2491 
L 4331 0 
L 3500 0 
L 1259 2247 
L 1259 0 
L 628 0 
L 628 4666 
z
" transform="scale(0.015625)"/>
        <path id="DejaVuSans-4e" d="M 628 4666 
L 1478 4666 
L 3547 763 
L 3547 4666 
L 4159 4666 
L 4159 0 
L 3309 0 
L 1241 3903 
L 1241 0 
L 628 0 
L 628 4666 
z
" transform="scale(0.015625)"/>
       </defs>
       <use xlink:href="#DejaVuSans-4b"/>
       <use xlink:href="#DejaVuSans-4e" x="65.576172"/>
       <use xlink:href="#DejaVuSans-4e" x="140.380859"/>
      </g>
     </g>
    </g>
    <g id="xtick_5">
     <g id="line2d_5">
      <g>
       <use xlink:href="#mc53ea3e46a" x="281.37808" y="273.312" style="stroke: #000000; stroke-width: 0.8"/>
      </g>
     </g>
     <g id="text_5">
      <!-- MBC -->
      <g transform="translate(267.999955 289.430125) scale(0.12 -0.12)">
       <defs>
        <path id="DejaVuSans-42" d="M 1259 2228 
L 1259 519 
L 2272 519 
Q 2781 519 3026 730 
Q 3272 941 3272 1375 
Q 3272 1813 3026 2020 
Q 2781 2228 2272 2228 
L 1259 2228 
z
M 1259 4147 
L 1259 2741 
L 2194 2741 
Q 2656 2741 2882 2914 
Q 3109 3088 3109 3444 
Q 3109 3797 2882 3972 
Q 2656 4147 2194 4147 
L 1259 4147 
z
M 628 4666 
L 2241 4666 
Q 2963 4666 3353 4366 
Q 3744 4066 3744 3513 
Q 3744 3084 3544 2831 
Q 3344 2578 2956 2516 
Q 3422 2416 3680 2098 
Q 3938 1781 3938 1306 
Q 3938 681 3513 340 
Q 3088 0 2303 0 
L 628 0 
L 628 4666 
z
" transform="scale(0.015625)"/>
        <path id="DejaVuSans-43" d="M 4122 4306 
L 4122 3641 
Q 3803 3938 3442 4084 
Q 3081 4231 2675 4231 
Q 1875 4231 1450 3742 
Q 1025 3253 1025 2328 
Q 1025 1406 1450 917 
Q 1875 428 2675 428 
Q 3081 428 3442 575 
Q 3803 722 4122 1019 
L 4122 359 
Q 3791 134 3420 21 
Q 3050 -91 2638 -91 
Q 1578 -91 968 557 
Q 359 1206 359 2328 
Q 359 3453 968 4101 
Q 1578 4750 2638 4750 
Q 3056 4750 3426 4639 
Q 3797 4528 4122 4306 
z
" transform="scale(0.015625)"/>
       </defs>
       <use xlink:href="#DejaVuSans-4d"/>
       <use xlink:href="#DejaVuSans-42" x="86.279297"/>
       <use xlink:href="#DejaVuSans-43" x="153.132812"/>
      </g>
     </g>
    </g>
    <g id="xtick_6">
     <g id="line2d_6">
      <g>
       <use xlink:href="#mc53ea3e46a" x="332.395223" y="273.312" style="stroke: #000000; stroke-width: 0.8"/>
      </g>
     </g>
     <g id="text_6">
      <!-- MBC- -->
      <g transform="translate(316.852411 289.430125) scale(0.12 -0.12)">
       <defs>
        <path id="DejaVuSans-2d" d="M 313 2009 
L 1997 2009 
L 1997 1497 
L 313 1497 
L 313 2009 
z
" transform="scale(0.015625)"/>
       </defs>
       <use xlink:href="#DejaVuSans-4d"/>
       <use xlink:href="#DejaVuSans-42" x="86.279297"/>
       <use xlink:href="#DejaVuSans-43" x="153.132812"/>
       <use xlink:href="#DejaVuSans-2d" x="222.957031"/>
      </g>
      <!-- Attention -->
      <g transform="translate(304.704286 302.8675) scale(0.12 -0.12)">
       <defs>
        <path id="DejaVuSans-41" d="M 2188 4044 
L 1331 1722 
L 3047 1722 
L 2188 4044 
z
M 1831 4666 
L 2547 4666 
L 4325 0 
L 3669 0 
L 3244 1197 
L 1141 1197 
L 716 0 
L 50 0 
L 1831 4666 
z
" transform="scale(0.015625)"/>
        <path id="DejaVuSans-74" d="M 1172 4494 
L 1172 3500 
L 2356 3500 
L 2356 3053 
L 1172 3053 
L 1172 1153 
Q 1172 725 1289 603 
Q 1406 481 1766 481 
L 2356 481 
L 2356 0 
L 1766 0 
Q 1100 0 847 248 
Q 594 497 594 1153 
L 594 3053 
L 172 3053 
L 172 3500 
L 594 3500 
L 594 4494 
L 1172 4494 
z
" transform="scale(0.015625)"/>
        <path id="DejaVuSans-65" d="M 3597 1894 
L 3597 1613 
L 953 1613 
Q 991 1019 1311 708 
Q 1631 397 2203 397 
Q 2534 397 2845 478 
Q 3156 559 3463 722 
L 3463 178 
Q 3153 47 2828 -22 
Q 2503 -91 2169 -91 
Q 1331 -91 842 396 
Q 353 884 353 1716 
Q 353 2575 817 3079 
Q 1281 3584 2069 3584 
Q 2775 3584 3186 3129 
Q 3597 2675 3597 1894 
z
M 3022 2063 
Q 3016 2534 2758 2815 
Q 2500 3097 2075 3097 
Q 1594 3097 1305 2825 
Q 1016 2553 972 2059 
L 3022 2063 
z
" transform="scale(0.015625)"/>
        <path id="DejaVuSans-6e" d="M 3513 2113 
L 3513 0 
L 2938 0 
L 2938 2094 
Q 2938 2591 2744 2837 
Q 2550 3084 2163 3084 
Q 1697 3084 1428 2787 
Q 1159 2491 1159 1978 
L 1159 0 
L 581 0 
L 581 3500 
L 1159 3500 
L 1159 2956 
Q 1366 3272 1645 3428 
Q 1925 3584 2291 3584 
Q 2894 3584 3203 3211 
Q 3513 2838 3513 2113 
z
" transform="scale(0.015625)"/>
        <path id="DejaVuSans-69" d="M 603 3500 
L 1178 3500 
L 1178 0 
L 603 0 
L 603 3500 
z
M 603 4863 
L 1178 4863 
L 1178 4134 
L 603 4134 
L 603 4863 
z
" transform="scale(0.015625)"/>
        <path id="DejaVuSans-6f" d="M 1959 3097 
Q 1497 3097 1228 2736 
Q 959 2375 959 1747 
Q 959 1119 1226 758 
Q 1494 397 1959 397 
Q 2419 397 2687 759 
Q 2956 1122 2956 1747 
Q 2956 2369 2687 2733 
Q 2419 3097 1959 3097 
z
M 1959 3584 
Q 2709 3584 3137 3096 
Q 3566 2609 3566 1747 
Q 3566 888 3137 398 
Q 2709 -91 1959 -91 
Q 1206 -91 779 398 
Q 353 888 353 1747 
Q 353 2609 779 3096 
Q 1206 3584 1959 3584 
z
" transform="scale(0.015625)"/>
       </defs>
       <use xlink:href="#DejaVuSans-41"/>
       <use xlink:href="#DejaVuSans-74" x="66.658203"/>
       <use xlink:href="#DejaVuSans-74" x="105.867188"/>
       <use xlink:href="#DejaVuSans-65" x="145.076172"/>
       <use xlink:href="#DejaVuSans-6e" x="206.599609"/>
       <use xlink:href="#DejaVuSans-74" x="269.978516"/>
       <use xlink:href="#DejaVuSans-69" x="309.1875"/>
       <use xlink:href="#DejaVuSans-6f" x="336.970703"/>
       <use xlink:href="#DejaVuSans-6e" x="398.152344"/>
      </g>
     </g>
    </g>
    <g id="xtick_7">
     <g id="line2d_7">
      <g>
       <use xlink:href="#mc53ea3e46a" x="383.412366" y="273.312" style="stroke: #000000; stroke-width: 0.8"/>
      </g>
     </g>
     <g id="text_7">
      <!-- Proposed -->
      <g transform="translate(355.789866 289.430125) scale(0.12 -0.12)">
       <defs>
        <path id="DejaVuSans-50" d="M 1259 4147 
L 1259 2394 
L 2053 2394 
Q 2494 2394 2734 2622 
Q 2975 2850 2975 3272 
Q 2975 3691 2734 3919 
Q 2494 4147 2053 4147 
L 1259 4147 
z
M 628 4666 
L 2053 4666 
Q 2838 4666 3239 4311 
Q 3641 3956 3641 3272 
Q 3641 2581 3239 2228 
Q 2838 1875 2053 1875 
L 1259 1875 
L 1259 0 
L 628 0 
L 628 4666 
z
" transform="scale(0.015625)"/>
        <path id="DejaVuSans-72" d="M 2631 2963 
Q 2534 3019 2420 3045 
Q 2306 3072 2169 3072 
Q 1681 3072 1420 2755 
Q 1159 2438 1159 1844 
L 1159 0 
L 581 0 
L 581 3500 
L 1159 3500 
L 1159 2956 
Q 1341 3275 1631 3429 
Q 1922 3584 2338 3584 
Q 2397 3584 2469 3576 
Q 2541 3569 2628 3553 
L 2631 2963 
z
" transform="scale(0.015625)"/>
        <path id="DejaVuSans-70" d="M 1159 525 
L 1159 -1331 
L 581 -1331 
L 581 3500 
L 1159 3500 
L 1159 2969 
Q 1341 3281 1617 3432 
Q 1894 3584 2278 3584 
Q 2916 3584 3314 3078 
Q 3713 2572 3713 1747 
Q 3713 922 3314 415 
Q 2916 -91 2278 -91 
Q 1894 -91 1617 61 
Q 1341 213 1159 525 
z
M 3116 1747 
Q 3116 2381 2855 2742 
Q 2594 3103 2138 3103 
Q 1681 3103 1420 2742 
Q 1159 2381 1159 1747 
Q 1159 1113 1420 752 
Q 1681 391 2138 391 
Q 2594 391 2855 752 
Q 3116 1113 3116 1747 
z
" transform="scale(0.015625)"/>
        <path id="DejaVuSans-73" d="M 2834 3397 
L 2834 2853 
Q 2591 2978 2328 3040 
Q 2066 3103 1784 3103 
Q 1356 3103 1142 2972 
Q 928 2841 928 2578 
Q 928 2378 1081 2264 
Q 1234 2150 1697 2047 
L 1894 2003 
Q 2506 1872 2764 1633 
Q 3022 1394 3022 966 
Q 3022 478 2636 193 
Q 2250 -91 1575 -91 
Q 1294 -91 989 -36 
Q 684 19 347 128 
L 347 722 
Q 666 556 975 473 
Q 1284 391 1588 391 
Q 1994 391 2212 530 
Q 2431 669 2431 922 
Q 2431 1156 2273 1281 
Q 2116 1406 1581 1522 
L 1381 1569 
Q 847 1681 609 1914 
Q 372 2147 372 2553 
Q 372 3047 722 3315 
Q 1072 3584 1716 3584 
Q 2034 3584 2315 3537 
Q 2597 3491 2834 3397 
z
" transform="scale(0.015625)"/>
        <path id="DejaVuSans-64" d="M 2906 2969 
L 2906 4863 
L 3481 4863 
L 3481 0 
L 2906 0 
L 2906 525 
Q 2725 213 2448 61 
Q 2172 -91 1784 -91 
Q 1150 -91 751 415 
Q 353 922 353 1747 
Q 353 2572 751 3078 
Q 1150 3584 1784 3584 
Q 2172 3584 2448 3432 
Q 2725 3281 2906 2969 
z
M 947 1747 
Q 947 1113 1208 752 
Q 1469 391 1925 391 
Q 2381 391 2643 752 
Q 2906 1113 2906 1747 
Q 2906 2381 2643 2742 
Q 2381 3103 1925 3103 
Q 1469 3103 1208 2742 
Q 947 2381 947 1747 
z
" transform="scale(0.015625)"/>
       </defs>
       <use xlink:href="#DejaVuSans-50"/>
       <use xlink:href="#DejaVuSans-72" x="58.552734"/>
       <use xlink:href="#DejaVuSans-6f" x="97.416016"/>
       <use xlink:href="#DejaVuSans-70" x="158.597656"/>
       <use xlink:href="#DejaVuSans-6f" x="222.074219"/>
       <use xlink:href="#DejaVuSans-73" x="283.255859"/>
       <use xlink:href="#DejaVuSans-65" x="335.355469"/>
       <use xlink:href="#DejaVuSans-64" x="396.878906"/>
      </g>
      <!-- model -->
      <g transform="translate(364.728929 302.8675) scale(0.12 -0.12)">
       <defs>
        <path id="DejaVuSans-6d" d="M 3328 2828 
Q 3544 3216 3844 3400 
Q 4144 3584 4550 3584 
Q 5097 3584 5394 3201 
Q 5691 2819 5691 2113 
L 5691 0 
L 5113 0 
L 5113 2094 
Q 5113 2597 4934 2840 
Q 4756 3084 4391 3084 
Q 3944 3084 3684 2787 
Q 3425 2491 3425 1978 
L 3425 0 
L 2847 0 
L 2847 2094 
Q 2847 2600 2669 2842 
Q 2491 3084 2119 3084 
Q 1678 3084 1418 2786 
Q 1159 2488 1159 1978 
L 1159 0 
L 581 0 
L 581 3500 
L 1159 3500 
L 1159 2956 
Q 1356 3278 1631 3431 
Q 1906 3584 2284 3584 
Q 2666 3584 2933 3390 
Q 3200 3197 3328 2828 
z
" transform="scale(0.015625)"/>
        <path id="DejaVuSans-6c" d="M 603 4863 
L 1178 4863 
L 1178 0 
L 603 0 
L 603 4863 
z
" transform="scale(0.015625)"/>
       </defs>
       <use xlink:href="#DejaVuSans-6d"/>
       <use xlink:href="#DejaVuSans-6f" x="97.412109"/>
       <use xlink:href="#DejaVuSans-64" x="158.59375"/>
       <use xlink:href="#DejaVuSans-65" x="222.070312"/>
       <use xlink:href="#DejaVuSans-6c" x="283.59375"/>
      </g>
     </g>
    </g>
    <g id="text_8">
     <!-- Models -->
     <g transform="translate(203.933984 320.760781) scale(0.15 -0.15)">
      <use xlink:href="#DejaVuSans-4d"/>
      <use xlink:href="#DejaVuSans-6f" x="86.279297"/>
      <use xlink:href="#DejaVuSans-64" x="147.460938"/>
      <use xlink:href="#DejaVuSans-65" x="210.9375"/>
      <use xlink:href="#DejaVuSans-6c" x="272.460938"/>
      <use xlink:href="#DejaVuSans-73" x="300.244141"/>
     </g>
    </g>
   </g>
   <g id="matplotlib.axis_2">
    <g id="ytick_1">
     <g id="line2d_8">
      <defs>
       <path id="mc04c4a3ef9" d="M 0 0 
L -3.5 0 
" style="stroke: #000000; stroke-width: 0.8"/>
      </defs>
      <g>
       <use xlink:href="#mc04c4a3ef9" x="51.800937" y="244.228493" style="stroke: #000000; stroke-width: 0.8"/>
      </g>
     </g>
     <g id="text_9">
      <!-- 0.4 -->
      <g transform="translate(25.717187 248.787555) scale(0.12 -0.12)">
       <defs>
        <path id="DejaVuSans-30" d="M 2034 4250 
Q 1547 4250 1301 3770 
Q 1056 3291 1056 2328 
Q 1056 1369 1301 889 
Q 1547 409 2034 409 
Q 2525 409 2770 889 
Q 3016 1369 3016 2328 
Q 3016 3291 2770 3770 
Q 2525 4250 2034 4250 
z
M 2034 4750 
Q 2819 4750 3233 4129 
Q 3647 3509 3647 2328 
Q 3647 1150 3233 529 
Q 2819 -91 2034 -91 
Q 1250 -91 836 529 
Q 422 1150 422 2328 
Q 422 3509 836 4129 
Q 1250 4750 2034 4750 
z
" transform="scale(0.015625)"/>
        <path id="DejaVuSans-2e" d="M 684 794 
L 1344 794 
L 1344 0 
L 684 0 
L 684 794 
z
" transform="scale(0.015625)"/>
        <path id="DejaVuSans-34" d="M 2419 4116 
L 825 1625 
L 2419 1625 
L 2419 4116 
z
M 2253 4666 
L 3047 4666 
L 3047 1625 
L 3713 1625 
L 3713 1100 
L 3047 1100 
L 3047 0 
L 2419 0 
L 2419 1100 
L 313 1100 
L 313 1709 
L 2253 4666 
z
" transform="scale(0.015625)"/>
       </defs>
       <use xlink:href="#DejaVuSans-30"/>
       <use xlink:href="#DejaVuSans-2e" x="63.623047"/>
       <use xlink:href="#DejaVuSans-34" x="95.410156"/>
      </g>
     </g>
    </g>
    <g id="ytick_2">
     <g id="line2d_9">
      <g>
       <use xlink:href="#mc04c4a3ef9" x="51.800937" y="188.877174" style="stroke: #000000; stroke-width: 0.8"/>
      </g>
     </g>
     <g id="text_10">
      <!-- 0.5 -->
      <g transform="translate(25.717187 193.436236) scale(0.12 -0.12)">
       <defs>
        <path id="DejaVuSans-35" d="M 691 4666 
L 3169 4666 
L 3169 4134 
L 1269 4134 
L 1269 2991 
Q 1406 3038 1543 3061 
Q 1681 3084 1819 3084 
Q 2600 3084 3056 2656 
Q 3513 2228 3513 1497 
Q 3513 744 3044 326 
Q 2575 -91 1722 -91 
Q 1428 -91 1123 -41 
Q 819 9 494 109 
L 494 744 
Q 775 591 1075 516 
Q 1375 441 1709 441 
Q 2250 441 2565 725 
Q 2881 1009 2881 1497 
Q 2881 1984 2565 2268 
Q 2250 2553 1709 2553 
Q 1456 2553 1204 2497 
Q 953 2441 691 2322 
L 691 4666 
z
" transform="scale(0.015625)"/>
       </defs>
       <use xlink:href="#DejaVuSans-30"/>
       <use xlink:href="#DejaVuSans-2e" x="63.623047"/>
       <use xlink:href="#DejaVuSans-35" x="95.410156"/>
      </g>
     </g>
    </g>
    <g id="ytick_3">
     <g id="line2d_10">
      <g>
       <use xlink:href="#mc04c4a3ef9" x="51.800937" y="133.525855" style="stroke: #000000; stroke-width: 0.8"/>
      </g>
     </g>
     <g id="text_11">
      <!-- 0.6 -->
      <g transform="translate(25.717187 138.084918) scale(0.12 -0.12)">
       <defs>
        <path id="DejaVuSans-36" d="M 2113 2584 
Q 1688 2584 1439 2293 
Q 1191 2003 1191 1497 
Q 1191 994 1439 701 
Q 1688 409 2113 409 
Q 2538 409 2786 701 
Q 3034 994 3034 1497 
Q 3034 2003 2786 2293 
Q 2538 2584 2113 2584 
z
M 3366 4563 
L 3366 3988 
Q 3128 4100 2886 4159 
Q 2644 4219 2406 4219 
Q 1781 4219 1451 3797 
Q 1122 3375 1075 2522 
Q 1259 2794 1537 2939 
Q 1816 3084 2150 3084 
Q 2853 3084 3261 2657 
Q 3669 2231 3669 1497 
Q 3669 778 3244 343 
Q 2819 -91 2113 -91 
Q 1303 -91 875 529 
Q 447 1150 447 2328 
Q 447 3434 972 4092 
Q 1497 4750 2381 4750 
Q 2619 4750 2861 4703 
Q 3103 4656 3366 4563 
z
" transform="scale(0.015625)"/>
       </defs>
       <use xlink:href="#DejaVuSans-30"/>
       <use xlink:href="#DejaVuSans-2e" x="63.623047"/>
       <use xlink:href="#DejaVuSans-36" x="95.410156"/>
      </g>
     </g>
    </g>
    <g id="ytick_4">
     <g id="line2d_11">
      <g>
       <use xlink:href="#mc04c4a3ef9" x="51.800937" y="78.174536" style="stroke: #000000; stroke-width: 0.8"/>
      </g>
     </g>
     <g id="text_12">
      <!-- 0.7 -->
      <g transform="translate(25.717187 82.733599) scale(0.12 -0.12)">
       <defs>
        <path id="DejaVuSans-37" d="M 525 4666 
L 3525 4666 
L 3525 4397 
L 1831 0 
L 1172 0 
L 2766 4134 
L 525 4134 
L 525 4666 
z
" transform="scale(0.015625)"/>
       </defs>
       <use xlink:href="#DejaVuSans-30"/>
       <use xlink:href="#DejaVuSans-2e" x="63.623047"/>
       <use xlink:href="#DejaVuSans-37" x="95.410156"/>
      </g>
     </g>
    </g>
    <g id="ytick_5">
     <g id="line2d_12">
      <g>
       <use xlink:href="#mc04c4a3ef9" x="51.800937" y="22.823217" style="stroke: #000000; stroke-width: 0.8"/>
      </g>
     </g>
     <g id="text_13">
      <!-- 0.8 -->
      <g transform="translate(25.717187 27.38228) scale(0.12 -0.12)">
       <defs>
        <path id="DejaVuSans-38" d="M 2034 2216 
Q 1584 2216 1326 1975 
Q 1069 1734 1069 1313 
Q 1069 891 1326 650 
Q 1584 409 2034 409 
Q 2484 409 2743 651 
Q 3003 894 3003 1313 
Q 3003 1734 2745 1975 
Q 2488 2216 2034 2216 
z
M 1403 2484 
Q 997 2584 770 2862 
Q 544 3141 544 3541 
Q 544 4100 942 4425 
Q 1341 4750 2034 4750 
Q 2731 4750 3128 4425 
Q 3525 4100 3525 3541 
Q 3525 3141 3298 2862 
Q 3072 2584 2669 2484 
Q 3125 2378 3379 2068 
Q 3634 1759 3634 1313 
Q 3634 634 3220 271 
Q 2806 -91 2034 -91 
Q 1263 -91 848 271 
Q 434 634 434 1313 
Q 434 1759 690 2068 
Q 947 2378 1403 2484 
z
M 1172 3481 
Q 1172 3119 1398 2916 
Q 1625 2713 2034 2713 
Q 2441 2713 2670 2916 
Q 2900 3119 2900 3481 
Q 2900 3844 2670 4047 
Q 2441 4250 2034 4250 
Q 1625 4250 1398 4047 
Q 1172 3844 1172 3481 
z
" transform="scale(0.015625)"/>
       </defs>
       <use xlink:href="#DejaVuSans-30"/>
       <use xlink:href="#DejaVuSans-2e" x="63.623047"/>
       <use xlink:href="#DejaVuSans-38" x="95.410156"/>
      </g>
     </g>
    </g>
    <g id="text_14">
     <!-- PCC -->
     <g transform="translate(18.597656 155.252484) rotate(-90) scale(0.15 -0.15)">
      <use xlink:href="#DejaVuSans-50"/>
      <use xlink:href="#DejaVuSans-43" x="60.302734"/>
      <use xlink:href="#DejaVuSans-43" x="130.126953"/>
     </g>
    </g>
   </g>
   <g id="patch_5">
    <path d="M 56.902652 94.042134 
L 77.309509 94.042134 
L 77.309509 74.652293 
L 56.902652 74.652293 
L 56.902652 94.042134 
z
" clip-path="url(#pf5b476db4c)" style="fill: #b4d4df; stroke: #737373; stroke-linejoin: miter"/>
   </g>
   <g id="line2d_13">
    <path d="M 67.10608 94.042134 
L 67.10608 106.779142 
" clip-path="url(#pf5b476db4c)" style="fill: none; stroke: #737373"/>
   </g>
   <g id="line2d_14">
    <path d="M 67.10608 74.652293 
L 67.10608 68.189074 
" clip-path="url(#pf5b476db4c)" style="fill: none; stroke: #737373"/>
   </g>
   <g id="line2d_15">
    <path d="M 62.004366 106.779142 
L 72.207795 106.779142 
" clip-path="url(#pf5b476db4c)" style="fill: none; stroke: #737373; stroke-linecap: square"/>
   </g>
   <g id="line2d_16">
    <path d="M 62.004366 68.189074 
L 72.207795 68.189074 
" clip-path="url(#pf5b476db4c)" style="fill: none; stroke: #737373; stroke-linecap: square"/>
   </g>
   <g id="patch_6">
    <path d="M 107.919795 59.263084 
L 128.326652 59.263084 
L 128.326652 56.738747 
L 107.919795 56.738747 
L 107.919795 59.263084 
z
" clip-path="url(#pf5b476db4c)" style="fill: #b4d4df; stroke: #737373; stroke-linejoin: miter"/>
   </g>
   <g id="line2d_17">
    <path d="M 118.123223 59.263084 
L 118.123223 59.263084 
" clip-path="url(#pf5b476db4c)" style="fill: none; stroke: #737373"/>
   </g>
   <g id="line2d_18">
    <path d="M 118.123223 56.738747 
L 118.123223 53.964497 
" clip-path="url(#pf5b476db4c)" style="fill: none; stroke: #737373"/>
   </g>
   <g id="line2d_19">
    <path d="M 113.021509 59.263084 
L 123.224938 59.263084 
" clip-path="url(#pf5b476db4c)" style="fill: none; stroke: #737373; stroke-linecap: square"/>
   </g>
   <g id="line2d_20">
    <path d="M 113.021509 53.964497 
L 123.224938 53.964497 
" clip-path="url(#pf5b476db4c)" style="fill: none; stroke: #737373; stroke-linecap: square"/>
   </g>
   <g id="patch_7">
    <path d="M 158.936938 177.163515 
L 179.343795 177.163515 
L 179.343795 148.315707 
L 158.936938 148.315707 
L 158.936938 177.163515 
z
" clip-path="url(#pf5b476db4c)" style="fill: #b4d4df; stroke: #737373; stroke-linejoin: miter"/>
   </g>
   <g id="line2d_21">
    <path d="M 169.140366 177.163515 
L 169.140366 190.170951 
" clip-path="url(#pf5b476db4c)" style="fill: none; stroke: #737373"/>
   </g>
   <g id="line2d_22">
    <path d="M 169.140366 148.315707 
L 169.140366 146.008566 
" clip-path="url(#pf5b476db4c)" style="fill: none; stroke: #737373"/>
   </g>
   <g id="line2d_23">
    <path d="M 164.038652 190.170951 
L 174.24208 190.170951 
" clip-path="url(#pf5b476db4c)" style="fill: none; stroke: #737373; stroke-linecap: square"/>
   </g>
   <g id="line2d_24">
    <path d="M 164.038652 146.008566 
L 174.24208 146.008566 
" clip-path="url(#pf5b476db4c)" style="fill: none; stroke: #737373; stroke-linecap: square"/>
   </g>
   <g id="patch_8">
    <path d="M 209.95408 99.974196 
L 230.360938 99.974196 
L 230.360938 89.953185 
L 209.95408 89.953185 
L 209.95408 99.974196 
z
" clip-path="url(#pf5b476db4c)" style="fill: #b4d4df; stroke: #737373; stroke-linejoin: miter"/>
   </g>
   <g id="line2d_25">
    <path d="M 220.157509 99.974196 
L 220.157509 107.825355 
" clip-path="url(#pf5b476db4c)" style="fill: none; stroke: #737373"/>
   </g>
   <g id="line2d_26">
    <path d="M 220.157509 89.953185 
L 220.157509 77.642416 
" clip-path="url(#pf5b476db4c)" style="fill: none; stroke: #737373"/>
   </g>
   <g id="line2d_27">
    <path d="M 215.055795 107.825355 
L 225.259223 107.825355 
" clip-path="url(#pf5b476db4c)" style="fill: none; stroke: #737373; stroke-linecap: square"/>
   </g>
   <g id="line2d_28">
    <path d="M 215.055795 77.642416 
L 225.259223 77.642416 
" clip-path="url(#pf5b476db4c)" style="fill: none; stroke: #737373; stroke-linecap: square"/>
   </g>
   <g id="patch_9">
    <path d="M 260.971223 60.185358 
L 281.37808 60.185358 
L 281.37808 48.893689 
L 260.971223 48.893689 
L 260.971223 60.185358 
z
" clip-path="url(#pf5b476db4c)" style="fill: #b4d4df; stroke: #737373; stroke-linejoin: miter"/>
   </g>
   <g id="line2d_29">
    <path d="M 271.174652 60.185358 
L 271.174652 71.310973 
" clip-path="url(#pf5b476db4c)" style="fill: none; stroke: #737373"/>
   </g>
   <g id="line2d_30">
    <path d="M 271.174652 48.893689 
L 271.174652 38.432289 
" clip-path="url(#pf5b476db4c)" style="fill: none; stroke: #737373"/>
   </g>
   <g id="line2d_31">
    <path d="M 266.072938 71.310973 
L 276.276366 71.310973 
" clip-path="url(#pf5b476db4c)" style="fill: none; stroke: #737373; stroke-linecap: square"/>
   </g>
   <g id="line2d_32">
    <path d="M 266.072938 38.432289 
L 276.276366 38.432289 
" clip-path="url(#pf5b476db4c)" style="fill: none; stroke: #737373; stroke-linecap: square"/>
   </g>
   <g id="patch_10">
    <path d="M 311.988366 41.753368 
L 332.395223 41.753368 
L 332.395223 30.849159 
L 311.988366 30.849159 
L 311.988366 41.753368 
z
" clip-path="url(#pf5b476db4c)" style="fill: #b4d4df; stroke: #737373; stroke-linejoin: miter"/>
   </g>
   <g id="line2d_33">
    <path d="M 322.191795 41.753368 
L 322.191795 55.148388 
" clip-path="url(#pf5b476db4c)" style="fill: none; stroke: #737373"/>
   </g>
   <g id="line2d_34">
    <path d="M 322.191795 30.849159 
L 322.191795 27.085269 
" clip-path="url(#pf5b476db4c)" style="fill: none; stroke: #737373"/>
   </g>
   <g id="line2d_35">
    <path d="M 317.09008 55.148388 
L 327.293509 55.148388 
" clip-path="url(#pf5b476db4c)" style="fill: none; stroke: #737373; stroke-linecap: square"/>
   </g>
   <g id="line2d_36">
    <path d="M 317.09008 27.085269 
L 327.293509 27.085269 
" clip-path="url(#pf5b476db4c)" style="fill: none; stroke: #737373; stroke-linecap: square"/>
   </g>
   <g id="patch_11">
    <path d="M 363.005509 31.659274 
L 383.412366 31.659274 
L 383.412366 20.996775 
L 363.005509 20.996775 
L 363.005509 31.659274 
z
" clip-path="url(#pf5b476db4c)" style="fill: #b4d4df; stroke: #737373; stroke-linejoin: miter"/>
   </g>
   <g id="line2d_37">
    <path d="M 373.208938 31.659274 
L 373.208938 33.547359 
" clip-path="url(#pf5b476db4c)" style="fill: none; stroke: #737373"/>
   </g>
   <g id="line2d_38">
    <path d="M 373.208938 20.996775 
L 373.208938 19.296 
" clip-path="url(#pf5b476db4c)" style="fill: none; stroke: #737373"/>
   </g>
   <g id="line2d_39">
    <path d="M 368.107223 33.547359 
L 378.310652 33.547359 
" clip-path="url(#pf5b476db4c)" style="fill: none; stroke: #737373; stroke-linecap: square"/>
   </g>
   <g id="line2d_40">
    <path d="M 368.107223 19.296 
L 378.310652 19.296 
" clip-path="url(#pf5b476db4c)" style="fill: none; stroke: #737373; stroke-linecap: square"/>
   </g>
   <g id="patch_12">
    <path d="M 77.309509 157.533382 
L 97.716366 157.533382 
L 97.716366 148.089431 
L 77.309509 148.089431 
L 77.309509 157.533382 
z
" clip-path="url(#pf5b476db4c)" style="fill: #9ce29c; stroke: #737373; stroke-linejoin: miter"/>
   </g>
   <g id="line2d_41">
    <path d="M 87.512938 157.533382 
L 87.512938 157.533382 
" clip-path="url(#pf5b476db4c)" style="fill: none; stroke: #737373"/>
   </g>
   <g id="line2d_42">
    <path d="M 87.512938 148.089431 
L 87.512938 148.089431 
" clip-path="url(#pf5b476db4c)" style="fill: none; stroke: #737373"/>
   </g>
   <g id="line2d_43">
    <path d="M 82.411223 157.533382 
L 92.614652 157.533382 
" clip-path="url(#pf5b476db4c)" style="fill: none; stroke: #737373; stroke-linecap: square"/>
   </g>
   <g id="line2d_44">
    <path d="M 82.411223 148.089431 
L 92.614652 148.089431 
" clip-path="url(#pf5b476db4c)" style="fill: none; stroke: #737373; stroke-linecap: square"/>
   </g>
   <g id="patch_13">
    <path d="M 128.326652 92.504228 
L 148.733509 92.504228 
L 148.733509 79.314402 
L 128.326652 79.314402 
L 128.326652 92.504228 
z
" clip-path="url(#pf5b476db4c)" style="fill: #9ce29c; stroke: #737373; stroke-linejoin: miter"/>
   </g>
   <g id="line2d_45">
    <path d="M 138.53008 92.504228 
L 138.53008 97.67077 
" clip-path="url(#pf5b476db4c)" style="fill: none; stroke: #737373"/>
   </g>
   <g id="line2d_46">
    <path d="M 138.53008 79.314402 
L 138.53008 66.96006 
" clip-path="url(#pf5b476db4c)" style="fill: none; stroke: #737373"/>
   </g>
   <g id="line2d_47">
    <path d="M 133.428366 97.67077 
L 143.631795 97.67077 
" clip-path="url(#pf5b476db4c)" style="fill: none; stroke: #737373; stroke-linecap: square"/>
   </g>
   <g id="line2d_48">
    <path d="M 133.428366 66.96006 
L 143.631795 66.96006 
" clip-path="url(#pf5b476db4c)" style="fill: none; stroke: #737373; stroke-linecap: square"/>
   </g>
   <g id="patch_14">
    <path d="M 179.343795 232.103717 
L 199.750652 232.103717 
L 199.750652 203.557177 
L 179.343795 203.557177 
L 179.343795 232.103717 
z
" clip-path="url(#pf5b476db4c)" style="fill: #9ce29c; stroke: #737373; stroke-linejoin: miter"/>
   </g>
   <g id="line2d_49">
    <path d="M 189.547223 232.103717 
L 189.547223 261.216 
" clip-path="url(#pf5b476db4c)" style="fill: none; stroke: #737373"/>
   </g>
   <g id="line2d_50">
    <path d="M 189.547223 203.557177 
L 189.547223 177.340995 
" clip-path="url(#pf5b476db4c)" style="fill: none; stroke: #737373"/>
   </g>
   <g id="line2d_51">
    <path d="M 184.445509 261.216 
L 194.648938 261.216 
" clip-path="url(#pf5b476db4c)" style="fill: none; stroke: #737373; stroke-linecap: square"/>
   </g>
   <g id="line2d_52">
    <path d="M 184.445509 177.340995 
L 194.648938 177.340995 
" clip-path="url(#pf5b476db4c)" style="fill: none; stroke: #737373; stroke-linecap: square"/>
   </g>
   <g id="patch_15">
    <path d="M 230.360938 139.47408 
L 250.767795 139.47408 
L 250.767795 129.085655 
L 230.360938 129.085655 
L 230.360938 139.47408 
z
" clip-path="url(#pf5b476db4c)" style="fill: #9ce29c; stroke: #737373; stroke-linejoin: miter"/>
   </g>
   <g id="line2d_53">
    <path d="M 240.564366 139.47408 
L 240.564366 139.47408 
" clip-path="url(#pf5b476db4c)" style="fill: none; stroke: #737373"/>
   </g>
   <g id="line2d_54">
    <path d="M 240.564366 129.085655 
L 240.564366 128.010776 
" clip-path="url(#pf5b476db4c)" style="fill: none; stroke: #737373"/>
   </g>
   <g id="line2d_55">
    <path d="M 235.462652 139.47408 
L 245.66608 139.47408 
" clip-path="url(#pf5b476db4c)" style="fill: none; stroke: #737373; stroke-linecap: square"/>
   </g>
   <g id="line2d_56">
    <path d="M 235.462652 128.010776 
L 245.66608 128.010776 
" clip-path="url(#pf5b476db4c)" style="fill: none; stroke: #737373; stroke-linecap: square"/>
   </g>
   <g id="patch_16">
    <path d="M 281.37808 92.399825 
L 301.784938 92.399825 
L 301.784938 66.329354 
L 281.37808 66.329354 
L 281.37808 92.399825 
z
" clip-path="url(#pf5b476db4c)" style="fill: #9ce29c; stroke: #737373; stroke-linejoin: miter"/>
   </g>
   <g id="line2d_57">
    <path d="M 291.581509 92.399825 
L 291.581509 121.791375 
" clip-path="url(#pf5b476db4c)" style="fill: none; stroke: #737373"/>
   </g>
   <g id="line2d_58">
    <path d="M 291.581509 66.329354 
L 291.581509 54.982334 
" clip-path="url(#pf5b476db4c)" style="fill: none; stroke: #737373"/>
   </g>
   <g id="line2d_59">
    <path d="M 286.479795 121.791375 
L 296.683223 121.791375 
" clip-path="url(#pf5b476db4c)" style="fill: none; stroke: #737373; stroke-linecap: square"/>
   </g>
   <g id="line2d_60">
    <path d="M 286.479795 54.982334 
L 296.683223 54.982334 
" clip-path="url(#pf5b476db4c)" style="fill: none; stroke: #737373; stroke-linecap: square"/>
   </g>
   <g id="patch_17">
    <path d="M 332.395223 91.846312 
L 352.80208 91.846312 
L 352.80208 56.08936 
L 332.395223 56.08936 
L 332.395223 91.846312 
z
" clip-path="url(#pf5b476db4c)" style="fill: #9ce29c; stroke: #737373; stroke-linejoin: miter"/>
   </g>
   <g id="line2d_61">
    <path d="M 342.598652 91.846312 
L 342.598652 93.838959 
" clip-path="url(#pf5b476db4c)" style="fill: none; stroke: #737373"/>
   </g>
   <g id="line2d_62">
    <path d="M 342.598652 56.08936 
L 342.598652 41.144504 
" clip-path="url(#pf5b476db4c)" style="fill: none; stroke: #737373"/>
   </g>
   <g id="line2d_63">
    <path d="M 337.496938 93.838959 
L 347.700366 93.838959 
" clip-path="url(#pf5b476db4c)" style="fill: none; stroke: #737373; stroke-linecap: square"/>
   </g>
   <g id="line2d_64">
    <path d="M 337.496938 41.144504 
L 347.700366 41.144504 
" clip-path="url(#pf5b476db4c)" style="fill: none; stroke: #737373; stroke-linecap: square"/>
   </g>
   <g id="patch_18">
    <path d="M 383.412366 51.067427 
L 403.819223 51.067427 
L 403.819223 44.362785 
L 383.412366 44.362785 
L 383.412366 51.067427 
z
" clip-path="url(#pf5b476db4c)" style="fill: #9ce29c; stroke: #737373; stroke-linejoin: miter"/>
   </g>
   <g id="line2d_65">
    <path d="M 393.615795 51.067427 
L 393.615795 54.120594 
" clip-path="url(#pf5b476db4c)" style="fill: none; stroke: #737373"/>
   </g>
   <g id="line2d_66">
    <path d="M 393.615795 44.362785 
L 393.615795 44.192793 
" clip-path="url(#pf5b476db4c)" style="fill: none; stroke: #737373"/>
   </g>
   <g id="line2d_67">
    <path d="M 388.51408 54.120594 
L 398.717509 54.120594 
" clip-path="url(#pf5b476db4c)" style="fill: none; stroke: #737373; stroke-linecap: square"/>
   </g>
   <g id="line2d_68">
    <path d="M 388.51408 44.192793 
L 398.717509 44.192793 
" clip-path="url(#pf5b476db4c)" style="fill: none; stroke: #737373; stroke-linecap: square"/>
   </g>
   <g id="line2d_69">
    <path d="M 56.902652 93.910055 
L 77.309509 93.910055 
" clip-path="url(#pf5b476db4c)" style="fill: none; stroke: #737373"/>
   </g>
   <g id="line2d_70">
    <path d="M 107.919795 58.102406 
L 128.326652 58.102406 
" clip-path="url(#pf5b476db4c)" style="fill: none; stroke: #737373"/>
   </g>
   <g id="line2d_71">
    <path d="M 158.936938 165.938536 
L 179.343795 165.938536 
" clip-path="url(#pf5b476db4c)" style="fill: none; stroke: #737373"/>
   </g>
   <g id="line2d_72">
    <path d="M 209.95408 99.046822 
L 230.360938 99.046822 
" clip-path="url(#pf5b476db4c)" style="fill: none; stroke: #737373"/>
   </g>
   <g id="line2d_73">
    <path d="M 260.971223 52.934335 
L 281.37808 52.934335 
" clip-path="url(#pf5b476db4c)" style="fill: none; stroke: #737373"/>
   </g>
   <g id="line2d_74">
    <path d="M 311.988366 40.590991 
L 332.395223 40.590991 
" clip-path="url(#pf5b476db4c)" style="fill: none; stroke: #737373"/>
   </g>
   <g id="line2d_75">
    <path d="M 363.005509 21.177893 
L 383.412366 21.177893 
" clip-path="url(#pf5b476db4c)" style="fill: none; stroke: #737373"/>
   </g>
   <g id="line2d_76">
    <path d="M 77.309509 155.97078 
L 97.716366 155.97078 
" clip-path="url(#pf5b476db4c)" style="fill: none; stroke: #737373"/>
   </g>
   <g id="line2d_77">
    <path d="M 128.326652 87.812196 
L 148.733509 87.812196 
" clip-path="url(#pf5b476db4c)" style="fill: none; stroke: #737373"/>
   </g>
   <g id="line2d_78">
    <path d="M 179.343795 215.313362 
L 199.750652 215.313362 
" clip-path="url(#pf5b476db4c)" style="fill: none; stroke: #737373"/>
   </g>
   <g id="line2d_79">
    <path d="M 230.360938 137.62154 
L 250.767795 137.62154 
" clip-path="url(#pf5b476db4c)" style="fill: none; stroke: #737373"/>
   </g>
   <g id="line2d_80">
    <path d="M 281.37808 82.879398 
L 301.784938 82.879398 
" clip-path="url(#pf5b476db4c)" style="fill: none; stroke: #737373"/>
   </g>
   <g id="line2d_81">
    <path d="M 332.395223 83.986425 
L 352.80208 83.986425 
" clip-path="url(#pf5b476db4c)" style="fill: none; stroke: #737373"/>
   </g>
   <g id="line2d_82">
    <path d="M 383.412366 50.489746 
L 403.819223 50.489746 
" clip-path="url(#pf5b476db4c)" style="fill: none; stroke: #737373"/>
   </g>
   <g id="patch_19">
    <path d="M 51.800937 273.312 
L 51.800937 7.2 
" style="fill: none; stroke: #000000; stroke-width: 0.8; stroke-linejoin: miter; stroke-linecap: square"/>
   </g>
   <g id="patch_20">
    <path d="M 408.920938 273.312 
L 408.920938 7.2 
" style="fill: none; stroke: #000000; stroke-width: 0.8; stroke-linejoin: miter; stroke-linecap: square"/>
   </g>
   <g id="patch_21">
    <path d="M 51.800938 273.312 
L 408.920938 273.312 
" style="fill: none; stroke: #000000; stroke-width: 0.8; stroke-linejoin: miter; stroke-linecap: square"/>
   </g>
   <g id="patch_22">
    <path d="M 51.800938 7.2 
L 408.920938 7.2 
" style="fill: none; stroke: #000000; stroke-width: 0.8; stroke-linejoin: miter; stroke-linecap: square"/>
   </g>
   <g id="legend_1">
    <g id="patch_23">
     <path d="M 58.800937 268.312 
L 137.557187 268.312 
Q 139.557187 268.312 139.557187 266.312 
L 139.557187 223.277625 
Q 139.557187 221.277625 137.557187 221.277625 
L 58.800937 221.277625 
Q 56.800937 221.277625 56.800937 223.277625 
L 56.800937 266.312 
Q 56.800937 268.312 58.800937 268.312 
z
" style="fill: #ffffff; opacity: 0.8; stroke: #cccccc; stroke-linejoin: miter"/>
    </g>
    <g id="text_15">
     <!-- species -->
     <g transform="translate(79.504062 232.876062) scale(0.1 -0.1)">
      <defs>
       <path id="DejaVuSans-63" d="M 3122 3366 
L 3122 2828 
Q 2878 2963 2633 3030 
Q 2388 3097 2138 3097 
Q 1578 3097 1268 2742 
Q 959 2388 959 1747 
Q 959 1106 1268 751 
Q 1578 397 2138 397 
Q 2388 397 2633 464 
Q 2878 531 3122 666 
L 3122 134 
Q 2881 22 2623 -34 
Q 2366 -91 2075 -91 
Q 1284 -91 818 406 
Q 353 903 353 1747 
Q 353 2603 823 3093 
Q 1294 3584 2113 3584 
Q 2378 3584 2631 3529 
Q 2884 3475 3122 3366 
z
" transform="scale(0.015625)"/>
      </defs>
      <use xlink:href="#DejaVuSans-73"/>
      <use xlink:href="#DejaVuSans-70" x="52.099609"/>
      <use xlink:href="#DejaVuSans-65" x="115.576172"/>
      <use xlink:href="#DejaVuSans-63" x="177.099609"/>
      <use xlink:href="#DejaVuSans-69" x="232.080078"/>
      <use xlink:href="#DejaVuSans-65" x="259.863281"/>
      <use xlink:href="#DejaVuSans-73" x="321.386719"/>
     </g>
    </g>
    <g id="patch_24">
     <path d="M 60.800937 247.554187 
L 80.800938 247.554187 
L 80.800938 240.554187 
L 60.800937 240.554187 
z
" style="fill: #b4d4df; stroke: #737373; stroke-linejoin: miter"/>
    </g>
    <g id="text_16">
     <!-- E. coli -->
     <g transform="translate(88.800938 247.554187) scale(0.1 -0.1)">
      <defs>
       <path id="DejaVuSans-45" d="M 628 4666 
L 3578 4666 
L 3578 4134 
L 1259 4134 
L 1259 2753 
L 3481 2753 
L 3481 2222 
L 1259 2222 
L 1259 531 
L 3634 531 
L 3634 0 
L 628 0 
L 628 4666 
z
" transform="scale(0.015625)"/>
       <path id="DejaVuSans-20" transform="scale(0.015625)"/>
      </defs>
      <use xlink:href="#DejaVuSans-45"/>
      <use xlink:href="#DejaVuSans-2e" x="63.183594"/>
      <use xlink:href="#DejaVuSans-20" x="94.970703"/>
      <use xlink:href="#DejaVuSans-63" x="126.757812"/>
      <use xlink:href="#DejaVuSans-6f" x="181.738281"/>
      <use xlink:href="#DejaVuSans-6c" x="242.919922"/>
      <use xlink:href="#DejaVuSans-69" x="270.703125"/>
     </g>
    </g>
    <g id="patch_25">
     <path d="M 60.800937 262.232312 
L 80.800938 262.232312 
L 80.800938 255.232312 
L 60.800937 255.232312 
z
" style="fill: #9ce29c; stroke: #737373; stroke-linejoin: miter"/>
    </g>
    <g id="text_17">
     <!-- S. aureus -->
     <g transform="translate(88.800938 262.232312) scale(0.1 -0.1)">
      <defs>
       <path id="DejaVuSans-61" d="M 2194 1759 
Q 1497 1759 1228 1600 
Q 959 1441 959 1056 
Q 959 750 1161 570 
Q 1363 391 1709 391 
Q 2188 391 2477 730 
Q 2766 1069 2766 1631 
L 2766 1759 
L 2194 1759 
z
M 3341 1997 
L 3341 0 
L 2766 0 
L 2766 531 
Q 2569 213 2275 61 
Q 1981 -91 1556 -91 
Q 1019 -91 701 211 
Q 384 513 384 1019 
Q 384 1609 779 1909 
Q 1175 2209 1959 2209 
L 2766 2209 
L 2766 2266 
Q 2766 2663 2505 2880 
Q 2244 3097 1772 3097 
Q 1472 3097 1187 3025 
Q 903 2953 641 2809 
L 641 3341 
Q 956 3463 1253 3523 
Q 1550 3584 1831 3584 
Q 2591 3584 2966 3190 
Q 3341 2797 3341 1997 
z
" transform="scale(0.015625)"/>
       <path id="DejaVuSans-75" d="M 544 1381 
L 544 3500 
L 1119 3500 
L 1119 1403 
Q 1119 906 1312 657 
Q 1506 409 1894 409 
Q 2359 409 2629 706 
Q 2900 1003 2900 1516 
L 2900 3500 
L 3475 3500 
L 3475 0 
L 2900 0 
L 2900 538 
Q 2691 219 2414 64 
Q 2138 -91 1772 -91 
Q 1169 -91 856 284 
Q 544 659 544 1381 
z
M 1991 3584 
L 1991 3584 
z
" transform="scale(0.015625)"/>
      </defs>
      <use xlink:href="#DejaVuSans-53"/>
      <use xlink:href="#DejaVuSans-2e" x="63.476562"/>
      <use xlink:href="#DejaVuSans-20" x="95.263672"/>
      <use xlink:href="#DejaVuSans-61" x="127.050781"/>
      <use xlink:href="#DejaVuSans-75" x="188.330078"/>
      <use xlink:href="#DejaVuSans-72" x="251.708984"/>
      <use xlink:href="#DejaVuSans-65" x="290.572266"/>
      <use xlink:href="#DejaVuSans-75" x="352.095703"/>
      <use xlink:href="#DejaVuSans-73" x="415.474609"/>
     </g>
    </g>
   </g>
  </g>
 </g>
 <defs>
  <clipPath id="pf5b476db4c">
   <rect x="51.800937" y="7.2" width="357.12" height="266.112"/>
  </clipPath>
 </defs>
</svg>
