<?xml version="1.0" encoding="utf-8" standalone="no"?>
<!DOCTYPE svg PUBLIC "-//W3C//DTD SVG 1.1//EN"
  "http://www.w3.org/Graphics/SVG/1.1/DTD/svg11.dtd">
<svg xmlns:xlink="http://www.w3.org/1999/xlink" width="416.120937pt" height="331.080312pt" viewBox="0 0 416.120937 331.080312" xmlns="http://www.w3.org/2000/svg" version="1.1">
 <metadata>
  <rdf:RDF xmlns:dc="http://purl.org/dc/elements/1.1/" xmlns:cc="http://creativecommons.org/ns#" xmlns:rdf="http://www.w3.org/1999/02/22-rdf-syntax-ns#">
   <cc:Work>
    <dc:type rdf:resource="http://purl.org/dc/dcmitype/StillImage"/>
    <dc:date>2024-03-02T18:58:16.935193</dc:date>
    <dc:format>image/svg+xml</dc:format>
    <dc:creator>
     <cc:Agent>
      <dc:title>Matplotlib v3.7.1, https://matplotlib.org/</dc:title>
     </cc:Agent>
    </dc:creator>
   </cc:Work>
  </rdf:RDF>
 </metadata>
 <defs>
  <style type="text/css">*{stroke-linejoin: round; stroke-linecap: butt}</style>
 </defs>
 <g id="figure_1">
  <g id="patch_1">
   <path d="M 0 331.080312 
L 416.120937 331.080312 
L 416.120937 0 
L 0 0 
z
" style="fill: #ffffff"/>
  </g>
  <g id="axes_1">
   <g id="patch_2">
    <path d="M 51.800937 273.312 
L 408.920938 273.312 
L 408.920938 7.2 
L 51.800937 7.2 
z
" style="fill: #ffffff"/>
   </g>
   <g id="patch_3">
    <path d="M 87.512938 253.917363 
L 87.512938 253.917363 
L 87.512938 253.917363 
L 87.512938 253.917363 
z
" clip-path="url(#p7df14d73bb)" style="fill: #b4d4df; stroke: #737373; stroke-linejoin: miter"/>
   </g>
   <g id="patch_4">
    <path d="M 87.512938 253.917363 
L 87.512938 253.917363 
L 87.512938 253.917363 
L 87.512938 253.917363 
z
" clip-path="url(#p7df14d73bb)" style="fill: #9ce29c; stroke: #737373; stroke-linejoin: miter"/>
   </g>
   <g id="matplotlib.axis_1">
    <g id="xtick_1">
     <g id="line2d_1">
      <defs>
       <path id="m60c1aec026" d="M 0 0 
L 0 3.5 
" style="stroke: #000000; stroke-width: 0.8"/>
      </defs>
      <g>
       <use xlink:href="#m60c1aec026" x="87.512938" y="273.312" style="stroke: #000000; stroke-width: 0.8"/>
      </g>
     </g>
     <g id="text_1">
      <!-- SVM+ -->
      <g transform="translate(69.394813 289.430125) scale(0.12 -0.12)">
       <defs>
        <path id="DejaVuSans-53" d="M 3425 4513 
L 3425 3897 
Q 3066 4069 2747 4153 
Q 2428 4238 2131 4238 
Q 1616 4238 1336 4038 
Q 1056 3838 1056 3469 
Q 1056 3159 1242 3001 
Q 1428 2844 1947 2747 
L 2328 2669 
Q 3034 2534 3370 2195 
Q 3706 1856 3706 1288 
Q 3706 609 3251 259 
Q 2797 -91 1919 -91 
Q 1588 -91 1214 -16 
Q 841 59 441 206 
L 441 856 
Q 825 641 1194 531 
Q 1563 422 1919 422 
Q 2459 422 2753 634 
Q 3047 847 3047 1241 
Q 3047 1584 2836 1778 
Q 2625 1972 2144 2069 
L 1759 2144 
Q 1053 2284 737 2584 
Q 422 2884 422 3419 
Q 422 4038 858 4394 
Q 1294 4750 2059 4750 
Q 2388 4750 2728 4690 
Q 3069 4631 3425 4513 
z
" transform="scale(0.015625)"/>
        <path id="DejaVuSans-56" d="M 1831 0 
L 50 4666 
L 709 4666 
L 2188 738 
L 3669 4666 
L 4325 4666 
L 2547 0 
L 1831 0 
z
" transform="scale(0.015625)"/>
        <path id="DejaVuSans-4d" d="M 628 4666 
L 1569 4666 
L 2759 1491 
L 3956 4666 
L 4897 4666 
L 4897 0 
L 4281 0 
L 4281 4097 
L 3078 897 
L 2444 897 
L 1241 4097 
L 1241 0 
L 628 0 
L 628 4666 
z
" transform="scale(0.015625)"/>
        <path id="DejaVuSans-2b" d="M 2944 4013 
L 2944 2272 
L 4684 2272 
L 4684 1741 
L 2944 1741 
L 2944 0 
L 2419 0 
L 2419 1741 
L 678 1741 
L 678 2272 
L 2419 2272 
L 2419 4013 
L 2944 4013 
z
" transform="scale(0.015625)"/>
       </defs>
       <use xlink:href="#DejaVuSans-53"/>
       <use xlink:href="#DejaVuSans-56" x="63.476562"/>
       <use xlink:href="#DejaVuSans-4d" x="131.884766"/>
       <use xlink:href="#DejaVuSans-2b" x="218.164062"/>
      </g>
      <!-- ProtBERT -->
      <g transform="translate(60.338563 302.8675) scale(0.12 -0.12)">
       <defs>
        <path id="DejaVuSans-50" d="M 1259 4147 
L 1259 2394 
L 2053 2394 
Q 2494 2394 2734 2622 
Q 2975 2850 2975 3272 
Q 2975 3691 2734 3919 
Q 2494 4147 2053 4147 
L 1259 4147 
z
M 628 4666 
L 2053 4666 
Q 2838 4666 3239 4311 
Q 3641 3956 3641 3272 
Q 3641 2581 3239 2228 
Q 2838 1875 2053 1875 
L 1259 1875 
L 1259 0 
L 628 0 
L 628 4666 
z
" transform="scale(0.015625)"/>
        <path id="DejaVuSans-72" d="M 2631 2963 
Q 2534 3019 2420 3045 
Q 2306 3072 2169 3072 
Q 1681 3072 1420 2755 
Q 1159 2438 1159 1844 
L 1159 0 
L 581 0 
L 581 3500 
L 1159 3500 
L 1159 2956 
Q 1341 3275 1631 3429 
Q 1922 3584 2338 3584 
Q 2397 3584 2469 3576 
Q 2541 3569 2628 3553 
L 2631 2963 
z
" transform="scale(0.015625)"/>
        <path id="DejaVuSans-6f" d="M 1959 3097 
Q 1497 3097 1228 2736 
Q 959 2375 959 1747 
Q 959 1119 1226 758 
Q 1494 397 1959 397 
Q 2419 397 2687 759 
Q 2956 1122 2956 1747 
Q 2956 2369 2687 2733 
Q 2419 3097 1959 3097 
z
M 1959 3584 
Q 2709 3584 3137 3096 
Q 3566 2609 3566 1747 
Q 3566 888 3137 398 
Q 2709 -91 1959 -91 
Q 1206 -91 779 398 
Q 353 888 353 1747 
Q 353 2609 779 3096 
Q 1206 3584 1959 3584 
z
" transform="scale(0.015625)"/>
        <path id="DejaVuSans-74" d="M 1172 4494 
L 1172 3500 
L 2356 3500 
L 2356 3053 
L 1172 3053 
L 1172 1153 
Q 1172 725 1289 603 
Q 1406 481 1766 481 
L 2356 481 
L 2356 0 
L 1766 0 
Q 1100 0 847 248 
Q 594 497 594 1153 
L 594 3053 
L 172 3053 
L 172 3500 
L 594 3500 
L 594 4494 
L 1172 4494 
z
" transform="scale(0.015625)"/>
        <path id="DejaVuSans-42" d="M 1259 2228 
L 1259 519 
L 2272 519 
Q 2781 519 3026 730 
Q 3272 941 3272 1375 
Q 3272 1813 3026 2020 
Q 2781 2228 2272 2228 
L 1259 2228 
z
M 1259 4147 
L 1259 2741 
L 2194 2741 
Q 2656 2741 2882 2914 
Q 3109 3088 3109 3444 
Q 3109 3797 2882 3972 
Q 2656 4147 2194 4147 
L 1259 4147 
z
M 628 4666 
L 2241 4666 
Q 2963 4666 3353 4366 
Q 3744 4066 3744 3513 
Q 3744 3084 3544 2831 
Q 3344 2578 2956 2516 
Q 3422 2416 3680 2098 
Q 3938 1781 3938 1306 
Q 3938 681 3513 340 
Q 3088 0 2303 0 
L 628 0 
L 628 4666 
z
" transform="scale(0.015625)"/>
        <path id="DejaVuSans-45" d="M 628 4666 
L 3578 4666 
L 3578 4134 
L 1259 4134 
L 1259 2753 
L 3481 2753 
L 3481 2222 
L 1259 2222 
L 1259 531 
L 3634 531 
L 3634 0 
L 628 0 
L 628 4666 
z
" transform="scale(0.015625)"/>
        <path id="DejaVuSans-52" d="M 2841 2188 
Q 3044 2119 3236 1894 
Q 3428 1669 3622 1275 
L 4263 0 
L 3584 0 
L 2988 1197 
Q 2756 1666 2539 1819 
Q 2322 1972 1947 1972 
L 1259 1972 
L 1259 0 
L 628 0 
L 628 4666 
L 2053 4666 
Q 2853 4666 3247 4331 
Q 3641 3997 3641 3322 
Q 3641 2881 3436 2590 
Q 3231 2300 2841 2188 
z
M 1259 4147 
L 1259 2491 
L 2053 2491 
Q 2509 2491 2742 2702 
Q 2975 2913 2975 3322 
Q 2975 3731 2742 3939 
Q 2509 4147 2053 4147 
L 1259 4147 
z
" transform="scale(0.015625)"/>
        <path id="DejaVuSans-54" d="M -19 4666 
L 3928 4666 
L 3928 4134 
L 2272 4134 
L 2272 0 
L 1638 0 
L 1638 4134 
L -19 4134 
L -19 4666 
z
" transform="scale(0.015625)"/>
       </defs>
       <use xlink:href="#DejaVuSans-50"/>
       <use xlink:href="#DejaVuSans-72" x="58.552734"/>
       <use xlink:href="#DejaVuSans-6f" x="97.416016"/>
       <use xlink:href="#DejaVuSans-74" x="158.597656"/>
       <use xlink:href="#DejaVuSans-42" x="197.806641"/>
       <use xlink:href="#DejaVuSans-45" x="266.410156"/>
       <use xlink:href="#DejaVuSans-52" x="329.59375"/>
       <use xlink:href="#DejaVuSans-54" x="391.826172"/>
      </g>
     </g>
    </g>
    <g id="xtick_2">
     <g id="line2d_2">
      <g>
       <use xlink:href="#m60c1aec026" x="158.936938" y="273.312" style="stroke: #000000; stroke-width: 0.8"/>
      </g>
     </g>
     <g id="text_2">
      <!-- RF+ -->
      <g transform="translate(146.289125 289.430125) scale(0.12 -0.12)">
       <defs>
        <path id="DejaVuSans-46" d="M 628 4666 
L 3309 4666 
L 3309 4134 
L 1259 4134 
L 1259 2759 
L 3109 2759 
L 3109 2228 
L 1259 2228 
L 1259 0 
L 628 0 
L 628 4666 
z
" transform="scale(0.015625)"/>
       </defs>
       <use xlink:href="#DejaVuSans-52"/>
       <use xlink:href="#DejaVuSans-46" x="69.482422"/>
       <use xlink:href="#DejaVuSans-2b" x="127.001953"/>
      </g>
      <!-- ProtBERT -->
      <g transform="translate(131.762563 302.8675) scale(0.12 -0.12)">
       <use xlink:href="#DejaVuSans-50"/>
       <use xlink:href="#DejaVuSans-72" x="58.552734"/>
       <use xlink:href="#DejaVuSans-6f" x="97.416016"/>
       <use xlink:href="#DejaVuSans-74" x="158.597656"/>
       <use xlink:href="#DejaVuSans-42" x="197.806641"/>
       <use xlink:href="#DejaVuSans-45" x="266.410156"/>
       <use xlink:href="#DejaVuSans-52" x="329.59375"/>
       <use xlink:href="#DejaVuSans-54" x="391.826172"/>
      </g>
     </g>
    </g>
    <g id="xtick_3">
     <g id="line2d_3">
      <g>
       <use xlink:href="#m60c1aec026" x="230.360938" y="273.312" style="stroke: #000000; stroke-width: 0.8"/>
      </g>
     </g>
     <g id="text_3">
      <!-- DT+ -->
      <g transform="translate(217.048438 289.430125) scale(0.12 -0.12)">
       <defs>
        <path id="DejaVuSans-44" d="M 1259 4147 
L 1259 519 
L 2022 519 
Q 2988 519 3436 956 
Q 3884 1394 3884 2338 
Q 3884 3275 3436 3711 
Q 2988 4147 2022 4147 
L 1259 4147 
z
M 628 4666 
L 1925 4666 
Q 3281 4666 3915 4102 
Q 4550 3538 4550 2338 
Q 4550 1131 3912 565 
Q 3275 0 1925 0 
L 628 0 
L 628 4666 
z
" transform="scale(0.015625)"/>
       </defs>
       <use xlink:href="#DejaVuSans-44"/>
       <use xlink:href="#DejaVuSans-54" x="77.001953"/>
       <use xlink:href="#DejaVuSans-2b" x="138.085938"/>
      </g>
      <!-- ProtBERT -->
      <g transform="translate(203.186563 302.8675) scale(0.12 -0.12)">
       <use xlink:href="#DejaVuSans-50"/>
       <use xlink:href="#DejaVuSans-72" x="58.552734"/>
       <use xlink:href="#DejaVuSans-6f" x="97.416016"/>
       <use xlink:href="#DejaVuSans-74" x="158.597656"/>
       <use xlink:href="#DejaVuSans-42" x="197.806641"/>
       <use xlink:href="#DejaVuSans-45" x="266.410156"/>
       <use xlink:href="#DejaVuSans-52" x="329.59375"/>
       <use xlink:href="#DejaVuSans-54" x="391.826172"/>
      </g>
     </g>
    </g>
    <g id="xtick_4">
     <g id="line2d_4">
      <g>
       <use xlink:href="#m60c1aec026" x="301.784938" y="273.312" style="stroke: #000000; stroke-width: 0.8"/>
      </g>
     </g>
     <g id="text_4">
      <!-- KNN+ -->
      <g transform="translate(283.844938 289.430125) scale(0.12 -0.12)">
       <defs>
        <path id="DejaVuSans-4b" d="M 628 4666 
L 1259 4666 
L 1259 2694 
L 3353 4666 
L 4166 4666 
L 1850 2491 
L 4331 0 
L 3500 0 
L 1259 2247 
L 1259 0 
L 628 0 
L 628 4666 
z
" transform="scale(0.015625)"/>
        <path id="DejaVuSans-4e" d="M 628 4666 
L 1478 4666 
L 3547 763 
L 3547 4666 
L 4159 4666 
L 4159 0 
L 3309 0 
L 1241 3903 
L 1241 0 
L 628 0 
L 628 4666 
z
" transform="scale(0.015625)"/>
       </defs>
       <use xlink:href="#DejaVuSans-4b"/>
       <use xlink:href="#DejaVuSans-4e" x="65.576172"/>
       <use xlink:href="#DejaVuSans-4e" x="140.380859"/>
       <use xlink:href="#DejaVuSans-2b" x="215.185547"/>
      </g>
      <!-- ProtBERT -->
      <g transform="translate(274.610563 302.8675) scale(0.12 -0.12)">
       <use xlink:href="#DejaVuSans-50"/>
       <use xlink:href="#DejaVuSans-72" x="58.552734"/>
       <use xlink:href="#DejaVuSans-6f" x="97.416016"/>
       <use xlink:href="#DejaVuSans-74" x="158.597656"/>
       <use xlink:href="#DejaVuSans-42" x="197.806641"/>
       <use xlink:href="#DejaVuSans-45" x="266.410156"/>
       <use xlink:href="#DejaVuSans-52" x="329.59375"/>
       <use xlink:href="#DejaVuSans-54" x="391.826172"/>
      </g>
     </g>
    </g>
    <g id="xtick_5">
     <g id="line2d_5">
      <g>
       <use xlink:href="#m60c1aec026" x="373.208938" y="273.312" style="stroke: #000000; stroke-width: 0.8"/>
      </g>
     </g>
     <g id="text_5">
      <!-- Proposed -->
      <g transform="translate(345.586438 289.430125) scale(0.12 -0.12)">
       <defs>
        <path id="DejaVuSans-70" d="M 1159 525 
L 1159 -1331 
L 581 -1331 
L 581 3500 
L 1159 3500 
L 1159 2969 
Q 1341 3281 1617 3432 
Q 1894 3584 2278 3584 
Q 2916 3584 3314 3078 
Q 3713 2572 3713 1747 
Q 3713 922 3314 415 
Q 2916 -91 2278 -91 
Q 1894 -91 1617 61 
Q 1341 213 1159 525 
z
M 3116 1747 
Q 3116 2381 2855 2742 
Q 2594 3103 2138 3103 
Q 1681 3103 1420 2742 
Q 1159 2381 1159 1747 
Q 1159 1113 1420 752 
Q 1681 391 2138 391 
Q 2594 391 2855 752 
Q 3116 1113 3116 1747 
z
" transform="scale(0.015625)"/>
        <path id="DejaVuSans-73" d="M 2834 3397 
L 2834 2853 
Q 2591 2978 2328 3040 
Q 2066 3103 1784 3103 
Q 1356 3103 1142 2972 
Q 928 2841 928 2578 
Q 928 2378 1081 2264 
Q 1234 2150 1697 2047 
L 1894 2003 
Q 2506 1872 2764 1633 
Q 3022 1394 3022 966 
Q 3022 478 2636 193 
Q 2250 -91 1575 -91 
Q 1294 -91 989 -36 
Q 684 19 347 128 
L 347 722 
Q 666 556 975 473 
Q 1284 391 1588 391 
Q 1994 391 2212 530 
Q 2431 669 2431 922 
Q 2431 1156 2273 1281 
Q 2116 1406 1581 1522 
L 1381 1569 
Q 847 1681 609 1914 
Q 372 2147 372 2553 
Q 372 3047 722 3315 
Q 1072 3584 1716 3584 
Q 2034 3584 2315 3537 
Q 2597 3491 2834 3397 
z
" transform="scale(0.015625)"/>
        <path id="DejaVuSans-65" d="M 3597 1894 
L 3597 1613 
L 953 1613 
Q 991 1019 1311 708 
Q 1631 397 2203 397 
Q 2534 397 2845 478 
Q 3156 559 3463 722 
L 3463 178 
Q 3153 47 2828 -22 
Q 2503 -91 2169 -91 
Q 1331 -91 842 396 
Q 353 884 353 1716 
Q 353 2575 817 3079 
Q 1281 3584 2069 3584 
Q 2775 3584 3186 3129 
Q 3597 2675 3597 1894 
z
M 3022 2063 
Q 3016 2534 2758 2815 
Q 2500 3097 2075 3097 
Q 1594 3097 1305 2825 
Q 1016 2553 972 2059 
L 3022 2063 
z
" transform="scale(0.015625)"/>
        <path id="DejaVuSans-64" d="M 2906 2969 
L 2906 4863 
L 3481 4863 
L 3481 0 
L 2906 0 
L 2906 525 
Q 2725 213 2448 61 
Q 2172 -91 1784 -91 
Q 1150 -91 751 415 
Q 353 922 353 1747 
Q 353 2572 751 3078 
Q 1150 3584 1784 3584 
Q 2172 3584 2448 3432 
Q 2725 3281 2906 2969 
z
M 947 1747 
Q 947 1113 1208 752 
Q 1469 391 1925 391 
Q 2381 391 2643 752 
Q 2906 1113 2906 1747 
Q 2906 2381 2643 2742 
Q 2381 3103 1925 3103 
Q 1469 3103 1208 2742 
Q 947 2381 947 1747 
z
" transform="scale(0.015625)"/>
       </defs>
       <use xlink:href="#DejaVuSans-50"/>
       <use xlink:href="#DejaVuSans-72" x="58.552734"/>
       <use xlink:href="#DejaVuSans-6f" x="97.416016"/>
       <use xlink:href="#DejaVuSans-70" x="158.597656"/>
       <use xlink:href="#DejaVuSans-6f" x="222.074219"/>
       <use xlink:href="#DejaVuSans-73" x="283.255859"/>
       <use xlink:href="#DejaVuSans-65" x="335.355469"/>
       <use xlink:href="#DejaVuSans-64" x="396.878906"/>
      </g>
      <!-- model -->
      <g transform="translate(354.5255 302.8675) scale(0.12 -0.12)">
       <defs>
        <path id="DejaVuSans-6d" d="M 3328 2828 
Q 3544 3216 3844 3400 
Q 4144 3584 4550 3584 
Q 5097 3584 5394 3201 
Q 5691 2819 5691 2113 
L 5691 0 
L 5113 0 
L 5113 2094 
Q 5113 2597 4934 2840 
Q 4756 3084 4391 3084 
Q 3944 3084 3684 2787 
Q 3425 2491 3425 1978 
L 3425 0 
L 2847 0 
L 2847 2094 
Q 2847 2600 2669 2842 
Q 2491 3084 2119 3084 
Q 1678 3084 1418 2786 
Q 1159 2488 1159 1978 
L 1159 0 
L 581 0 
L 581 3500 
L 1159 3500 
L 1159 2956 
Q 1356 3278 1631 3431 
Q 1906 3584 2284 3584 
Q 2666 3584 2933 3390 
Q 3200 3197 3328 2828 
z
" transform="scale(0.015625)"/>
        <path id="DejaVuSans-6c" d="M 603 4863 
L 1178 4863 
L 1178 0 
L 603 0 
L 603 4863 
z
" transform="scale(0.015625)"/>
       </defs>
       <use xlink:href="#DejaVuSans-6d"/>
       <use xlink:href="#DejaVuSans-6f" x="97.412109"/>
       <use xlink:href="#DejaVuSans-64" x="158.59375"/>
       <use xlink:href="#DejaVuSans-65" x="222.070312"/>
       <use xlink:href="#DejaVuSans-6c" x="283.59375"/>
      </g>
     </g>
    </g>
    <g id="text_6">
     <!-- Models -->
     <g transform="translate(203.933984 320.760781) scale(0.15 -0.15)">
      <use xlink:href="#DejaVuSans-4d"/>
      <use xlink:href="#DejaVuSans-6f" x="86.279297"/>
      <use xlink:href="#DejaVuSans-64" x="147.460938"/>
      <use xlink:href="#DejaVuSans-65" x="210.9375"/>
      <use xlink:href="#DejaVuSans-6c" x="272.460938"/>
      <use xlink:href="#DejaVuSans-73" x="300.244141"/>
     </g>
    </g>
   </g>
   <g id="matplotlib.axis_2">
    <g id="ytick_1">
     <g id="line2d_6">
      <defs>
       <path id="m916d7bd9af" d="M 0 0 
L -3.5 0 
" style="stroke: #000000; stroke-width: 0.8"/>
      </defs>
      <g>
       <use xlink:href="#m916d7bd9af" x="51.800937" y="253.917363" style="stroke: #000000; stroke-width: 0.8"/>
      </g>
     </g>
     <g id="text_7">
      <!-- 0.0 -->
      <g transform="translate(25.717187 258.476425) scale(0.12 -0.12)">
       <defs>
        <path id="DejaVuSans-30" d="M 2034 4250 
Q 1547 4250 1301 3770 
Q 1056 3291 1056 2328 
Q 1056 1369 1301 889 
Q 1547 409 2034 409 
Q 2525 409 2770 889 
Q 3016 1369 3016 2328 
Q 3016 3291 2770 3770 
Q 2525 4250 2034 4250 
z
M 2034 4750 
Q 2819 4750 3233 4129 
Q 3647 3509 3647 2328 
Q 3647 1150 3233 529 
Q 2819 -91 2034 -91 
Q 1250 -91 836 529 
Q 422 1150 422 2328 
Q 422 3509 836 4129 
Q 1250 4750 2034 4750 
z
" transform="scale(0.015625)"/>
        <path id="DejaVuSans-2e" d="M 684 794 
L 1344 794 
L 1344 0 
L 684 0 
L 684 794 
z
" transform="scale(0.015625)"/>
       </defs>
       <use xlink:href="#DejaVuSans-30"/>
       <use xlink:href="#DejaVuSans-2e" x="63.623047"/>
       <use xlink:href="#DejaVuSans-30" x="95.410156"/>
      </g>
     </g>
    </g>
    <g id="ytick_2">
     <g id="line2d_7">
      <g>
       <use xlink:href="#m916d7bd9af" x="51.800937" y="195.72555" style="stroke: #000000; stroke-width: 0.8"/>
      </g>
     </g>
     <g id="text_8">
      <!-- 0.2 -->
      <g transform="translate(25.717187 200.284613) scale(0.12 -0.12)">
       <defs>
        <path id="DejaVuSans-32" d="M 1228 531 
L 3431 531 
L 3431 0 
L 469 0 
L 469 531 
Q 828 903 1448 1529 
Q 2069 2156 2228 2338 
Q 2531 2678 2651 2914 
Q 2772 3150 2772 3378 
Q 2772 3750 2511 3984 
Q 2250 4219 1831 4219 
Q 1534 4219 1204 4116 
Q 875 4013 500 3803 
L 500 4441 
Q 881 4594 1212 4672 
Q 1544 4750 1819 4750 
Q 2544 4750 2975 4387 
Q 3406 4025 3406 3419 
Q 3406 3131 3298 2873 
Q 3191 2616 2906 2266 
Q 2828 2175 2409 1742 
Q 1991 1309 1228 531 
z
" transform="scale(0.015625)"/>
       </defs>
       <use xlink:href="#DejaVuSans-30"/>
       <use xlink:href="#DejaVuSans-2e" x="63.623047"/>
       <use xlink:href="#DejaVuSans-32" x="95.410156"/>
      </g>
     </g>
    </g>
    <g id="ytick_3">
     <g id="line2d_8">
      <g>
       <use xlink:href="#m916d7bd9af" x="51.800937" y="137.533738" style="stroke: #000000; stroke-width: 0.8"/>
      </g>
     </g>
     <g id="text_9">
      <!-- 0.4 -->
      <g transform="translate(25.717187 142.0928) scale(0.12 -0.12)">
       <defs>
        <path id="DejaVuSans-34" d="M 2419 4116 
L 825 1625 
L 2419 1625 
L 2419 4116 
z
M 2253 4666 
L 3047 4666 
L 3047 1625 
L 3713 1625 
L 3713 1100 
L 3047 1100 
L 3047 0 
L 2419 0 
L 2419 1100 
L 313 1100 
L 313 1709 
L 2253 4666 
z
" transform="scale(0.015625)"/>
       </defs>
       <use xlink:href="#DejaVuSans-30"/>
       <use xlink:href="#DejaVuSans-2e" x="63.623047"/>
       <use xlink:href="#DejaVuSans-34" x="95.410156"/>
      </g>
     </g>
    </g>
    <g id="ytick_4">
     <g id="line2d_9">
      <g>
       <use xlink:href="#m916d7bd9af" x="51.800937" y="79.341925" style="stroke: #000000; stroke-width: 0.8"/>
      </g>
     </g>
     <g id="text_10">
      <!-- 0.6 -->
      <g transform="translate(25.717187 83.900988) scale(0.12 -0.12)">
       <defs>
        <path id="DejaVuSans-36" d="M 2113 2584 
Q 1688 2584 1439 2293 
Q 1191 2003 1191 1497 
Q 1191 994 1439 701 
Q 1688 409 2113 409 
Q 2538 409 2786 701 
Q 3034 994 3034 1497 
Q 3034 2003 2786 2293 
Q 2538 2584 2113 2584 
z
M 3366 4563 
L 3366 3988 
Q 3128 4100 2886 4159 
Q 2644 4219 2406 4219 
Q 1781 4219 1451 3797 
Q 1122 3375 1075 2522 
Q 1259 2794 1537 2939 
Q 1816 3084 2150 3084 
Q 2853 3084 3261 2657 
Q 3669 2231 3669 1497 
Q 3669 778 3244 343 
Q 2819 -91 2113 -91 
Q 1303 -91 875 529 
Q 447 1150 447 2328 
Q 447 3434 972 4092 
Q 1497 4750 2381 4750 
Q 2619 4750 2861 4703 
Q 3103 4656 3366 4563 
z
" transform="scale(0.015625)"/>
       </defs>
       <use xlink:href="#DejaVuSans-30"/>
       <use xlink:href="#DejaVuSans-2e" x="63.623047"/>
       <use xlink:href="#DejaVuSans-36" x="95.410156"/>
      </g>
     </g>
    </g>
    <g id="ytick_5">
     <g id="line2d_10">
      <g>
       <use xlink:href="#m916d7bd9af" x="51.800937" y="21.150113" style="stroke: #000000; stroke-width: 0.8"/>
      </g>
     </g>
     <g id="text_11">
      <!-- 0.8 -->
      <g transform="translate(25.717187 25.709175) scale(0.12 -0.12)">
       <defs>
        <path id="DejaVuSans-38" d="M 2034 2216 
Q 1584 2216 1326 1975 
Q 1069 1734 1069 1313 
Q 1069 891 1326 650 
Q 1584 409 2034 409 
Q 2484 409 2743 651 
Q 3003 894 3003 1313 
Q 3003 1734 2745 1975 
Q 2488 2216 2034 2216 
z
M 1403 2484 
Q 997 2584 770 2862 
Q 544 3141 544 3541 
Q 544 4100 942 4425 
Q 1341 4750 2034 4750 
Q 2731 4750 3128 4425 
Q 3525 4100 3525 3541 
Q 3525 3141 3298 2862 
Q 3072 2584 2669 2484 
Q 3125 2378 3379 2068 
Q 3634 1759 3634 1313 
Q 3634 634 3220 271 
Q 2806 -91 2034 -91 
Q 1263 -91 848 271 
Q 434 634 434 1313 
Q 434 1759 690 2068 
Q 947 2378 1403 2484 
z
M 1172 3481 
Q 1172 3119 1398 2916 
Q 1625 2713 2034 2713 
Q 2441 2713 2670 2916 
Q 2900 3119 2900 3481 
Q 2900 3844 2670 4047 
Q 2441 4250 2034 4250 
Q 1625 4250 1398 4047 
Q 1172 3844 1172 3481 
z
" transform="scale(0.015625)"/>
       </defs>
       <use xlink:href="#DejaVuSans-30"/>
       <use xlink:href="#DejaVuSans-2e" x="63.623047"/>
       <use xlink:href="#DejaVuSans-38" x="95.410156"/>
      </g>
     </g>
    </g>
    <g id="text_12">
     <!-- PCC -->
     <g transform="translate(18.597656 155.252484) rotate(-90) scale(0.15 -0.15)">
      <defs>
       <path id="DejaVuSans-43" d="M 4122 4306 
L 4122 3641 
Q 3803 3938 3442 4084 
Q 3081 4231 2675 4231 
Q 1875 4231 1450 3742 
Q 1025 3253 1025 2328 
Q 1025 1406 1450 917 
Q 1875 428 2675 428 
Q 3081 428 3442 575 
Q 3803 722 4122 1019 
L 4122 359 
Q 3791 134 3420 21 
Q 3050 -91 2638 -91 
Q 1578 -91 968 557 
Q 359 1206 359 2328 
Q 359 3453 968 4101 
Q 1578 4750 2638 4750 
Q 3056 4750 3426 4639 
Q 3797 4528 4122 4306 
z
" transform="scale(0.015625)"/>
      </defs>
      <use xlink:href="#DejaVuSans-50"/>
      <use xlink:href="#DejaVuSans-43" x="60.302734"/>
      <use xlink:href="#DejaVuSans-43" x="130.126953"/>
     </g>
    </g>
   </g>
   <g id="patch_5">
    <path d="M 58.943337 230.01803 
L 87.512938 230.01803 
L 87.512938 218.728131 
L 58.943337 218.728131 
L 58.943337 230.01803 
z
" clip-path="url(#p7df14d73bb)" style="fill: #b4d4df; stroke: #737373; stroke-linejoin: miter"/>
   </g>
   <g id="line2d_11">
    <path d="M 73.228138 230.01803 
L 73.228138 238.302151 
" clip-path="url(#p7df14d73bb)" style="fill: none; stroke: #737373"/>
   </g>
   <g id="line2d_12">
    <path d="M 73.228138 218.728131 
L 73.228138 218.728131 
" clip-path="url(#p7df14d73bb)" style="fill: none; stroke: #737373"/>
   </g>
   <g id="line2d_13">
    <path d="M 66.085737 238.302151 
L 80.370538 238.302151 
" clip-path="url(#p7df14d73bb)" style="fill: none; stroke: #737373; stroke-linecap: square"/>
   </g>
   <g id="line2d_14">
    <path d="M 66.085737 218.728131 
L 80.370538 218.728131 
" clip-path="url(#p7df14d73bb)" style="fill: none; stroke: #737373; stroke-linecap: square"/>
   </g>
   <g id="patch_6">
    <path d="M 130.367338 233.792059 
L 158.936938 233.792059 
L 158.936938 230.233924 
L 130.367338 230.233924 
L 130.367338 233.792059 
z
" clip-path="url(#p7df14d73bb)" style="fill: #b4d4df; stroke: #737373; stroke-linejoin: miter"/>
   </g>
   <g id="line2d_15">
    <path d="M 144.652138 233.792059 
L 144.652138 234.457459 
" clip-path="url(#p7df14d73bb)" style="fill: none; stroke: #737373"/>
   </g>
   <g id="line2d_16">
    <path d="M 144.652138 230.233924 
L 144.652138 230.233924 
" clip-path="url(#p7df14d73bb)" style="fill: none; stroke: #737373"/>
   </g>
   <g id="line2d_17">
    <path d="M 137.509738 234.457459 
L 151.794538 234.457459 
" clip-path="url(#p7df14d73bb)" style="fill: none; stroke: #737373; stroke-linecap: square"/>
   </g>
   <g id="line2d_18">
    <path d="M 137.509738 230.233924 
L 151.794538 230.233924 
" clip-path="url(#p7df14d73bb)" style="fill: none; stroke: #737373; stroke-linecap: square"/>
   </g>
   <g id="patch_7">
    <path d="M 201.791338 244.956036 
L 230.360938 244.956036 
L 230.360938 227.048699 
L 201.791338 227.048699 
L 201.791338 244.956036 
z
" clip-path="url(#p7df14d73bb)" style="fill: #b4d4df; stroke: #737373; stroke-linejoin: miter"/>
   </g>
   <g id="line2d_19">
    <path d="M 216.076138 244.956036 
L 216.076138 248.726789 
" clip-path="url(#p7df14d73bb)" style="fill: none; stroke: #737373"/>
   </g>
   <g id="line2d_20">
    <path d="M 216.076138 227.048699 
L 216.076138 223.07253 
" clip-path="url(#p7df14d73bb)" style="fill: none; stroke: #737373"/>
   </g>
   <g id="line2d_21">
    <path d="M 208.933738 248.726789 
L 223.218538 248.726789 
" clip-path="url(#p7df14d73bb)" style="fill: none; stroke: #737373; stroke-linecap: square"/>
   </g>
   <g id="line2d_22">
    <path d="M 208.933738 223.07253 
L 223.218538 223.07253 
" clip-path="url(#p7df14d73bb)" style="fill: none; stroke: #737373; stroke-linecap: square"/>
   </g>
   <g id="patch_8">
    <path d="M 273.215338 242.041726 
L 301.784938 242.041726 
L 301.784938 229.800229 
L 273.215338 229.800229 
L 273.215338 242.041726 
z
" clip-path="url(#p7df14d73bb)" style="fill: #b4d4df; stroke: #737373; stroke-linejoin: miter"/>
   </g>
   <g id="line2d_23">
    <path d="M 287.500138 242.041726 
L 287.500138 248.694438 
" clip-path="url(#p7df14d73bb)" style="fill: none; stroke: #737373"/>
   </g>
   <g id="line2d_24">
    <path d="M 287.500138 229.800229 
L 287.500138 220.60581 
" clip-path="url(#p7df14d73bb)" style="fill: none; stroke: #737373"/>
   </g>
   <g id="line2d_25">
    <path d="M 280.357738 248.694438 
L 294.642538 248.694438 
" clip-path="url(#p7df14d73bb)" style="fill: none; stroke: #737373; stroke-linecap: square"/>
   </g>
   <g id="line2d_26">
    <path d="M 280.357738 220.60581 
L 294.642538 220.60581 
" clip-path="url(#p7df14d73bb)" style="fill: none; stroke: #737373; stroke-linecap: square"/>
   </g>
   <g id="patch_9">
    <path d="M 344.639338 25.794863 
L 373.208938 25.794863 
L 373.208938 20.190027 
L 344.639338 20.190027 
L 344.639338 25.794863 
z
" clip-path="url(#p7df14d73bb)" style="fill: #b4d4df; stroke: #737373; stroke-linejoin: miter"/>
   </g>
   <g id="line2d_27">
    <path d="M 358.924138 25.794863 
L 358.924138 26.787352 
" clip-path="url(#p7df14d73bb)" style="fill: none; stroke: #737373"/>
   </g>
   <g id="line2d_28">
    <path d="M 358.924138 20.190027 
L 358.924138 19.296 
" clip-path="url(#p7df14d73bb)" style="fill: none; stroke: #737373"/>
   </g>
   <g id="line2d_29">
    <path d="M 351.781738 26.787352 
L 366.066538 26.787352 
" clip-path="url(#p7df14d73bb)" style="fill: none; stroke: #737373; stroke-linecap: square"/>
   </g>
   <g id="line2d_30">
    <path d="M 351.781738 19.296 
L 366.066538 19.296 
" clip-path="url(#p7df14d73bb)" style="fill: none; stroke: #737373; stroke-linecap: square"/>
   </g>
   <g id="patch_10">
    <path d="M 87.512938 203.006572 
L 116.082538 203.006572 
L 116.082538 189.864274 
L 87.512938 189.864274 
L 87.512938 203.006572 
z
" clip-path="url(#p7df14d73bb)" style="fill: #9ce29c; stroke: #737373; stroke-linejoin: miter"/>
   </g>
   <g id="line2d_31">
    <path d="M 101.797738 203.006572 
L 101.797738 203.785056 
" clip-path="url(#p7df14d73bb)" style="fill: none; stroke: #737373"/>
   </g>
   <g id="line2d_32">
    <path d="M 101.797738 189.864274 
L 101.797738 188.452703 
" clip-path="url(#p7df14d73bb)" style="fill: none; stroke: #737373"/>
   </g>
   <g id="line2d_33">
    <path d="M 94.655338 203.785056 
L 108.940138 203.785056 
" clip-path="url(#p7df14d73bb)" style="fill: none; stroke: #737373; stroke-linecap: square"/>
   </g>
   <g id="line2d_34">
    <path d="M 94.655338 188.452703 
L 108.940138 188.452703 
" clip-path="url(#p7df14d73bb)" style="fill: none; stroke: #737373; stroke-linecap: square"/>
   </g>
   <g id="patch_11">
    <path d="M 158.936938 233.876993 
L 187.506538 233.876993 
L 187.506538 223.921126 
L 158.936938 223.921126 
L 158.936938 233.876993 
z
" clip-path="url(#p7df14d73bb)" style="fill: #9ce29c; stroke: #737373; stroke-linejoin: miter"/>
   </g>
   <g id="line2d_35">
    <path d="M 173.221738 233.876993 
L 173.221738 239.284168 
" clip-path="url(#p7df14d73bb)" style="fill: none; stroke: #737373"/>
   </g>
   <g id="line2d_36">
    <path d="M 173.221738 223.921126 
L 173.221738 210.55532 
" clip-path="url(#p7df14d73bb)" style="fill: none; stroke: #737373"/>
   </g>
   <g id="line2d_37">
    <path d="M 166.079338 239.284168 
L 180.364138 239.284168 
" clip-path="url(#p7df14d73bb)" style="fill: none; stroke: #737373; stroke-linecap: square"/>
   </g>
   <g id="line2d_38">
    <path d="M 166.079338 210.55532 
L 180.364138 210.55532 
" clip-path="url(#p7df14d73bb)" style="fill: none; stroke: #737373; stroke-linecap: square"/>
   </g>
   <g id="patch_12">
    <path d="M 230.360938 251.489659 
L 258.930538 251.489659 
L 258.930538 236.796176 
L 230.360938 236.796176 
L 230.360938 251.489659 
z
" clip-path="url(#p7df14d73bb)" style="fill: #9ce29c; stroke: #737373; stroke-linejoin: miter"/>
   </g>
   <g id="line2d_39">
    <path d="M 244.645738 251.489659 
L 244.645738 261.216 
" clip-path="url(#p7df14d73bb)" style="fill: none; stroke: #737373"/>
   </g>
   <g id="line2d_40">
    <path d="M 244.645738 236.796176 
L 244.645738 228.418901 
" clip-path="url(#p7df14d73bb)" style="fill: none; stroke: #737373"/>
   </g>
   <g id="line2d_41">
    <path d="M 237.503338 261.216 
L 251.788138 261.216 
" clip-path="url(#p7df14d73bb)" style="fill: none; stroke: #737373; stroke-linecap: square"/>
   </g>
   <g id="line2d_42">
    <path d="M 237.503338 228.418901 
L 251.788138 228.418901 
" clip-path="url(#p7df14d73bb)" style="fill: none; stroke: #737373; stroke-linecap: square"/>
   </g>
   <g id="patch_13">
    <path d="M 301.784938 237.490791 
L 330.354538 237.490791 
L 330.354538 209.674999 
L 301.784938 209.674999 
L 301.784938 237.490791 
z
" clip-path="url(#p7df14d73bb)" style="fill: #9ce29c; stroke: #737373; stroke-linejoin: miter"/>
   </g>
   <g id="line2d_43">
    <path d="M 316.069738 237.490791 
L 316.069738 254.036494 
" clip-path="url(#p7df14d73bb)" style="fill: none; stroke: #737373"/>
   </g>
   <g id="line2d_44">
    <path d="M 316.069738 209.674999 
L 316.069738 190.321343 
" clip-path="url(#p7df14d73bb)" style="fill: none; stroke: #737373"/>
   </g>
   <g id="line2d_45">
    <path d="M 308.927338 254.036494 
L 323.212138 254.036494 
" clip-path="url(#p7df14d73bb)" style="fill: none; stroke: #737373; stroke-linecap: square"/>
   </g>
   <g id="line2d_46">
    <path d="M 308.927338 190.321343 
L 323.212138 190.321343 
" clip-path="url(#p7df14d73bb)" style="fill: none; stroke: #737373; stroke-linecap: square"/>
   </g>
   <g id="patch_14">
    <path d="M 373.208938 35.996929 
L 401.778538 35.996929 
L 401.778538 32.472575 
L 373.208938 32.472575 
L 373.208938 35.996929 
z
" clip-path="url(#p7df14d73bb)" style="fill: #9ce29c; stroke: #737373; stroke-linejoin: miter"/>
   </g>
   <g id="line2d_47">
    <path d="M 387.493738 35.996929 
L 387.493738 37.601853 
" clip-path="url(#p7df14d73bb)" style="fill: none; stroke: #737373"/>
   </g>
   <g id="line2d_48">
    <path d="M 387.493738 32.472575 
L 387.493738 32.383217 
" clip-path="url(#p7df14d73bb)" style="fill: none; stroke: #737373"/>
   </g>
   <g id="line2d_49">
    <path d="M 380.351338 37.601853 
L 394.636138 37.601853 
" clip-path="url(#p7df14d73bb)" style="fill: none; stroke: #737373; stroke-linecap: square"/>
   </g>
   <g id="line2d_50">
    <path d="M 380.351338 32.383217 
L 394.636138 32.383217 
" clip-path="url(#p7df14d73bb)" style="fill: none; stroke: #737373; stroke-linecap: square"/>
   </g>
   <g id="line2d_51">
    <path d="M 58.943337 225.102405 
L 87.512938 225.102405 
" clip-path="url(#p7df14d73bb)" style="fill: none; stroke: #737373"/>
   </g>
   <g id="line2d_52">
    <path d="M 130.367338 230.586985 
L 158.936938 230.586985 
" clip-path="url(#p7df14d73bb)" style="fill: none; stroke: #737373"/>
   </g>
   <g id="line2d_53">
    <path d="M 201.791338 242.160329 
L 230.360938 242.160329 
" clip-path="url(#p7df14d73bb)" style="fill: none; stroke: #737373"/>
   </g>
   <g id="line2d_54">
    <path d="M 273.215338 239.256371 
L 301.784938 239.256371 
" clip-path="url(#p7df14d73bb)" style="fill: none; stroke: #737373"/>
   </g>
   <g id="line2d_55">
    <path d="M 344.639338 20.285234 
L 373.208938 20.285234 
" clip-path="url(#p7df14d73bb)" style="fill: none; stroke: #737373"/>
   </g>
   <g id="line2d_56">
    <path d="M 87.512938 197.435053 
L 116.082538 197.435053 
" clip-path="url(#p7df14d73bb)" style="fill: none; stroke: #737373"/>
   </g>
   <g id="line2d_57">
    <path d="M 158.936938 233.706873 
L 187.506538 233.706873 
" clip-path="url(#p7df14d73bb)" style="fill: none; stroke: #737373"/>
   </g>
   <g id="line2d_58">
    <path d="M 230.360938 237.145114 
L 258.930538 237.145114 
" clip-path="url(#p7df14d73bb)" style="fill: none; stroke: #737373"/>
   </g>
   <g id="line2d_59">
    <path d="M 301.784938 215.671056 
L 330.354538 215.671056 
" clip-path="url(#p7df14d73bb)" style="fill: none; stroke: #737373"/>
   </g>
   <g id="line2d_60">
    <path d="M 373.208938 35.693266 
L 401.778538 35.693266 
" clip-path="url(#p7df14d73bb)" style="fill: none; stroke: #737373"/>
   </g>
   <g id="patch_15">
    <path d="M 51.800937 273.312 
L 51.800937 7.2 
" style="fill: none; stroke: #000000; stroke-width: 0.8; stroke-linejoin: miter; stroke-linecap: square"/>
   </g>
   <g id="patch_16">
    <path d="M 408.920938 273.312 
L 408.920938 7.2 
" style="fill: none; stroke: #000000; stroke-width: 0.8; stroke-linejoin: miter; stroke-linecap: square"/>
   </g>
   <g id="patch_17">
    <path d="M 51.800937 273.312 
L 408.920938 273.312 
" style="fill: none; stroke: #000000; stroke-width: 0.8; stroke-linejoin: miter; stroke-linecap: square"/>
   </g>
   <g id="patch_18">
    <path d="M 51.800937 7.2 
L 408.920938 7.2 
" style="fill: none; stroke: #000000; stroke-width: 0.8; stroke-linejoin: miter; stroke-linecap: square"/>
   </g>
   <g id="legend_1">
    <g id="patch_19">
     <path d="M 58.800937 59.234375 
L 137.557187 59.234375 
Q 139.557187 59.234375 139.557187 57.234375 
L 139.557187 14.2 
Q 139.557187 12.2 137.557187 12.2 
L 58.800937 12.2 
Q 56.800937 12.2 56.800937 14.2 
L 56.800937 57.234375 
Q 56.800937 59.234375 58.800937 59.234375 
z
" style="fill: #ffffff; opacity: 0.8; stroke: #cccccc; stroke-linejoin: miter"/>
    </g>
    <g id="text_13">
     <!-- species -->
     <g transform="translate(79.504062 23.798437) scale(0.1 -0.1)">
      <defs>
       <path id="DejaVuSans-63" d="M 3122 3366 
L 3122 2828 
Q 2878 2963 2633 3030 
Q 2388 3097 2138 3097 
Q 1578 3097 1268 2742 
Q 959 2388 959 1747 
Q 959 1106 1268 751 
Q 1578 397 2138 397 
Q 2388 397 2633 464 
Q 2878 531 3122 666 
L 3122 134 
Q 2881 22 2623 -34 
Q 2366 -91 2075 -91 
Q 1284 -91 818 406 
Q 353 903 353 1747 
Q 353 2603 823 3093 
Q 1294 3584 2113 3584 
Q 2378 3584 2631 3529 
Q 2884 3475 3122 3366 
z
" transform="scale(0.015625)"/>
       <path id="DejaVuSans-69" d="M 603 3500 
L 1178 3500 
L 1178 0 
L 603 0 
L 603 3500 
z
M 603 4863 
L 1178 4863 
L 1178 4134 
L 603 4134 
L 603 4863 
z
" transform="scale(0.015625)"/>
      </defs>
      <use xlink:href="#DejaVuSans-73"/>
      <use xlink:href="#DejaVuSans-70" x="52.099609"/>
      <use xlink:href="#DejaVuSans-65" x="115.576172"/>
      <use xlink:href="#DejaVuSans-63" x="177.099609"/>
      <use xlink:href="#DejaVuSans-69" x="232.080078"/>
      <use xlink:href="#DejaVuSans-65" x="259.863281"/>
      <use xlink:href="#DejaVuSans-73" x="321.386719"/>
     </g>
    </g>
    <g id="patch_20">
     <path d="M 60.800937 38.476562 
L 80.800938 38.476562 
L 80.800938 31.476562 
L 60.800937 31.476562 
z
" style="fill: #b4d4df; stroke: #737373; stroke-linejoin: miter"/>
    </g>
    <g id="text_14">
     <!-- E. coli -->
     <g transform="translate(88.800938 38.476562) scale(0.1 -0.1)">
      <defs>
       <path id="DejaVuSans-20" transform="scale(0.015625)"/>
      </defs>
      <use xlink:href="#DejaVuSans-45"/>
      <use xlink:href="#DejaVuSans-2e" x="63.183594"/>
      <use xlink:href="#DejaVuSans-20" x="94.970703"/>
      <use xlink:href="#DejaVuSans-63" x="126.757812"/>
      <use xlink:href="#DejaVuSans-6f" x="181.738281"/>
      <use xlink:href="#DejaVuSans-6c" x="242.919922"/>
      <use xlink:href="#DejaVuSans-69" x="270.703125"/>
     </g>
    </g>
    <g id="patch_21">
     <path d="M 60.800937 53.154687 
L 80.800938 53.154687 
L 80.800938 46.154687 
L 60.800937 46.154687 
z
" style="fill: #9ce29c; stroke: #737373; stroke-linejoin: miter"/>
    </g>
    <g id="text_15">
     <!-- S. aureus -->
     <g transform="translate(88.800938 53.154687) scale(0.1 -0.1)">
      <defs>
       <path id="DejaVuSans-61" d="M 2194 1759 
Q 1497 1759 1228 1600 
Q 959 1441 959 1056 
Q 959 750 1161 570 
Q 1363 391 1709 391 
Q 2188 391 2477 730 
Q 2766 1069 2766 1631 
L 2766 1759 
L 2194 1759 
z
M 3341 1997 
L 3341 0 
L 2766 0 
L 2766 531 
Q 2569 213 2275 61 
Q 1981 -91 1556 -91 
Q 1019 -91 701 211 
Q 384 513 384 1019 
Q 384 1609 779 1909 
Q 1175 2209 1959 2209 
L 2766 2209 
L 2766 2266 
Q 2766 2663 2505 2880 
Q 2244 3097 1772 3097 
Q 1472 3097 1187 3025 
Q 903 2953 641 2809 
L 641 3341 
Q 956 3463 1253 3523 
Q 1550 3584 1831 3584 
Q 2591 3584 2966 3190 
Q 3341 2797 3341 1997 
z
" transform="scale(0.015625)"/>
       <path id="DejaVuSans-75" d="M 544 1381 
L 544 3500 
L 1119 3500 
L 1119 1403 
Q 1119 906 1312 657 
Q 1506 409 1894 409 
Q 2359 409 2629 706 
Q 2900 1003 2900 1516 
L 2900 3500 
L 3475 3500 
L 3475 0 
L 2900 0 
L 2900 538 
Q 2691 219 2414 64 
Q 2138 -91 1772 -91 
Q 1169 -91 856 284 
Q 544 659 544 1381 
z
M 1991 3584 
L 1991 3584 
z
" transform="scale(0.015625)"/>
      </defs>
      <use xlink:href="#DejaVuSans-53"/>
      <use xlink:href="#DejaVuSans-2e" x="63.476562"/>
      <use xlink:href="#DejaVuSans-20" x="95.263672"/>
      <use xlink:href="#DejaVuSans-61" x="127.050781"/>
      <use xlink:href="#DejaVuSans-75" x="188.330078"/>
      <use xlink:href="#DejaVuSans-72" x="251.708984"/>
      <use xlink:href="#DejaVuSans-65" x="290.572266"/>
      <use xlink:href="#DejaVuSans-75" x="352.095703"/>
      <use xlink:href="#DejaVuSans-73" x="415.474609"/>
     </g>
    </g>
   </g>
  </g>
 </g>
 <defs>
  <clipPath id="p7df14d73bb">
   <rect x="51.800937" y="7.2" width="357.12" height="266.112"/>
  </clipPath>
 </defs>
</svg>
