<?xml version="1.0" encoding="utf-8" standalone="no"?>
<!DOCTYPE svg PUBLIC "-//W3C//DTD SVG 1.1//EN"
  "http://www.w3.org/Graphics/SVG/1.1/DTD/svg11.dtd">
<svg xmlns:xlink="http://www.w3.org/1999/xlink" width="460.8pt" height="345.6pt" viewBox="0 0 460.8 345.6" xmlns="http://www.w3.org/2000/svg" version="1.1">
 <metadata>
  <rdf:RDF xmlns:dc="http://purl.org/dc/elements/1.1/" xmlns:cc="http://creativecommons.org/ns#" xmlns:rdf="http://www.w3.org/1999/02/22-rdf-syntax-ns#">
   <cc:Work>
    <dc:type rdf:resource="http://purl.org/dc/dcmitype/StillImage"/>
    <dc:date>2024-03-02T19:27:52.190870</dc:date>
    <dc:format>image/svg+xml</dc:format>
    <dc:creator>
     <cc:Agent>
      <dc:title>Matplotlib v3.7.1, https://matplotlib.org/</dc:title>
     </cc:Agent>
    </dc:creator>
   </cc:Work>
  </rdf:RDF>
 </metadata>
 <defs>
  <style type="text/css">*{stroke-linejoin: round; stroke-linecap: butt}</style>
 </defs>
 <g id="figure_1">
  <g id="patch_1">
   <path d="M 0 345.6 
L 460.8 345.6 
L 460.8 0 
L 0 0 
z
" style="fill: #ffffff"/>
  </g>
  <g id="axes_1">
   <g id="patch_2">
    <path d="M 57.6 307.584 
L 343.296 307.584 
L 343.296 41.472 
L 57.6 41.472 
z
" style="fill: #ffffff"/>
   </g>
   <g id="QuadMesh_1">
    <path d="M 57.6 41.472 
L 81.408 41.472 
L 81.408 58.104 
L 57.6 58.104 
L 57.6 41.472 
" clip-path="url(#p3cc7d26d5c)" style="fill: #516ddb"/>
    <path d="M 81.408 41.472 
L 105.216 41.472 
L 105.216 58.104 
L 81.408 58.104 
L 81.408 41.472 
" clip-path="url(#p3cc7d26d5c)" style="fill: #6b8df0"/>
    <path d="M 105.216 41.472 
L 129.024 41.472 
L 129.024 58.104 
L 105.216 58.104 
L 105.216 41.472 
" clip-path="url(#p3cc7d26d5c)" style="fill: #86a9fc"/>
    <path d="M 129.024 41.472 
L 152.832 41.472 
L 152.832 58.104 
L 129.024 58.104 
L 129.024 41.472 
" clip-path="url(#p3cc7d26d5c)" style="fill: #6b8df0"/>
    <path d="M 152.832 41.472 
L 176.64 41.472 
L 176.64 58.104 
L 152.832 58.104 
L 152.832 41.472 
" clip-path="url(#p3cc7d26d5c)" style="fill: #516ddb"/>
    <path d="M 176.64 41.472 
L 200.448 41.472 
L 200.448 58.104 
L 176.64 58.104 
L 176.64 41.472 
" clip-path="url(#p3cc7d26d5c)" style="fill: #6b8df0"/>
    <path d="M 200.448 41.472 
L 224.256 41.472 
L 224.256 58.104 
L 200.448 58.104 
L 200.448 41.472 
" clip-path="url(#p3cc7d26d5c)" style="fill: #6b8df0"/>
    <path d="M 224.256 41.472 
L 248.064 41.472 
L 248.064 58.104 
L 224.256 58.104 
L 224.256 41.472 
" clip-path="url(#p3cc7d26d5c)" style="fill: #6b8df0"/>
    <path d="M 248.064 41.472 
L 271.872 41.472 
L 271.872 58.104 
L 248.064 58.104 
L 248.064 41.472 
" clip-path="url(#p3cc7d26d5c)" style="fill: #86a9fc"/>
    <path d="M 271.872 41.472 
L 295.68 41.472 
L 295.68 58.104 
L 271.872 58.104 
L 271.872 41.472 
" clip-path="url(#p3cc7d26d5c)" style="fill: #d3dbe7"/>
    <path d="M 295.68 41.472 
L 319.488 41.472 
L 319.488 58.104 
L 295.68 58.104 
L 295.68 41.472 
" clip-path="url(#p3cc7d26d5c)" style="fill: #6b8df0"/>
    <path d="M 319.488 41.472 
L 343.296 41.472 
L 343.296 58.104 
L 319.488 58.104 
L 319.488 41.472 
" clip-path="url(#p3cc7d26d5c)" style="fill: #86a9fc"/>
    <path d="M 57.6 58.104 
L 81.408 58.104 
L 81.408 74.736 
L 57.6 74.736 
L 57.6 58.104 
" clip-path="url(#p3cc7d26d5c)" style="fill: #516ddb"/>
    <path d="M 81.408 58.104 
L 105.216 58.104 
L 105.216 74.736 
L 81.408 74.736 
L 81.408 58.104 
" clip-path="url(#p3cc7d26d5c)" style="fill: #86a9fc"/>
    <path d="M 105.216 58.104 
L 129.024 58.104 
L 129.024 74.736 
L 105.216 74.736 
L 105.216 58.104 
" clip-path="url(#p3cc7d26d5c)" style="fill: #6b8df0"/>
    <path d="M 129.024 58.104 
L 152.832 58.104 
L 152.832 74.736 
L 129.024 74.736 
L 129.024 58.104 
" clip-path="url(#p3cc7d26d5c)" style="fill: #6b8df0"/>
    <path d="M 152.832 58.104 
L 176.64 58.104 
L 176.64 74.736 
L 152.832 74.736 
L 152.832 58.104 
" clip-path="url(#p3cc7d26d5c)" style="fill: #6b8df0"/>
    <path d="M 176.64 58.104 
L 200.448 58.104 
L 200.448 74.736 
L 176.64 74.736 
L 176.64 58.104 
" clip-path="url(#p3cc7d26d5c)" style="fill: #6b8df0"/>
    <path d="M 200.448 58.104 
L 224.256 58.104 
L 224.256 74.736 
L 200.448 74.736 
L 200.448 58.104 
" clip-path="url(#p3cc7d26d5c)" style="fill: #6b8df0"/>
    <path d="M 224.256 58.104 
L 248.064 58.104 
L 248.064 74.736 
L 224.256 74.736 
L 224.256 58.104 
" clip-path="url(#p3cc7d26d5c)" style="fill: #6b8df0"/>
    <path d="M 248.064 58.104 
L 271.872 58.104 
L 271.872 74.736 
L 248.064 74.736 
L 248.064 58.104 
" clip-path="url(#p3cc7d26d5c)" style="fill: #a1c0ff"/>
    <path d="M 271.872 58.104 
L 295.68 58.104 
L 295.68 74.736 
L 271.872 74.736 
L 271.872 58.104 
" clip-path="url(#p3cc7d26d5c)" style="fill: #86a9fc"/>
    <path d="M 295.68 58.104 
L 319.488 58.104 
L 319.488 74.736 
L 295.68 74.736 
L 295.68 58.104 
" clip-path="url(#p3cc7d26d5c)" style="fill: #6b8df0"/>
    <path d="M 319.488 58.104 
L 343.296 58.104 
L 343.296 74.736 
L 319.488 74.736 
L 319.488 58.104 
" clip-path="url(#p3cc7d26d5c)" style="fill: #86a9fc"/>
    <path d="M 57.6 74.736 
L 81.408 74.736 
L 81.408 91.368 
L 57.6 91.368 
L 57.6 74.736 
" clip-path="url(#p3cc7d26d5c)" style="fill: #6b8df0"/>
    <path d="M 81.408 74.736 
L 105.216 74.736 
L 105.216 91.368 
L 81.408 91.368 
L 81.408 74.736 
" clip-path="url(#p3cc7d26d5c)" style="fill: #6b8df0"/>
    <path d="M 105.216 74.736 
L 129.024 74.736 
L 129.024 91.368 
L 105.216 91.368 
L 105.216 74.736 
" clip-path="url(#p3cc7d26d5c)" style="fill: #6b8df0"/>
    <path d="M 129.024 74.736 
L 152.832 74.736 
L 152.832 91.368 
L 129.024 91.368 
L 129.024 74.736 
" clip-path="url(#p3cc7d26d5c)" style="fill: #6b8df0"/>
    <path d="M 152.832 74.736 
L 176.64 74.736 
L 176.64 91.368 
L 152.832 91.368 
L 152.832 74.736 
" clip-path="url(#p3cc7d26d5c)" style="fill: #6b8df0"/>
    <path d="M 176.64 74.736 
L 200.448 74.736 
L 200.448 91.368 
L 176.64 91.368 
L 176.64 74.736 
" clip-path="url(#p3cc7d26d5c)" style="fill: #86a9fc"/>
    <path d="M 200.448 74.736 
L 224.256 74.736 
L 224.256 91.368 
L 200.448 91.368 
L 200.448 74.736 
" clip-path="url(#p3cc7d26d5c)" style="fill: #6b8df0"/>
    <path d="M 224.256 74.736 
L 248.064 74.736 
L 248.064 91.368 
L 224.256 91.368 
L 224.256 74.736 
" clip-path="url(#p3cc7d26d5c)" style="fill: #6b8df0"/>
    <path d="M 248.064 74.736 
L 271.872 74.736 
L 271.872 91.368 
L 248.064 91.368 
L 248.064 74.736 
" clip-path="url(#p3cc7d26d5c)" style="fill: #a1c0ff"/>
    <path d="M 271.872 74.736 
L 295.68 74.736 
L 295.68 91.368 
L 271.872 91.368 
L 271.872 74.736 
" clip-path="url(#p3cc7d26d5c)" style="fill: #a1c0ff"/>
    <path d="M 295.68 74.736 
L 319.488 74.736 
L 319.488 91.368 
L 295.68 91.368 
L 295.68 74.736 
" clip-path="url(#p3cc7d26d5c)" style="fill: #6b8df0"/>
    <path d="M 319.488 74.736 
L 343.296 74.736 
L 343.296 91.368 
L 319.488 91.368 
L 319.488 74.736 
" clip-path="url(#p3cc7d26d5c)" style="fill: #86a9fc"/>
    <path d="M 57.6 91.368 
L 81.408 91.368 
L 81.408 108 
L 57.6 108 
L 57.6 91.368 
" clip-path="url(#p3cc7d26d5c)" style="fill: #6b8df0"/>
    <path d="M 81.408 91.368 
L 105.216 91.368 
L 105.216 108 
L 81.408 108 
L 81.408 91.368 
" clip-path="url(#p3cc7d26d5c)" style="fill: #6b8df0"/>
    <path d="M 105.216 91.368 
L 129.024 91.368 
L 129.024 108 
L 105.216 108 
L 105.216 91.368 
" clip-path="url(#p3cc7d26d5c)" style="fill: #6b8df0"/>
    <path d="M 129.024 91.368 
L 152.832 91.368 
L 152.832 108 
L 129.024 108 
L 129.024 91.368 
" clip-path="url(#p3cc7d26d5c)" style="fill: #516ddb"/>
    <path d="M 152.832 91.368 
L 176.64 91.368 
L 176.64 108 
L 152.832 108 
L 152.832 91.368 
" clip-path="url(#p3cc7d26d5c)" style="fill: #6b8df0"/>
    <path d="M 176.64 91.368 
L 200.448 91.368 
L 200.448 108 
L 176.64 108 
L 176.64 91.368 
" clip-path="url(#p3cc7d26d5c)" style="fill: #a1c0ff"/>
    <path d="M 200.448 91.368 
L 224.256 91.368 
L 224.256 108 
L 200.448 108 
L 200.448 91.368 
" clip-path="url(#p3cc7d26d5c)" style="fill: #516ddb"/>
    <path d="M 224.256 91.368 
L 248.064 91.368 
L 248.064 108 
L 224.256 108 
L 224.256 91.368 
" clip-path="url(#p3cc7d26d5c)" style="fill: #516ddb"/>
    <path d="M 248.064 91.368 
L 271.872 91.368 
L 271.872 108 
L 248.064 108 
L 248.064 91.368 
" clip-path="url(#p3cc7d26d5c)" style="fill: #bbd1f8"/>
    <path d="M 271.872 91.368 
L 295.68 91.368 
L 295.68 108 
L 271.872 108 
L 271.872 91.368 
" clip-path="url(#p3cc7d26d5c)" style="fill: #516ddb"/>
    <path d="M 295.68 91.368 
L 319.488 91.368 
L 319.488 108 
L 295.68 108 
L 295.68 91.368 
" clip-path="url(#p3cc7d26d5c)" style="fill: #516ddb"/>
    <path d="M 319.488 91.368 
L 343.296 91.368 
L 343.296 108 
L 319.488 108 
L 319.488 91.368 
" clip-path="url(#p3cc7d26d5c)" style="fill: #e6d7cf"/>
    <path d="M 57.6 108 
L 81.408 108 
L 81.408 124.632 
L 57.6 124.632 
L 57.6 108 
" clip-path="url(#p3cc7d26d5c)" style="fill: #6b8df0"/>
    <path d="M 81.408 108 
L 105.216 108 
L 105.216 124.632 
L 81.408 124.632 
L 81.408 108 
" clip-path="url(#p3cc7d26d5c)" style="fill: #6b8df0"/>
    <path d="M 105.216 108 
L 129.024 108 
L 129.024 124.632 
L 105.216 124.632 
L 105.216 108 
" clip-path="url(#p3cc7d26d5c)" style="fill: #516ddb"/>
    <path d="M 129.024 108 
L 152.832 108 
L 152.832 124.632 
L 129.024 124.632 
L 129.024 108 
" clip-path="url(#p3cc7d26d5c)" style="fill: #516ddb"/>
    <path d="M 152.832 108 
L 176.64 108 
L 176.64 124.632 
L 152.832 124.632 
L 152.832 108 
" clip-path="url(#p3cc7d26d5c)" style="fill: #516ddb"/>
    <path d="M 176.64 108 
L 200.448 108 
L 200.448 124.632 
L 176.64 124.632 
L 176.64 108 
" clip-path="url(#p3cc7d26d5c)" style="fill: #516ddb"/>
    <path d="M 200.448 108 
L 224.256 108 
L 224.256 124.632 
L 200.448 124.632 
L 200.448 108 
" clip-path="url(#p3cc7d26d5c)" style="fill: #516ddb"/>
    <path d="M 224.256 108 
L 248.064 108 
L 248.064 124.632 
L 224.256 124.632 
L 224.256 108 
" clip-path="url(#p3cc7d26d5c)" style="fill: #516ddb"/>
    <path d="M 248.064 108 
L 271.872 108 
L 271.872 124.632 
L 248.064 124.632 
L 248.064 108 
" clip-path="url(#p3cc7d26d5c)" style="fill: #e46e56"/>
    <path d="M 271.872 108 
L 295.68 108 
L 295.68 124.632 
L 271.872 124.632 
L 271.872 108 
" clip-path="url(#p3cc7d26d5c)" style="fill: #86a9fc"/>
    <path d="M 295.68 108 
L 319.488 108 
L 319.488 124.632 
L 295.68 124.632 
L 295.68 108 
" clip-path="url(#p3cc7d26d5c)" style="fill: #516ddb"/>
    <path d="M 319.488 108 
L 343.296 108 
L 343.296 124.632 
L 319.488 124.632 
L 319.488 108 
" clip-path="url(#p3cc7d26d5c)" style="fill: #6b8df0"/>
    <path d="M 57.6 124.632 
L 81.408 124.632 
L 81.408 141.264 
L 57.6 141.264 
L 57.6 124.632 
" clip-path="url(#p3cc7d26d5c)" style="fill: #516ddb"/>
    <path d="M 81.408 124.632 
L 105.216 124.632 
L 105.216 141.264 
L 81.408 141.264 
L 81.408 124.632 
" clip-path="url(#p3cc7d26d5c)" style="fill: #6b8df0"/>
    <path d="M 105.216 124.632 
L 129.024 124.632 
L 129.024 141.264 
L 105.216 141.264 
L 105.216 124.632 
" clip-path="url(#p3cc7d26d5c)" style="fill: #6b8df0"/>
    <path d="M 129.024 124.632 
L 152.832 124.632 
L 152.832 141.264 
L 129.024 141.264 
L 129.024 124.632 
" clip-path="url(#p3cc7d26d5c)" style="fill: #6b8df0"/>
    <path d="M 152.832 124.632 
L 176.64 124.632 
L 176.64 141.264 
L 152.832 141.264 
L 152.832 124.632 
" clip-path="url(#p3cc7d26d5c)" style="fill: #516ddb"/>
    <path d="M 176.64 124.632 
L 200.448 124.632 
L 200.448 141.264 
L 176.64 141.264 
L 176.64 124.632 
" clip-path="url(#p3cc7d26d5c)" style="fill: #6b8df0"/>
    <path d="M 200.448 124.632 
L 224.256 124.632 
L 224.256 141.264 
L 200.448 141.264 
L 200.448 124.632 
" clip-path="url(#p3cc7d26d5c)" style="fill: #6b8df0"/>
    <path d="M 224.256 124.632 
L 248.064 124.632 
L 248.064 141.264 
L 224.256 141.264 
L 224.256 124.632 
" clip-path="url(#p3cc7d26d5c)" style="fill: #6b8df0"/>
    <path d="M 248.064 124.632 
L 271.872 124.632 
L 271.872 141.264 
L 248.064 141.264 
L 248.064 124.632 
" clip-path="url(#p3cc7d26d5c)" style="fill: #a1c0ff"/>
    <path d="M 271.872 124.632 
L 295.68 124.632 
L 295.68 141.264 
L 271.872 141.264 
L 271.872 124.632 
" clip-path="url(#p3cc7d26d5c)" style="fill: #bbd1f8"/>
    <path d="M 295.68 124.632 
L 319.488 124.632 
L 319.488 141.264 
L 295.68 141.264 
L 295.68 124.632 
" clip-path="url(#p3cc7d26d5c)" style="fill: #6b8df0"/>
    <path d="M 319.488 124.632 
L 343.296 124.632 
L 343.296 141.264 
L 319.488 141.264 
L 319.488 124.632 
" clip-path="url(#p3cc7d26d5c)" style="fill: #86a9fc"/>
    <path d="M 57.6 141.264 
L 81.408 141.264 
L 81.408 157.896 
L 57.6 157.896 
L 57.6 141.264 
" clip-path="url(#p3cc7d26d5c)" style="fill: #6b8df0"/>
    <path d="M 81.408 141.264 
L 105.216 141.264 
L 105.216 157.896 
L 81.408 157.896 
L 81.408 141.264 
" clip-path="url(#p3cc7d26d5c)" style="fill: #e6d7cf"/>
    <path d="M 105.216 141.264 
L 129.024 141.264 
L 129.024 157.896 
L 105.216 157.896 
L 105.216 141.264 
" clip-path="url(#p3cc7d26d5c)" style="fill: #a1c0ff"/>
    <path d="M 129.024 141.264 
L 152.832 141.264 
L 152.832 157.896 
L 129.024 157.896 
L 129.024 141.264 
" clip-path="url(#p3cc7d26d5c)" style="fill: #a1c0ff"/>
    <path d="M 152.832 141.264 
L 176.64 141.264 
L 176.64 157.896 
L 152.832 157.896 
L 152.832 141.264 
" clip-path="url(#p3cc7d26d5c)" style="fill: #516ddb"/>
    <path d="M 176.64 141.264 
L 200.448 141.264 
L 200.448 157.896 
L 176.64 157.896 
L 176.64 141.264 
" clip-path="url(#p3cc7d26d5c)" style="fill: #516ddb"/>
    <path d="M 200.448 141.264 
L 224.256 141.264 
L 224.256 157.896 
L 200.448 157.896 
L 200.448 141.264 
" clip-path="url(#p3cc7d26d5c)" style="fill: #86a9fc"/>
    <path d="M 224.256 141.264 
L 248.064 141.264 
L 248.064 157.896 
L 224.256 157.896 
L 224.256 141.264 
" clip-path="url(#p3cc7d26d5c)" style="fill: #516ddb"/>
    <path d="M 248.064 141.264 
L 271.872 141.264 
L 271.872 157.896 
L 248.064 157.896 
L 248.064 141.264 
" clip-path="url(#p3cc7d26d5c)" style="fill: #516ddb"/>
    <path d="M 271.872 141.264 
L 295.68 141.264 
L 295.68 157.896 
L 271.872 157.896 
L 271.872 141.264 
" clip-path="url(#p3cc7d26d5c)" style="fill: #6b8df0"/>
    <path d="M 295.68 141.264 
L 319.488 141.264 
L 319.488 157.896 
L 295.68 157.896 
L 295.68 141.264 
" clip-path="url(#p3cc7d26d5c)" style="fill: #bbd1f8"/>
    <path d="M 319.488 141.264 
L 343.296 141.264 
L 343.296 157.896 
L 319.488 157.896 
L 319.488 141.264 
" clip-path="url(#p3cc7d26d5c)" style="fill: #516ddb"/>
    <path d="M 57.6 157.896 
L 81.408 157.896 
L 81.408 174.528 
L 57.6 174.528 
L 57.6 157.896 
" clip-path="url(#p3cc7d26d5c)" style="fill: #516ddb"/>
    <path d="M 81.408 157.896 
L 105.216 157.896 
L 105.216 174.528 
L 81.408 174.528 
L 81.408 157.896 
" clip-path="url(#p3cc7d26d5c)" style="fill: #d3dbe7"/>
    <path d="M 105.216 157.896 
L 129.024 157.896 
L 129.024 174.528 
L 105.216 174.528 
L 105.216 157.896 
" clip-path="url(#p3cc7d26d5c)" style="fill: #6b8df0"/>
    <path d="M 129.024 157.896 
L 152.832 157.896 
L 152.832 174.528 
L 129.024 174.528 
L 129.024 157.896 
" clip-path="url(#p3cc7d26d5c)" style="fill: #6b8df0"/>
    <path d="M 152.832 157.896 
L 176.64 157.896 
L 176.64 174.528 
L 152.832 174.528 
L 152.832 157.896 
" clip-path="url(#p3cc7d26d5c)" style="fill: #516ddb"/>
    <path d="M 176.64 157.896 
L 200.448 157.896 
L 200.448 174.528 
L 176.64 174.528 
L 176.64 157.896 
" clip-path="url(#p3cc7d26d5c)" style="fill: #86a9fc"/>
    <path d="M 200.448 157.896 
L 224.256 157.896 
L 224.256 174.528 
L 200.448 174.528 
L 200.448 157.896 
" clip-path="url(#p3cc7d26d5c)" style="fill: #516ddb"/>
    <path d="M 224.256 157.896 
L 248.064 157.896 
L 248.064 174.528 
L 224.256 174.528 
L 224.256 157.896 
" clip-path="url(#p3cc7d26d5c)" style="fill: #516ddb"/>
    <path d="M 248.064 157.896 
L 271.872 157.896 
L 271.872 174.528 
L 248.064 174.528 
L 248.064 157.896 
" clip-path="url(#p3cc7d26d5c)" style="fill: #86a9fc"/>
    <path d="M 271.872 157.896 
L 295.68 157.896 
L 295.68 174.528 
L 271.872 174.528 
L 271.872 157.896 
" clip-path="url(#p3cc7d26d5c)" style="fill: #86a9fc"/>
    <path d="M 295.68 157.896 
L 319.488 157.896 
L 319.488 174.528 
L 295.68 174.528 
L 295.68 157.896 
" clip-path="url(#p3cc7d26d5c)" style="fill: #6b8df0"/>
    <path d="M 319.488 157.896 
L 343.296 157.896 
L 343.296 174.528 
L 319.488 174.528 
L 319.488 157.896 
" clip-path="url(#p3cc7d26d5c)" style="fill: #a1c0ff"/>
    <path d="M 57.6 174.528 
L 81.408 174.528 
L 81.408 191.16 
L 57.6 191.16 
L 57.6 174.528 
" clip-path="url(#p3cc7d26d5c)" style="fill: #516ddb"/>
    <path d="M 81.408 174.528 
L 105.216 174.528 
L 105.216 191.16 
L 81.408 191.16 
L 81.408 174.528 
" clip-path="url(#p3cc7d26d5c)" style="fill: #6b8df0"/>
    <path d="M 105.216 174.528 
L 129.024 174.528 
L 129.024 191.16 
L 105.216 191.16 
L 105.216 174.528 
" clip-path="url(#p3cc7d26d5c)" style="fill: #86a9fc"/>
    <path d="M 129.024 174.528 
L 152.832 174.528 
L 152.832 191.16 
L 129.024 191.16 
L 129.024 174.528 
" clip-path="url(#p3cc7d26d5c)" style="fill: #6b8df0"/>
    <path d="M 152.832 174.528 
L 176.64 174.528 
L 176.64 191.16 
L 152.832 191.16 
L 152.832 174.528 
" clip-path="url(#p3cc7d26d5c)" style="fill: #516ddb"/>
    <path d="M 176.64 174.528 
L 200.448 174.528 
L 200.448 191.16 
L 176.64 191.16 
L 176.64 174.528 
" clip-path="url(#p3cc7d26d5c)" style="fill: #6b8df0"/>
    <path d="M 200.448 174.528 
L 224.256 174.528 
L 224.256 191.16 
L 200.448 191.16 
L 200.448 174.528 
" clip-path="url(#p3cc7d26d5c)" style="fill: #6b8df0"/>
    <path d="M 224.256 174.528 
L 248.064 174.528 
L 248.064 191.16 
L 224.256 191.16 
L 224.256 174.528 
" clip-path="url(#p3cc7d26d5c)" style="fill: #516ddb"/>
    <path d="M 248.064 174.528 
L 271.872 174.528 
L 271.872 191.16 
L 248.064 191.16 
L 248.064 174.528 
" clip-path="url(#p3cc7d26d5c)" style="fill: #a1c0ff"/>
    <path d="M 271.872 174.528 
L 295.68 174.528 
L 295.68 191.16 
L 271.872 191.16 
L 271.872 174.528 
" clip-path="url(#p3cc7d26d5c)" style="fill: #bbd1f8"/>
    <path d="M 295.68 174.528 
L 319.488 174.528 
L 319.488 191.16 
L 295.68 191.16 
L 295.68 174.528 
" clip-path="url(#p3cc7d26d5c)" style="fill: #6b8df0"/>
    <path d="M 319.488 174.528 
L 343.296 174.528 
L 343.296 191.16 
L 319.488 191.16 
L 319.488 174.528 
" clip-path="url(#p3cc7d26d5c)" style="fill: #86a9fc"/>
    <path d="M 57.6 191.16 
L 81.408 191.16 
L 81.408 207.792 
L 57.6 207.792 
L 57.6 191.16 
" clip-path="url(#p3cc7d26d5c)" style="fill: #516ddb"/>
    <path d="M 81.408 191.16 
L 105.216 191.16 
L 105.216 207.792 
L 81.408 207.792 
L 81.408 191.16 
" clip-path="url(#p3cc7d26d5c)" style="fill: #6b8df0"/>
    <path d="M 105.216 191.16 
L 129.024 191.16 
L 129.024 207.792 
L 105.216 207.792 
L 105.216 191.16 
" clip-path="url(#p3cc7d26d5c)" style="fill: #6b8df0"/>
    <path d="M 129.024 191.16 
L 152.832 191.16 
L 152.832 207.792 
L 129.024 207.792 
L 129.024 191.16 
" clip-path="url(#p3cc7d26d5c)" style="fill: #6b8df0"/>
    <path d="M 152.832 191.16 
L 176.64 191.16 
L 176.64 207.792 
L 152.832 207.792 
L 152.832 191.16 
" clip-path="url(#p3cc7d26d5c)" style="fill: #516ddb"/>
    <path d="M 176.64 191.16 
L 200.448 191.16 
L 200.448 207.792 
L 176.64 207.792 
L 176.64 191.16 
" clip-path="url(#p3cc7d26d5c)" style="fill: #d3dbe7"/>
    <path d="M 200.448 191.16 
L 224.256 191.16 
L 224.256 207.792 
L 200.448 207.792 
L 200.448 191.16 
" clip-path="url(#p3cc7d26d5c)" style="fill: #516ddb"/>
    <path d="M 224.256 191.16 
L 248.064 191.16 
L 248.064 207.792 
L 224.256 207.792 
L 224.256 191.16 
" clip-path="url(#p3cc7d26d5c)" style="fill: #516ddb"/>
    <path d="M 248.064 191.16 
L 271.872 191.16 
L 271.872 207.792 
L 248.064 207.792 
L 248.064 191.16 
" clip-path="url(#p3cc7d26d5c)" style="fill: #86a9fc"/>
    <path d="M 271.872 191.16 
L 295.68 191.16 
L 295.68 207.792 
L 271.872 207.792 
L 271.872 191.16 
" clip-path="url(#p3cc7d26d5c)" style="fill: #bbd1f8"/>
    <path d="M 295.68 191.16 
L 319.488 191.16 
L 319.488 207.792 
L 295.68 207.792 
L 295.68 191.16 
" clip-path="url(#p3cc7d26d5c)" style="fill: #516ddb"/>
    <path d="M 319.488 191.16 
L 343.296 191.16 
L 343.296 207.792 
L 319.488 207.792 
L 319.488 191.16 
" clip-path="url(#p3cc7d26d5c)" style="fill: #f3c7b1"/>
    <path d="M 57.6 207.792 
L 81.408 207.792 
L 81.408 224.424 
L 57.6 224.424 
L 57.6 207.792 
" clip-path="url(#p3cc7d26d5c)" style="fill: #516ddb"/>
    <path d="M 81.408 207.792 
L 105.216 207.792 
L 105.216 224.424 
L 81.408 224.424 
L 81.408 207.792 
" clip-path="url(#p3cc7d26d5c)" style="fill: #6b8df0"/>
    <path d="M 105.216 207.792 
L 129.024 207.792 
L 129.024 224.424 
L 105.216 224.424 
L 105.216 207.792 
" clip-path="url(#p3cc7d26d5c)" style="fill: #a1c0ff"/>
    <path d="M 129.024 207.792 
L 152.832 207.792 
L 152.832 224.424 
L 129.024 224.424 
L 129.024 207.792 
" clip-path="url(#p3cc7d26d5c)" style="fill: #a1c0ff"/>
    <path d="M 152.832 207.792 
L 176.64 207.792 
L 176.64 224.424 
L 152.832 224.424 
L 152.832 207.792 
" clip-path="url(#p3cc7d26d5c)" style="fill: #86a9fc"/>
    <path d="M 176.64 207.792 
L 200.448 207.792 
L 200.448 224.424 
L 176.64 224.424 
L 176.64 207.792 
" clip-path="url(#p3cc7d26d5c)" style="fill: #516ddb"/>
    <path d="M 200.448 207.792 
L 224.256 207.792 
L 224.256 224.424 
L 200.448 224.424 
L 200.448 207.792 
" clip-path="url(#p3cc7d26d5c)" style="fill: #86a9fc"/>
    <path d="M 224.256 207.792 
L 248.064 207.792 
L 248.064 224.424 
L 224.256 224.424 
L 224.256 207.792 
" clip-path="url(#p3cc7d26d5c)" style="fill: #516ddb"/>
    <path d="M 248.064 207.792 
L 271.872 207.792 
L 271.872 224.424 
L 248.064 224.424 
L 248.064 207.792 
" clip-path="url(#p3cc7d26d5c)" style="fill: #6b8df0"/>
    <path d="M 271.872 207.792 
L 295.68 207.792 
L 295.68 224.424 
L 271.872 224.424 
L 271.872 207.792 
" clip-path="url(#p3cc7d26d5c)" style="fill: #a1c0ff"/>
    <path d="M 295.68 207.792 
L 319.488 207.792 
L 319.488 224.424 
L 295.68 224.424 
L 295.68 207.792 
" clip-path="url(#p3cc7d26d5c)" style="fill: #6b8df0"/>
    <path d="M 319.488 207.792 
L 343.296 207.792 
L 343.296 224.424 
L 319.488 224.424 
L 319.488 207.792 
" clip-path="url(#p3cc7d26d5c)" style="fill: #516ddb"/>
    <path d="M 57.6 224.424 
L 81.408 224.424 
L 81.408 241.056 
L 57.6 241.056 
L 57.6 224.424 
" clip-path="url(#p3cc7d26d5c)" style="fill: #6b8df0"/>
    <path d="M 81.408 224.424 
L 105.216 224.424 
L 105.216 241.056 
L 81.408 241.056 
L 81.408 224.424 
" clip-path="url(#p3cc7d26d5c)" style="fill: #516ddb"/>
    <path d="M 105.216 224.424 
L 129.024 224.424 
L 129.024 241.056 
L 105.216 241.056 
L 105.216 224.424 
" clip-path="url(#p3cc7d26d5c)" style="fill: #516ddb"/>
    <path d="M 129.024 224.424 
L 152.832 224.424 
L 152.832 241.056 
L 129.024 241.056 
L 129.024 224.424 
" clip-path="url(#p3cc7d26d5c)" style="fill: #516ddb"/>
    <path d="M 152.832 224.424 
L 176.64 224.424 
L 176.64 241.056 
L 152.832 241.056 
L 152.832 224.424 
" clip-path="url(#p3cc7d26d5c)" style="fill: #516ddb"/>
    <path d="M 176.64 224.424 
L 200.448 224.424 
L 200.448 241.056 
L 176.64 241.056 
L 176.64 224.424 
" clip-path="url(#p3cc7d26d5c)" style="fill: #516ddb"/>
    <path d="M 200.448 224.424 
L 224.256 224.424 
L 224.256 241.056 
L 200.448 241.056 
L 200.448 224.424 
" clip-path="url(#p3cc7d26d5c)" style="fill: #516ddb"/>
    <path d="M 224.256 224.424 
L 248.064 224.424 
L 248.064 241.056 
L 224.256 241.056 
L 224.256 224.424 
" clip-path="url(#p3cc7d26d5c)" style="fill: #516ddb"/>
    <path d="M 248.064 224.424 
L 271.872 224.424 
L 271.872 241.056 
L 248.064 241.056 
L 248.064 224.424 
" clip-path="url(#p3cc7d26d5c)" style="fill: #f29274"/>
    <path d="M 271.872 224.424 
L 295.68 224.424 
L 295.68 241.056 
L 271.872 241.056 
L 271.872 224.424 
" clip-path="url(#p3cc7d26d5c)" style="fill: #86a9fc"/>
    <path d="M 295.68 224.424 
L 319.488 224.424 
L 319.488 241.056 
L 295.68 241.056 
L 295.68 224.424 
" clip-path="url(#p3cc7d26d5c)" style="fill: #6b8df0"/>
    <path d="M 319.488 224.424 
L 343.296 224.424 
L 343.296 241.056 
L 319.488 241.056 
L 319.488 224.424 
" clip-path="url(#p3cc7d26d5c)" style="fill: #6b8df0"/>
    <path d="M 57.6 241.056 
L 81.408 241.056 
L 81.408 257.688 
L 57.6 257.688 
L 57.6 241.056 
" clip-path="url(#p3cc7d26d5c)" style="fill: #516ddb"/>
    <path d="M 81.408 241.056 
L 105.216 241.056 
L 105.216 257.688 
L 81.408 257.688 
L 81.408 241.056 
" clip-path="url(#p3cc7d26d5c)" style="fill: #a1c0ff"/>
    <path d="M 105.216 241.056 
L 129.024 241.056 
L 129.024 257.688 
L 105.216 257.688 
L 105.216 241.056 
" clip-path="url(#p3cc7d26d5c)" style="fill: #bbd1f8"/>
    <path d="M 129.024 241.056 
L 152.832 241.056 
L 152.832 257.688 
L 129.024 257.688 
L 129.024 241.056 
" clip-path="url(#p3cc7d26d5c)" style="fill: #d3dbe7"/>
    <path d="M 152.832 241.056 
L 176.64 241.056 
L 176.64 257.688 
L 152.832 257.688 
L 152.832 241.056 
" clip-path="url(#p3cc7d26d5c)" style="fill: #516ddb"/>
    <path d="M 176.64 241.056 
L 200.448 241.056 
L 200.448 257.688 
L 176.64 257.688 
L 176.64 241.056 
" clip-path="url(#p3cc7d26d5c)" style="fill: #516ddb"/>
    <path d="M 200.448 241.056 
L 224.256 241.056 
L 224.256 257.688 
L 200.448 257.688 
L 200.448 241.056 
" clip-path="url(#p3cc7d26d5c)" style="fill: #a1c0ff"/>
    <path d="M 224.256 241.056 
L 248.064 241.056 
L 248.064 257.688 
L 224.256 257.688 
L 224.256 241.056 
" clip-path="url(#p3cc7d26d5c)" style="fill: #516ddb"/>
    <path d="M 248.064 241.056 
L 271.872 241.056 
L 271.872 257.688 
L 248.064 257.688 
L 248.064 241.056 
" clip-path="url(#p3cc7d26d5c)" style="fill: #516ddb"/>
    <path d="M 271.872 241.056 
L 295.68 241.056 
L 295.68 257.688 
L 271.872 257.688 
L 271.872 241.056 
" clip-path="url(#p3cc7d26d5c)" style="fill: #516ddb"/>
    <path d="M 295.68 241.056 
L 319.488 241.056 
L 319.488 257.688 
L 295.68 257.688 
L 295.68 241.056 
" clip-path="url(#p3cc7d26d5c)" style="fill: #bbd1f8"/>
    <path d="M 319.488 241.056 
L 343.296 241.056 
L 343.296 257.688 
L 319.488 257.688 
L 319.488 241.056 
" clip-path="url(#p3cc7d26d5c)" style="fill: #516ddb"/>
    <path d="M 57.6 257.688 
L 81.408 257.688 
L 81.408 274.32 
L 57.6 274.32 
L 57.6 257.688 
" clip-path="url(#p3cc7d26d5c)" style="fill: #516ddb"/>
    <path d="M 81.408 257.688 
L 105.216 257.688 
L 105.216 274.32 
L 81.408 274.32 
L 81.408 257.688 
" clip-path="url(#p3cc7d26d5c)" style="fill: #86a9fc"/>
    <path d="M 105.216 257.688 
L 129.024 257.688 
L 129.024 274.32 
L 105.216 274.32 
L 105.216 257.688 
" clip-path="url(#p3cc7d26d5c)" style="fill: #86a9fc"/>
    <path d="M 129.024 257.688 
L 152.832 257.688 
L 152.832 274.32 
L 129.024 274.32 
L 129.024 257.688 
" clip-path="url(#p3cc7d26d5c)" style="fill: #6b8df0"/>
    <path d="M 152.832 257.688 
L 176.64 257.688 
L 176.64 274.32 
L 152.832 274.32 
L 152.832 257.688 
" clip-path="url(#p3cc7d26d5c)" style="fill: #6b8df0"/>
    <path d="M 176.64 257.688 
L 200.448 257.688 
L 200.448 274.32 
L 176.64 274.32 
L 176.64 257.688 
" clip-path="url(#p3cc7d26d5c)" style="fill: #6b8df0"/>
    <path d="M 200.448 257.688 
L 224.256 257.688 
L 224.256 274.32 
L 200.448 274.32 
L 200.448 257.688 
" clip-path="url(#p3cc7d26d5c)" style="fill: #6b8df0"/>
    <path d="M 224.256 257.688 
L 248.064 257.688 
L 248.064 274.32 
L 224.256 274.32 
L 224.256 257.688 
" clip-path="url(#p3cc7d26d5c)" style="fill: #516ddb"/>
    <path d="M 248.064 257.688 
L 271.872 257.688 
L 271.872 274.32 
L 248.064 274.32 
L 248.064 257.688 
" clip-path="url(#p3cc7d26d5c)" style="fill: #a1c0ff"/>
    <path d="M 271.872 257.688 
L 295.68 257.688 
L 295.68 274.32 
L 271.872 274.32 
L 271.872 257.688 
" clip-path="url(#p3cc7d26d5c)" style="fill: #a1c0ff"/>
    <path d="M 295.68 257.688 
L 319.488 257.688 
L 319.488 274.32 
L 295.68 274.32 
L 295.68 257.688 
" clip-path="url(#p3cc7d26d5c)" style="fill: #6b8df0"/>
    <path d="M 319.488 257.688 
L 343.296 257.688 
L 343.296 274.32 
L 319.488 274.32 
L 319.488 257.688 
" clip-path="url(#p3cc7d26d5c)" style="fill: #86a9fc"/>
    <path d="M 57.6 274.32 
L 81.408 274.32 
L 81.408 290.952 
L 57.6 290.952 
L 57.6 274.32 
" clip-path="url(#p3cc7d26d5c)" style="fill: #6b8df0"/>
    <path d="M 81.408 274.32 
L 105.216 274.32 
L 105.216 290.952 
L 81.408 290.952 
L 81.408 274.32 
" clip-path="url(#p3cc7d26d5c)" style="fill: #6b8df0"/>
    <path d="M 105.216 274.32 
L 129.024 274.32 
L 129.024 290.952 
L 105.216 290.952 
L 105.216 274.32 
" clip-path="url(#p3cc7d26d5c)" style="fill: #bbd1f8"/>
    <path d="M 129.024 274.32 
L 152.832 274.32 
L 152.832 290.952 
L 129.024 290.952 
L 129.024 274.32 
" clip-path="url(#p3cc7d26d5c)" style="fill: #a1c0ff"/>
    <path d="M 152.832 274.32 
L 176.64 274.32 
L 176.64 290.952 
L 152.832 290.952 
L 152.832 274.32 
" clip-path="url(#p3cc7d26d5c)" style="fill: #6b8df0"/>
    <path d="M 176.64 274.32 
L 200.448 274.32 
L 200.448 290.952 
L 176.64 290.952 
L 176.64 274.32 
" clip-path="url(#p3cc7d26d5c)" style="fill: #86a9fc"/>
    <path d="M 200.448 274.32 
L 224.256 274.32 
L 224.256 290.952 
L 200.448 290.952 
L 200.448 274.32 
" clip-path="url(#p3cc7d26d5c)" style="fill: #86a9fc"/>
    <path d="M 224.256 274.32 
L 248.064 274.32 
L 248.064 290.952 
L 224.256 290.952 
L 224.256 274.32 
" clip-path="url(#p3cc7d26d5c)" style="fill: #516ddb"/>
    <path d="M 248.064 274.32 
L 271.872 274.32 
L 271.872 290.952 
L 248.064 290.952 
L 248.064 274.32 
" clip-path="url(#p3cc7d26d5c)" style="fill: #516ddb"/>
    <path d="M 271.872 274.32 
L 295.68 274.32 
L 295.68 290.952 
L 271.872 290.952 
L 271.872 274.32 
" clip-path="url(#p3cc7d26d5c)" style="fill: #86a9fc"/>
    <path d="M 295.68 274.32 
L 319.488 274.32 
L 319.488 290.952 
L 295.68 290.952 
L 295.68 274.32 
" clip-path="url(#p3cc7d26d5c)" style="fill: #6b8df0"/>
    <path d="M 319.488 274.32 
L 343.296 274.32 
L 343.296 290.952 
L 319.488 290.952 
L 319.488 274.32 
" clip-path="url(#p3cc7d26d5c)" style="fill: #a1c0ff"/>
    <path d="M 57.6 290.952 
L 81.408 290.952 
L 81.408 307.584 
L 57.6 307.584 
L 57.6 290.952 
" clip-path="url(#p3cc7d26d5c)" style="fill: #516ddb"/>
    <path d="M 81.408 290.952 
L 105.216 290.952 
L 105.216 307.584 
L 81.408 307.584 
L 81.408 290.952 
" clip-path="url(#p3cc7d26d5c)" style="fill: #86a9fc"/>
    <path d="M 105.216 290.952 
L 129.024 290.952 
L 129.024 307.584 
L 105.216 307.584 
L 105.216 290.952 
" clip-path="url(#p3cc7d26d5c)" style="fill: #6b8df0"/>
    <path d="M 129.024 290.952 
L 152.832 290.952 
L 152.832 307.584 
L 129.024 307.584 
L 129.024 290.952 
" clip-path="url(#p3cc7d26d5c)" style="fill: #6b8df0"/>
    <path d="M 152.832 290.952 
L 176.64 290.952 
L 176.64 307.584 
L 152.832 307.584 
L 152.832 290.952 
" clip-path="url(#p3cc7d26d5c)" style="fill: #516ddb"/>
    <path d="M 176.64 290.952 
L 200.448 290.952 
L 200.448 307.584 
L 176.64 307.584 
L 176.64 290.952 
" clip-path="url(#p3cc7d26d5c)" style="fill: #516ddb"/>
    <path d="M 200.448 290.952 
L 224.256 290.952 
L 224.256 307.584 
L 200.448 307.584 
L 200.448 290.952 
" clip-path="url(#p3cc7d26d5c)" style="fill: #6b8df0"/>
    <path d="M 224.256 290.952 
L 248.064 290.952 
L 248.064 307.584 
L 224.256 307.584 
L 224.256 290.952 
" clip-path="url(#p3cc7d26d5c)" style="fill: #516ddb"/>
    <path d="M 248.064 290.952 
L 271.872 290.952 
L 271.872 307.584 
L 248.064 307.584 
L 248.064 290.952 
" clip-path="url(#p3cc7d26d5c)" style="fill: #86a9fc"/>
    <path d="M 271.872 290.952 
L 295.68 290.952 
L 295.68 307.584 
L 271.872 307.584 
L 271.872 290.952 
" clip-path="url(#p3cc7d26d5c)" style="fill: #a1c0ff"/>
    <path d="M 295.68 290.952 
L 319.488 290.952 
L 319.488 307.584 
L 295.68 307.584 
L 295.68 290.952 
" clip-path="url(#p3cc7d26d5c)" style="fill: #6b8df0"/>
    <path d="M 319.488 290.952 
L 343.296 290.952 
L 343.296 307.584 
L 319.488 307.584 
L 319.488 290.952 
" clip-path="url(#p3cc7d26d5c)" style="fill: #516ddb"/>
   </g>
   <g id="matplotlib.axis_1">
    <g id="xtick_1">
     <g id="line2d_1">
      <defs>
       <path id="m3e05dc0436" d="M 0 0 
L 0 3.5 
" style="stroke: #000000; stroke-width: 0.8"/>
      </defs>
      <g>
       <use xlink:href="#m3e05dc0436" x="69.504" y="307.584" style="stroke: #000000; stroke-width: 0.8"/>
      </g>
     </g>
     <g id="text_1">
      <!-- K1 -->
      <g transform="translate(63.043844 322.182437) scale(0.1 -0.1)">
       <defs>
        <path id="DejaVuSans-4b" d="M 628 4666 
L 1259 4666 
L 1259 2694 
L 3353 4666 
L 4166 4666 
L 1850 2491 
L 4331 0 
L 3500 0 
L 1259 2247 
L 1259 0 
L 628 0 
L 628 4666 
z
" transform="scale(0.015625)"/>
        <path id="DejaVuSans-31" d="M 794 531 
L 1825 531 
L 1825 4091 
L 703 3866 
L 703 4441 
L 1819 4666 
L 2450 4666 
L 2450 531 
L 3481 531 
L 3481 0 
L 794 0 
L 794 531 
z
" transform="scale(0.015625)"/>
       </defs>
       <use xlink:href="#DejaVuSans-4b"/>
       <use xlink:href="#DejaVuSans-31" x="65.576172"/>
      </g>
     </g>
    </g>
    <g id="xtick_2">
     <g id="line2d_2">
      <g>
       <use xlink:href="#m3e05dc0436" x="93.312" y="307.584" style="stroke: #000000; stroke-width: 0.8"/>
      </g>
     </g>
     <g id="text_2">
      <!-- R2 -->
      <g transform="translate(86.656531 322.182437) scale(0.1 -0.1)">
       <defs>
        <path id="DejaVuSans-52" d="M 2841 2188 
Q 3044 2119 3236 1894 
Q 3428 1669 3622 1275 
L 4263 0 
L 3584 0 
L 2988 1197 
Q 2756 1666 2539 1819 
Q 2322 1972 1947 1972 
L 1259 1972 
L 1259 0 
L 628 0 
L 628 4666 
L 2053 4666 
Q 2853 4666 3247 4331 
Q 3641 3997 3641 3322 
Q 3641 2881 3436 2590 
Q 3231 2300 2841 2188 
z
M 1259 4147 
L 1259 2491 
L 2053 2491 
Q 2509 2491 2742 2702 
Q 2975 2913 2975 3322 
Q 2975 3731 2742 3939 
Q 2509 4147 2053 4147 
L 1259 4147 
z
" transform="scale(0.015625)"/>
        <path id="DejaVuSans-32" d="M 1228 531 
L 3431 531 
L 3431 0 
L 469 0 
L 469 531 
Q 828 903 1448 1529 
Q 2069 2156 2228 2338 
Q 2531 2678 2651 2914 
Q 2772 3150 2772 3378 
Q 2772 3750 2511 3984 
Q 2250 4219 1831 4219 
Q 1534 4219 1204 4116 
Q 875 4013 500 3803 
L 500 4441 
Q 881 4594 1212 4672 
Q 1544 4750 1819 4750 
Q 2544 4750 2975 4387 
Q 3406 4025 3406 3419 
Q 3406 3131 3298 2873 
Q 3191 2616 2906 2266 
Q 2828 2175 2409 1742 
Q 1991 1309 1228 531 
z
" transform="scale(0.015625)"/>
       </defs>
       <use xlink:href="#DejaVuSans-52"/>
       <use xlink:href="#DejaVuSans-32" x="69.482422"/>
      </g>
     </g>
    </g>
    <g id="xtick_3">
     <g id="line2d_3">
      <g>
       <use xlink:href="#m3e05dc0436" x="117.12" y="307.584" style="stroke: #000000; stroke-width: 0.8"/>
      </g>
     </g>
     <g id="text_3">
      <!-- I3 -->
      <g transform="translate(112.46375 322.182437) scale(0.1 -0.1)">
       <defs>
        <path id="DejaVuSans-49" d="M 628 4666 
L 1259 4666 
L 1259 0 
L 628 0 
L 628 4666 
z
" transform="scale(0.015625)"/>
        <path id="DejaVuSans-33" d="M 2597 2516 
Q 3050 2419 3304 2112 
Q 3559 1806 3559 1356 
Q 3559 666 3084 287 
Q 2609 -91 1734 -91 
Q 1441 -91 1130 -33 
Q 819 25 488 141 
L 488 750 
Q 750 597 1062 519 
Q 1375 441 1716 441 
Q 2309 441 2620 675 
Q 2931 909 2931 1356 
Q 2931 1769 2642 2001 
Q 2353 2234 1838 2234 
L 1294 2234 
L 1294 2753 
L 1863 2753 
Q 2328 2753 2575 2939 
Q 2822 3125 2822 3475 
Q 2822 3834 2567 4026 
Q 2313 4219 1838 4219 
Q 1578 4219 1281 4162 
Q 984 4106 628 3988 
L 628 4550 
Q 988 4650 1302 4700 
Q 1616 4750 1894 4750 
Q 2613 4750 3031 4423 
Q 3450 4097 3450 3541 
Q 3450 3153 3228 2886 
Q 3006 2619 2597 2516 
z
" transform="scale(0.015625)"/>
       </defs>
       <use xlink:href="#DejaVuSans-49"/>
       <use xlink:href="#DejaVuSans-33" x="29.492188"/>
      </g>
     </g>
    </g>
    <g id="xtick_4">
     <g id="line2d_4">
      <g>
       <use xlink:href="#m3e05dc0436" x="140.928" y="307.584" style="stroke: #000000; stroke-width: 0.8"/>
      </g>
     </g>
     <g id="text_4">
      <!-- V4 -->
      <g transform="translate(134.326437 322.182437) scale(0.1 -0.1)">
       <defs>
        <path id="DejaVuSans-56" d="M 1831 0 
L 50 4666 
L 709 4666 
L 2188 738 
L 3669 4666 
L 4325 4666 
L 2547 0 
L 1831 0 
z
" transform="scale(0.015625)"/>
        <path id="DejaVuSans-34" d="M 2419 4116 
L 825 1625 
L 2419 1625 
L 2419 4116 
z
M 2253 4666 
L 3047 4666 
L 3047 1625 
L 3713 1625 
L 3713 1100 
L 3047 1100 
L 3047 0 
L 2419 0 
L 2419 1100 
L 313 1100 
L 313 1709 
L 2253 4666 
z
" transform="scale(0.015625)"/>
       </defs>
       <use xlink:href="#DejaVuSans-56"/>
       <use xlink:href="#DejaVuSans-34" x="68.408203"/>
      </g>
     </g>
    </g>
    <g id="xtick_5">
     <g id="line2d_5">
      <g>
       <use xlink:href="#m3e05dc0436" x="164.736" y="307.584" style="stroke: #000000; stroke-width: 0.8"/>
      </g>
     </g>
     <g id="text_5">
      <!-- Q5 -->
      <g transform="translate(157.618812 322.182437) scale(0.1 -0.1)">
       <defs>
        <path id="DejaVuSans-51" d="M 2522 4238 
Q 1834 4238 1429 3725 
Q 1025 3213 1025 2328 
Q 1025 1447 1429 934 
Q 1834 422 2522 422 
Q 3209 422 3611 934 
Q 4013 1447 4013 2328 
Q 4013 3213 3611 3725 
Q 3209 4238 2522 4238 
z
M 3406 84 
L 4238 -825 
L 3475 -825 
L 2784 -78 
Q 2681 -84 2626 -87 
Q 2572 -91 2522 -91 
Q 1538 -91 948 567 
Q 359 1225 359 2328 
Q 359 3434 948 4092 
Q 1538 4750 2522 4750 
Q 3503 4750 4090 4092 
Q 4678 3434 4678 2328 
Q 4678 1516 4351 937 
Q 4025 359 3406 84 
z
" transform="scale(0.015625)"/>
        <path id="DejaVuSans-35" d="M 691 4666 
L 3169 4666 
L 3169 4134 
L 1269 4134 
L 1269 2991 
Q 1406 3038 1543 3061 
Q 1681 3084 1819 3084 
Q 2600 3084 3056 2656 
Q 3513 2228 3513 1497 
Q 3513 744 3044 326 
Q 2575 -91 1722 -91 
Q 1428 -91 1123 -41 
Q 819 9 494 109 
L 494 744 
Q 775 591 1075 516 
Q 1375 441 1709 441 
Q 2250 441 2565 725 
Q 2881 1009 2881 1497 
Q 2881 1984 2565 2268 
Q 2250 2553 1709 2553 
Q 1456 2553 1204 2497 
Q 953 2441 691 2322 
L 691 4666 
z
" transform="scale(0.015625)"/>
       </defs>
       <use xlink:href="#DejaVuSans-51"/>
       <use xlink:href="#DejaVuSans-35" x="78.710938"/>
      </g>
     </g>
    </g>
    <g id="xtick_6">
     <g id="line2d_6">
      <g>
       <use xlink:href="#m3e05dc0436" x="188.544" y="307.584" style="stroke: #000000; stroke-width: 0.8"/>
      </g>
     </g>
     <g id="text_6">
      <!-- R6 -->
      <g transform="translate(181.888531 322.182437) scale(0.1 -0.1)">
       <defs>
        <path id="DejaVuSans-36" d="M 2113 2584 
Q 1688 2584 1439 2293 
Q 1191 2003 1191 1497 
Q 1191 994 1439 701 
Q 1688 409 2113 409 
Q 2538 409 2786 701 
Q 3034 994 3034 1497 
Q 3034 2003 2786 2293 
Q 2538 2584 2113 2584 
z
M 3366 4563 
L 3366 3988 
Q 3128 4100 2886 4159 
Q 2644 4219 2406 4219 
Q 1781 4219 1451 3797 
Q 1122 3375 1075 2522 
Q 1259 2794 1537 2939 
Q 1816 3084 2150 3084 
Q 2853 3084 3261 2657 
Q 3669 2231 3669 1497 
Q 3669 778 3244 343 
Q 2819 -91 2113 -91 
Q 1303 -91 875 529 
Q 447 1150 447 2328 
Q 447 3434 972 4092 
Q 1497 4750 2381 4750 
Q 2619 4750 2861 4703 
Q 3103 4656 3366 4563 
z
" transform="scale(0.015625)"/>
       </defs>
       <use xlink:href="#DejaVuSans-52"/>
       <use xlink:href="#DejaVuSans-36" x="69.482422"/>
      </g>
     </g>
    </g>
    <g id="xtick_7">
     <g id="line2d_7">
      <g>
       <use xlink:href="#m3e05dc0436" x="212.352" y="307.584" style="stroke: #000000; stroke-width: 0.8"/>
      </g>
     </g>
     <g id="text_7">
      <!-- I7 -->
      <g transform="translate(207.69575 322.182437) scale(0.1 -0.1)">
       <defs>
        <path id="DejaVuSans-37" d="M 525 4666 
L 3525 4666 
L 3525 4397 
L 1831 0 
L 1172 0 
L 2766 4134 
L 525 4134 
L 525 4666 
z
" transform="scale(0.015625)"/>
       </defs>
       <use xlink:href="#DejaVuSans-49"/>
       <use xlink:href="#DejaVuSans-37" x="29.492188"/>
      </g>
     </g>
    </g>
    <g id="xtick_8">
     <g id="line2d_8">
      <g>
       <use xlink:href="#m3e05dc0436" x="236.16" y="307.584" style="stroke: #000000; stroke-width: 0.8"/>
      </g>
     </g>
     <g id="text_8">
      <!-- K8 -->
      <g transform="translate(229.699844 322.182437) scale(0.1 -0.1)">
       <defs>
        <path id="DejaVuSans-38" d="M 2034 2216 
Q 1584 2216 1326 1975 
Q 1069 1734 1069 1313 
Q 1069 891 1326 650 
Q 1584 409 2034 409 
Q 2484 409 2743 651 
Q 3003 894 3003 1313 
Q 3003 1734 2745 1975 
Q 2488 2216 2034 2216 
z
M 1403 2484 
Q 997 2584 770 2862 
Q 544 3141 544 3541 
Q 544 4100 942 4425 
Q 1341 4750 2034 4750 
Q 2731 4750 3128 4425 
Q 3525 4100 3525 3541 
Q 3525 3141 3298 2862 
Q 3072 2584 2669 2484 
Q 3125 2378 3379 2068 
Q 3634 1759 3634 1313 
Q 3634 634 3220 271 
Q 2806 -91 2034 -91 
Q 1263 -91 848 271 
Q 434 634 434 1313 
Q 434 1759 690 2068 
Q 947 2378 1403 2484 
z
M 1172 3481 
Q 1172 3119 1398 2916 
Q 1625 2713 2034 2713 
Q 2441 2713 2670 2916 
Q 2900 3119 2900 3481 
Q 2900 3844 2670 4047 
Q 2441 4250 2034 4250 
Q 1625 4250 1398 4047 
Q 1172 3844 1172 3481 
z
" transform="scale(0.015625)"/>
       </defs>
       <use xlink:href="#DejaVuSans-4b"/>
       <use xlink:href="#DejaVuSans-38" x="65.576172"/>
      </g>
     </g>
    </g>
    <g id="xtick_9">
     <g id="line2d_9">
      <g>
       <use xlink:href="#m3e05dc0436" x="259.968" y="307.584" style="stroke: #000000; stroke-width: 0.8"/>
      </g>
     </g>
     <g id="text_9">
      <!-- D9 -->
      <g transform="translate(252.93675 322.182437) scale(0.1 -0.1)">
       <defs>
        <path id="DejaVuSans-44" d="M 1259 4147 
L 1259 519 
L 2022 519 
Q 2988 519 3436 956 
Q 3884 1394 3884 2338 
Q 3884 3275 3436 3711 
Q 2988 4147 2022 4147 
L 1259 4147 
z
M 628 4666 
L 1925 4666 
Q 3281 4666 3915 4102 
Q 4550 3538 4550 2338 
Q 4550 1131 3912 565 
Q 3275 0 1925 0 
L 628 0 
L 628 4666 
z
" transform="scale(0.015625)"/>
        <path id="DejaVuSans-39" d="M 703 97 
L 703 672 
Q 941 559 1184 500 
Q 1428 441 1663 441 
Q 2288 441 2617 861 
Q 2947 1281 2994 2138 
Q 2813 1869 2534 1725 
Q 2256 1581 1919 1581 
Q 1219 1581 811 2004 
Q 403 2428 403 3163 
Q 403 3881 828 4315 
Q 1253 4750 1959 4750 
Q 2769 4750 3195 4129 
Q 3622 3509 3622 2328 
Q 3622 1225 3098 567 
Q 2575 -91 1691 -91 
Q 1453 -91 1209 -44 
Q 966 3 703 97 
z
M 1959 2075 
Q 2384 2075 2632 2365 
Q 2881 2656 2881 3163 
Q 2881 3666 2632 3958 
Q 2384 4250 1959 4250 
Q 1534 4250 1286 3958 
Q 1038 3666 1038 3163 
Q 1038 2656 1286 2365 
Q 1534 2075 1959 2075 
z
" transform="scale(0.015625)"/>
       </defs>
       <use xlink:href="#DejaVuSans-44"/>
       <use xlink:href="#DejaVuSans-39" x="77.001953"/>
      </g>
     </g>
    </g>
    <g id="xtick_10">
     <g id="line2d_10">
      <g>
       <use xlink:href="#m3e05dc0436" x="283.776" y="307.584" style="stroke: #000000; stroke-width: 0.8"/>
      </g>
     </g>
     <g id="text_10">
      <!-- F10 -->
      <g transform="translate(274.537719 322.182437) scale(0.1 -0.1)">
       <defs>
        <path id="DejaVuSans-46" d="M 628 4666 
L 3309 4666 
L 3309 4134 
L 1259 4134 
L 1259 2759 
L 3109 2759 
L 3109 2228 
L 1259 2228 
L 1259 0 
L 628 0 
L 628 4666 
z
" transform="scale(0.015625)"/>
        <path id="DejaVuSans-30" d="M 2034 4250 
Q 1547 4250 1301 3770 
Q 1056 3291 1056 2328 
Q 1056 1369 1301 889 
Q 1547 409 2034 409 
Q 2525 409 2770 889 
Q 3016 1369 3016 2328 
Q 3016 3291 2770 3770 
Q 2525 4250 2034 4250 
z
M 2034 4750 
Q 2819 4750 3233 4129 
Q 3647 3509 3647 2328 
Q 3647 1150 3233 529 
Q 2819 -91 2034 -91 
Q 1250 -91 836 529 
Q 422 1150 422 2328 
Q 422 3509 836 4129 
Q 1250 4750 2034 4750 
z
" transform="scale(0.015625)"/>
       </defs>
       <use xlink:href="#DejaVuSans-46"/>
       <use xlink:href="#DejaVuSans-31" x="57.519531"/>
       <use xlink:href="#DejaVuSans-30" x="121.142578"/>
      </g>
     </g>
    </g>
    <g id="xtick_11">
     <g id="line2d_11">
      <g>
       <use xlink:href="#m3e05dc0436" x="307.584" y="307.584" style="stroke: #000000; stroke-width: 0.8"/>
      </g>
     </g>
     <g id="text_11">
      <!-- L11 -->
      <g transform="translate(298.435563 322.182437) scale(0.1 -0.1)">
       <defs>
        <path id="DejaVuSans-4c" d="M 628 4666 
L 1259 4666 
L 1259 531 
L 3531 531 
L 3531 0 
L 628 0 
L 628 4666 
z
" transform="scale(0.015625)"/>
       </defs>
       <use xlink:href="#DejaVuSans-4c"/>
       <use xlink:href="#DejaVuSans-31" x="55.712891"/>
       <use xlink:href="#DejaVuSans-31" x="119.335938"/>
      </g>
     </g>
    </g>
    <g id="xtick_12">
     <g id="line2d_12">
      <g>
       <use xlink:href="#m3e05dc0436" x="331.392" y="307.584" style="stroke: #000000; stroke-width: 0.8"/>
      </g>
     </g>
     <g id="text_12">
      <!-- R12 -->
      <g transform="translate(321.555281 322.182437) scale(0.1 -0.1)">
       <use xlink:href="#DejaVuSans-52"/>
       <use xlink:href="#DejaVuSans-31" x="69.482422"/>
       <use xlink:href="#DejaVuSans-32" x="133.105469"/>
      </g>
     </g>
    </g>
    <g id="text_13">
     <!-- Tokens -->
     <g transform="translate(175.206984 339.659781) scale(0.15 -0.15)">
      <defs>
       <path id="DejaVuSans-54" d="M -19 4666 
L 3928 4666 
L 3928 4134 
L 2272 4134 
L 2272 0 
L 1638 0 
L 1638 4134 
L -19 4134 
L -19 4666 
z
" transform="scale(0.015625)"/>
       <path id="DejaVuSans-6f" d="M 1959 3097 
Q 1497 3097 1228 2736 
Q 959 2375 959 1747 
Q 959 1119 1226 758 
Q 1494 397 1959 397 
Q 2419 397 2687 759 
Q 2956 1122 2956 1747 
Q 2956 2369 2687 2733 
Q 2419 3097 1959 3097 
z
M 1959 3584 
Q 2709 3584 3137 3096 
Q 3566 2609 3566 1747 
Q 3566 888 3137 398 
Q 2709 -91 1959 -91 
Q 1206 -91 779 398 
Q 353 888 353 1747 
Q 353 2609 779 3096 
Q 1206 3584 1959 3584 
z
" transform="scale(0.015625)"/>
       <path id="DejaVuSans-6b" d="M 581 4863 
L 1159 4863 
L 1159 1991 
L 2875 3500 
L 3609 3500 
L 1753 1863 
L 3688 0 
L 2938 0 
L 1159 1709 
L 1159 0 
L 581 0 
L 581 4863 
z
" transform="scale(0.015625)"/>
       <path id="DejaVuSans-65" d="M 3597 1894 
L 3597 1613 
L 953 1613 
Q 991 1019 1311 708 
Q 1631 397 2203 397 
Q 2534 397 2845 478 
Q 3156 559 3463 722 
L 3463 178 
Q 3153 47 2828 -22 
Q 2503 -91 2169 -91 
Q 1331 -91 842 396 
Q 353 884 353 1716 
Q 353 2575 817 3079 
Q 1281 3584 2069 3584 
Q 2775 3584 3186 3129 
Q 3597 2675 3597 1894 
z
M 3022 2063 
Q 3016 2534 2758 2815 
Q 2500 3097 2075 3097 
Q 1594 3097 1305 2825 
Q 1016 2553 972 2059 
L 3022 2063 
z
" transform="scale(0.015625)"/>
       <path id="DejaVuSans-6e" d="M 3513 2113 
L 3513 0 
L 2938 0 
L 2938 2094 
Q 2938 2591 2744 2837 
Q 2550 3084 2163 3084 
Q 1697 3084 1428 2787 
Q 1159 2491 1159 1978 
L 1159 0 
L 581 0 
L 581 3500 
L 1159 3500 
L 1159 2956 
Q 1366 3272 1645 3428 
Q 1925 3584 2291 3584 
Q 2894 3584 3203 3211 
Q 3513 2838 3513 2113 
z
" transform="scale(0.015625)"/>
       <path id="DejaVuSans-73" d="M 2834 3397 
L 2834 2853 
Q 2591 2978 2328 3040 
Q 2066 3103 1784 3103 
Q 1356 3103 1142 2972 
Q 928 2841 928 2578 
Q 928 2378 1081 2264 
Q 1234 2150 1697 2047 
L 1894 2003 
Q 2506 1872 2764 1633 
Q 3022 1394 3022 966 
Q 3022 478 2636 193 
Q 2250 -91 1575 -91 
Q 1294 -91 989 -36 
Q 684 19 347 128 
L 347 722 
Q 666 556 975 473 
Q 1284 391 1588 391 
Q 1994 391 2212 530 
Q 2431 669 2431 922 
Q 2431 1156 2273 1281 
Q 2116 1406 1581 1522 
L 1381 1569 
Q 847 1681 609 1914 
Q 372 2147 372 2553 
Q 372 3047 722 3315 
Q 1072 3584 1716 3584 
Q 2034 3584 2315 3537 
Q 2597 3491 2834 3397 
z
" transform="scale(0.015625)"/>
      </defs>
      <use xlink:href="#DejaVuSans-54"/>
      <use xlink:href="#DejaVuSans-6f" x="44.083984"/>
      <use xlink:href="#DejaVuSans-6b" x="105.265625"/>
      <use xlink:href="#DejaVuSans-65" x="159.550781"/>
      <use xlink:href="#DejaVuSans-6e" x="221.074219"/>
      <use xlink:href="#DejaVuSans-73" x="284.453125"/>
     </g>
    </g>
   </g>
   <g id="matplotlib.axis_2">
    <g id="ytick_1">
     <g id="line2d_13">
      <defs>
       <path id="m05d876a828" d="M 0 0 
L -3.5 0 
" style="stroke: #000000; stroke-width: 0.8"/>
      </defs>
      <g>
       <use xlink:href="#m05d876a828" x="57.6" y="49.788" style="stroke: #000000; stroke-width: 0.8"/>
      </g>
     </g>
     <g id="text_14">
      <!-- 0 -->
      <g transform="translate(48.520313 52.96925) rotate(-90) scale(0.1 -0.1)">
       <use xlink:href="#DejaVuSans-30"/>
      </g>
     </g>
    </g>
    <g id="ytick_2">
     <g id="line2d_14">
      <g>
       <use xlink:href="#m05d876a828" x="57.6" y="66.42" style="stroke: #000000; stroke-width: 0.8"/>
      </g>
     </g>
     <g id="text_15">
      <!-- 1 -->
      <g transform="translate(48.520313 69.60125) rotate(-90) scale(0.1 -0.1)">
       <use xlink:href="#DejaVuSans-31"/>
      </g>
     </g>
    </g>
    <g id="ytick_3">
     <g id="line2d_15">
      <g>
       <use xlink:href="#m05d876a828" x="57.6" y="83.052" style="stroke: #000000; stroke-width: 0.8"/>
      </g>
     </g>
     <g id="text_16">
      <!-- 2 -->
      <g transform="translate(48.520313 86.23325) rotate(-90) scale(0.1 -0.1)">
       <use xlink:href="#DejaVuSans-32"/>
      </g>
     </g>
    </g>
    <g id="ytick_4">
     <g id="line2d_16">
      <g>
       <use xlink:href="#m05d876a828" x="57.6" y="99.684" style="stroke: #000000; stroke-width: 0.8"/>
      </g>
     </g>
     <g id="text_17">
      <!-- 3 -->
      <g transform="translate(48.520313 102.86525) rotate(-90) scale(0.1 -0.1)">
       <use xlink:href="#DejaVuSans-33"/>
      </g>
     </g>
    </g>
    <g id="ytick_5">
     <g id="line2d_17">
      <g>
       <use xlink:href="#m05d876a828" x="57.6" y="116.316" style="stroke: #000000; stroke-width: 0.8"/>
      </g>
     </g>
     <g id="text_18">
      <!-- 4 -->
      <g transform="translate(48.520313 119.49725) rotate(-90) scale(0.1 -0.1)">
       <use xlink:href="#DejaVuSans-34"/>
      </g>
     </g>
    </g>
    <g id="ytick_6">
     <g id="line2d_18">
      <g>
       <use xlink:href="#m05d876a828" x="57.6" y="132.948" style="stroke: #000000; stroke-width: 0.8"/>
      </g>
     </g>
     <g id="text_19">
      <!-- 5 -->
      <g transform="translate(48.520313 136.12925) rotate(-90) scale(0.1 -0.1)">
       <use xlink:href="#DejaVuSans-35"/>
      </g>
     </g>
    </g>
    <g id="ytick_7">
     <g id="line2d_19">
      <g>
       <use xlink:href="#m05d876a828" x="57.6" y="149.58" style="stroke: #000000; stroke-width: 0.8"/>
      </g>
     </g>
     <g id="text_20">
      <!-- 6 -->
      <g transform="translate(48.520313 152.76125) rotate(-90) scale(0.1 -0.1)">
       <use xlink:href="#DejaVuSans-36"/>
      </g>
     </g>
    </g>
    <g id="ytick_8">
     <g id="line2d_20">
      <g>
       <use xlink:href="#m05d876a828" x="57.6" y="166.212" style="stroke: #000000; stroke-width: 0.8"/>
      </g>
     </g>
     <g id="text_21">
      <!-- 7 -->
      <g transform="translate(48.520313 169.39325) rotate(-90) scale(0.1 -0.1)">
       <use xlink:href="#DejaVuSans-37"/>
      </g>
     </g>
    </g>
    <g id="ytick_9">
     <g id="line2d_21">
      <g>
       <use xlink:href="#m05d876a828" x="57.6" y="182.844" style="stroke: #000000; stroke-width: 0.8"/>
      </g>
     </g>
     <g id="text_22">
      <!-- 8 -->
      <g transform="translate(48.520313 186.02525) rotate(-90) scale(0.1 -0.1)">
       <use xlink:href="#DejaVuSans-38"/>
      </g>
     </g>
    </g>
    <g id="ytick_10">
     <g id="line2d_22">
      <g>
       <use xlink:href="#m05d876a828" x="57.6" y="199.476" style="stroke: #000000; stroke-width: 0.8"/>
      </g>
     </g>
     <g id="text_23">
      <!-- 9 -->
      <g transform="translate(48.520313 202.65725) rotate(-90) scale(0.1 -0.1)">
       <use xlink:href="#DejaVuSans-39"/>
      </g>
     </g>
    </g>
    <g id="ytick_11">
     <g id="line2d_23">
      <g>
       <use xlink:href="#m05d876a828" x="57.6" y="216.108" style="stroke: #000000; stroke-width: 0.8"/>
      </g>
     </g>
     <g id="text_24">
      <!-- 10 -->
      <g transform="translate(48.520313 222.4705) rotate(-90) scale(0.1 -0.1)">
       <use xlink:href="#DejaVuSans-31"/>
       <use xlink:href="#DejaVuSans-30" x="63.623047"/>
      </g>
     </g>
    </g>
    <g id="ytick_12">
     <g id="line2d_24">
      <g>
       <use xlink:href="#m05d876a828" x="57.6" y="232.74" style="stroke: #000000; stroke-width: 0.8"/>
      </g>
     </g>
     <g id="text_25">
      <!-- 11 -->
      <g transform="translate(48.520313 239.1025) rotate(-90) scale(0.1 -0.1)">
       <use xlink:href="#DejaVuSans-31"/>
       <use xlink:href="#DejaVuSans-31" x="63.623047"/>
      </g>
     </g>
    </g>
    <g id="ytick_13">
     <g id="line2d_25">
      <g>
       <use xlink:href="#m05d876a828" x="57.6" y="249.372" style="stroke: #000000; stroke-width: 0.8"/>
      </g>
     </g>
     <g id="text_26">
      <!-- 12 -->
      <g transform="translate(48.520313 255.7345) rotate(-90) scale(0.1 -0.1)">
       <use xlink:href="#DejaVuSans-31"/>
       <use xlink:href="#DejaVuSans-32" x="63.623047"/>
      </g>
     </g>
    </g>
    <g id="ytick_14">
     <g id="line2d_26">
      <g>
       <use xlink:href="#m05d876a828" x="57.6" y="266.004" style="stroke: #000000; stroke-width: 0.8"/>
      </g>
     </g>
     <g id="text_27">
      <!-- 13 -->
      <g transform="translate(48.520313 272.3665) rotate(-90) scale(0.1 -0.1)">
       <use xlink:href="#DejaVuSans-31"/>
       <use xlink:href="#DejaVuSans-33" x="63.623047"/>
      </g>
     </g>
    </g>
    <g id="ytick_15">
     <g id="line2d_27">
      <g>
       <use xlink:href="#m05d876a828" x="57.6" y="282.636" style="stroke: #000000; stroke-width: 0.8"/>
      </g>
     </g>
     <g id="text_28">
      <!-- 14 -->
      <g transform="translate(48.520313 288.9985) rotate(-90) scale(0.1 -0.1)">
       <use xlink:href="#DejaVuSans-31"/>
       <use xlink:href="#DejaVuSans-34" x="63.623047"/>
      </g>
     </g>
    </g>
    <g id="ytick_16">
     <g id="line2d_28">
      <g>
       <use xlink:href="#m05d876a828" x="57.6" y="299.268" style="stroke: #000000; stroke-width: 0.8"/>
      </g>
     </g>
     <g id="text_29">
      <!-- 15 -->
      <g transform="translate(48.520313 305.6305) rotate(-90) scale(0.1 -0.1)">
       <use xlink:href="#DejaVuSans-31"/>
       <use xlink:href="#DejaVuSans-35" x="63.623047"/>
      </g>
     </g>
    </g>
    <g id="text_30">
     <!-- Heads of the 29th layer -->
     <g transform="translate(33.802344 263.173313) rotate(-90) scale(0.15 -0.15)">
      <defs>
       <path id="DejaVuSans-48" d="M 628 4666 
L 1259 4666 
L 1259 2753 
L 3553 2753 
L 3553 4666 
L 4184 4666 
L 4184 0 
L 3553 0 
L 3553 2222 
L 1259 2222 
L 1259 0 
L 628 0 
L 628 4666 
z
" transform="scale(0.015625)"/>
       <path id="DejaVuSans-61" d="M 2194 1759 
Q 1497 1759 1228 1600 
Q 959 1441 959 1056 
Q 959 750 1161 570 
Q 1363 391 1709 391 
Q 2188 391 2477 730 
Q 2766 1069 2766 1631 
L 2766 1759 
L 2194 1759 
z
M 3341 1997 
L 3341 0 
L 2766 0 
L 2766 531 
Q 2569 213 2275 61 
Q 1981 -91 1556 -91 
Q 1019 -91 701 211 
Q 384 513 384 1019 
Q 384 1609 779 1909 
Q 1175 2209 1959 2209 
L 2766 2209 
L 2766 2266 
Q 2766 2663 2505 2880 
Q 2244 3097 1772 3097 
Q 1472 3097 1187 3025 
Q 903 2953 641 2809 
L 641 3341 
Q 956 3463 1253 3523 
Q 1550 3584 1831 3584 
Q 2591 3584 2966 3190 
Q 3341 2797 3341 1997 
z
" transform="scale(0.015625)"/>
       <path id="DejaVuSans-64" d="M 2906 2969 
L 2906 4863 
L 3481 4863 
L 3481 0 
L 2906 0 
L 2906 525 
Q 2725 213 2448 61 
Q 2172 -91 1784 -91 
Q 1150 -91 751 415 
Q 353 922 353 1747 
Q 353 2572 751 3078 
Q 1150 3584 1784 3584 
Q 2172 3584 2448 3432 
Q 2725 3281 2906 2969 
z
M 947 1747 
Q 947 1113 1208 752 
Q 1469 391 1925 391 
Q 2381 391 2643 752 
Q 2906 1113 2906 1747 
Q 2906 2381 2643 2742 
Q 2381 3103 1925 3103 
Q 1469 3103 1208 2742 
Q 947 2381 947 1747 
z
" transform="scale(0.015625)"/>
       <path id="DejaVuSans-20" transform="scale(0.015625)"/>
       <path id="DejaVuSans-66" d="M 2375 4863 
L 2375 4384 
L 1825 4384 
Q 1516 4384 1395 4259 
Q 1275 4134 1275 3809 
L 1275 3500 
L 2222 3500 
L 2222 3053 
L 1275 3053 
L 1275 0 
L 697 0 
L 697 3053 
L 147 3053 
L 147 3500 
L 697 3500 
L 697 3744 
Q 697 4328 969 4595 
Q 1241 4863 1831 4863 
L 2375 4863 
z
" transform="scale(0.015625)"/>
       <path id="DejaVuSans-74" d="M 1172 4494 
L 1172 3500 
L 2356 3500 
L 2356 3053 
L 1172 3053 
L 1172 1153 
Q 1172 725 1289 603 
Q 1406 481 1766 481 
L 2356 481 
L 2356 0 
L 1766 0 
Q 1100 0 847 248 
Q 594 497 594 1153 
L 594 3053 
L 172 3053 
L 172 3500 
L 594 3500 
L 594 4494 
L 1172 4494 
z
" transform="scale(0.015625)"/>
       <path id="DejaVuSans-68" d="M 3513 2113 
L 3513 0 
L 2938 0 
L 2938 2094 
Q 2938 2591 2744 2837 
Q 2550 3084 2163 3084 
Q 1697 3084 1428 2787 
Q 1159 2491 1159 1978 
L 1159 0 
L 581 0 
L 581 4863 
L 1159 4863 
L 1159 2956 
Q 1366 3272 1645 3428 
Q 1925 3584 2291 3584 
Q 2894 3584 3203 3211 
Q 3513 2838 3513 2113 
z
" transform="scale(0.015625)"/>
       <path id="DejaVuSans-6c" d="M 603 4863 
L 1178 4863 
L 1178 0 
L 603 0 
L 603 4863 
z
" transform="scale(0.015625)"/>
       <path id="DejaVuSans-79" d="M 2059 -325 
Q 1816 -950 1584 -1140 
Q 1353 -1331 966 -1331 
L 506 -1331 
L 506 -850 
L 844 -850 
Q 1081 -850 1212 -737 
Q 1344 -625 1503 -206 
L 1606 56 
L 191 3500 
L 800 3500 
L 1894 763 
L 2988 3500 
L 3597 3500 
L 2059 -325 
z
" transform="scale(0.015625)"/>
       <path id="DejaVuSans-72" d="M 2631 2963 
Q 2534 3019 2420 3045 
Q 2306 3072 2169 3072 
Q 1681 3072 1420 2755 
Q 1159 2438 1159 1844 
L 1159 0 
L 581 0 
L 581 3500 
L 1159 3500 
L 1159 2956 
Q 1341 3275 1631 3429 
Q 1922 3584 2338 3584 
Q 2397 3584 2469 3576 
Q 2541 3569 2628 3553 
L 2631 2963 
z
" transform="scale(0.015625)"/>
      </defs>
      <use xlink:href="#DejaVuSans-48"/>
      <use xlink:href="#DejaVuSans-65" x="75.195312"/>
      <use xlink:href="#DejaVuSans-61" x="136.71875"/>
      <use xlink:href="#DejaVuSans-64" x="197.998047"/>
      <use xlink:href="#DejaVuSans-73" x="261.474609"/>
      <use xlink:href="#DejaVuSans-20" x="313.574219"/>
      <use xlink:href="#DejaVuSans-6f" x="345.361328"/>
      <use xlink:href="#DejaVuSans-66" x="406.542969"/>
      <use xlink:href="#DejaVuSans-20" x="441.748047"/>
      <use xlink:href="#DejaVuSans-74" x="473.535156"/>
      <use xlink:href="#DejaVuSans-68" x="512.744141"/>
      <use xlink:href="#DejaVuSans-65" x="576.123047"/>
      <use xlink:href="#DejaVuSans-20" x="637.646484"/>
      <use xlink:href="#DejaVuSans-32" x="669.433594"/>
      <use xlink:href="#DejaVuSans-39" x="733.056641"/>
      <use xlink:href="#DejaVuSans-74" x="796.679688"/>
      <use xlink:href="#DejaVuSans-68" x="835.888672"/>
      <use xlink:href="#DejaVuSans-20" x="899.267578"/>
      <use xlink:href="#DejaVuSans-6c" x="931.054688"/>
      <use xlink:href="#DejaVuSans-61" x="958.837891"/>
      <use xlink:href="#DejaVuSans-79" x="1020.117188"/>
      <use xlink:href="#DejaVuSans-65" x="1079.296875"/>
      <use xlink:href="#DejaVuSans-72" x="1140.820312"/>
     </g>
    </g>
   </g>
  </g>
  <g id="axes_2">
   <g id="patch_3">
    <path d="M 361.152 307.584 
L 374.4576 307.584 
L 374.4576 41.472 
L 361.152 41.472 
z
" style="fill: #ffffff"/>
   </g>
   <g id="QuadMesh_2">
    <path d="M 361.152 307.584 
L 374.4576 307.584 
L 374.4576 285.408 
L 361.152 285.408 
L 361.152 307.584 
" clip-path="url(#p3b15f9f036)" style="fill: #516ddb"/>
    <path d="M 361.152 285.408 
L 374.4576 285.408 
L 374.4576 263.232 
L 361.152 263.232 
L 361.152 285.408 
" clip-path="url(#p3b15f9f036)" style="fill: #6b8df0"/>
    <path d="M 361.152 263.232 
L 374.4576 263.232 
L 374.4576 241.056 
L 361.152 241.056 
L 361.152 263.232 
" clip-path="url(#p3b15f9f036)" style="fill: #86a9fc"/>
    <path d="M 361.152 241.056 
L 374.4576 241.056 
L 374.4576 218.88 
L 361.152 218.88 
L 361.152 241.056 
" clip-path="url(#p3b15f9f036)" style="fill: #a1c0ff"/>
    <path d="M 361.152 218.88 
L 374.4576 218.88 
L 374.4576 196.704 
L 361.152 196.704 
L 361.152 218.88 
" clip-path="url(#p3b15f9f036)" style="fill: #bbd1f8"/>
    <path d="M 361.152 196.704 
L 374.4576 196.704 
L 374.4576 174.528 
L 361.152 174.528 
L 361.152 196.704 
" clip-path="url(#p3b15f9f036)" style="fill: #d3dbe7"/>
    <path d="M 361.152 174.528 
L 374.4576 174.528 
L 374.4576 152.352 
L 361.152 152.352 
L 361.152 174.528 
" clip-path="url(#p3b15f9f036)" style="fill: #e6d7cf"/>
    <path d="M 361.152 152.352 
L 374.4576 152.352 
L 374.4576 130.176 
L 361.152 130.176 
L 361.152 152.352 
" clip-path="url(#p3b15f9f036)" style="fill: #f3c7b1"/>
    <path d="M 361.152 130.176 
L 374.4576 130.176 
L 374.4576 108 
L 361.152 108 
L 361.152 130.176 
" clip-path="url(#p3b15f9f036)" style="fill: #f7af91"/>
    <path d="M 361.152 108 
L 374.4576 108 
L 374.4576 85.824 
L 361.152 85.824 
L 361.152 108 
" clip-path="url(#p3b15f9f036)" style="fill: #f29274"/>
    <path d="M 361.152 85.824 
L 374.4576 85.824 
L 374.4576 63.648 
L 361.152 63.648 
L 361.152 85.824 
" clip-path="url(#p3b15f9f036)" style="fill: #e46e56"/>
    <path d="M 361.152 63.648 
L 374.4576 63.648 
L 374.4576 41.472 
L 361.152 41.472 
L 361.152 63.648 
" clip-path="url(#p3b15f9f036)" style="fill: #cf453c"/>
   </g>
   <g id="matplotlib.axis_3"/>
   <g id="matplotlib.axis_4">
    <g id="ytick_17">
     <g id="line2d_29">
      <defs>
       <path id="m024b46308a" d="M 0 0 
L 3.5 0 
" style="stroke: #000000; stroke-width: 0.8"/>
      </defs>
      <g>
       <use xlink:href="#m024b46308a" x="374.4576" y="307.584" style="stroke: #000000; stroke-width: 0.8"/>
      </g>
     </g>
     <g id="text_31">
      <!-- 0 -->
      <g transform="translate(381.4576 311.383219) scale(0.1 -0.1)">
       <use xlink:href="#DejaVuSans-30"/>
      </g>
     </g>
    </g>
    <g id="ytick_18">
     <g id="line2d_30">
      <g>
       <use xlink:href="#m024b46308a" x="374.4576" y="263.232" style="stroke: #000000; stroke-width: 0.8"/>
      </g>
     </g>
     <g id="text_32">
      <!-- 1 -->
      <g transform="translate(381.4576 267.031219) scale(0.1 -0.1)">
       <use xlink:href="#DejaVuSans-31"/>
      </g>
     </g>
    </g>
    <g id="ytick_19">
     <g id="line2d_31">
      <g>
       <use xlink:href="#m024b46308a" x="374.4576" y="218.88" style="stroke: #000000; stroke-width: 0.8"/>
      </g>
     </g>
     <g id="text_33">
      <!-- 2 -->
      <g transform="translate(381.4576 222.679219) scale(0.1 -0.1)">
       <use xlink:href="#DejaVuSans-32"/>
      </g>
     </g>
    </g>
    <g id="ytick_20">
     <g id="line2d_32">
      <g>
       <use xlink:href="#m024b46308a" x="374.4576" y="174.528" style="stroke: #000000; stroke-width: 0.8"/>
      </g>
     </g>
     <g id="text_34">
      <!-- 3 -->
      <g transform="translate(381.4576 178.327219) scale(0.1 -0.1)">
       <use xlink:href="#DejaVuSans-33"/>
      </g>
     </g>
    </g>
    <g id="ytick_21">
     <g id="line2d_33">
      <g>
       <use xlink:href="#m024b46308a" x="374.4576" y="130.176" style="stroke: #000000; stroke-width: 0.8"/>
      </g>
     </g>
     <g id="text_35">
      <!-- 4 -->
      <g transform="translate(381.4576 133.975219) scale(0.1 -0.1)">
       <use xlink:href="#DejaVuSans-34"/>
      </g>
     </g>
    </g>
    <g id="ytick_22">
     <g id="line2d_34">
      <g>
       <use xlink:href="#m024b46308a" x="374.4576" y="85.824" style="stroke: #000000; stroke-width: 0.8"/>
      </g>
     </g>
     <g id="text_36">
      <!-- 5 -->
      <g transform="translate(381.4576 89.623219) scale(0.1 -0.1)">
       <use xlink:href="#DejaVuSans-35"/>
      </g>
     </g>
    </g>
    <g id="ytick_23">
     <g id="line2d_35">
      <g>
       <use xlink:href="#m024b46308a" x="374.4576" y="41.472" style="stroke: #000000; stroke-width: 0.8"/>
      </g>
     </g>
     <g id="text_37">
      <!-- 6 -->
      <g transform="translate(381.4576 45.271219) scale(0.1 -0.1)">
       <use xlink:href="#DejaVuSans-36"/>
      </g>
     </g>
    </g>
   </g>
   <g id="LineCollection_1"/>
   <g id="patch_4">
    <path d="M 361.152 307.584 
L 367.8048 307.584 
L 374.4576 307.584 
L 374.4576 41.472 
L 367.8048 41.472 
L 361.152 41.472 
L 361.152 307.584 
z
" style="fill: none"/>
   </g>
  </g>
 </g>
 <defs>
  <clipPath id="p3cc7d26d5c">
   <rect x="57.6" y="41.472" width="285.696" height="266.112"/>
  </clipPath>
  <clipPath id="p3b15f9f036">
   <rect x="361.152" y="41.472" width="13.3056" height="266.112"/>
  </clipPath>
 </defs>
</svg>
