<?xml version="1.0" encoding="utf-8" standalone="no"?>
<!DOCTYPE svg PUBLIC "-//W3C//DTD SVG 1.1//EN"
  "http://www.w3.org/Graphics/SVG/1.1/DTD/svg11.dtd">
<svg xmlns:xlink="http://www.w3.org/1999/xlink" width="460.8pt" height="345.6pt" viewBox="0 0 460.8 345.6" xmlns="http://www.w3.org/2000/svg" version="1.1">
 <metadata>
  <rdf:RDF xmlns:dc="http://purl.org/dc/elements/1.1/" xmlns:cc="http://creativecommons.org/ns#" xmlns:rdf="http://www.w3.org/1999/02/22-rdf-syntax-ns#">
   <cc:Work>
    <dc:type rdf:resource="http://purl.org/dc/dcmitype/StillImage"/>
    <dc:date>2024-01-15T10:44:13.237894</dc:date>
    <dc:format>image/svg+xml</dc:format>
    <dc:creator>
     <cc:Agent>
      <dc:title>Matplotlib v3.7.1, https://matplotlib.org/</dc:title>
     </cc:Agent>
    </dc:creator>
   </cc:Work>
  </rdf:RDF>
 </metadata>
 <defs>
  <style type="text/css">*{stroke-linejoin: round; stroke-linecap: butt}</style>
 </defs>
 <g id="figure_1">
  <g id="patch_1">
   <path d="M 0 345.6 
L 460.8 345.6 
L 460.8 0 
L 0 0 
z
" style="fill: #ffffff"/>
  </g>
  <g id="axes_1">
   <g id="patch_2">
    <path d="M 57.6 307.584 
L 343.296 307.584 
L 343.296 41.472 
L 57.6 41.472 
z
" style="fill: #ffffff"/>
   </g>
   <g id="QuadMesh_1">
    <path d="M 57.6 41.472 
L 79.576615 41.472 
L 79.576615 58.104 
L 57.6 58.104 
L 57.6 41.472 
" clip-path="url(#p7bdb4acc9d)" style="fill: #e6d7cf"/>
    <path d="M 79.576615 41.472 
L 101.553231 41.472 
L 101.553231 58.104 
L 79.576615 58.104 
L 79.576615 41.472 
" clip-path="url(#p7bdb4acc9d)" style="fill: #f3c7b1"/>
    <path d="M 101.553231 41.472 
L 123.529846 41.472 
L 123.529846 58.104 
L 101.553231 58.104 
L 101.553231 41.472 
" clip-path="url(#p7bdb4acc9d)" style="fill: #f3c7b1"/>
    <path d="M 123.529846 41.472 
L 145.506462 41.472 
L 145.506462 58.104 
L 123.529846 58.104 
L 123.529846 41.472 
" clip-path="url(#p7bdb4acc9d)" style="fill: #f3c7b1"/>
    <path d="M 145.506462 41.472 
L 167.483077 41.472 
L 167.483077 58.104 
L 145.506462 58.104 
L 145.506462 41.472 
" clip-path="url(#p7bdb4acc9d)" style="fill: #f3c7b1"/>
    <path d="M 167.483077 41.472 
L 189.459692 41.472 
L 189.459692 58.104 
L 167.483077 58.104 
L 167.483077 41.472 
" clip-path="url(#p7bdb4acc9d)" style="fill: #f3c7b1"/>
    <path d="M 189.459692 41.472 
L 211.436308 41.472 
L 211.436308 58.104 
L 189.459692 58.104 
L 189.459692 41.472 
" clip-path="url(#p7bdb4acc9d)" style="fill: #f3c7b1"/>
    <path d="M 211.436308 41.472 
L 233.412923 41.472 
L 233.412923 58.104 
L 211.436308 58.104 
L 211.436308 41.472 
" clip-path="url(#p7bdb4acc9d)" style="fill: #f3c7b1"/>
    <path d="M 233.412923 41.472 
L 255.389538 41.472 
L 255.389538 58.104 
L 233.412923 58.104 
L 233.412923 41.472 
" clip-path="url(#p7bdb4acc9d)" style="fill: #f3c7b1"/>
    <path d="M 255.389538 41.472 
L 277.366154 41.472 
L 277.366154 58.104 
L 255.389538 58.104 
L 255.389538 41.472 
" clip-path="url(#p7bdb4acc9d)" style="fill: #f3c7b1"/>
    <path d="M 277.366154 41.472 
L 299.342769 41.472 
L 299.342769 58.104 
L 277.366154 58.104 
L 277.366154 41.472 
" clip-path="url(#p7bdb4acc9d)" style="fill: #6b8df0"/>
    <path d="M 299.342769 41.472 
L 321.319385 41.472 
L 321.319385 58.104 
L 299.342769 58.104 
L 299.342769 41.472 
" clip-path="url(#p7bdb4acc9d)" style="fill: #d3dbe7"/>
    <path d="M 321.319385 41.472 
L 343.296 41.472 
L 343.296 58.104 
L 321.319385 58.104 
L 321.319385 41.472 
" clip-path="url(#p7bdb4acc9d)" style="fill: #f3c7b1"/>
    <path d="M 57.6 58.104 
L 79.576615 58.104 
L 79.576615 74.736 
L 57.6 74.736 
L 57.6 58.104 
" clip-path="url(#p7bdb4acc9d)" style="fill: #e6d7cf"/>
    <path d="M 79.576615 58.104 
L 101.553231 58.104 
L 101.553231 74.736 
L 79.576615 74.736 
L 79.576615 58.104 
" clip-path="url(#p7bdb4acc9d)" style="fill: #f3c7b1"/>
    <path d="M 101.553231 58.104 
L 123.529846 58.104 
L 123.529846 74.736 
L 101.553231 74.736 
L 101.553231 58.104 
" clip-path="url(#p7bdb4acc9d)" style="fill: #f3c7b1"/>
    <path d="M 123.529846 58.104 
L 145.506462 58.104 
L 145.506462 74.736 
L 123.529846 74.736 
L 123.529846 58.104 
" clip-path="url(#p7bdb4acc9d)" style="fill: #f3c7b1"/>
    <path d="M 145.506462 58.104 
L 167.483077 58.104 
L 167.483077 74.736 
L 145.506462 74.736 
L 145.506462 58.104 
" clip-path="url(#p7bdb4acc9d)" style="fill: #f3c7b1"/>
    <path d="M 167.483077 58.104 
L 189.459692 58.104 
L 189.459692 74.736 
L 167.483077 74.736 
L 167.483077 58.104 
" clip-path="url(#p7bdb4acc9d)" style="fill: #f3c7b1"/>
    <path d="M 189.459692 58.104 
L 211.436308 58.104 
L 211.436308 74.736 
L 189.459692 74.736 
L 189.459692 58.104 
" clip-path="url(#p7bdb4acc9d)" style="fill: #f3c7b1"/>
    <path d="M 211.436308 58.104 
L 233.412923 58.104 
L 233.412923 74.736 
L 211.436308 74.736 
L 211.436308 58.104 
" clip-path="url(#p7bdb4acc9d)" style="fill: #f3c7b1"/>
    <path d="M 233.412923 58.104 
L 255.389538 58.104 
L 255.389538 74.736 
L 233.412923 74.736 
L 233.412923 58.104 
" clip-path="url(#p7bdb4acc9d)" style="fill: #f3c7b1"/>
    <path d="M 255.389538 58.104 
L 277.366154 58.104 
L 277.366154 74.736 
L 255.389538 74.736 
L 255.389538 58.104 
" clip-path="url(#p7bdb4acc9d)" style="fill: #f3c7b1"/>
    <path d="M 277.366154 58.104 
L 299.342769 58.104 
L 299.342769 74.736 
L 277.366154 74.736 
L 277.366154 58.104 
" clip-path="url(#p7bdb4acc9d)" style="fill: #bbd1f8"/>
    <path d="M 299.342769 58.104 
L 321.319385 58.104 
L 321.319385 74.736 
L 299.342769 74.736 
L 299.342769 58.104 
" clip-path="url(#p7bdb4acc9d)" style="fill: #e6d7cf"/>
    <path d="M 321.319385 58.104 
L 343.296 58.104 
L 343.296 74.736 
L 321.319385 74.736 
L 321.319385 58.104 
" clip-path="url(#p7bdb4acc9d)" style="fill: #f3c7b1"/>
    <path d="M 57.6 74.736 
L 79.576615 74.736 
L 79.576615 91.368 
L 57.6 91.368 
L 57.6 74.736 
" clip-path="url(#p7bdb4acc9d)" style="fill: #d3dbe7"/>
    <path d="M 79.576615 74.736 
L 101.553231 74.736 
L 101.553231 91.368 
L 79.576615 91.368 
L 79.576615 74.736 
" clip-path="url(#p7bdb4acc9d)" style="fill: #e6d7cf"/>
    <path d="M 101.553231 74.736 
L 123.529846 74.736 
L 123.529846 91.368 
L 101.553231 91.368 
L 101.553231 74.736 
" clip-path="url(#p7bdb4acc9d)" style="fill: #e6d7cf"/>
    <path d="M 123.529846 74.736 
L 145.506462 74.736 
L 145.506462 91.368 
L 123.529846 91.368 
L 123.529846 74.736 
" clip-path="url(#p7bdb4acc9d)" style="fill: #f7af91"/>
    <path d="M 145.506462 74.736 
L 167.483077 74.736 
L 167.483077 91.368 
L 145.506462 91.368 
L 145.506462 74.736 
" clip-path="url(#p7bdb4acc9d)" style="fill: #f3c7b1"/>
    <path d="M 167.483077 74.736 
L 189.459692 74.736 
L 189.459692 91.368 
L 167.483077 91.368 
L 167.483077 74.736 
" clip-path="url(#p7bdb4acc9d)" style="fill: #e6d7cf"/>
    <path d="M 189.459692 74.736 
L 211.436308 74.736 
L 211.436308 91.368 
L 189.459692 91.368 
L 189.459692 74.736 
" clip-path="url(#p7bdb4acc9d)" style="fill: #f3c7b1"/>
    <path d="M 211.436308 74.736 
L 233.412923 74.736 
L 233.412923 91.368 
L 211.436308 91.368 
L 211.436308 74.736 
" clip-path="url(#p7bdb4acc9d)" style="fill: #f3c7b1"/>
    <path d="M 233.412923 74.736 
L 255.389538 74.736 
L 255.389538 91.368 
L 233.412923 91.368 
L 233.412923 74.736 
" clip-path="url(#p7bdb4acc9d)" style="fill: #f3c7b1"/>
    <path d="M 255.389538 74.736 
L 277.366154 74.736 
L 277.366154 91.368 
L 255.389538 91.368 
L 255.389538 74.736 
" clip-path="url(#p7bdb4acc9d)" style="fill: #e6d7cf"/>
    <path d="M 277.366154 74.736 
L 299.342769 74.736 
L 299.342769 91.368 
L 277.366154 91.368 
L 277.366154 74.736 
" clip-path="url(#p7bdb4acc9d)" style="fill: #d3dbe7"/>
    <path d="M 299.342769 74.736 
L 321.319385 74.736 
L 321.319385 91.368 
L 299.342769 91.368 
L 299.342769 74.736 
" clip-path="url(#p7bdb4acc9d)" style="fill: #f3c7b1"/>
    <path d="M 321.319385 74.736 
L 343.296 74.736 
L 343.296 91.368 
L 321.319385 91.368 
L 321.319385 74.736 
" clip-path="url(#p7bdb4acc9d)" style="fill: #f3c7b1"/>
    <path d="M 57.6 91.368 
L 79.576615 91.368 
L 79.576615 108 
L 57.6 108 
L 57.6 91.368 
" clip-path="url(#p7bdb4acc9d)" style="fill: #e6d7cf"/>
    <path d="M 79.576615 91.368 
L 101.553231 91.368 
L 101.553231 108 
L 79.576615 108 
L 79.576615 91.368 
" clip-path="url(#p7bdb4acc9d)" style="fill: #f3c7b1"/>
    <path d="M 101.553231 91.368 
L 123.529846 91.368 
L 123.529846 108 
L 101.553231 108 
L 101.553231 91.368 
" clip-path="url(#p7bdb4acc9d)" style="fill: #f3c7b1"/>
    <path d="M 123.529846 91.368 
L 145.506462 91.368 
L 145.506462 108 
L 123.529846 108 
L 123.529846 91.368 
" clip-path="url(#p7bdb4acc9d)" style="fill: #f7af91"/>
    <path d="M 145.506462 91.368 
L 167.483077 91.368 
L 167.483077 108 
L 145.506462 108 
L 145.506462 91.368 
" clip-path="url(#p7bdb4acc9d)" style="fill: #f7af91"/>
    <path d="M 167.483077 91.368 
L 189.459692 91.368 
L 189.459692 108 
L 167.483077 108 
L 167.483077 91.368 
" clip-path="url(#p7bdb4acc9d)" style="fill: #f7af91"/>
    <path d="M 189.459692 91.368 
L 211.436308 91.368 
L 211.436308 108 
L 189.459692 108 
L 189.459692 91.368 
" clip-path="url(#p7bdb4acc9d)" style="fill: #f7af91"/>
    <path d="M 211.436308 91.368 
L 233.412923 91.368 
L 233.412923 108 
L 211.436308 108 
L 211.436308 91.368 
" clip-path="url(#p7bdb4acc9d)" style="fill: #f7af91"/>
    <path d="M 233.412923 91.368 
L 255.389538 91.368 
L 255.389538 108 
L 233.412923 108 
L 233.412923 91.368 
" clip-path="url(#p7bdb4acc9d)" style="fill: #f7af91"/>
    <path d="M 255.389538 91.368 
L 277.366154 91.368 
L 277.366154 108 
L 255.389538 108 
L 255.389538 91.368 
" clip-path="url(#p7bdb4acc9d)" style="fill: #f7af91"/>
    <path d="M 277.366154 91.368 
L 299.342769 91.368 
L 299.342769 108 
L 277.366154 108 
L 277.366154 91.368 
" clip-path="url(#p7bdb4acc9d)" style="fill: #516ddb"/>
    <path d="M 299.342769 91.368 
L 321.319385 91.368 
L 321.319385 108 
L 299.342769 108 
L 299.342769 91.368 
" clip-path="url(#p7bdb4acc9d)" style="fill: #a1c0ff"/>
    <path d="M 321.319385 91.368 
L 343.296 91.368 
L 343.296 108 
L 321.319385 108 
L 321.319385 91.368 
" clip-path="url(#p7bdb4acc9d)" style="fill: #f3c7b1"/>
    <path d="M 57.6 108 
L 79.576615 108 
L 79.576615 124.632 
L 57.6 124.632 
L 57.6 108 
" clip-path="url(#p7bdb4acc9d)" style="fill: #a1c0ff"/>
    <path d="M 79.576615 108 
L 101.553231 108 
L 101.553231 124.632 
L 79.576615 124.632 
L 79.576615 108 
" clip-path="url(#p7bdb4acc9d)" style="fill: #d3dbe7"/>
    <path d="M 101.553231 108 
L 123.529846 108 
L 123.529846 124.632 
L 101.553231 124.632 
L 101.553231 108 
" clip-path="url(#p7bdb4acc9d)" style="fill: #e6d7cf"/>
    <path d="M 123.529846 108 
L 145.506462 108 
L 145.506462 124.632 
L 123.529846 124.632 
L 123.529846 108 
" clip-path="url(#p7bdb4acc9d)" style="fill: #f29274"/>
    <path d="M 145.506462 108 
L 167.483077 108 
L 167.483077 124.632 
L 145.506462 124.632 
L 145.506462 108 
" clip-path="url(#p7bdb4acc9d)" style="fill: #f3c7b1"/>
    <path d="M 167.483077 108 
L 189.459692 108 
L 189.459692 124.632 
L 167.483077 124.632 
L 167.483077 108 
" clip-path="url(#p7bdb4acc9d)" style="fill: #f3c7b1"/>
    <path d="M 189.459692 108 
L 211.436308 108 
L 211.436308 124.632 
L 189.459692 124.632 
L 189.459692 108 
" clip-path="url(#p7bdb4acc9d)" style="fill: #f7af91"/>
    <path d="M 211.436308 108 
L 233.412923 108 
L 233.412923 124.632 
L 211.436308 124.632 
L 211.436308 108 
" clip-path="url(#p7bdb4acc9d)" style="fill: #f29274"/>
    <path d="M 233.412923 108 
L 255.389538 108 
L 255.389538 124.632 
L 233.412923 124.632 
L 233.412923 108 
" clip-path="url(#p7bdb4acc9d)" style="fill: #f29274"/>
    <path d="M 255.389538 108 
L 277.366154 108 
L 277.366154 124.632 
L 255.389538 124.632 
L 255.389538 108 
" clip-path="url(#p7bdb4acc9d)" style="fill: #f3c7b1"/>
    <path d="M 277.366154 108 
L 299.342769 108 
L 299.342769 124.632 
L 277.366154 124.632 
L 277.366154 108 
" clip-path="url(#p7bdb4acc9d)" style="fill: #6b8df0"/>
    <path d="M 299.342769 108 
L 321.319385 108 
L 321.319385 124.632 
L 299.342769 124.632 
L 299.342769 108 
" clip-path="url(#p7bdb4acc9d)" style="fill: #f3c7b1"/>
    <path d="M 321.319385 108 
L 343.296 108 
L 343.296 124.632 
L 321.319385 124.632 
L 321.319385 108 
" clip-path="url(#p7bdb4acc9d)" style="fill: #f29274"/>
    <path d="M 57.6 124.632 
L 79.576615 124.632 
L 79.576615 141.264 
L 57.6 141.264 
L 57.6 124.632 
" clip-path="url(#p7bdb4acc9d)" style="fill: #f3c7b1"/>
    <path d="M 79.576615 124.632 
L 101.553231 124.632 
L 101.553231 141.264 
L 79.576615 141.264 
L 79.576615 124.632 
" clip-path="url(#p7bdb4acc9d)" style="fill: #f7af91"/>
    <path d="M 101.553231 124.632 
L 123.529846 124.632 
L 123.529846 141.264 
L 101.553231 141.264 
L 101.553231 124.632 
" clip-path="url(#p7bdb4acc9d)" style="fill: #f7af91"/>
    <path d="M 123.529846 124.632 
L 145.506462 124.632 
L 145.506462 141.264 
L 123.529846 141.264 
L 123.529846 124.632 
" clip-path="url(#p7bdb4acc9d)" style="fill: #e6d7cf"/>
    <path d="M 145.506462 124.632 
L 167.483077 124.632 
L 167.483077 141.264 
L 145.506462 141.264 
L 145.506462 124.632 
" clip-path="url(#p7bdb4acc9d)" style="fill: #f7af91"/>
    <path d="M 167.483077 124.632 
L 189.459692 124.632 
L 189.459692 141.264 
L 167.483077 141.264 
L 167.483077 124.632 
" clip-path="url(#p7bdb4acc9d)" style="fill: #f7af91"/>
    <path d="M 189.459692 124.632 
L 211.436308 124.632 
L 211.436308 141.264 
L 189.459692 141.264 
L 189.459692 124.632 
" clip-path="url(#p7bdb4acc9d)" style="fill: #f7af91"/>
    <path d="M 211.436308 124.632 
L 233.412923 124.632 
L 233.412923 141.264 
L 211.436308 141.264 
L 211.436308 124.632 
" clip-path="url(#p7bdb4acc9d)" style="fill: #f3c7b1"/>
    <path d="M 233.412923 124.632 
L 255.389538 124.632 
L 255.389538 141.264 
L 233.412923 141.264 
L 233.412923 124.632 
" clip-path="url(#p7bdb4acc9d)" style="fill: #f3c7b1"/>
    <path d="M 255.389538 124.632 
L 277.366154 124.632 
L 277.366154 141.264 
L 255.389538 141.264 
L 255.389538 124.632 
" clip-path="url(#p7bdb4acc9d)" style="fill: #f7af91"/>
    <path d="M 277.366154 124.632 
L 299.342769 124.632 
L 299.342769 141.264 
L 277.366154 141.264 
L 277.366154 124.632 
" clip-path="url(#p7bdb4acc9d)" style="fill: #516ddb"/>
    <path d="M 299.342769 124.632 
L 321.319385 124.632 
L 321.319385 141.264 
L 299.342769 141.264 
L 299.342769 124.632 
" clip-path="url(#p7bdb4acc9d)" style="fill: #86a9fc"/>
    <path d="M 321.319385 124.632 
L 343.296 124.632 
L 343.296 141.264 
L 321.319385 141.264 
L 321.319385 124.632 
" clip-path="url(#p7bdb4acc9d)" style="fill: #e6d7cf"/>
    <path d="M 57.6 141.264 
L 79.576615 141.264 
L 79.576615 157.896 
L 57.6 157.896 
L 57.6 141.264 
" clip-path="url(#p7bdb4acc9d)" style="fill: #e46e56"/>
    <path d="M 79.576615 141.264 
L 101.553231 141.264 
L 101.553231 157.896 
L 79.576615 157.896 
L 79.576615 141.264 
" clip-path="url(#p7bdb4acc9d)" style="fill: #e46e56"/>
    <path d="M 101.553231 141.264 
L 123.529846 141.264 
L 123.529846 157.896 
L 101.553231 157.896 
L 101.553231 141.264 
" clip-path="url(#p7bdb4acc9d)" style="fill: #f29274"/>
    <path d="M 123.529846 141.264 
L 145.506462 141.264 
L 145.506462 157.896 
L 123.529846 157.896 
L 123.529846 141.264 
" clip-path="url(#p7bdb4acc9d)" style="fill: #d3dbe7"/>
    <path d="M 145.506462 141.264 
L 167.483077 141.264 
L 167.483077 157.896 
L 145.506462 157.896 
L 145.506462 141.264 
" clip-path="url(#p7bdb4acc9d)" style="fill: #f7af91"/>
    <path d="M 167.483077 141.264 
L 189.459692 141.264 
L 189.459692 157.896 
L 167.483077 157.896 
L 167.483077 141.264 
" clip-path="url(#p7bdb4acc9d)" style="fill: #f29274"/>
    <path d="M 189.459692 141.264 
L 211.436308 141.264 
L 211.436308 157.896 
L 189.459692 157.896 
L 189.459692 141.264 
" clip-path="url(#p7bdb4acc9d)" style="fill: #f3c7b1"/>
    <path d="M 211.436308 141.264 
L 233.412923 141.264 
L 233.412923 157.896 
L 211.436308 157.896 
L 211.436308 141.264 
" clip-path="url(#p7bdb4acc9d)" style="fill: #d3dbe7"/>
    <path d="M 233.412923 141.264 
L 255.389538 141.264 
L 255.389538 157.896 
L 233.412923 157.896 
L 233.412923 141.264 
" clip-path="url(#p7bdb4acc9d)" style="fill: #e6d7cf"/>
    <path d="M 255.389538 141.264 
L 277.366154 141.264 
L 277.366154 157.896 
L 255.389538 157.896 
L 255.389538 141.264 
" clip-path="url(#p7bdb4acc9d)" style="fill: #f29274"/>
    <path d="M 277.366154 141.264 
L 299.342769 141.264 
L 299.342769 157.896 
L 277.366154 157.896 
L 277.366154 141.264 
" clip-path="url(#p7bdb4acc9d)" style="fill: #516ddb"/>
    <path d="M 299.342769 141.264 
L 321.319385 141.264 
L 321.319385 157.896 
L 299.342769 157.896 
L 299.342769 141.264 
" clip-path="url(#p7bdb4acc9d)" style="fill: #6b8df0"/>
    <path d="M 321.319385 141.264 
L 343.296 141.264 
L 343.296 157.896 
L 321.319385 157.896 
L 321.319385 141.264 
" clip-path="url(#p7bdb4acc9d)" style="fill: #d3dbe7"/>
    <path d="M 57.6 157.896 
L 79.576615 157.896 
L 79.576615 174.528 
L 57.6 174.528 
L 57.6 157.896 
" clip-path="url(#p7bdb4acc9d)" style="fill: #f3c7b1"/>
    <path d="M 79.576615 157.896 
L 101.553231 157.896 
L 101.553231 174.528 
L 79.576615 174.528 
L 79.576615 157.896 
" clip-path="url(#p7bdb4acc9d)" style="fill: #f7af91"/>
    <path d="M 101.553231 157.896 
L 123.529846 157.896 
L 123.529846 174.528 
L 101.553231 174.528 
L 101.553231 157.896 
" clip-path="url(#p7bdb4acc9d)" style="fill: #f7af91"/>
    <path d="M 123.529846 157.896 
L 145.506462 157.896 
L 145.506462 174.528 
L 123.529846 174.528 
L 123.529846 157.896 
" clip-path="url(#p7bdb4acc9d)" style="fill: #f3c7b1"/>
    <path d="M 145.506462 157.896 
L 167.483077 157.896 
L 167.483077 174.528 
L 145.506462 174.528 
L 145.506462 157.896 
" clip-path="url(#p7bdb4acc9d)" style="fill: #f7af91"/>
    <path d="M 167.483077 157.896 
L 189.459692 157.896 
L 189.459692 174.528 
L 167.483077 174.528 
L 167.483077 157.896 
" clip-path="url(#p7bdb4acc9d)" style="fill: #f7af91"/>
    <path d="M 189.459692 157.896 
L 211.436308 157.896 
L 211.436308 174.528 
L 189.459692 174.528 
L 189.459692 157.896 
" clip-path="url(#p7bdb4acc9d)" style="fill: #f7af91"/>
    <path d="M 211.436308 157.896 
L 233.412923 157.896 
L 233.412923 174.528 
L 211.436308 174.528 
L 211.436308 157.896 
" clip-path="url(#p7bdb4acc9d)" style="fill: #f3c7b1"/>
    <path d="M 233.412923 157.896 
L 255.389538 157.896 
L 255.389538 174.528 
L 233.412923 174.528 
L 233.412923 157.896 
" clip-path="url(#p7bdb4acc9d)" style="fill: #f3c7b1"/>
    <path d="M 255.389538 157.896 
L 277.366154 157.896 
L 277.366154 174.528 
L 255.389538 174.528 
L 255.389538 157.896 
" clip-path="url(#p7bdb4acc9d)" style="fill: #f7af91"/>
    <path d="M 277.366154 157.896 
L 299.342769 157.896 
L 299.342769 174.528 
L 277.366154 174.528 
L 277.366154 157.896 
" clip-path="url(#p7bdb4acc9d)" style="fill: #516ddb"/>
    <path d="M 299.342769 157.896 
L 321.319385 157.896 
L 321.319385 174.528 
L 299.342769 174.528 
L 299.342769 157.896 
" clip-path="url(#p7bdb4acc9d)" style="fill: #a1c0ff"/>
    <path d="M 321.319385 157.896 
L 343.296 157.896 
L 343.296 174.528 
L 321.319385 174.528 
L 321.319385 157.896 
" clip-path="url(#p7bdb4acc9d)" style="fill: #f3c7b1"/>
    <path d="M 57.6 174.528 
L 79.576615 174.528 
L 79.576615 191.16 
L 57.6 191.16 
L 57.6 174.528 
" clip-path="url(#p7bdb4acc9d)" style="fill: #e6d7cf"/>
    <path d="M 79.576615 174.528 
L 101.553231 174.528 
L 101.553231 191.16 
L 79.576615 191.16 
L 79.576615 174.528 
" clip-path="url(#p7bdb4acc9d)" style="fill: #f3c7b1"/>
    <path d="M 101.553231 174.528 
L 123.529846 174.528 
L 123.529846 191.16 
L 101.553231 191.16 
L 101.553231 174.528 
" clip-path="url(#p7bdb4acc9d)" style="fill: #f3c7b1"/>
    <path d="M 123.529846 174.528 
L 145.506462 174.528 
L 145.506462 191.16 
L 123.529846 191.16 
L 123.529846 174.528 
" clip-path="url(#p7bdb4acc9d)" style="fill: #f3c7b1"/>
    <path d="M 145.506462 174.528 
L 167.483077 174.528 
L 167.483077 191.16 
L 145.506462 191.16 
L 145.506462 174.528 
" clip-path="url(#p7bdb4acc9d)" style="fill: #f3c7b1"/>
    <path d="M 167.483077 174.528 
L 189.459692 174.528 
L 189.459692 191.16 
L 167.483077 191.16 
L 167.483077 174.528 
" clip-path="url(#p7bdb4acc9d)" style="fill: #f3c7b1"/>
    <path d="M 189.459692 174.528 
L 211.436308 174.528 
L 211.436308 191.16 
L 189.459692 191.16 
L 189.459692 174.528 
" clip-path="url(#p7bdb4acc9d)" style="fill: #f7af91"/>
    <path d="M 211.436308 174.528 
L 233.412923 174.528 
L 233.412923 191.16 
L 211.436308 191.16 
L 211.436308 174.528 
" clip-path="url(#p7bdb4acc9d)" style="fill: #f7af91"/>
    <path d="M 233.412923 174.528 
L 255.389538 174.528 
L 255.389538 191.16 
L 233.412923 191.16 
L 233.412923 174.528 
" clip-path="url(#p7bdb4acc9d)" style="fill: #f7af91"/>
    <path d="M 255.389538 174.528 
L 277.366154 174.528 
L 277.366154 191.16 
L 255.389538 191.16 
L 255.389538 174.528 
" clip-path="url(#p7bdb4acc9d)" style="fill: #f3c7b1"/>
    <path d="M 277.366154 174.528 
L 299.342769 174.528 
L 299.342769 191.16 
L 277.366154 191.16 
L 277.366154 174.528 
" clip-path="url(#p7bdb4acc9d)" style="fill: #516ddb"/>
    <path d="M 299.342769 174.528 
L 321.319385 174.528 
L 321.319385 191.16 
L 299.342769 191.16 
L 299.342769 174.528 
" clip-path="url(#p7bdb4acc9d)" style="fill: #bbd1f8"/>
    <path d="M 321.319385 174.528 
L 343.296 174.528 
L 343.296 191.16 
L 321.319385 191.16 
L 321.319385 174.528 
" clip-path="url(#p7bdb4acc9d)" style="fill: #f3c7b1"/>
    <path d="M 57.6 191.16 
L 79.576615 191.16 
L 79.576615 207.792 
L 57.6 207.792 
L 57.6 191.16 
" clip-path="url(#p7bdb4acc9d)" style="fill: #e46e56"/>
    <path d="M 79.576615 191.16 
L 101.553231 191.16 
L 101.553231 207.792 
L 79.576615 207.792 
L 79.576615 191.16 
" clip-path="url(#p7bdb4acc9d)" style="fill: #e46e56"/>
    <path d="M 101.553231 191.16 
L 123.529846 191.16 
L 123.529846 207.792 
L 101.553231 207.792 
L 101.553231 191.16 
" clip-path="url(#p7bdb4acc9d)" style="fill: #e46e56"/>
    <path d="M 123.529846 191.16 
L 145.506462 191.16 
L 145.506462 207.792 
L 123.529846 207.792 
L 123.529846 191.16 
" clip-path="url(#p7bdb4acc9d)" style="fill: #d3dbe7"/>
    <path d="M 145.506462 191.16 
L 167.483077 191.16 
L 167.483077 207.792 
L 145.506462 207.792 
L 145.506462 191.16 
" clip-path="url(#p7bdb4acc9d)" style="fill: #f7af91"/>
    <path d="M 167.483077 191.16 
L 189.459692 191.16 
L 189.459692 207.792 
L 167.483077 207.792 
L 167.483077 191.16 
" clip-path="url(#p7bdb4acc9d)" style="fill: #f7af91"/>
    <path d="M 189.459692 191.16 
L 211.436308 191.16 
L 211.436308 207.792 
L 189.459692 207.792 
L 189.459692 191.16 
" clip-path="url(#p7bdb4acc9d)" style="fill: #f3c7b1"/>
    <path d="M 211.436308 191.16 
L 233.412923 191.16 
L 233.412923 207.792 
L 211.436308 207.792 
L 211.436308 191.16 
" clip-path="url(#p7bdb4acc9d)" style="fill: #e6d7cf"/>
    <path d="M 233.412923 191.16 
L 255.389538 191.16 
L 255.389538 207.792 
L 233.412923 207.792 
L 233.412923 191.16 
" clip-path="url(#p7bdb4acc9d)" style="fill: #d3dbe7"/>
    <path d="M 255.389538 191.16 
L 277.366154 191.16 
L 277.366154 207.792 
L 255.389538 207.792 
L 255.389538 191.16 
" clip-path="url(#p7bdb4acc9d)" style="fill: #f7af91"/>
    <path d="M 277.366154 191.16 
L 299.342769 191.16 
L 299.342769 207.792 
L 277.366154 207.792 
L 277.366154 191.16 
" clip-path="url(#p7bdb4acc9d)" style="fill: #516ddb"/>
    <path d="M 299.342769 191.16 
L 321.319385 191.16 
L 321.319385 207.792 
L 299.342769 207.792 
L 299.342769 191.16 
" clip-path="url(#p7bdb4acc9d)" style="fill: #6b8df0"/>
    <path d="M 321.319385 191.16 
L 343.296 191.16 
L 343.296 207.792 
L 321.319385 207.792 
L 321.319385 191.16 
" clip-path="url(#p7bdb4acc9d)" style="fill: #d3dbe7"/>
    <path d="M 57.6 207.792 
L 79.576615 207.792 
L 79.576615 224.424 
L 57.6 224.424 
L 57.6 207.792 
" clip-path="url(#p7bdb4acc9d)" style="fill: #f29274"/>
    <path d="M 79.576615 207.792 
L 101.553231 207.792 
L 101.553231 224.424 
L 79.576615 224.424 
L 79.576615 207.792 
" clip-path="url(#p7bdb4acc9d)" style="fill: #f29274"/>
    <path d="M 101.553231 207.792 
L 123.529846 207.792 
L 123.529846 224.424 
L 101.553231 224.424 
L 101.553231 207.792 
" clip-path="url(#p7bdb4acc9d)" style="fill: #f29274"/>
    <path d="M 123.529846 207.792 
L 145.506462 207.792 
L 145.506462 224.424 
L 123.529846 224.424 
L 123.529846 207.792 
" clip-path="url(#p7bdb4acc9d)" style="fill: #d3dbe7"/>
    <path d="M 145.506462 207.792 
L 167.483077 207.792 
L 167.483077 224.424 
L 145.506462 224.424 
L 145.506462 207.792 
" clip-path="url(#p7bdb4acc9d)" style="fill: #f7af91"/>
    <path d="M 167.483077 207.792 
L 189.459692 207.792 
L 189.459692 224.424 
L 167.483077 224.424 
L 167.483077 207.792 
" clip-path="url(#p7bdb4acc9d)" style="fill: #f7af91"/>
    <path d="M 189.459692 207.792 
L 211.436308 207.792 
L 211.436308 224.424 
L 189.459692 224.424 
L 189.459692 207.792 
" clip-path="url(#p7bdb4acc9d)" style="fill: #f3c7b1"/>
    <path d="M 211.436308 207.792 
L 233.412923 207.792 
L 233.412923 224.424 
L 211.436308 224.424 
L 211.436308 207.792 
" clip-path="url(#p7bdb4acc9d)" style="fill: #e6d7cf"/>
    <path d="M 233.412923 207.792 
L 255.389538 207.792 
L 255.389538 224.424 
L 233.412923 224.424 
L 233.412923 207.792 
" clip-path="url(#p7bdb4acc9d)" style="fill: #e6d7cf"/>
    <path d="M 255.389538 207.792 
L 277.366154 207.792 
L 277.366154 224.424 
L 255.389538 224.424 
L 255.389538 207.792 
" clip-path="url(#p7bdb4acc9d)" style="fill: #f29274"/>
    <path d="M 277.366154 207.792 
L 299.342769 207.792 
L 299.342769 224.424 
L 277.366154 224.424 
L 277.366154 207.792 
" clip-path="url(#p7bdb4acc9d)" style="fill: #516ddb"/>
    <path d="M 299.342769 207.792 
L 321.319385 207.792 
L 321.319385 224.424 
L 299.342769 224.424 
L 299.342769 207.792 
" clip-path="url(#p7bdb4acc9d)" style="fill: #6b8df0"/>
    <path d="M 321.319385 207.792 
L 343.296 207.792 
L 343.296 224.424 
L 321.319385 224.424 
L 321.319385 207.792 
" clip-path="url(#p7bdb4acc9d)" style="fill: #d3dbe7"/>
    <path d="M 57.6 224.424 
L 79.576615 224.424 
L 79.576615 241.056 
L 57.6 241.056 
L 57.6 224.424 
" clip-path="url(#p7bdb4acc9d)" style="fill: #a1c0ff"/>
    <path d="M 79.576615 224.424 
L 101.553231 224.424 
L 101.553231 241.056 
L 79.576615 241.056 
L 79.576615 224.424 
" clip-path="url(#p7bdb4acc9d)" style="fill: #bbd1f8"/>
    <path d="M 101.553231 224.424 
L 123.529846 224.424 
L 123.529846 241.056 
L 101.553231 241.056 
L 101.553231 224.424 
" clip-path="url(#p7bdb4acc9d)" style="fill: #d3dbe7"/>
    <path d="M 123.529846 224.424 
L 145.506462 224.424 
L 145.506462 241.056 
L 123.529846 241.056 
L 123.529846 224.424 
" clip-path="url(#p7bdb4acc9d)" style="fill: #e46e56"/>
    <path d="M 145.506462 224.424 
L 167.483077 224.424 
L 167.483077 241.056 
L 145.506462 241.056 
L 145.506462 224.424 
" clip-path="url(#p7bdb4acc9d)" style="fill: #e6d7cf"/>
    <path d="M 167.483077 224.424 
L 189.459692 224.424 
L 189.459692 241.056 
L 167.483077 241.056 
L 167.483077 224.424 
" clip-path="url(#p7bdb4acc9d)" style="fill: #e6d7cf"/>
    <path d="M 189.459692 224.424 
L 211.436308 224.424 
L 211.436308 241.056 
L 189.459692 241.056 
L 189.459692 224.424 
" clip-path="url(#p7bdb4acc9d)" style="fill: #f7af91"/>
    <path d="M 211.436308 224.424 
L 233.412923 224.424 
L 233.412923 241.056 
L 211.436308 241.056 
L 211.436308 224.424 
" clip-path="url(#p7bdb4acc9d)" style="fill: #f29274"/>
    <path d="M 233.412923 224.424 
L 255.389538 224.424 
L 255.389538 241.056 
L 233.412923 241.056 
L 233.412923 224.424 
" clip-path="url(#p7bdb4acc9d)" style="fill: #f29274"/>
    <path d="M 255.389538 224.424 
L 277.366154 224.424 
L 277.366154 241.056 
L 255.389538 241.056 
L 255.389538 224.424 
" clip-path="url(#p7bdb4acc9d)" style="fill: #e6d7cf"/>
    <path d="M 277.366154 224.424 
L 299.342769 224.424 
L 299.342769 241.056 
L 277.366154 241.056 
L 277.366154 224.424 
" clip-path="url(#p7bdb4acc9d)" style="fill: #86a9fc"/>
    <path d="M 299.342769 224.424 
L 321.319385 224.424 
L 321.319385 241.056 
L 299.342769 241.056 
L 299.342769 224.424 
" clip-path="url(#p7bdb4acc9d)" style="fill: #e46e56"/>
    <path d="M 321.319385 224.424 
L 343.296 224.424 
L 343.296 241.056 
L 321.319385 241.056 
L 321.319385 224.424 
" clip-path="url(#p7bdb4acc9d)" style="fill: #f29274"/>
    <path d="M 57.6 241.056 
L 79.576615 241.056 
L 79.576615 257.688 
L 57.6 257.688 
L 57.6 241.056 
" clip-path="url(#p7bdb4acc9d)" style="fill: #cf453c"/>
    <path d="M 79.576615 241.056 
L 101.553231 241.056 
L 101.553231 257.688 
L 79.576615 257.688 
L 79.576615 241.056 
" clip-path="url(#p7bdb4acc9d)" style="fill: #e46e56"/>
    <path d="M 101.553231 241.056 
L 123.529846 241.056 
L 123.529846 257.688 
L 101.553231 257.688 
L 101.553231 241.056 
" clip-path="url(#p7bdb4acc9d)" style="fill: #f29274"/>
    <path d="M 123.529846 241.056 
L 145.506462 241.056 
L 145.506462 257.688 
L 123.529846 257.688 
L 123.529846 241.056 
" clip-path="url(#p7bdb4acc9d)" style="fill: #bbd1f8"/>
    <path d="M 145.506462 241.056 
L 167.483077 241.056 
L 167.483077 257.688 
L 145.506462 257.688 
L 145.506462 241.056 
" clip-path="url(#p7bdb4acc9d)" style="fill: #f7af91"/>
    <path d="M 167.483077 241.056 
L 189.459692 241.056 
L 189.459692 257.688 
L 167.483077 257.688 
L 167.483077 241.056 
" clip-path="url(#p7bdb4acc9d)" style="fill: #f29274"/>
    <path d="M 189.459692 241.056 
L 211.436308 241.056 
L 211.436308 257.688 
L 189.459692 257.688 
L 189.459692 241.056 
" clip-path="url(#p7bdb4acc9d)" style="fill: #e6d7cf"/>
    <path d="M 211.436308 241.056 
L 233.412923 241.056 
L 233.412923 257.688 
L 211.436308 257.688 
L 211.436308 241.056 
" clip-path="url(#p7bdb4acc9d)" style="fill: #d3dbe7"/>
    <path d="M 233.412923 241.056 
L 255.389538 241.056 
L 255.389538 257.688 
L 233.412923 257.688 
L 233.412923 241.056 
" clip-path="url(#p7bdb4acc9d)" style="fill: #d3dbe7"/>
    <path d="M 255.389538 241.056 
L 277.366154 241.056 
L 277.366154 257.688 
L 255.389538 257.688 
L 255.389538 241.056 
" clip-path="url(#p7bdb4acc9d)" style="fill: #f29274"/>
    <path d="M 277.366154 241.056 
L 299.342769 241.056 
L 299.342769 257.688 
L 277.366154 257.688 
L 277.366154 241.056 
" clip-path="url(#p7bdb4acc9d)" style="fill: #516ddb"/>
    <path d="M 299.342769 241.056 
L 321.319385 241.056 
L 321.319385 257.688 
L 299.342769 257.688 
L 299.342769 241.056 
" clip-path="url(#p7bdb4acc9d)" style="fill: #6b8df0"/>
    <path d="M 321.319385 241.056 
L 343.296 241.056 
L 343.296 257.688 
L 321.319385 257.688 
L 321.319385 241.056 
" clip-path="url(#p7bdb4acc9d)" style="fill: #bbd1f8"/>
    <path d="M 57.6 257.688 
L 79.576615 257.688 
L 79.576615 274.32 
L 57.6 274.32 
L 57.6 257.688 
" clip-path="url(#p7bdb4acc9d)" style="fill: #f29274"/>
    <path d="M 79.576615 257.688 
L 101.553231 257.688 
L 101.553231 274.32 
L 79.576615 274.32 
L 79.576615 257.688 
" clip-path="url(#p7bdb4acc9d)" style="fill: #f29274"/>
    <path d="M 101.553231 257.688 
L 123.529846 257.688 
L 123.529846 274.32 
L 101.553231 274.32 
L 101.553231 257.688 
" clip-path="url(#p7bdb4acc9d)" style="fill: #f29274"/>
    <path d="M 123.529846 257.688 
L 145.506462 257.688 
L 145.506462 274.32 
L 123.529846 274.32 
L 123.529846 257.688 
" clip-path="url(#p7bdb4acc9d)" style="fill: #e6d7cf"/>
    <path d="M 145.506462 257.688 
L 167.483077 257.688 
L 167.483077 274.32 
L 145.506462 274.32 
L 145.506462 257.688 
" clip-path="url(#p7bdb4acc9d)" style="fill: #f7af91"/>
    <path d="M 167.483077 257.688 
L 189.459692 257.688 
L 189.459692 274.32 
L 167.483077 274.32 
L 167.483077 257.688 
" clip-path="url(#p7bdb4acc9d)" style="fill: #f7af91"/>
    <path d="M 189.459692 257.688 
L 211.436308 257.688 
L 211.436308 274.32 
L 189.459692 274.32 
L 189.459692 257.688 
" clip-path="url(#p7bdb4acc9d)" style="fill: #f3c7b1"/>
    <path d="M 211.436308 257.688 
L 233.412923 257.688 
L 233.412923 274.32 
L 211.436308 274.32 
L 211.436308 257.688 
" clip-path="url(#p7bdb4acc9d)" style="fill: #e6d7cf"/>
    <path d="M 233.412923 257.688 
L 255.389538 257.688 
L 255.389538 274.32 
L 233.412923 274.32 
L 233.412923 257.688 
" clip-path="url(#p7bdb4acc9d)" style="fill: #e6d7cf"/>
    <path d="M 255.389538 257.688 
L 277.366154 257.688 
L 277.366154 274.32 
L 255.389538 274.32 
L 255.389538 257.688 
" clip-path="url(#p7bdb4acc9d)" style="fill: #f7af91"/>
    <path d="M 277.366154 257.688 
L 299.342769 257.688 
L 299.342769 274.32 
L 277.366154 274.32 
L 277.366154 257.688 
" clip-path="url(#p7bdb4acc9d)" style="fill: #516ddb"/>
    <path d="M 299.342769 257.688 
L 321.319385 257.688 
L 321.319385 274.32 
L 299.342769 274.32 
L 299.342769 257.688 
" clip-path="url(#p7bdb4acc9d)" style="fill: #86a9fc"/>
    <path d="M 321.319385 257.688 
L 343.296 257.688 
L 343.296 274.32 
L 321.319385 274.32 
L 321.319385 257.688 
" clip-path="url(#p7bdb4acc9d)" style="fill: #d3dbe7"/>
    <path d="M 57.6 274.32 
L 79.576615 274.32 
L 79.576615 290.952 
L 57.6 290.952 
L 57.6 274.32 
" clip-path="url(#p7bdb4acc9d)" style="fill: #cf453c"/>
    <path d="M 79.576615 274.32 
L 101.553231 274.32 
L 101.553231 290.952 
L 79.576615 290.952 
L 79.576615 274.32 
" clip-path="url(#p7bdb4acc9d)" style="fill: #cf453c"/>
    <path d="M 101.553231 274.32 
L 123.529846 274.32 
L 123.529846 290.952 
L 101.553231 290.952 
L 101.553231 274.32 
" clip-path="url(#p7bdb4acc9d)" style="fill: #e46e56"/>
    <path d="M 123.529846 274.32 
L 145.506462 274.32 
L 145.506462 290.952 
L 123.529846 290.952 
L 123.529846 274.32 
" clip-path="url(#p7bdb4acc9d)" style="fill: #bbd1f8"/>
    <path d="M 145.506462 274.32 
L 167.483077 274.32 
L 167.483077 290.952 
L 145.506462 290.952 
L 145.506462 274.32 
" clip-path="url(#p7bdb4acc9d)" style="fill: #f7af91"/>
    <path d="M 167.483077 274.32 
L 189.459692 274.32 
L 189.459692 290.952 
L 167.483077 290.952 
L 167.483077 274.32 
" clip-path="url(#p7bdb4acc9d)" style="fill: #f29274"/>
    <path d="M 189.459692 274.32 
L 211.436308 274.32 
L 211.436308 290.952 
L 189.459692 290.952 
L 189.459692 274.32 
" clip-path="url(#p7bdb4acc9d)" style="fill: #e6d7cf"/>
    <path d="M 211.436308 274.32 
L 233.412923 274.32 
L 233.412923 290.952 
L 211.436308 290.952 
L 211.436308 274.32 
" clip-path="url(#p7bdb4acc9d)" style="fill: #d3dbe7"/>
    <path d="M 233.412923 274.32 
L 255.389538 274.32 
L 255.389538 290.952 
L 233.412923 290.952 
L 233.412923 274.32 
" clip-path="url(#p7bdb4acc9d)" style="fill: #d3dbe7"/>
    <path d="M 255.389538 274.32 
L 277.366154 274.32 
L 277.366154 290.952 
L 255.389538 290.952 
L 255.389538 274.32 
" clip-path="url(#p7bdb4acc9d)" style="fill: #f29274"/>
    <path d="M 277.366154 274.32 
L 299.342769 274.32 
L 299.342769 290.952 
L 277.366154 290.952 
L 277.366154 274.32 
" clip-path="url(#p7bdb4acc9d)" style="fill: #516ddb"/>
    <path d="M 299.342769 274.32 
L 321.319385 274.32 
L 321.319385 290.952 
L 299.342769 290.952 
L 299.342769 274.32 
" clip-path="url(#p7bdb4acc9d)" style="fill: #516ddb"/>
    <path d="M 321.319385 274.32 
L 343.296 274.32 
L 343.296 290.952 
L 321.319385 290.952 
L 321.319385 274.32 
" clip-path="url(#p7bdb4acc9d)" style="fill: #bbd1f8"/>
    <path d="M 57.6 290.952 
L 79.576615 290.952 
L 79.576615 307.584 
L 57.6 307.584 
L 57.6 290.952 
" clip-path="url(#p7bdb4acc9d)" style="fill: #d3dbe7"/>
    <path d="M 79.576615 290.952 
L 101.553231 290.952 
L 101.553231 307.584 
L 79.576615 307.584 
L 79.576615 290.952 
" clip-path="url(#p7bdb4acc9d)" style="fill: #e6d7cf"/>
    <path d="M 101.553231 290.952 
L 123.529846 290.952 
L 123.529846 307.584 
L 101.553231 307.584 
L 101.553231 290.952 
" clip-path="url(#p7bdb4acc9d)" style="fill: #f3c7b1"/>
    <path d="M 123.529846 290.952 
L 145.506462 290.952 
L 145.506462 307.584 
L 123.529846 307.584 
L 123.529846 290.952 
" clip-path="url(#p7bdb4acc9d)" style="fill: #f7af91"/>
    <path d="M 145.506462 290.952 
L 167.483077 290.952 
L 167.483077 307.584 
L 145.506462 307.584 
L 145.506462 290.952 
" clip-path="url(#p7bdb4acc9d)" style="fill: #f7af91"/>
    <path d="M 167.483077 290.952 
L 189.459692 290.952 
L 189.459692 307.584 
L 167.483077 307.584 
L 167.483077 290.952 
" clip-path="url(#p7bdb4acc9d)" style="fill: #f7af91"/>
    <path d="M 189.459692 290.952 
L 211.436308 290.952 
L 211.436308 307.584 
L 189.459692 307.584 
L 189.459692 290.952 
" clip-path="url(#p7bdb4acc9d)" style="fill: #f7af91"/>
    <path d="M 211.436308 290.952 
L 233.412923 290.952 
L 233.412923 307.584 
L 211.436308 307.584 
L 211.436308 290.952 
" clip-path="url(#p7bdb4acc9d)" style="fill: #f7af91"/>
    <path d="M 233.412923 290.952 
L 255.389538 290.952 
L 255.389538 307.584 
L 233.412923 307.584 
L 233.412923 290.952 
" clip-path="url(#p7bdb4acc9d)" style="fill: #f7af91"/>
    <path d="M 255.389538 290.952 
L 277.366154 290.952 
L 277.366154 307.584 
L 255.389538 307.584 
L 255.389538 290.952 
" clip-path="url(#p7bdb4acc9d)" style="fill: #f7af91"/>
    <path d="M 277.366154 290.952 
L 299.342769 290.952 
L 299.342769 307.584 
L 277.366154 307.584 
L 277.366154 290.952 
" clip-path="url(#p7bdb4acc9d)" style="fill: #516ddb"/>
    <path d="M 299.342769 290.952 
L 321.319385 290.952 
L 321.319385 307.584 
L 299.342769 307.584 
L 299.342769 290.952 
" clip-path="url(#p7bdb4acc9d)" style="fill: #bbd1f8"/>
    <path d="M 321.319385 290.952 
L 343.296 290.952 
L 343.296 307.584 
L 321.319385 307.584 
L 321.319385 290.952 
" clip-path="url(#p7bdb4acc9d)" style="fill: #f7af91"/>
   </g>
   <g id="matplotlib.axis_1">
    <g id="xtick_1">
     <g id="line2d_1">
      <defs>
       <path id="mbb14591c46" d="M 0 0 
L 0 3.5 
" style="stroke: #000000; stroke-width: 0.8"/>
      </defs>
      <g>
       <use xlink:href="#mbb14591c46" x="68.588308" y="307.584" style="stroke: #000000; stroke-width: 0.8"/>
      </g>
     </g>
     <g id="text_1">
      <!-- G1 -->
      <g transform="translate(61.412526 322.182437) scale(0.1 -0.1)">
       <defs>
        <path id="DejaVuSerif-47" d="M 4097 3272 
Q 3988 3856 3641 4136 
Q 3294 4416 2675 4416 
Q 1869 4416 1472 3897 
Q 1075 3378 1075 2328 
Q 1075 1300 1484 772 
Q 1894 244 2688 244 
Q 3041 244 3362 331 
Q 3684 419 3975 594 
L 3975 1797 
L 3097 1797 
L 3097 2131 
L 4609 2131 
L 4609 391 
Q 4194 150 3714 29 
Q 3234 -91 2688 -91 
Q 1631 -91 995 570 
Q 359 1231 359 2328 
Q 359 3434 996 4092 
Q 1634 4750 2713 4750 
Q 3113 4750 3539 4658 
Q 3966 4566 4447 4378 
L 4447 3272 
L 4097 3272 
z
" transform="scale(0.015625)"/>
        <path id="DejaVuSerif-31" d="M 909 0 
L 909 331 
L 1722 331 
L 1722 4213 
L 781 3603 
L 781 4013 
L 1919 4750 
L 2350 4750 
L 2350 331 
L 3163 331 
L 3163 0 
L 909 0 
z
" transform="scale(0.015625)"/>
       </defs>
       <use xlink:href="#DejaVuSerif-47"/>
       <use xlink:href="#DejaVuSerif-31" x="79.882812"/>
      </g>
     </g>
    </g>
    <g id="xtick_2">
     <g id="line2d_2">
      <g>
       <use xlink:href="#mbb14591c46" x="90.564923" y="307.584" style="stroke: #000000; stroke-width: 0.8"/>
      </g>
     </g>
     <g id="text_2">
      <!-- L2 -->
      <g transform="translate(84.063361 322.182437) scale(0.1 -0.1)">
       <defs>
        <path id="DejaVuSerif-4c" d="M 353 0 
L 353 331 
L 947 331 
L 947 4331 
L 353 4331 
L 353 4666 
L 2175 4666 
L 2175 4331 
L 1581 4331 
L 1581 384 
L 3713 384 
L 3713 1166 
L 4097 1166 
L 4097 0 
L 353 0 
z
" transform="scale(0.015625)"/>
        <path id="DejaVuSerif-32" d="M 819 3553 
L 469 3553 
L 469 4384 
Q 803 4563 1142 4656 
Q 1481 4750 1806 4750 
Q 2534 4750 2956 4397 
Q 3378 4044 3378 3438 
Q 3378 2753 2422 1800 
Q 2347 1728 2309 1691 
L 1131 513 
L 3078 513 
L 3078 1088 
L 3444 1088 
L 3444 0 
L 434 0 
L 434 341 
L 1850 1753 
Q 2319 2222 2519 2614 
Q 2719 3006 2719 3438 
Q 2719 3909 2473 4175 
Q 2228 4441 1797 4441 
Q 1350 4441 1106 4219 
Q 863 3997 819 3553 
z
" transform="scale(0.015625)"/>
       </defs>
       <use xlink:href="#DejaVuSerif-4c"/>
       <use xlink:href="#DejaVuSerif-32" x="66.40625"/>
      </g>
     </g>
    </g>
    <g id="xtick_3">
     <g id="line2d_3">
      <g>
       <use xlink:href="#mbb14591c46" x="112.541538" y="307.584" style="stroke: #000000; stroke-width: 0.8"/>
      </g>
     </g>
     <g id="text_3">
      <!-- F3 -->
      <g transform="translate(105.890757 322.182437) scale(0.1 -0.1)">
       <defs>
        <path id="DejaVuSerif-46" d="M 353 0 
L 353 331 
L 947 331 
L 947 4331 
L 353 4331 
L 353 4666 
L 4172 4666 
L 4172 3628 
L 3788 3628 
L 3788 4281 
L 1581 4281 
L 1581 2719 
L 3175 2719 
L 3175 3303 
L 3559 3303 
L 3559 1753 
L 3175 1753 
L 3175 2338 
L 1581 2338 
L 1581 331 
L 2328 331 
L 2328 0 
L 353 0 
z
" transform="scale(0.015625)"/>
        <path id="DejaVuSerif-33" d="M 622 4469 
Q 988 4606 1323 4678 
Q 1659 4750 1953 4750 
Q 2638 4750 3022 4454 
Q 3406 4159 3406 3634 
Q 3406 3213 3140 2930 
Q 2875 2647 2388 2547 
Q 2963 2466 3280 2130 
Q 3597 1794 3597 1259 
Q 3597 606 3158 257 
Q 2719 -91 1894 -91 
Q 1528 -91 1179 -12 
Q 831 66 488 225 
L 488 1131 
L 838 1131 
Q 869 681 1141 450 
Q 1413 219 1906 219 
Q 2384 219 2661 495 
Q 2938 772 2938 1253 
Q 2938 1803 2653 2086 
Q 2369 2369 1819 2369 
L 1522 2369 
L 1522 2688 
L 1678 2688 
Q 2225 2688 2498 2914 
Q 2772 3141 2772 3597 
Q 2772 4006 2547 4223 
Q 2322 4441 1900 4441 
Q 1478 4441 1245 4241 
Q 1013 4041 972 3647 
L 622 3647 
L 622 4469 
z
" transform="scale(0.015625)"/>
       </defs>
       <use xlink:href="#DejaVuSerif-46"/>
       <use xlink:href="#DejaVuSerif-33" x="69.384766"/>
      </g>
     </g>
    </g>
    <g id="xtick_4">
     <g id="line2d_4">
      <g>
       <use xlink:href="#mbb14591c46" x="134.518154" y="307.584" style="stroke: #000000; stroke-width: 0.8"/>
      </g>
     </g>
     <g id="text_4">
      <!-- D4 -->
      <g transform="translate(127.32831 322.182437) scale(0.1 -0.1)">
       <defs>
        <path id="DejaVuSerif-44" d="M 1581 331 
L 2163 331 
Q 3072 331 3558 850 
Q 4044 1369 4044 2338 
Q 4044 3306 3559 3818 
Q 3075 4331 2163 4331 
L 1581 4331 
L 1581 331 
z
M 353 0 
L 353 331 
L 947 331 
L 947 4331 
L 353 4331 
L 353 4666 
L 2209 4666 
Q 3416 4666 4089 4050 
Q 4763 3434 4763 2338 
Q 4763 1238 4088 619 
Q 3413 0 2209 0 
L 353 0 
z
" transform="scale(0.015625)"/>
        <path id="DejaVuSerif-34" d="M 2234 1581 
L 2234 4063 
L 641 1581 
L 2234 1581 
z
M 3609 0 
L 1484 0 
L 1484 331 
L 2234 331 
L 2234 1247 
L 197 1247 
L 197 1588 
L 2241 4750 
L 2859 4750 
L 2859 1581 
L 3750 1581 
L 3750 1247 
L 2859 1247 
L 2859 331 
L 3609 331 
L 3609 0 
z
" transform="scale(0.015625)"/>
       </defs>
       <use xlink:href="#DejaVuSerif-44"/>
       <use xlink:href="#DejaVuSerif-34" x="80.175781"/>
      </g>
     </g>
    </g>
    <g id="xtick_5">
     <g id="line2d_5">
      <g>
       <use xlink:href="#mbb14591c46" x="156.494769" y="307.584" style="stroke: #000000; stroke-width: 0.8"/>
      </g>
     </g>
     <g id="text_5">
      <!-- I5 -->
      <g transform="translate(151.338519 322.182437) scale(0.1 -0.1)">
       <defs>
        <path id="DejaVuSerif-49" d="M 1581 331 
L 2175 331 
L 2175 0 
L 353 0 
L 353 331 
L 947 331 
L 947 4331 
L 353 4331 
L 353 4666 
L 2175 4666 
L 2175 4331 
L 1581 4331 
L 1581 331 
z
" transform="scale(0.015625)"/>
        <path id="DejaVuSerif-35" d="M 3219 4666 
L 3219 4153 
L 1081 4153 
L 1081 2816 
Q 1244 2928 1461 2984 
Q 1678 3041 1947 3041 
Q 2703 3041 3140 2622 
Q 3578 2203 3578 1478 
Q 3578 738 3136 323 
Q 2694 -91 1894 -91 
Q 1572 -91 1234 -12 
Q 897 66 544 225 
L 544 1131 
L 897 1131 
Q 925 688 1179 453 
Q 1434 219 1894 219 
Q 2388 219 2653 544 
Q 2919 869 2919 1478 
Q 2919 2084 2655 2407 
Q 2391 2731 1894 2731 
Q 1613 2731 1398 2631 
Q 1184 2531 1019 2322 
L 750 2322 
L 750 4666 
L 3219 4666 
z
" transform="scale(0.015625)"/>
       </defs>
       <use xlink:href="#DejaVuSerif-49"/>
       <use xlink:href="#DejaVuSerif-35" x="39.501953"/>
      </g>
     </g>
    </g>
    <g id="xtick_6">
     <g id="line2d_6">
      <g>
       <use xlink:href="#mbb14591c46" x="178.471385" y="307.584" style="stroke: #000000; stroke-width: 0.8"/>
      </g>
     </g>
     <g id="text_6">
      <!-- I6 -->
      <g transform="translate(173.315135 322.182437) scale(0.1 -0.1)">
       <defs>
        <path id="DejaVuSerif-36" d="M 2094 219 
Q 2534 219 2771 542 
Q 3009 866 3009 1472 
Q 3009 2078 2771 2401 
Q 2534 2725 2094 2725 
Q 1647 2725 1412 2412 
Q 1178 2100 1178 1509 
Q 1178 888 1415 553 
Q 1653 219 2094 219 
z
M 1075 2569 
Q 1288 2803 1556 2918 
Q 1825 3034 2163 3034 
Q 2859 3034 3264 2615 
Q 3669 2197 3669 1472 
Q 3669 763 3233 336 
Q 2797 -91 2069 -91 
Q 1278 -91 853 498 
Q 428 1088 428 2181 
Q 428 3406 931 4078 
Q 1434 4750 2350 4750 
Q 2597 4750 2869 4703 
Q 3141 4656 3425 4563 
L 3425 3794 
L 3072 3794 
Q 3034 4109 2831 4275 
Q 2628 4441 2284 4441 
Q 1678 4441 1381 3981 
Q 1084 3522 1075 2569 
z
" transform="scale(0.015625)"/>
       </defs>
       <use xlink:href="#DejaVuSerif-49"/>
       <use xlink:href="#DejaVuSerif-36" x="39.501953"/>
      </g>
     </g>
    </g>
    <g id="xtick_7">
     <g id="line2d_7">
      <g>
       <use xlink:href="#mbb14591c46" x="200.448" y="307.584" style="stroke: #000000; stroke-width: 0.8"/>
      </g>
     </g>
     <g id="text_7">
      <!-- K7 -->
      <g transform="translate(193.531594 322.182437) scale(0.1 -0.1)">
       <defs>
        <path id="DejaVuSerif-4b" d="M 353 0 
L 353 331 
L 947 331 
L 947 4331 
L 353 4331 
L 353 4666 
L 2175 4666 
L 2175 4331 
L 1581 4331 
L 1581 2566 
L 3591 4331 
L 3084 4331 
L 3084 4666 
L 4634 4666 
L 4634 4331 
L 4109 4331 
L 2106 2572 
L 4347 331 
L 4878 331 
L 4878 0 
L 3794 0 
L 1581 2216 
L 1581 331 
L 2175 331 
L 2175 0 
L 353 0 
z
" transform="scale(0.015625)"/>
        <path id="DejaVuSerif-37" d="M 3609 4347 
L 1784 0 
L 1319 0 
L 3059 4153 
L 903 4153 
L 903 3578 
L 538 3578 
L 538 4666 
L 3609 4666 
L 3609 4347 
z
" transform="scale(0.015625)"/>
       </defs>
       <use xlink:href="#DejaVuSerif-4b"/>
       <use xlink:href="#DejaVuSerif-37" x="74.707031"/>
      </g>
     </g>
    </g>
    <g id="xtick_8">
     <g id="line2d_8">
      <g>
       <use xlink:href="#mbb14591c46" x="222.424615" y="307.584" style="stroke: #000000; stroke-width: 0.8"/>
      </g>
     </g>
     <g id="text_8">
      <!-- K8 -->
      <g transform="translate(215.508209 322.182437) scale(0.1 -0.1)">
       <defs>
        <path id="DejaVuSerif-38" d="M 2981 1275 
Q 2981 1775 2732 2051 
Q 2484 2328 2034 2328 
Q 1584 2328 1336 2051 
Q 1088 1775 1088 1275 
Q 1088 772 1336 495 
Q 1584 219 2034 219 
Q 2484 219 2732 495 
Q 2981 772 2981 1275 
z
M 2853 3541 
Q 2853 3966 2637 4203 
Q 2422 4441 2034 4441 
Q 1650 4441 1433 4203 
Q 1216 3966 1216 3541 
Q 1216 3113 1433 2875 
Q 1650 2638 2034 2638 
Q 2422 2638 2637 2875 
Q 2853 3113 2853 3541 
z
M 2516 2484 
Q 3047 2413 3344 2092 
Q 3641 1772 3641 1275 
Q 3641 619 3225 264 
Q 2809 -91 2034 -91 
Q 1263 -91 845 264 
Q 428 619 428 1275 
Q 428 1772 725 2092 
Q 1022 2413 1556 2484 
Q 1084 2569 832 2842 
Q 581 3116 581 3541 
Q 581 4103 968 4426 
Q 1356 4750 2034 4750 
Q 2713 4750 3100 4426 
Q 3488 4103 3488 3541 
Q 3488 3116 3236 2842 
Q 2984 2569 2516 2484 
z
" transform="scale(0.015625)"/>
       </defs>
       <use xlink:href="#DejaVuSerif-4b"/>
       <use xlink:href="#DejaVuSerif-38" x="74.707031"/>
      </g>
     </g>
    </g>
    <g id="xtick_9">
     <g id="line2d_9">
      <g>
       <use xlink:href="#mbb14591c46" x="244.401231" y="307.584" style="stroke: #000000; stroke-width: 0.8"/>
      </g>
     </g>
     <g id="text_9">
      <!-- I9 -->
      <g transform="translate(239.244981 322.182437) scale(0.1 -0.1)">
       <defs>
        <path id="DejaVuSerif-39" d="M 2994 2091 
Q 2784 1856 2512 1740 
Q 2241 1625 1900 1625 
Q 1206 1625 804 2044 
Q 403 2463 403 3188 
Q 403 3897 839 4323 
Q 1275 4750 2003 4750 
Q 2794 4750 3217 4161 
Q 3641 3572 3641 2478 
Q 3641 1253 3137 581 
Q 2634 -91 1722 -91 
Q 1475 -91 1203 -44 
Q 931 3 647 97 
L 647 872 
L 997 872 
Q 1038 556 1241 387 
Q 1444 219 1784 219 
Q 2391 219 2687 676 
Q 2984 1134 2994 2091 
z
M 1978 4441 
Q 1534 4441 1298 4117 
Q 1063 3794 1063 3188 
Q 1063 2581 1298 2256 
Q 1534 1931 1978 1931 
Q 2422 1931 2658 2245 
Q 2894 2559 2894 3150 
Q 2894 3772 2656 4106 
Q 2419 4441 1978 4441 
z
" transform="scale(0.015625)"/>
       </defs>
       <use xlink:href="#DejaVuSerif-49"/>
       <use xlink:href="#DejaVuSerif-39" x="39.501953"/>
      </g>
     </g>
    </g>
    <g id="xtick_10">
     <g id="line2d_10">
      <g>
       <use xlink:href="#mbb14591c46" x="266.377846" y="307.584" style="stroke: #000000; stroke-width: 0.8"/>
      </g>
     </g>
     <g id="text_10">
      <!-- A10 -->
      <g transform="translate(256.404409 322.182437) scale(0.1 -0.1)">
       <defs>
        <path id="DejaVuSerif-41" d="M 1281 1691 
L 2994 1691 
L 2138 3909 
L 1281 1691 
z
M -38 0 
L -38 331 
L 372 331 
L 2034 4666 
L 2559 4666 
L 4225 331 
L 4684 331 
L 4684 0 
L 2988 0 
L 2988 331 
L 3506 331 
L 3116 1356 
L 1153 1356 
L 763 331 
L 1275 331 
L 1275 0 
L -38 0 
z
" transform="scale(0.015625)"/>
        <path id="DejaVuSerif-30" d="M 2034 219 
Q 2513 219 2750 744 
Q 2988 1269 2988 2328 
Q 2988 3391 2750 3916 
Q 2513 4441 2034 4441 
Q 1556 4441 1318 3916 
Q 1081 3391 1081 2328 
Q 1081 1269 1318 744 
Q 1556 219 2034 219 
z
M 2034 -91 
Q 1275 -91 848 546 
Q 422 1184 422 2328 
Q 422 3475 848 4112 
Q 1275 4750 2034 4750 
Q 2797 4750 3222 4112 
Q 3647 3475 3647 2328 
Q 3647 1184 3222 546 
Q 2797 -91 2034 -91 
z
" transform="scale(0.015625)"/>
       </defs>
       <use xlink:href="#DejaVuSerif-41"/>
       <use xlink:href="#DejaVuSerif-31" x="72.216797"/>
       <use xlink:href="#DejaVuSerif-30" x="135.839844"/>
      </g>
     </g>
    </g>
    <g id="xtick_11">
     <g id="line2d_11">
      <g>
       <use xlink:href="#mbb14591c46" x="288.354462" y="307.584" style="stroke: #000000; stroke-width: 0.8"/>
      </g>
     </g>
     <g id="text_11">
      <!-- E11 -->
      <g transform="translate(278.341962 322.182437) scale(0.1 -0.1)">
       <defs>
        <path id="DejaVuSerif-45" d="M 353 0 
L 353 331 
L 947 331 
L 947 4331 
L 353 4331 
L 353 4666 
L 4109 4666 
L 4109 3628 
L 3725 3628 
L 3725 4281 
L 1581 4281 
L 1581 2719 
L 3109 2719 
L 3109 3303 
L 3494 3303 
L 3494 1753 
L 3109 1753 
L 3109 2338 
L 1581 2338 
L 1581 384 
L 3775 384 
L 3775 1038 
L 4159 1038 
L 4159 0 
L 353 0 
z
" transform="scale(0.015625)"/>
       </defs>
       <use xlink:href="#DejaVuSerif-45"/>
       <use xlink:href="#DejaVuSerif-31" x="72.998047"/>
       <use xlink:href="#DejaVuSerif-31" x="136.621094"/>
      </g>
     </g>
    </g>
    <g id="xtick_12">
     <g id="line2d_12">
      <g>
       <use xlink:href="#mbb14591c46" x="310.331077" y="307.584" style="stroke: #000000; stroke-width: 0.8"/>
      </g>
     </g>
     <g id="text_12">
      <!-- S12 -->
      <g transform="translate(300.543577 322.182437) scale(0.1 -0.1)">
       <defs>
        <path id="DejaVuSerif-53" d="M 594 225 
L 594 1288 
L 953 1284 
Q 969 753 1261 498 
Q 1553 244 2150 244 
Q 2706 244 2998 464 
Q 3291 684 3291 1106 
Q 3291 1444 3114 1625 
Q 2938 1806 2369 1978 
L 1753 2163 
Q 1084 2366 811 2669 
Q 538 2972 538 3500 
Q 538 4094 959 4422 
Q 1381 4750 2144 4750 
Q 2469 4750 2856 4679 
Q 3244 4609 3681 4475 
L 3681 3481 
L 3328 3481 
Q 3275 3975 2998 4195 
Q 2722 4416 2156 4416 
Q 1663 4416 1405 4214 
Q 1147 4013 1147 3628 
Q 1147 3294 1340 3103 
Q 1534 2913 2163 2725 
L 2741 2553 
Q 3375 2363 3645 2067 
Q 3916 1772 3916 1275 
Q 3916 597 3481 253 
Q 3047 -91 2188 -91 
Q 1803 -91 1404 -12 
Q 1006 66 594 225 
z
" transform="scale(0.015625)"/>
       </defs>
       <use xlink:href="#DejaVuSerif-53"/>
       <use xlink:href="#DejaVuSerif-31" x="68.505859"/>
       <use xlink:href="#DejaVuSerif-32" x="132.128906"/>
      </g>
     </g>
    </g>
    <g id="xtick_13">
     <g id="line2d_13">
      <g>
       <use xlink:href="#mbb14591c46" x="332.307692" y="307.584" style="stroke: #000000; stroke-width: 0.8"/>
      </g>
     </g>
     <g id="text_13">
      <!-- F13 -->
      <g transform="translate(322.475661 322.182437) scale(0.1 -0.1)">
       <use xlink:href="#DejaVuSerif-46"/>
       <use xlink:href="#DejaVuSerif-31" x="69.384766"/>
       <use xlink:href="#DejaVuSerif-33" x="133.007812"/>
      </g>
     </g>
    </g>
    <g id="text_14">
     <!-- Tokens -->
     <g transform="translate(173.848781 339.659781) scale(0.15 -0.15)">
      <defs>
       <path id="DejaVuSerif-54" d="M 1222 0 
L 1222 331 
L 1819 331 
L 1819 4294 
L 447 4294 
L 447 3566 
L 63 3566 
L 63 4666 
L 4206 4666 
L 4206 3566 
L 3822 3566 
L 3822 4294 
L 2450 4294 
L 2450 331 
L 3047 331 
L 3047 0 
L 1222 0 
z
" transform="scale(0.015625)"/>
       <path id="DejaVuSerif-6f" d="M 1925 219 
Q 2388 219 2623 584 
Q 2859 950 2859 1663 
Q 2859 2375 2623 2739 
Q 2388 3103 1925 3103 
Q 1463 3103 1227 2739 
Q 991 2375 991 1663 
Q 991 950 1228 584 
Q 1466 219 1925 219 
z
M 1925 -91 
Q 1200 -91 759 389 
Q 319 869 319 1663 
Q 319 2456 758 2934 
Q 1197 3413 1925 3413 
Q 2653 3413 3092 2934 
Q 3531 2456 3531 1663 
Q 3531 869 3092 389 
Q 2653 -91 1925 -91 
z
" transform="scale(0.015625)"/>
       <path id="DejaVuSerif-6b" d="M 1831 0 
L 219 0 
L 219 331 
L 738 331 
L 738 4531 
L 184 4531 
L 184 4863 
L 1313 4863 
L 1313 1697 
L 2713 2988 
L 2234 2988 
L 2234 3322 
L 3738 3322 
L 3738 2988 
L 3169 2988 
L 2181 2075 
L 3444 331 
L 3922 331 
L 3922 0 
L 2284 0 
L 2284 331 
L 2759 331 
L 1766 1697 
L 1313 1275 
L 1313 331 
L 1831 331 
L 1831 0 
z
" transform="scale(0.015625)"/>
       <path id="DejaVuSerif-65" d="M 3469 1600 
L 991 1600 
L 991 1575 
Q 991 903 1244 561 
Q 1497 219 1991 219 
Q 2369 219 2611 417 
Q 2853 616 2950 1006 
L 3413 1006 
Q 3275 459 2904 184 
Q 2534 -91 1931 -91 
Q 1203 -91 761 389 
Q 319 869 319 1663 
Q 319 2450 753 2931 
Q 1188 3413 1894 3413 
Q 2647 3413 3050 2948 
Q 3453 2484 3469 1600 
z
M 2791 1931 
Q 2772 2513 2545 2808 
Q 2319 3103 1894 3103 
Q 1497 3103 1269 2806 
Q 1041 2509 991 1931 
L 2791 1931 
z
" transform="scale(0.015625)"/>
       <path id="DejaVuSerif-6e" d="M 263 0 
L 263 331 
L 781 331 
L 781 2988 
L 231 2988 
L 231 3322 
L 1356 3322 
L 1356 2731 
Q 1516 3069 1770 3241 
Q 2025 3413 2363 3413 
Q 2913 3413 3172 3097 
Q 3431 2781 3431 2113 
L 3431 331 
L 3944 331 
L 3944 0 
L 2356 0 
L 2356 331 
L 2853 331 
L 2853 1931 
Q 2853 2541 2703 2767 
Q 2553 2994 2175 2994 
Q 1775 2994 1565 2701 
Q 1356 2409 1356 1850 
L 1356 331 
L 1856 331 
L 1856 0 
L 263 0 
z
" transform="scale(0.015625)"/>
       <path id="DejaVuSerif-73" d="M 359 184 
L 359 959 
L 691 959 
Q 703 588 923 403 
Q 1144 219 1575 219 
Q 1963 219 2166 364 
Q 2369 509 2369 788 
Q 2369 1006 2220 1140 
Q 2072 1275 1594 1428 
L 1178 1569 
Q 750 1706 558 1912 
Q 366 2119 366 2438 
Q 366 2894 700 3153 
Q 1034 3413 1625 3413 
Q 1888 3413 2178 3344 
Q 2469 3275 2778 3144 
L 2778 2419 
L 2447 2419 
Q 2434 2741 2221 2922 
Q 2009 3103 1644 3103 
Q 1281 3103 1095 2975 
Q 909 2847 909 2591 
Q 909 2381 1050 2254 
Q 1191 2128 1613 1997 
L 2069 1856 
Q 2541 1709 2748 1489 
Q 2956 1269 2956 922 
Q 2956 450 2595 179 
Q 2234 -91 1600 -91 
Q 1278 -91 972 -22 
Q 666 47 359 184 
z
" transform="scale(0.015625)"/>
      </defs>
      <use xlink:href="#DejaVuSerif-54"/>
      <use xlink:href="#DejaVuSerif-6f" x="58.949219"/>
      <use xlink:href="#DejaVuSerif-6b" x="119.154297"/>
      <use xlink:href="#DejaVuSerif-65" x="179.75"/>
      <use xlink:href="#DejaVuSerif-6e" x="238.929688"/>
      <use xlink:href="#DejaVuSerif-73" x="303.333984"/>
     </g>
    </g>
   </g>
   <g id="matplotlib.axis_2">
    <g id="ytick_1">
     <g id="line2d_14">
      <defs>
       <path id="m3e449b2e57" d="M 0 0 
L -3.5 0 
" style="stroke: #000000; stroke-width: 0.8"/>
      </defs>
      <g>
       <use xlink:href="#m3e449b2e57" x="57.6" y="49.788" style="stroke: #000000; stroke-width: 0.8"/>
      </g>
     </g>
     <g id="text_15">
      <!-- 0 -->
      <g transform="translate(48.520313 52.96925) rotate(-90) scale(0.1 -0.1)">
       <use xlink:href="#DejaVuSerif-30"/>
      </g>
     </g>
    </g>
    <g id="ytick_2">
     <g id="line2d_15">
      <g>
       <use xlink:href="#m3e449b2e57" x="57.6" y="66.42" style="stroke: #000000; stroke-width: 0.8"/>
      </g>
     </g>
     <g id="text_16">
      <!-- 1 -->
      <g transform="translate(48.520313 69.60125) rotate(-90) scale(0.1 -0.1)">
       <use xlink:href="#DejaVuSerif-31"/>
      </g>
     </g>
    </g>
    <g id="ytick_3">
     <g id="line2d_16">
      <g>
       <use xlink:href="#m3e449b2e57" x="57.6" y="83.052" style="stroke: #000000; stroke-width: 0.8"/>
      </g>
     </g>
     <g id="text_17">
      <!-- 2 -->
      <g transform="translate(48.520313 86.23325) rotate(-90) scale(0.1 -0.1)">
       <use xlink:href="#DejaVuSerif-32"/>
      </g>
     </g>
    </g>
    <g id="ytick_4">
     <g id="line2d_17">
      <g>
       <use xlink:href="#m3e449b2e57" x="57.6" y="99.684" style="stroke: #000000; stroke-width: 0.8"/>
      </g>
     </g>
     <g id="text_18">
      <!-- 3 -->
      <g transform="translate(48.520313 102.86525) rotate(-90) scale(0.1 -0.1)">
       <use xlink:href="#DejaVuSerif-33"/>
      </g>
     </g>
    </g>
    <g id="ytick_5">
     <g id="line2d_18">
      <g>
       <use xlink:href="#m3e449b2e57" x="57.6" y="116.316" style="stroke: #000000; stroke-width: 0.8"/>
      </g>
     </g>
     <g id="text_19">
      <!-- 4 -->
      <g transform="translate(48.520313 119.49725) rotate(-90) scale(0.1 -0.1)">
       <use xlink:href="#DejaVuSerif-34"/>
      </g>
     </g>
    </g>
    <g id="ytick_6">
     <g id="line2d_19">
      <g>
       <use xlink:href="#m3e449b2e57" x="57.6" y="132.948" style="stroke: #000000; stroke-width: 0.8"/>
      </g>
     </g>
     <g id="text_20">
      <!-- 5 -->
      <g transform="translate(48.520313 136.12925) rotate(-90) scale(0.1 -0.1)">
       <use xlink:href="#DejaVuSerif-35"/>
      </g>
     </g>
    </g>
    <g id="ytick_7">
     <g id="line2d_20">
      <g>
       <use xlink:href="#m3e449b2e57" x="57.6" y="149.58" style="stroke: #000000; stroke-width: 0.8"/>
      </g>
     </g>
     <g id="text_21">
      <!-- 6 -->
      <g transform="translate(48.520313 152.76125) rotate(-90) scale(0.1 -0.1)">
       <use xlink:href="#DejaVuSerif-36"/>
      </g>
     </g>
    </g>
    <g id="ytick_8">
     <g id="line2d_21">
      <g>
       <use xlink:href="#m3e449b2e57" x="57.6" y="166.212" style="stroke: #000000; stroke-width: 0.8"/>
      </g>
     </g>
     <g id="text_22">
      <!-- 7 -->
      <g transform="translate(48.520313 169.39325) rotate(-90) scale(0.1 -0.1)">
       <use xlink:href="#DejaVuSerif-37"/>
      </g>
     </g>
    </g>
    <g id="ytick_9">
     <g id="line2d_22">
      <g>
       <use xlink:href="#m3e449b2e57" x="57.6" y="182.844" style="stroke: #000000; stroke-width: 0.8"/>
      </g>
     </g>
     <g id="text_23">
      <!-- 8 -->
      <g transform="translate(48.520313 186.02525) rotate(-90) scale(0.1 -0.1)">
       <use xlink:href="#DejaVuSerif-38"/>
      </g>
     </g>
    </g>
    <g id="ytick_10">
     <g id="line2d_23">
      <g>
       <use xlink:href="#m3e449b2e57" x="57.6" y="199.476" style="stroke: #000000; stroke-width: 0.8"/>
      </g>
     </g>
     <g id="text_24">
      <!-- 9 -->
      <g transform="translate(48.520313 202.65725) rotate(-90) scale(0.1 -0.1)">
       <use xlink:href="#DejaVuSerif-39"/>
      </g>
     </g>
    </g>
    <g id="ytick_11">
     <g id="line2d_24">
      <g>
       <use xlink:href="#m3e449b2e57" x="57.6" y="216.108" style="stroke: #000000; stroke-width: 0.8"/>
      </g>
     </g>
     <g id="text_25">
      <!-- 10 -->
      <g transform="translate(48.520313 222.4705) rotate(-90) scale(0.1 -0.1)">
       <use xlink:href="#DejaVuSerif-31"/>
       <use xlink:href="#DejaVuSerif-30" x="63.623047"/>
      </g>
     </g>
    </g>
    <g id="ytick_12">
     <g id="line2d_25">
      <g>
       <use xlink:href="#m3e449b2e57" x="57.6" y="232.74" style="stroke: #000000; stroke-width: 0.8"/>
      </g>
     </g>
     <g id="text_26">
      <!-- 11 -->
      <g transform="translate(48.520313 239.1025) rotate(-90) scale(0.1 -0.1)">
       <use xlink:href="#DejaVuSerif-31"/>
       <use xlink:href="#DejaVuSerif-31" x="63.623047"/>
      </g>
     </g>
    </g>
    <g id="ytick_13">
     <g id="line2d_26">
      <g>
       <use xlink:href="#m3e449b2e57" x="57.6" y="249.372" style="stroke: #000000; stroke-width: 0.8"/>
      </g>
     </g>
     <g id="text_27">
      <!-- 12 -->
      <g transform="translate(48.520313 255.7345) rotate(-90) scale(0.1 -0.1)">
       <use xlink:href="#DejaVuSerif-31"/>
       <use xlink:href="#DejaVuSerif-32" x="63.623047"/>
      </g>
     </g>
    </g>
    <g id="ytick_14">
     <g id="line2d_27">
      <g>
       <use xlink:href="#m3e449b2e57" x="57.6" y="266.004" style="stroke: #000000; stroke-width: 0.8"/>
      </g>
     </g>
     <g id="text_28">
      <!-- 13 -->
      <g transform="translate(48.520313 272.3665) rotate(-90) scale(0.1 -0.1)">
       <use xlink:href="#DejaVuSerif-31"/>
       <use xlink:href="#DejaVuSerif-33" x="63.623047"/>
      </g>
     </g>
    </g>
    <g id="ytick_15">
     <g id="line2d_28">
      <g>
       <use xlink:href="#m3e449b2e57" x="57.6" y="282.636" style="stroke: #000000; stroke-width: 0.8"/>
      </g>
     </g>
     <g id="text_29">
      <!-- 14 -->
      <g transform="translate(48.520313 288.9985) rotate(-90) scale(0.1 -0.1)">
       <use xlink:href="#DejaVuSerif-31"/>
       <use xlink:href="#DejaVuSerif-34" x="63.623047"/>
      </g>
     </g>
    </g>
    <g id="ytick_16">
     <g id="line2d_29">
      <g>
       <use xlink:href="#m3e449b2e57" x="57.6" y="299.268" style="stroke: #000000; stroke-width: 0.8"/>
      </g>
     </g>
     <g id="text_30">
      <!-- 15 -->
      <g transform="translate(48.520313 305.6305) rotate(-90) scale(0.1 -0.1)">
       <use xlink:href="#DejaVuSerif-31"/>
       <use xlink:href="#DejaVuSerif-35" x="63.623047"/>
      </g>
     </g>
    </g>
    <g id="text_31">
     <!-- Heads of the 29th layer -->
     <g transform="translate(33.589062 264.258469) rotate(-90) scale(0.15 -0.15)">
      <defs>
       <path id="DejaVuSerif-48" d="M 353 0 
L 353 331 
L 947 331 
L 947 4331 
L 353 4331 
L 353 4666 
L 2175 4666 
L 2175 4331 
L 1581 4331 
L 1581 2719 
L 4000 2719 
L 4000 4331 
L 3406 4331 
L 3406 4666 
L 5228 4666 
L 5228 4331 
L 4634 4331 
L 4634 331 
L 5228 331 
L 5228 0 
L 3406 0 
L 3406 331 
L 4000 331 
L 4000 2338 
L 1581 2338 
L 1581 331 
L 2175 331 
L 2175 0 
L 353 0 
z
" transform="scale(0.015625)"/>
       <path id="DejaVuSerif-61" d="M 2547 1044 
L 2547 1747 
L 1806 1747 
Q 1378 1747 1168 1562 
Q 959 1378 959 997 
Q 959 650 1171 447 
Q 1384 244 1747 244 
Q 2106 244 2326 466 
Q 2547 688 2547 1044 
z
M 3122 2075 
L 3122 331 
L 3634 331 
L 3634 0 
L 2547 0 
L 2547 359 
Q 2356 128 2106 18 
Q 1856 -91 1522 -91 
Q 969 -91 644 203 
Q 319 497 319 997 
Q 319 1513 691 1797 
Q 1063 2081 1741 2081 
L 2547 2081 
L 2547 2309 
Q 2547 2688 2317 2895 
Q 2088 3103 1672 3103 
Q 1328 3103 1125 2947 
Q 922 2791 872 2484 
L 575 2484 
L 575 3156 
Q 875 3284 1158 3348 
Q 1441 3413 1709 3413 
Q 2400 3413 2761 3070 
Q 3122 2728 3122 2075 
z
" transform="scale(0.015625)"/>
       <path id="DejaVuSerif-64" d="M 3359 331 
L 3909 331 
L 3909 0 
L 2784 0 
L 2784 519 
Q 2616 206 2355 57 
Q 2094 -91 1709 -91 
Q 1097 -91 708 395 
Q 319 881 319 1663 
Q 319 2444 706 2928 
Q 1094 3413 1709 3413 
Q 2094 3413 2355 3264 
Q 2616 3116 2784 2803 
L 2784 4531 
L 2241 4531 
L 2241 4863 
L 3359 4863 
L 3359 331 
z
M 2784 1497 
L 2784 1825 
Q 2784 2422 2554 2737 
Q 2325 3053 1888 3053 
Q 1444 3053 1217 2703 
Q 991 2353 991 1663 
Q 991 975 1217 622 
Q 1444 269 1888 269 
Q 2325 269 2554 583 
Q 2784 897 2784 1497 
z
" transform="scale(0.015625)"/>
       <path id="DejaVuSerif-20" transform="scale(0.015625)"/>
       <path id="DejaVuSerif-66" d="M 2753 4078 
L 2450 4078 
Q 2447 4313 2317 4434 
Q 2188 4556 1941 4556 
Q 1619 4556 1487 4379 
Q 1356 4203 1356 3750 
L 1356 3322 
L 2284 3322 
L 2284 2988 
L 1356 2988 
L 1356 331 
L 2094 331 
L 2094 0 
L 231 0 
L 231 331 
L 781 331 
L 781 2988 
L 231 2988 
L 231 3322 
L 781 3322 
L 781 3738 
Q 781 4294 1070 4578 
Q 1359 4863 1919 4863 
Q 2128 4863 2337 4825 
Q 2547 4788 2753 4709 
L 2753 4078 
z
" transform="scale(0.015625)"/>
       <path id="DejaVuSerif-74" d="M 691 2988 
L 184 2988 
L 184 3322 
L 691 3322 
L 691 4353 
L 1269 4353 
L 1269 3322 
L 2350 3322 
L 2350 2988 
L 1269 2988 
L 1269 878 
Q 1269 456 1350 337 
Q 1431 219 1650 219 
Q 1875 219 1978 351 
Q 2081 484 2088 781 
L 2522 781 
Q 2497 328 2275 118 
Q 2053 -91 1600 -91 
Q 1103 -91 897 129 
Q 691 350 691 878 
L 691 2988 
z
" transform="scale(0.015625)"/>
       <path id="DejaVuSerif-68" d="M 263 0 
L 263 331 
L 781 331 
L 781 4531 
L 231 4531 
L 231 4863 
L 1356 4863 
L 1356 2731 
Q 1516 3069 1770 3241 
Q 2025 3413 2363 3413 
Q 2913 3413 3172 3097 
Q 3431 2781 3431 2113 
L 3431 331 
L 3944 331 
L 3944 0 
L 2356 0 
L 2356 331 
L 2853 331 
L 2853 1931 
Q 2853 2541 2704 2764 
Q 2556 2988 2175 2988 
Q 1775 2988 1565 2697 
Q 1356 2406 1356 1850 
L 1356 331 
L 1856 331 
L 1856 0 
L 263 0 
z
" transform="scale(0.015625)"/>
       <path id="DejaVuSerif-6c" d="M 1313 331 
L 1856 331 
L 1856 0 
L 184 0 
L 184 331 
L 738 331 
L 738 4531 
L 184 4531 
L 184 4863 
L 1313 4863 
L 1313 331 
z
" transform="scale(0.015625)"/>
       <path id="DejaVuSerif-79" d="M 1381 -609 
L 1600 -56 
L 359 2988 
L -19 2988 
L -19 3322 
L 1509 3322 
L 1509 2988 
L 978 2988 
L 1913 703 
L 2847 2988 
L 2350 2988 
L 2350 3322 
L 3597 3322 
L 3597 2988 
L 3225 2988 
L 1703 -750 
Q 1547 -1138 1356 -1280 
Q 1166 -1422 819 -1422 
Q 672 -1422 517 -1397 
Q 363 -1372 206 -1325 
L 206 -691 
L 500 -691 
Q 519 -903 608 -995 
Q 697 -1088 884 -1088 
Q 1056 -1088 1161 -992 
Q 1266 -897 1381 -609 
z
" transform="scale(0.015625)"/>
       <path id="DejaVuSerif-72" d="M 3059 3328 
L 3059 2497 
L 2728 2497 
Q 2713 2744 2591 2866 
Q 2469 2988 2234 2988 
Q 1809 2988 1582 2694 
Q 1356 2400 1356 1850 
L 1356 331 
L 2022 331 
L 2022 0 
L 263 0 
L 263 331 
L 781 331 
L 781 2994 
L 231 2994 
L 231 3322 
L 1356 3322 
L 1356 2731 
Q 1525 3078 1790 3245 
Q 2056 3413 2438 3413 
Q 2578 3413 2733 3391 
Q 2888 3369 3059 3328 
z
" transform="scale(0.015625)"/>
      </defs>
      <use xlink:href="#DejaVuSerif-48"/>
      <use xlink:href="#DejaVuSerif-65" x="87.207031"/>
      <use xlink:href="#DejaVuSerif-61" x="146.386719"/>
      <use xlink:href="#DejaVuSerif-64" x="206.005859"/>
      <use xlink:href="#DejaVuSerif-73" x="270.019531"/>
      <use xlink:href="#DejaVuSerif-20" x="321.337891"/>
      <use xlink:href="#DejaVuSerif-6f" x="353.125"/>
      <use xlink:href="#DejaVuSerif-66" x="413.330078"/>
      <use xlink:href="#DejaVuSerif-20" x="450.341797"/>
      <use xlink:href="#DejaVuSerif-74" x="482.128906"/>
      <use xlink:href="#DejaVuSerif-68" x="522.314453"/>
      <use xlink:href="#DejaVuSerif-65" x="586.71875"/>
      <use xlink:href="#DejaVuSerif-20" x="645.898438"/>
      <use xlink:href="#DejaVuSerif-32" x="677.685547"/>
      <use xlink:href="#DejaVuSerif-39" x="741.308594"/>
      <use xlink:href="#DejaVuSerif-74" x="804.931641"/>
      <use xlink:href="#DejaVuSerif-68" x="845.117188"/>
      <use xlink:href="#DejaVuSerif-20" x="909.521484"/>
      <use xlink:href="#DejaVuSerif-6c" x="941.308594"/>
      <use xlink:href="#DejaVuSerif-61" x="973.291016"/>
      <use xlink:href="#DejaVuSerif-79" x="1032.910156"/>
      <use xlink:href="#DejaVuSerif-65" x="1089.404297"/>
      <use xlink:href="#DejaVuSerif-72" x="1148.583984"/>
     </g>
    </g>
   </g>
  </g>
  <g id="axes_2">
   <g id="patch_3">
    <path d="M 361.152 307.584 
L 374.4576 307.584 
L 374.4576 41.472 
L 361.152 41.472 
z
" style="fill: #ffffff"/>
   </g>
   <g id="QuadMesh_2">
    <path d="M 361.152 307.584 
L 374.4576 307.584 
L 374.4576 285.408 
L 361.152 285.408 
L 361.152 307.584 
" clip-path="url(#p7053d9f6d3)" style="fill: #516ddb"/>
    <path d="M 361.152 285.408 
L 374.4576 285.408 
L 374.4576 263.232 
L 361.152 263.232 
L 361.152 285.408 
" clip-path="url(#p7053d9f6d3)" style="fill: #6b8df0"/>
    <path d="M 361.152 263.232 
L 374.4576 263.232 
L 374.4576 241.056 
L 361.152 241.056 
L 361.152 263.232 
" clip-path="url(#p7053d9f6d3)" style="fill: #86a9fc"/>
    <path d="M 361.152 241.056 
L 374.4576 241.056 
L 374.4576 218.88 
L 361.152 218.88 
L 361.152 241.056 
" clip-path="url(#p7053d9f6d3)" style="fill: #a1c0ff"/>
    <path d="M 361.152 218.88 
L 374.4576 218.88 
L 374.4576 196.704 
L 361.152 196.704 
L 361.152 218.88 
" clip-path="url(#p7053d9f6d3)" style="fill: #bbd1f8"/>
    <path d="M 361.152 196.704 
L 374.4576 196.704 
L 374.4576 174.528 
L 361.152 174.528 
L 361.152 196.704 
" clip-path="url(#p7053d9f6d3)" style="fill: #d3dbe7"/>
    <path d="M 361.152 174.528 
L 374.4576 174.528 
L 374.4576 152.352 
L 361.152 152.352 
L 361.152 174.528 
" clip-path="url(#p7053d9f6d3)" style="fill: #e6d7cf"/>
    <path d="M 361.152 152.352 
L 374.4576 152.352 
L 374.4576 130.176 
L 361.152 130.176 
L 361.152 152.352 
" clip-path="url(#p7053d9f6d3)" style="fill: #f3c7b1"/>
    <path d="M 361.152 130.176 
L 374.4576 130.176 
L 374.4576 108 
L 361.152 108 
L 361.152 130.176 
" clip-path="url(#p7053d9f6d3)" style="fill: #f7af91"/>
    <path d="M 361.152 108 
L 374.4576 108 
L 374.4576 85.824 
L 361.152 85.824 
L 361.152 108 
" clip-path="url(#p7053d9f6d3)" style="fill: #f29274"/>
    <path d="M 361.152 85.824 
L 374.4576 85.824 
L 374.4576 63.648 
L 361.152 63.648 
L 361.152 85.824 
" clip-path="url(#p7053d9f6d3)" style="fill: #e46e56"/>
    <path d="M 361.152 63.648 
L 374.4576 63.648 
L 374.4576 41.472 
L 361.152 41.472 
L 361.152 63.648 
" clip-path="url(#p7053d9f6d3)" style="fill: #cf453c"/>
   </g>
   <g id="matplotlib.axis_3"/>
   <g id="matplotlib.axis_4">
    <g id="ytick_17">
     <g id="line2d_30">
      <defs>
       <path id="me6eed299cd" d="M 0 0 
L 3.5 0 
" style="stroke: #000000; stroke-width: 0.8"/>
      </defs>
      <g>
       <use xlink:href="#me6eed299cd" x="374.4576" y="277.678948" style="stroke: #000000; stroke-width: 0.8"/>
      </g>
     </g>
     <g id="text_32">
      <!-- 0.2 -->
      <g transform="translate(381.4576 281.478167) scale(0.1 -0.1)">
       <defs>
        <path id="DejaVuSerif-2e" d="M 603 325 
Q 603 500 722 622 
Q 841 744 1019 744 
Q 1191 744 1312 622 
Q 1434 500 1434 325 
Q 1434 153 1312 31 
Q 1191 -91 1019 -91 
Q 841 -91 722 29 
Q 603 150 603 325 
z
" transform="scale(0.015625)"/>
       </defs>
       <use xlink:href="#DejaVuSerif-30"/>
       <use xlink:href="#DejaVuSerif-2e" x="63.623047"/>
       <use xlink:href="#DejaVuSerif-32" x="95.410156"/>
      </g>
     </g>
    </g>
    <g id="ytick_18">
     <g id="line2d_31">
      <g>
       <use xlink:href="#me6eed299cd" x="374.4576" y="246.632849" style="stroke: #000000; stroke-width: 0.8"/>
      </g>
     </g>
     <g id="text_33">
      <!-- 0.4 -->
      <g transform="translate(381.4576 250.432068) scale(0.1 -0.1)">
       <use xlink:href="#DejaVuSerif-30"/>
       <use xlink:href="#DejaVuSerif-2e" x="63.623047"/>
       <use xlink:href="#DejaVuSerif-34" x="95.410156"/>
      </g>
     </g>
    </g>
    <g id="ytick_19">
     <g id="line2d_32">
      <g>
       <use xlink:href="#me6eed299cd" x="374.4576" y="215.58675" style="stroke: #000000; stroke-width: 0.8"/>
      </g>
     </g>
     <g id="text_34">
      <!-- 0.6 -->
      <g transform="translate(381.4576 219.385968) scale(0.1 -0.1)">
       <use xlink:href="#DejaVuSerif-30"/>
       <use xlink:href="#DejaVuSerif-2e" x="63.623047"/>
       <use xlink:href="#DejaVuSerif-36" x="95.410156"/>
      </g>
     </g>
    </g>
    <g id="ytick_20">
     <g id="line2d_33">
      <g>
       <use xlink:href="#me6eed299cd" x="374.4576" y="184.54065" style="stroke: #000000; stroke-width: 0.8"/>
      </g>
     </g>
     <g id="text_35">
      <!-- 0.8 -->
      <g transform="translate(381.4576 188.339869) scale(0.1 -0.1)">
       <use xlink:href="#DejaVuSerif-30"/>
       <use xlink:href="#DejaVuSerif-2e" x="63.623047"/>
       <use xlink:href="#DejaVuSerif-38" x="95.410156"/>
      </g>
     </g>
    </g>
    <g id="ytick_21">
     <g id="line2d_34">
      <g>
       <use xlink:href="#me6eed299cd" x="374.4576" y="153.494551" style="stroke: #000000; stroke-width: 0.8"/>
      </g>
     </g>
     <g id="text_36">
      <!-- 1.0 -->
      <g transform="translate(381.4576 157.29377) scale(0.1 -0.1)">
       <use xlink:href="#DejaVuSerif-31"/>
       <use xlink:href="#DejaVuSerif-2e" x="63.623047"/>
       <use xlink:href="#DejaVuSerif-30" x="95.410156"/>
      </g>
     </g>
    </g>
    <g id="ytick_22">
     <g id="line2d_35">
      <g>
       <use xlink:href="#me6eed299cd" x="374.4576" y="122.448452" style="stroke: #000000; stroke-width: 0.8"/>
      </g>
     </g>
     <g id="text_37">
      <!-- 1.2 -->
      <g transform="translate(381.4576 126.24767) scale(0.1 -0.1)">
       <use xlink:href="#DejaVuSerif-31"/>
       <use xlink:href="#DejaVuSerif-2e" x="63.623047"/>
       <use xlink:href="#DejaVuSerif-32" x="95.410156"/>
      </g>
     </g>
    </g>
    <g id="ytick_23">
     <g id="line2d_36">
      <g>
       <use xlink:href="#me6eed299cd" x="374.4576" y="91.402352" style="stroke: #000000; stroke-width: 0.8"/>
      </g>
     </g>
     <g id="text_38">
      <!-- 1.4 -->
      <g transform="translate(381.4576 95.201571) scale(0.1 -0.1)">
       <use xlink:href="#DejaVuSerif-31"/>
       <use xlink:href="#DejaVuSerif-2e" x="63.623047"/>
       <use xlink:href="#DejaVuSerif-34" x="95.410156"/>
      </g>
     </g>
    </g>
    <g id="ytick_24">
     <g id="line2d_37">
      <g>
       <use xlink:href="#me6eed299cd" x="374.4576" y="60.356253" style="stroke: #000000; stroke-width: 0.8"/>
      </g>
     </g>
     <g id="text_39">
      <!-- 1.6 -->
      <g transform="translate(381.4576 64.155472) scale(0.1 -0.1)">
       <use xlink:href="#DejaVuSerif-31"/>
       <use xlink:href="#DejaVuSerif-2e" x="63.623047"/>
       <use xlink:href="#DejaVuSerif-36" x="95.410156"/>
      </g>
     </g>
    </g>
   </g>
   <g id="LineCollection_1"/>
   <g id="patch_4">
    <path d="M 361.152 307.584 
L 367.8048 307.584 
L 374.4576 307.584 
L 374.4576 41.472 
L 367.8048 41.472 
L 361.152 41.472 
L 361.152 307.584 
z
" style="fill: none"/>
   </g>
  </g>
 </g>
 <defs>
  <clipPath id="p7bdb4acc9d">
   <rect x="57.6" y="41.472" width="285.696" height="266.112"/>
  </clipPath>
  <clipPath id="p7053d9f6d3">
   <rect x="361.152" y="41.472" width="13.3056" height="266.112"/>
  </clipPath>
 </defs>
</svg>
