<?xml version="1.0" encoding="utf-8" standalone="no"?>
<!DOCTYPE svg PUBLIC "-//W3C//DTD SVG 1.1//EN"
  "http://www.w3.org/Graphics/SVG/1.1/DTD/svg11.dtd">
<svg xmlns:xlink="http://www.w3.org/1999/xlink" width="412.940313pt" height="326.905125pt" viewBox="0 0 412.940313 326.905125" xmlns="http://www.w3.org/2000/svg" version="1.1">
 <metadata>
  <rdf:RDF xmlns:dc="http://purl.org/dc/elements/1.1/" xmlns:cc="http://creativecommons.org/ns#" xmlns:rdf="http://www.w3.org/1999/02/22-rdf-syntax-ns#">
   <cc:Work>
    <dc:type rdf:resource="http://purl.org/dc/dcmitype/StillImage"/>
    <dc:date>2024-01-29T17:23:17.971201</dc:date>
    <dc:format>image/svg+xml</dc:format>
    <dc:creator>
     <cc:Agent>
      <dc:title>Matplotlib v3.7.1, https://matplotlib.org/</dc:title>
     </cc:Agent>
    </dc:creator>
   </cc:Work>
  </rdf:RDF>
 </metadata>
 <defs>
  <style type="text/css">*{stroke-linejoin: round; stroke-linecap: butt}</style>
 </defs>
 <g id="figure_1">
  <g id="patch_1">
   <path d="M 0 326.905125 
L 412.940313 326.905125 
L 412.940313 0 
L 0 0 
z
" style="fill: #ffffff"/>
  </g>
  <g id="axes_1">
   <g id="patch_2">
    <path d="M 48.620313 273.312 
L 405.740313 273.312 
L 405.740313 7.2 
L 48.620313 7.2 
z
" style="fill: #ffffff"/>
   </g>
   <g id="patch_3">
    <path d="M 84.332313 313.184623 
L 84.332313 313.184623 
L 84.332313 313.184623 
L 84.332313 313.184623 
z
" clip-path="url(#p64201d133e)" style="fill: #b4d4df; stroke: #737373; stroke-linejoin: miter"/>
   </g>
   <g id="patch_4">
    <path d="M 84.332313 313.184623 
L 84.332313 313.184623 
L 84.332313 313.184623 
L 84.332313 313.184623 
z
" clip-path="url(#p64201d133e)" style="fill: #9ce29c; stroke: #737373; stroke-linejoin: miter"/>
   </g>
   <g id="matplotlib.axis_1">
    <g id="xtick_1">
     <g id="line2d_1">
      <defs>
       <path id="mffc6a04b4f" d="M 0 0 
L 0 3.5 
" style="stroke: #000000; stroke-width: 0.8"/>
      </defs>
      <g>
       <use xlink:href="#mffc6a04b4f" x="84.332313" y="273.312" style="stroke: #000000; stroke-width: 0.8"/>
      </g>
     </g>
     <g id="text_1">
      <!-- SVM+ -->
      <g transform="translate(69.233875 287.910437) scale(0.1 -0.1)">
       <defs>
        <path id="DejaVuSans-53" d="M 3425 4513 
L 3425 3897 
Q 3066 4069 2747 4153 
Q 2428 4238 2131 4238 
Q 1616 4238 1336 4038 
Q 1056 3838 1056 3469 
Q 1056 3159 1242 3001 
Q 1428 2844 1947 2747 
L 2328 2669 
Q 3034 2534 3370 2195 
Q 3706 1856 3706 1288 
Q 3706 609 3251 259 
Q 2797 -91 1919 -91 
Q 1588 -91 1214 -16 
Q 841 59 441 206 
L 441 856 
Q 825 641 1194 531 
Q 1563 422 1919 422 
Q 2459 422 2753 634 
Q 3047 847 3047 1241 
Q 3047 1584 2836 1778 
Q 2625 1972 2144 2069 
L 1759 2144 
Q 1053 2284 737 2584 
Q 422 2884 422 3419 
Q 422 4038 858 4394 
Q 1294 4750 2059 4750 
Q 2388 4750 2728 4690 
Q 3069 4631 3425 4513 
z
" transform="scale(0.015625)"/>
        <path id="DejaVuSans-56" d="M 1831 0 
L 50 4666 
L 709 4666 
L 2188 738 
L 3669 4666 
L 4325 4666 
L 2547 0 
L 1831 0 
z
" transform="scale(0.015625)"/>
        <path id="DejaVuSans-4d" d="M 628 4666 
L 1569 4666 
L 2759 1491 
L 3956 4666 
L 4897 4666 
L 4897 0 
L 4281 0 
L 4281 4097 
L 3078 897 
L 2444 897 
L 1241 4097 
L 1241 0 
L 628 0 
L 628 4666 
z
" transform="scale(0.015625)"/>
        <path id="DejaVuSans-2b" d="M 2944 4013 
L 2944 2272 
L 4684 2272 
L 4684 1741 
L 2944 1741 
L 2944 0 
L 2419 0 
L 2419 1741 
L 678 1741 
L 678 2272 
L 2419 2272 
L 2419 4013 
L 2944 4013 
z
" transform="scale(0.015625)"/>
       </defs>
       <use xlink:href="#DejaVuSans-53"/>
       <use xlink:href="#DejaVuSans-56" x="63.476562"/>
       <use xlink:href="#DejaVuSans-4d" x="131.884766"/>
       <use xlink:href="#DejaVuSans-2b" x="218.164062"/>
      </g>
      <!-- ProtBERT -->
      <g transform="translate(61.687 299.10825) scale(0.1 -0.1)">
       <defs>
        <path id="DejaVuSans-50" d="M 1259 4147 
L 1259 2394 
L 2053 2394 
Q 2494 2394 2734 2622 
Q 2975 2850 2975 3272 
Q 2975 3691 2734 3919 
Q 2494 4147 2053 4147 
L 1259 4147 
z
M 628 4666 
L 2053 4666 
Q 2838 4666 3239 4311 
Q 3641 3956 3641 3272 
Q 3641 2581 3239 2228 
Q 2838 1875 2053 1875 
L 1259 1875 
L 1259 0 
L 628 0 
L 628 4666 
z
" transform="scale(0.015625)"/>
        <path id="DejaVuSans-72" d="M 2631 2963 
Q 2534 3019 2420 3045 
Q 2306 3072 2169 3072 
Q 1681 3072 1420 2755 
Q 1159 2438 1159 1844 
L 1159 0 
L 581 0 
L 581 3500 
L 1159 3500 
L 1159 2956 
Q 1341 3275 1631 3429 
Q 1922 3584 2338 3584 
Q 2397 3584 2469 3576 
Q 2541 3569 2628 3553 
L 2631 2963 
z
" transform="scale(0.015625)"/>
        <path id="DejaVuSans-6f" d="M 1959 3097 
Q 1497 3097 1228 2736 
Q 959 2375 959 1747 
Q 959 1119 1226 758 
Q 1494 397 1959 397 
Q 2419 397 2687 759 
Q 2956 1122 2956 1747 
Q 2956 2369 2687 2733 
Q 2419 3097 1959 3097 
z
M 1959 3584 
Q 2709 3584 3137 3096 
Q 3566 2609 3566 1747 
Q 3566 888 3137 398 
Q 2709 -91 1959 -91 
Q 1206 -91 779 398 
Q 353 888 353 1747 
Q 353 2609 779 3096 
Q 1206 3584 1959 3584 
z
" transform="scale(0.015625)"/>
        <path id="DejaVuSans-74" d="M 1172 4494 
L 1172 3500 
L 2356 3500 
L 2356 3053 
L 1172 3053 
L 1172 1153 
Q 1172 725 1289 603 
Q 1406 481 1766 481 
L 2356 481 
L 2356 0 
L 1766 0 
Q 1100 0 847 248 
Q 594 497 594 1153 
L 594 3053 
L 172 3053 
L 172 3500 
L 594 3500 
L 594 4494 
L 1172 4494 
z
" transform="scale(0.015625)"/>
        <path id="DejaVuSans-42" d="M 1259 2228 
L 1259 519 
L 2272 519 
Q 2781 519 3026 730 
Q 3272 941 3272 1375 
Q 3272 1813 3026 2020 
Q 2781 2228 2272 2228 
L 1259 2228 
z
M 1259 4147 
L 1259 2741 
L 2194 2741 
Q 2656 2741 2882 2914 
Q 3109 3088 3109 3444 
Q 3109 3797 2882 3972 
Q 2656 4147 2194 4147 
L 1259 4147 
z
M 628 4666 
L 2241 4666 
Q 2963 4666 3353 4366 
Q 3744 4066 3744 3513 
Q 3744 3084 3544 2831 
Q 3344 2578 2956 2516 
Q 3422 2416 3680 2098 
Q 3938 1781 3938 1306 
Q 3938 681 3513 340 
Q 3088 0 2303 0 
L 628 0 
L 628 4666 
z
" transform="scale(0.015625)"/>
        <path id="DejaVuSans-45" d="M 628 4666 
L 3578 4666 
L 3578 4134 
L 1259 4134 
L 1259 2753 
L 3481 2753 
L 3481 2222 
L 1259 2222 
L 1259 531 
L 3634 531 
L 3634 0 
L 628 0 
L 628 4666 
z
" transform="scale(0.015625)"/>
        <path id="DejaVuSans-52" d="M 2841 2188 
Q 3044 2119 3236 1894 
Q 3428 1669 3622 1275 
L 4263 0 
L 3584 0 
L 2988 1197 
Q 2756 1666 2539 1819 
Q 2322 1972 1947 1972 
L 1259 1972 
L 1259 0 
L 628 0 
L 628 4666 
L 2053 4666 
Q 2853 4666 3247 4331 
Q 3641 3997 3641 3322 
Q 3641 2881 3436 2590 
Q 3231 2300 2841 2188 
z
M 1259 4147 
L 1259 2491 
L 2053 2491 
Q 2509 2491 2742 2702 
Q 2975 2913 2975 3322 
Q 2975 3731 2742 3939 
Q 2509 4147 2053 4147 
L 1259 4147 
z
" transform="scale(0.015625)"/>
        <path id="DejaVuSans-54" d="M -19 4666 
L 3928 4666 
L 3928 4134 
L 2272 4134 
L 2272 0 
L 1638 0 
L 1638 4134 
L -19 4134 
L -19 4666 
z
" transform="scale(0.015625)"/>
       </defs>
       <use xlink:href="#DejaVuSans-50"/>
       <use xlink:href="#DejaVuSans-72" x="58.552734"/>
       <use xlink:href="#DejaVuSans-6f" x="97.416016"/>
       <use xlink:href="#DejaVuSans-74" x="158.597656"/>
       <use xlink:href="#DejaVuSans-42" x="197.806641"/>
       <use xlink:href="#DejaVuSans-45" x="266.410156"/>
       <use xlink:href="#DejaVuSans-52" x="329.59375"/>
       <use xlink:href="#DejaVuSans-54" x="391.826172"/>
      </g>
     </g>
    </g>
    <g id="xtick_2">
     <g id="line2d_2">
      <g>
       <use xlink:href="#mffc6a04b4f" x="155.756313" y="273.312" style="stroke: #000000; stroke-width: 0.8"/>
      </g>
     </g>
     <g id="text_2">
      <!-- RF+ -->
      <g transform="translate(145.216469 287.910437) scale(0.1 -0.1)">
       <defs>
        <path id="DejaVuSans-46" d="M 628 4666 
L 3309 4666 
L 3309 4134 
L 1259 4134 
L 1259 2759 
L 3109 2759 
L 3109 2228 
L 1259 2228 
L 1259 0 
L 628 0 
L 628 4666 
z
" transform="scale(0.015625)"/>
       </defs>
       <use xlink:href="#DejaVuSans-52"/>
       <use xlink:href="#DejaVuSans-46" x="69.482422"/>
       <use xlink:href="#DejaVuSans-2b" x="127.001953"/>
      </g>
      <!-- ProtBERT -->
      <g transform="translate(133.111 299.10825) scale(0.1 -0.1)">
       <use xlink:href="#DejaVuSans-50"/>
       <use xlink:href="#DejaVuSans-72" x="58.552734"/>
       <use xlink:href="#DejaVuSans-6f" x="97.416016"/>
       <use xlink:href="#DejaVuSans-74" x="158.597656"/>
       <use xlink:href="#DejaVuSans-42" x="197.806641"/>
       <use xlink:href="#DejaVuSans-45" x="266.410156"/>
       <use xlink:href="#DejaVuSans-52" x="329.59375"/>
       <use xlink:href="#DejaVuSans-54" x="391.826172"/>
      </g>
     </g>
    </g>
    <g id="xtick_3">
     <g id="line2d_3">
      <g>
       <use xlink:href="#mffc6a04b4f" x="227.180313" y="273.312" style="stroke: #000000; stroke-width: 0.8"/>
      </g>
     </g>
     <g id="text_3">
      <!-- DT+ -->
      <g transform="translate(216.086563 287.910437) scale(0.1 -0.1)">
       <defs>
        <path id="DejaVuSans-44" d="M 1259 4147 
L 1259 519 
L 2022 519 
Q 2988 519 3436 956 
Q 3884 1394 3884 2338 
Q 3884 3275 3436 3711 
Q 2988 4147 2022 4147 
L 1259 4147 
z
M 628 4666 
L 1925 4666 
Q 3281 4666 3915 4102 
Q 4550 3538 4550 2338 
Q 4550 1131 3912 565 
Q 3275 0 1925 0 
L 628 0 
L 628 4666 
z
" transform="scale(0.015625)"/>
       </defs>
       <use xlink:href="#DejaVuSans-44"/>
       <use xlink:href="#DejaVuSans-54" x="77.001953"/>
       <use xlink:href="#DejaVuSans-2b" x="138.085938"/>
      </g>
      <!-- ProtBERT -->
      <g transform="translate(204.535 299.10825) scale(0.1 -0.1)">
       <use xlink:href="#DejaVuSans-50"/>
       <use xlink:href="#DejaVuSans-72" x="58.552734"/>
       <use xlink:href="#DejaVuSans-6f" x="97.416016"/>
       <use xlink:href="#DejaVuSans-74" x="158.597656"/>
       <use xlink:href="#DejaVuSans-42" x="197.806641"/>
       <use xlink:href="#DejaVuSans-45" x="266.410156"/>
       <use xlink:href="#DejaVuSans-52" x="329.59375"/>
       <use xlink:href="#DejaVuSans-54" x="391.826172"/>
      </g>
     </g>
    </g>
    <g id="xtick_4">
     <g id="line2d_4">
      <g>
       <use xlink:href="#mffc6a04b4f" x="298.604312" y="273.312" style="stroke: #000000; stroke-width: 0.8"/>
      </g>
     </g>
     <g id="text_4">
      <!-- KNN+ -->
      <g transform="translate(283.654313 287.910437) scale(0.1 -0.1)">
       <defs>
        <path id="DejaVuSans-4b" d="M 628 4666 
L 1259 4666 
L 1259 2694 
L 3353 4666 
L 4166 4666 
L 1850 2491 
L 4331 0 
L 3500 0 
L 1259 2247 
L 1259 0 
L 628 0 
L 628 4666 
z
" transform="scale(0.015625)"/>
        <path id="DejaVuSans-4e" d="M 628 4666 
L 1478 4666 
L 3547 763 
L 3547 4666 
L 4159 4666 
L 4159 0 
L 3309 0 
L 1241 3903 
L 1241 0 
L 628 0 
L 628 4666 
z
" transform="scale(0.015625)"/>
       </defs>
       <use xlink:href="#DejaVuSans-4b"/>
       <use xlink:href="#DejaVuSans-4e" x="65.576172"/>
       <use xlink:href="#DejaVuSans-4e" x="140.380859"/>
       <use xlink:href="#DejaVuSans-2b" x="215.185547"/>
      </g>
      <!-- ProtBERT -->
      <g transform="translate(275.959 299.10825) scale(0.1 -0.1)">
       <use xlink:href="#DejaVuSans-50"/>
       <use xlink:href="#DejaVuSans-72" x="58.552734"/>
       <use xlink:href="#DejaVuSans-6f" x="97.416016"/>
       <use xlink:href="#DejaVuSans-74" x="158.597656"/>
       <use xlink:href="#DejaVuSans-42" x="197.806641"/>
       <use xlink:href="#DejaVuSans-45" x="266.410156"/>
       <use xlink:href="#DejaVuSans-52" x="329.59375"/>
       <use xlink:href="#DejaVuSans-54" x="391.826172"/>
      </g>
     </g>
    </g>
    <g id="xtick_5">
     <g id="line2d_5">
      <g>
       <use xlink:href="#mffc6a04b4f" x="370.028313" y="273.312" style="stroke: #000000; stroke-width: 0.8"/>
      </g>
     </g>
     <g id="text_5">
      <!-- Proposed -->
      <g transform="translate(347.009563 287.910437) scale(0.1 -0.1)">
       <defs>
        <path id="DejaVuSans-70" d="M 1159 525 
L 1159 -1331 
L 581 -1331 
L 581 3500 
L 1159 3500 
L 1159 2969 
Q 1341 3281 1617 3432 
Q 1894 3584 2278 3584 
Q 2916 3584 3314 3078 
Q 3713 2572 3713 1747 
Q 3713 922 3314 415 
Q 2916 -91 2278 -91 
Q 1894 -91 1617 61 
Q 1341 213 1159 525 
z
M 3116 1747 
Q 3116 2381 2855 2742 
Q 2594 3103 2138 3103 
Q 1681 3103 1420 2742 
Q 1159 2381 1159 1747 
Q 1159 1113 1420 752 
Q 1681 391 2138 391 
Q 2594 391 2855 752 
Q 3116 1113 3116 1747 
z
" transform="scale(0.015625)"/>
        <path id="DejaVuSans-73" d="M 2834 3397 
L 2834 2853 
Q 2591 2978 2328 3040 
Q 2066 3103 1784 3103 
Q 1356 3103 1142 2972 
Q 928 2841 928 2578 
Q 928 2378 1081 2264 
Q 1234 2150 1697 2047 
L 1894 2003 
Q 2506 1872 2764 1633 
Q 3022 1394 3022 966 
Q 3022 478 2636 193 
Q 2250 -91 1575 -91 
Q 1294 -91 989 -36 
Q 684 19 347 128 
L 347 722 
Q 666 556 975 473 
Q 1284 391 1588 391 
Q 1994 391 2212 530 
Q 2431 669 2431 922 
Q 2431 1156 2273 1281 
Q 2116 1406 1581 1522 
L 1381 1569 
Q 847 1681 609 1914 
Q 372 2147 372 2553 
Q 372 3047 722 3315 
Q 1072 3584 1716 3584 
Q 2034 3584 2315 3537 
Q 2597 3491 2834 3397 
z
" transform="scale(0.015625)"/>
        <path id="DejaVuSans-65" d="M 3597 1894 
L 3597 1613 
L 953 1613 
Q 991 1019 1311 708 
Q 1631 397 2203 397 
Q 2534 397 2845 478 
Q 3156 559 3463 722 
L 3463 178 
Q 3153 47 2828 -22 
Q 2503 -91 2169 -91 
Q 1331 -91 842 396 
Q 353 884 353 1716 
Q 353 2575 817 3079 
Q 1281 3584 2069 3584 
Q 2775 3584 3186 3129 
Q 3597 2675 3597 1894 
z
M 3022 2063 
Q 3016 2534 2758 2815 
Q 2500 3097 2075 3097 
Q 1594 3097 1305 2825 
Q 1016 2553 972 2059 
L 3022 2063 
z
" transform="scale(0.015625)"/>
        <path id="DejaVuSans-64" d="M 2906 2969 
L 2906 4863 
L 3481 4863 
L 3481 0 
L 2906 0 
L 2906 525 
Q 2725 213 2448 61 
Q 2172 -91 1784 -91 
Q 1150 -91 751 415 
Q 353 922 353 1747 
Q 353 2572 751 3078 
Q 1150 3584 1784 3584 
Q 2172 3584 2448 3432 
Q 2725 3281 2906 2969 
z
M 947 1747 
Q 947 1113 1208 752 
Q 1469 391 1925 391 
Q 2381 391 2643 752 
Q 2906 1113 2906 1747 
Q 2906 2381 2643 2742 
Q 2381 3103 1925 3103 
Q 1469 3103 1208 2742 
Q 947 2381 947 1747 
z
" transform="scale(0.015625)"/>
       </defs>
       <use xlink:href="#DejaVuSans-50"/>
       <use xlink:href="#DejaVuSans-72" x="58.552734"/>
       <use xlink:href="#DejaVuSans-6f" x="97.416016"/>
       <use xlink:href="#DejaVuSans-70" x="158.597656"/>
       <use xlink:href="#DejaVuSans-6f" x="222.074219"/>
       <use xlink:href="#DejaVuSans-73" x="283.255859"/>
       <use xlink:href="#DejaVuSans-65" x="335.355469"/>
       <use xlink:href="#DejaVuSans-64" x="396.878906"/>
      </g>
      <!-- model -->
      <g transform="translate(354.458781 299.10825) scale(0.1 -0.1)">
       <defs>
        <path id="DejaVuSans-6d" d="M 3328 2828 
Q 3544 3216 3844 3400 
Q 4144 3584 4550 3584 
Q 5097 3584 5394 3201 
Q 5691 2819 5691 2113 
L 5691 0 
L 5113 0 
L 5113 2094 
Q 5113 2597 4934 2840 
Q 4756 3084 4391 3084 
Q 3944 3084 3684 2787 
Q 3425 2491 3425 1978 
L 3425 0 
L 2847 0 
L 2847 2094 
Q 2847 2600 2669 2842 
Q 2491 3084 2119 3084 
Q 1678 3084 1418 2786 
Q 1159 2488 1159 1978 
L 1159 0 
L 581 0 
L 581 3500 
L 1159 3500 
L 1159 2956 
Q 1356 3278 1631 3431 
Q 1906 3584 2284 3584 
Q 2666 3584 2933 3390 
Q 3200 3197 3328 2828 
z
" transform="scale(0.015625)"/>
        <path id="DejaVuSans-6c" d="M 603 4863 
L 1178 4863 
L 1178 0 
L 603 0 
L 603 4863 
z
" transform="scale(0.015625)"/>
       </defs>
       <use xlink:href="#DejaVuSans-6d"/>
       <use xlink:href="#DejaVuSans-6f" x="97.412109"/>
       <use xlink:href="#DejaVuSans-64" x="158.59375"/>
       <use xlink:href="#DejaVuSans-65" x="222.070312"/>
       <use xlink:href="#DejaVuSans-6c" x="283.59375"/>
      </g>
     </g>
    </g>
    <g id="text_6">
     <!-- Models -->
     <g transform="translate(200.753359 316.585594) scale(0.15 -0.15)">
      <use xlink:href="#DejaVuSans-4d"/>
      <use xlink:href="#DejaVuSans-6f" x="86.279297"/>
      <use xlink:href="#DejaVuSans-64" x="147.460938"/>
      <use xlink:href="#DejaVuSans-65" x="210.9375"/>
      <use xlink:href="#DejaVuSans-6c" x="272.460938"/>
      <use xlink:href="#DejaVuSans-73" x="300.244141"/>
     </g>
    </g>
   </g>
   <g id="matplotlib.axis_2">
    <g id="ytick_1">
     <g id="line2d_6">
      <defs>
       <path id="m99eaf03a6d" d="M 0 0 
L -3.5 0 
" style="stroke: #000000; stroke-width: 0.8"/>
      </defs>
      <g>
       <use xlink:href="#m99eaf03a6d" x="48.620313" y="271.177804" style="stroke: #000000; stroke-width: 0.8"/>
      </g>
     </g>
     <g id="text_7">
      <!-- 0.2 -->
      <g transform="translate(25.717188 274.977023) scale(0.1 -0.1)">
       <defs>
        <path id="DejaVuSans-30" d="M 2034 4250 
Q 1547 4250 1301 3770 
Q 1056 3291 1056 2328 
Q 1056 1369 1301 889 
Q 1547 409 2034 409 
Q 2525 409 2770 889 
Q 3016 1369 3016 2328 
Q 3016 3291 2770 3770 
Q 2525 4250 2034 4250 
z
M 2034 4750 
Q 2819 4750 3233 4129 
Q 3647 3509 3647 2328 
Q 3647 1150 3233 529 
Q 2819 -91 2034 -91 
Q 1250 -91 836 529 
Q 422 1150 422 2328 
Q 422 3509 836 4129 
Q 1250 4750 2034 4750 
z
" transform="scale(0.015625)"/>
        <path id="DejaVuSans-2e" d="M 684 794 
L 1344 794 
L 1344 0 
L 684 0 
L 684 794 
z
" transform="scale(0.015625)"/>
        <path id="DejaVuSans-32" d="M 1228 531 
L 3431 531 
L 3431 0 
L 469 0 
L 469 531 
Q 828 903 1448 1529 
Q 2069 2156 2228 2338 
Q 2531 2678 2651 2914 
Q 2772 3150 2772 3378 
Q 2772 3750 2511 3984 
Q 2250 4219 1831 4219 
Q 1534 4219 1204 4116 
Q 875 4013 500 3803 
L 500 4441 
Q 881 4594 1212 4672 
Q 1544 4750 1819 4750 
Q 2544 4750 2975 4387 
Q 3406 4025 3406 3419 
Q 3406 3131 3298 2873 
Q 3191 2616 2906 2266 
Q 2828 2175 2409 1742 
Q 1991 1309 1228 531 
z
" transform="scale(0.015625)"/>
       </defs>
       <use xlink:href="#DejaVuSans-30"/>
       <use xlink:href="#DejaVuSans-2e" x="63.623047"/>
       <use xlink:href="#DejaVuSans-32" x="95.410156"/>
      </g>
     </g>
    </g>
    <g id="ytick_2">
     <g id="line2d_7">
      <g>
       <use xlink:href="#m99eaf03a6d" x="48.620313" y="229.170984" style="stroke: #000000; stroke-width: 0.8"/>
      </g>
     </g>
     <g id="text_8">
      <!-- 0.4 -->
      <g transform="translate(25.717188 232.970203) scale(0.1 -0.1)">
       <defs>
        <path id="DejaVuSans-34" d="M 2419 4116 
L 825 1625 
L 2419 1625 
L 2419 4116 
z
M 2253 4666 
L 3047 4666 
L 3047 1625 
L 3713 1625 
L 3713 1100 
L 3047 1100 
L 3047 0 
L 2419 0 
L 2419 1100 
L 313 1100 
L 313 1709 
L 2253 4666 
z
" transform="scale(0.015625)"/>
       </defs>
       <use xlink:href="#DejaVuSans-30"/>
       <use xlink:href="#DejaVuSans-2e" x="63.623047"/>
       <use xlink:href="#DejaVuSans-34" x="95.410156"/>
      </g>
     </g>
    </g>
    <g id="ytick_3">
     <g id="line2d_8">
      <g>
       <use xlink:href="#m99eaf03a6d" x="48.620313" y="187.164165" style="stroke: #000000; stroke-width: 0.8"/>
      </g>
     </g>
     <g id="text_9">
      <!-- 0.6 -->
      <g transform="translate(25.717188 190.963384) scale(0.1 -0.1)">
       <defs>
        <path id="DejaVuSans-36" d="M 2113 2584 
Q 1688 2584 1439 2293 
Q 1191 2003 1191 1497 
Q 1191 994 1439 701 
Q 1688 409 2113 409 
Q 2538 409 2786 701 
Q 3034 994 3034 1497 
Q 3034 2003 2786 2293 
Q 2538 2584 2113 2584 
z
M 3366 4563 
L 3366 3988 
Q 3128 4100 2886 4159 
Q 2644 4219 2406 4219 
Q 1781 4219 1451 3797 
Q 1122 3375 1075 2522 
Q 1259 2794 1537 2939 
Q 1816 3084 2150 3084 
Q 2853 3084 3261 2657 
Q 3669 2231 3669 1497 
Q 3669 778 3244 343 
Q 2819 -91 2113 -91 
Q 1303 -91 875 529 
Q 447 1150 447 2328 
Q 447 3434 972 4092 
Q 1497 4750 2381 4750 
Q 2619 4750 2861 4703 
Q 3103 4656 3366 4563 
z
" transform="scale(0.015625)"/>
       </defs>
       <use xlink:href="#DejaVuSans-30"/>
       <use xlink:href="#DejaVuSans-2e" x="63.623047"/>
       <use xlink:href="#DejaVuSans-36" x="95.410156"/>
      </g>
     </g>
    </g>
    <g id="ytick_4">
     <g id="line2d_9">
      <g>
       <use xlink:href="#m99eaf03a6d" x="48.620313" y="145.157345" style="stroke: #000000; stroke-width: 0.8"/>
      </g>
     </g>
     <g id="text_10">
      <!-- 0.8 -->
      <g transform="translate(25.717188 148.956564) scale(0.1 -0.1)">
       <defs>
        <path id="DejaVuSans-38" d="M 2034 2216 
Q 1584 2216 1326 1975 
Q 1069 1734 1069 1313 
Q 1069 891 1326 650 
Q 1584 409 2034 409 
Q 2484 409 2743 651 
Q 3003 894 3003 1313 
Q 3003 1734 2745 1975 
Q 2488 2216 2034 2216 
z
M 1403 2484 
Q 997 2584 770 2862 
Q 544 3141 544 3541 
Q 544 4100 942 4425 
Q 1341 4750 2034 4750 
Q 2731 4750 3128 4425 
Q 3525 4100 3525 3541 
Q 3525 3141 3298 2862 
Q 3072 2584 2669 2484 
Q 3125 2378 3379 2068 
Q 3634 1759 3634 1313 
Q 3634 634 3220 271 
Q 2806 -91 2034 -91 
Q 1263 -91 848 271 
Q 434 634 434 1313 
Q 434 1759 690 2068 
Q 947 2378 1403 2484 
z
M 1172 3481 
Q 1172 3119 1398 2916 
Q 1625 2713 2034 2713 
Q 2441 2713 2670 2916 
Q 2900 3119 2900 3481 
Q 2900 3844 2670 4047 
Q 2441 4250 2034 4250 
Q 1625 4250 1398 4047 
Q 1172 3844 1172 3481 
z
" transform="scale(0.015625)"/>
       </defs>
       <use xlink:href="#DejaVuSans-30"/>
       <use xlink:href="#DejaVuSans-2e" x="63.623047"/>
       <use xlink:href="#DejaVuSans-38" x="95.410156"/>
      </g>
     </g>
    </g>
    <g id="ytick_5">
     <g id="line2d_10">
      <g>
       <use xlink:href="#m99eaf03a6d" x="48.620313" y="103.150526" style="stroke: #000000; stroke-width: 0.8"/>
      </g>
     </g>
     <g id="text_11">
      <!-- 1.0 -->
      <g transform="translate(25.717188 106.949744) scale(0.1 -0.1)">
       <defs>
        <path id="DejaVuSans-31" d="M 794 531 
L 1825 531 
L 1825 4091 
L 703 3866 
L 703 4441 
L 1819 4666 
L 2450 4666 
L 2450 531 
L 3481 531 
L 3481 0 
L 794 0 
L 794 531 
z
" transform="scale(0.015625)"/>
       </defs>
       <use xlink:href="#DejaVuSans-31"/>
       <use xlink:href="#DejaVuSans-2e" x="63.623047"/>
       <use xlink:href="#DejaVuSans-30" x="95.410156"/>
      </g>
     </g>
    </g>
    <g id="ytick_6">
     <g id="line2d_11">
      <g>
       <use xlink:href="#m99eaf03a6d" x="48.620313" y="61.143706" style="stroke: #000000; stroke-width: 0.8"/>
      </g>
     </g>
     <g id="text_12">
      <!-- 1.2 -->
      <g transform="translate(25.717188 64.942925) scale(0.1 -0.1)">
       <use xlink:href="#DejaVuSans-31"/>
       <use xlink:href="#DejaVuSans-2e" x="63.623047"/>
       <use xlink:href="#DejaVuSans-32" x="95.410156"/>
      </g>
     </g>
    </g>
    <g id="ytick_7">
     <g id="line2d_12">
      <g>
       <use xlink:href="#m99eaf03a6d" x="48.620313" y="19.136887" style="stroke: #000000; stroke-width: 0.8"/>
      </g>
     </g>
     <g id="text_13">
      <!-- 1.4 -->
      <g transform="translate(25.717188 22.936105) scale(0.1 -0.1)">
       <use xlink:href="#DejaVuSans-31"/>
       <use xlink:href="#DejaVuSans-2e" x="63.623047"/>
       <use xlink:href="#DejaVuSans-34" x="95.410156"/>
      </g>
     </g>
    </g>
    <g id="text_14">
     <!-- MSE -->
     <g transform="translate(18.597656 156.227484) rotate(-90) scale(0.15 -0.15)">
      <use xlink:href="#DejaVuSans-4d"/>
      <use xlink:href="#DejaVuSans-53" x="86.279297"/>
      <use xlink:href="#DejaVuSans-45" x="149.755859"/>
     </g>
    </g>
   </g>
   <g id="patch_5">
    <path d="M 55.762712 178.520343 
L 84.332313 178.520343 
L 84.332313 156.947564 
L 55.762712 156.947564 
L 55.762712 178.520343 
z
" clip-path="url(#p64201d133e)" style="fill: #b4d4df; stroke: #737373; stroke-linejoin: miter"/>
   </g>
   <g id="line2d_13">
    <path d="M 70.047512 178.520343 
L 70.047512 184.024775 
" clip-path="url(#p64201d133e)" style="fill: none; stroke: #737373"/>
   </g>
   <g id="line2d_14">
    <path d="M 70.047512 156.947564 
L 70.047512 147.906472 
" clip-path="url(#p64201d133e)" style="fill: none; stroke: #737373"/>
   </g>
   <g id="line2d_15">
    <path d="M 62.905112 184.024775 
L 77.189913 184.024775 
" clip-path="url(#p64201d133e)" style="fill: none; stroke: #737373; stroke-linecap: square"/>
   </g>
   <g id="line2d_16">
    <path d="M 62.905112 147.906472 
L 77.189913 147.906472 
" clip-path="url(#p64201d133e)" style="fill: none; stroke: #737373; stroke-linecap: square"/>
   </g>
   <g id="patch_6">
    <path d="M 127.186713 149.338071 
L 155.756313 149.338071 
L 155.756313 135.979025 
L 127.186713 135.979025 
L 127.186713 149.338071 
z
" clip-path="url(#p64201d133e)" style="fill: #b4d4df; stroke: #737373; stroke-linejoin: miter"/>
   </g>
   <g id="line2d_17">
    <path d="M 141.471513 149.338071 
L 141.471513 149.682777 
" clip-path="url(#p64201d133e)" style="fill: none; stroke: #737373"/>
   </g>
   <g id="line2d_18">
    <path d="M 141.471513 135.979025 
L 141.471513 123.935692 
" clip-path="url(#p64201d133e)" style="fill: none; stroke: #737373"/>
   </g>
   <g id="line2d_19">
    <path d="M 134.329113 149.682777 
L 148.613913 149.682777 
" clip-path="url(#p64201d133e)" style="fill: none; stroke: #737373; stroke-linecap: square"/>
   </g>
   <g id="line2d_20">
    <path d="M 134.329113 123.935692 
L 148.613913 123.935692 
" clip-path="url(#p64201d133e)" style="fill: none; stroke: #737373; stroke-linecap: square"/>
   </g>
   <g id="patch_7">
    <path d="M 198.610713 46.472193 
L 227.180313 46.472193 
L 227.180313 20.127081 
L 198.610713 20.127081 
L 198.610713 46.472193 
z
" clip-path="url(#p64201d133e)" style="fill: #b4d4df; stroke: #737373; stroke-linejoin: miter"/>
   </g>
   <g id="line2d_21">
    <path d="M 212.895513 46.472193 
L 212.895513 50.90115 
" clip-path="url(#p64201d133e)" style="fill: none; stroke: #737373"/>
   </g>
   <g id="line2d_22">
    <path d="M 212.895513 20.127081 
L 212.895513 19.296 
" clip-path="url(#p64201d133e)" style="fill: none; stroke: #737373"/>
   </g>
   <g id="line2d_23">
    <path d="M 205.753113 50.90115 
L 220.037913 50.90115 
" clip-path="url(#p64201d133e)" style="fill: none; stroke: #737373; stroke-linecap: square"/>
   </g>
   <g id="line2d_24">
    <path d="M 205.753113 19.296 
L 220.037913 19.296 
" clip-path="url(#p64201d133e)" style="fill: none; stroke: #737373; stroke-linecap: square"/>
   </g>
   <g id="patch_8">
    <path d="M 270.034712 151.946702 
L 298.604312 151.946702 
L 298.604312 141.473278 
L 270.034712 141.473278 
L 270.034712 151.946702 
z
" clip-path="url(#p64201d133e)" style="fill: #b4d4df; stroke: #737373; stroke-linejoin: miter"/>
   </g>
   <g id="line2d_25">
    <path d="M 284.319512 151.946702 
L 284.319512 155.691181 
" clip-path="url(#p64201d133e)" style="fill: none; stroke: #737373"/>
   </g>
   <g id="line2d_26">
    <path d="M 284.319512 141.473278 
L 284.319512 126.130611 
" clip-path="url(#p64201d133e)" style="fill: none; stroke: #737373"/>
   </g>
   <g id="line2d_27">
    <path d="M 277.177113 155.691181 
L 291.461913 155.691181 
" clip-path="url(#p64201d133e)" style="fill: none; stroke: #737373; stroke-linecap: square"/>
   </g>
   <g id="line2d_28">
    <path d="M 277.177113 126.130611 
L 291.461913 126.130611 
" clip-path="url(#p64201d133e)" style="fill: none; stroke: #737373; stroke-linecap: square"/>
   </g>
   <g id="patch_9">
    <path d="M 341.458712 259.393358 
L 370.028313 259.393358 
L 370.028313 254.692426 
L 341.458712 254.692426 
L 341.458712 259.393358 
z
" clip-path="url(#p64201d133e)" style="fill: #b4d4df; stroke: #737373; stroke-linejoin: miter"/>
   </g>
   <g id="line2d_29">
    <path d="M 355.743513 259.393358 
L 355.743513 261.216 
" clip-path="url(#p64201d133e)" style="fill: none; stroke: #737373"/>
   </g>
   <g id="line2d_30">
    <path d="M 355.743513 254.692426 
L 355.743513 254.562967 
" clip-path="url(#p64201d133e)" style="fill: none; stroke: #737373"/>
   </g>
   <g id="line2d_31">
    <path d="M 348.601112 261.216 
L 362.885913 261.216 
" clip-path="url(#p64201d133e)" style="fill: none; stroke: #737373; stroke-linecap: square"/>
   </g>
   <g id="line2d_32">
    <path d="M 348.601112 254.562967 
L 362.885913 254.562967 
" clip-path="url(#p64201d133e)" style="fill: none; stroke: #737373; stroke-linecap: square"/>
   </g>
   <g id="patch_10">
    <path d="M 84.332313 176.555582 
L 112.901913 176.555582 
L 112.901913 165.246265 
L 84.332313 165.246265 
L 84.332313 176.555582 
z
" clip-path="url(#p64201d133e)" style="fill: #9ce29c; stroke: #737373; stroke-linejoin: miter"/>
   </g>
   <g id="line2d_33">
    <path d="M 98.617113 176.555582 
L 98.617113 178.677568 
" clip-path="url(#p64201d133e)" style="fill: none; stroke: #737373"/>
   </g>
   <g id="line2d_34">
    <path d="M 98.617113 165.246265 
L 98.617113 164.313326 
" clip-path="url(#p64201d133e)" style="fill: none; stroke: #737373"/>
   </g>
   <g id="line2d_35">
    <path d="M 91.474713 178.677568 
L 105.759512 178.677568 
" clip-path="url(#p64201d133e)" style="fill: none; stroke: #737373; stroke-linecap: square"/>
   </g>
   <g id="line2d_36">
    <path d="M 91.474713 164.313326 
L 105.759512 164.313326 
" clip-path="url(#p64201d133e)" style="fill: none; stroke: #737373; stroke-linecap: square"/>
   </g>
   <g id="patch_11">
    <path d="M 155.756313 147.291582 
L 184.325913 147.291582 
L 184.325913 140.546744 
L 155.756313 140.546744 
L 155.756313 147.291582 
z
" clip-path="url(#p64201d133e)" style="fill: #9ce29c; stroke: #737373; stroke-linejoin: miter"/>
   </g>
   <g id="line2d_37">
    <path d="M 170.041113 147.291582 
L 170.041113 148.252951 
" clip-path="url(#p64201d133e)" style="fill: none; stroke: #737373"/>
   </g>
   <g id="line2d_38">
    <path d="M 170.041113 140.546744 
L 170.041113 131.360245 
" clip-path="url(#p64201d133e)" style="fill: none; stroke: #737373"/>
   </g>
   <g id="line2d_39">
    <path d="M 162.898713 148.252951 
L 177.183513 148.252951 
" clip-path="url(#p64201d133e)" style="fill: none; stroke: #737373; stroke-linecap: square"/>
   </g>
   <g id="line2d_40">
    <path d="M 162.898713 131.360245 
L 177.183513 131.360245 
" clip-path="url(#p64201d133e)" style="fill: none; stroke: #737373; stroke-linecap: square"/>
   </g>
   <g id="patch_12">
    <path d="M 227.180313 53.738062 
L 255.749913 53.738062 
L 255.749913 33.938206 
L 227.180313 33.938206 
L 227.180313 53.738062 
z
" clip-path="url(#p64201d133e)" style="fill: #9ce29c; stroke: #737373; stroke-linejoin: miter"/>
   </g>
   <g id="line2d_41">
    <path d="M 241.465113 53.738062 
L 241.465113 59.953161 
" clip-path="url(#p64201d133e)" style="fill: none; stroke: #737373"/>
   </g>
   <g id="line2d_42">
    <path d="M 241.465113 33.938206 
L 241.465113 26.8477 
" clip-path="url(#p64201d133e)" style="fill: none; stroke: #737373"/>
   </g>
   <g id="line2d_43">
    <path d="M 234.322713 59.953161 
L 248.607513 59.953161 
" clip-path="url(#p64201d133e)" style="fill: none; stroke: #737373; stroke-linecap: square"/>
   </g>
   <g id="line2d_44">
    <path d="M 234.322713 26.8477 
L 248.607513 26.8477 
" clip-path="url(#p64201d133e)" style="fill: none; stroke: #737373; stroke-linecap: square"/>
   </g>
   <g id="patch_13">
    <path d="M 298.604312 160.478512 
L 327.173913 160.478512 
L 327.173913 145.822705 
L 298.604312 145.822705 
L 298.604312 160.478512 
z
" clip-path="url(#p64201d133e)" style="fill: #9ce29c; stroke: #737373; stroke-linejoin: miter"/>
   </g>
   <g id="line2d_45">
    <path d="M 312.889113 160.478512 
L 312.889113 160.544042 
" clip-path="url(#p64201d133e)" style="fill: none; stroke: #737373"/>
   </g>
   <g id="line2d_46">
    <path d="M 312.889113 145.822705 
L 312.889113 131.573499 
" clip-path="url(#p64201d133e)" style="fill: none; stroke: #737373"/>
   </g>
   <g id="line2d_47">
    <path d="M 305.746713 160.544042 
L 320.031513 160.544042 
" clip-path="url(#p64201d133e)" style="fill: none; stroke: #737373; stroke-linecap: square"/>
   </g>
   <g id="line2d_48">
    <path d="M 305.746713 131.573499 
L 320.031513 131.573499 
" clip-path="url(#p64201d133e)" style="fill: none; stroke: #737373; stroke-linecap: square"/>
   </g>
   <g id="patch_14">
    <path d="M 370.028313 250.066321 
L 398.597913 250.066321 
L 398.597913 248.494403 
L 370.028313 248.494403 
L 370.028313 250.066321 
z
" clip-path="url(#p64201d133e)" style="fill: #9ce29c; stroke: #737373; stroke-linejoin: miter"/>
   </g>
   <g id="line2d_49">
    <path d="M 384.313113 250.066321 
L 384.313113 251.321321 
" clip-path="url(#p64201d133e)" style="fill: none; stroke: #737373"/>
   </g>
   <g id="line2d_50">
    <path d="M 384.313113 248.494403 
L 384.313113 248.360112 
" clip-path="url(#p64201d133e)" style="fill: none; stroke: #737373"/>
   </g>
   <g id="line2d_51">
    <path d="M 377.170713 251.321321 
L 391.455512 251.321321 
" clip-path="url(#p64201d133e)" style="fill: none; stroke: #737373; stroke-linecap: square"/>
   </g>
   <g id="line2d_52">
    <path d="M 377.170713 248.360112 
L 391.455512 248.360112 
" clip-path="url(#p64201d133e)" style="fill: none; stroke: #737373; stroke-linecap: square"/>
   </g>
   <g id="line2d_53">
    <path d="M 55.762712 164.774057 
L 84.332313 164.774057 
" clip-path="url(#p64201d133e)" style="fill: none; stroke: #737373"/>
   </g>
   <g id="line2d_54">
    <path d="M 127.186713 140.533881 
L 155.756313 140.533881 
" clip-path="url(#p64201d133e)" style="fill: none; stroke: #737373"/>
   </g>
   <g id="line2d_55">
    <path d="M 198.610713 44.642483 
L 227.180313 44.642483 
" clip-path="url(#p64201d133e)" style="fill: none; stroke: #737373"/>
   </g>
   <g id="line2d_56">
    <path d="M 270.034712 144.015908 
L 298.604312 144.015908 
" clip-path="url(#p64201d133e)" style="fill: none; stroke: #737373"/>
   </g>
   <g id="line2d_57">
    <path d="M 341.458712 256.341311 
L 370.028313 256.341311 
" clip-path="url(#p64201d133e)" style="fill: none; stroke: #737373"/>
   </g>
   <g id="line2d_58">
    <path d="M 84.332313 172.006538 
L 112.901913 172.006538 
" clip-path="url(#p64201d133e)" style="fill: none; stroke: #737373"/>
   </g>
   <g id="line2d_59">
    <path d="M 155.756313 145.502549 
L 184.325913 145.502549 
" clip-path="url(#p64201d133e)" style="fill: none; stroke: #737373"/>
   </g>
   <g id="line2d_60">
    <path d="M 227.180313 52.861173 
L 255.749913 52.861173 
" clip-path="url(#p64201d133e)" style="fill: none; stroke: #737373"/>
   </g>
   <g id="line2d_61">
    <path d="M 298.604312 159.597049 
L 327.173913 159.597049 
" clip-path="url(#p64201d133e)" style="fill: none; stroke: #737373"/>
   </g>
   <g id="line2d_62">
    <path d="M 370.028313 249.263321 
L 398.597913 249.263321 
" clip-path="url(#p64201d133e)" style="fill: none; stroke: #737373"/>
   </g>
   <g id="patch_15">
    <path d="M 48.620313 273.312 
L 48.620313 7.2 
" style="fill: none; stroke: #000000; stroke-width: 0.8; stroke-linejoin: miter; stroke-linecap: square"/>
   </g>
   <g id="patch_16">
    <path d="M 405.740313 273.312 
L 405.740313 7.2 
" style="fill: none; stroke: #000000; stroke-width: 0.8; stroke-linejoin: miter; stroke-linecap: square"/>
   </g>
   <g id="patch_17">
    <path d="M 48.620312 273.312 
L 405.740313 273.312 
" style="fill: none; stroke: #000000; stroke-width: 0.8; stroke-linejoin: miter; stroke-linecap: square"/>
   </g>
   <g id="patch_18">
    <path d="M 48.620312 7.2 
L 405.740313 7.2 
" style="fill: none; stroke: #000000; stroke-width: 0.8; stroke-linejoin: miter; stroke-linecap: square"/>
   </g>
   <g id="legend_1">
    <g id="patch_19">
     <path d="M 319.223125 59.234375 
L 398.740313 59.234375 
Q 400.740313 59.234375 400.740313 57.234375 
L 400.740313 14.2 
Q 400.740313 12.2 398.740313 12.2 
L 319.223125 12.2 
Q 317.223125 12.2 317.223125 14.2 
L 317.223125 57.234375 
Q 317.223125 59.234375 319.223125 59.234375 
z
" style="fill: #ffffff; opacity: 0.8; stroke: #cccccc; stroke-linejoin: miter"/>
    </g>
    <g id="text_15">
     <!-- species -->
     <g transform="translate(340.331719 23.798437) scale(0.1 -0.1)">
      <defs>
       <path id="DejaVuSerif-73" d="M 359 184 
L 359 959 
L 691 959 
Q 703 588 923 403 
Q 1144 219 1575 219 
Q 1963 219 2166 364 
Q 2369 509 2369 788 
Q 2369 1006 2220 1140 
Q 2072 1275 1594 1428 
L 1178 1569 
Q 750 1706 558 1912 
Q 366 2119 366 2438 
Q 366 2894 700 3153 
Q 1034 3413 1625 3413 
Q 1888 3413 2178 3344 
Q 2469 3275 2778 3144 
L 2778 2419 
L 2447 2419 
Q 2434 2741 2221 2922 
Q 2009 3103 1644 3103 
Q 1281 3103 1095 2975 
Q 909 2847 909 2591 
Q 909 2381 1050 2254 
Q 1191 2128 1613 1997 
L 2069 1856 
Q 2541 1709 2748 1489 
Q 2956 1269 2956 922 
Q 2956 450 2595 179 
Q 2234 -91 1600 -91 
Q 1278 -91 972 -22 
Q 666 47 359 184 
z
" transform="scale(0.015625)"/>
       <path id="DejaVuSerif-70" d="M 1313 1825 
L 1313 1497 
Q 1313 897 1542 583 
Q 1772 269 2209 269 
Q 2650 269 2876 622 
Q 3103 975 3103 1663 
Q 3103 2353 2876 2703 
Q 2650 3053 2209 3053 
Q 1772 3053 1542 2737 
Q 1313 2422 1313 1825 
z
M 738 2988 
L 184 2988 
L 184 3322 
L 1313 3322 
L 1313 2803 
Q 1481 3116 1742 3264 
Q 2003 3413 2388 3413 
Q 3000 3413 3387 2928 
Q 3775 2444 3775 1663 
Q 3775 881 3387 395 
Q 3000 -91 2388 -91 
Q 2003 -91 1742 57 
Q 1481 206 1313 519 
L 1313 -997 
L 1856 -997 
L 1856 -1331 
L 184 -1331 
L 184 -997 
L 738 -997 
L 738 2988 
z
" transform="scale(0.015625)"/>
       <path id="DejaVuSerif-65" d="M 3469 1600 
L 991 1600 
L 991 1575 
Q 991 903 1244 561 
Q 1497 219 1991 219 
Q 2369 219 2611 417 
Q 2853 616 2950 1006 
L 3413 1006 
Q 3275 459 2904 184 
Q 2534 -91 1931 -91 
Q 1203 -91 761 389 
Q 319 869 319 1663 
Q 319 2450 753 2931 
Q 1188 3413 1894 3413 
Q 2647 3413 3050 2948 
Q 3453 2484 3469 1600 
z
M 2791 1931 
Q 2772 2513 2545 2808 
Q 2319 3103 1894 3103 
Q 1497 3103 1269 2806 
Q 1041 2509 991 1931 
L 2791 1931 
z
" transform="scale(0.015625)"/>
       <path id="DejaVuSerif-63" d="M 3291 997 
Q 3169 466 2822 187 
Q 2475 -91 1925 -91 
Q 1200 -91 759 389 
Q 319 869 319 1663 
Q 319 2459 759 2936 
Q 1200 3413 1925 3413 
Q 2241 3413 2553 3339 
Q 2866 3266 3181 3116 
L 3181 2266 
L 2847 2266 
Q 2781 2703 2561 2903 
Q 2341 3103 1931 3103 
Q 1466 3103 1228 2742 
Q 991 2381 991 1663 
Q 991 944 1227 581 
Q 1463 219 1931 219 
Q 2303 219 2525 412 
Q 2747 606 2828 997 
L 3291 997 
z
" transform="scale(0.015625)"/>
       <path id="DejaVuSerif-69" d="M 622 4353 
Q 622 4497 726 4603 
Q 831 4709 978 4709 
Q 1122 4709 1226 4603 
Q 1331 4497 1331 4353 
Q 1331 4206 1228 4103 
Q 1125 4000 978 4000 
Q 831 4000 726 4103 
Q 622 4206 622 4353 
z
M 1356 331 
L 1900 331 
L 1900 0 
L 231 0 
L 231 331 
L 781 331 
L 781 2988 
L 231 2988 
L 231 3322 
L 1356 3322 
L 1356 331 
z
" transform="scale(0.015625)"/>
      </defs>
      <use xlink:href="#DejaVuSerif-73"/>
      <use xlink:href="#DejaVuSerif-70" x="51.318359"/>
      <use xlink:href="#DejaVuSerif-65" x="115.332031"/>
      <use xlink:href="#DejaVuSerif-63" x="174.511719"/>
      <use xlink:href="#DejaVuSerif-69" x="230.517578"/>
      <use xlink:href="#DejaVuSerif-65" x="262.5"/>
      <use xlink:href="#DejaVuSerif-73" x="321.679688"/>
     </g>
    </g>
    <g id="patch_20">
     <path d="M 321.223125 38.476562 
L 341.223125 38.476562 
L 341.223125 31.476562 
L 321.223125 31.476562 
z
" style="fill: #b4d4df; stroke: #737373; stroke-linejoin: miter"/>
    </g>
    <g id="text_16">
     <!-- E. coli -->
     <g transform="translate(349.223125 38.476562) scale(0.1 -0.1)">
      <defs>
       <path id="DejaVuSerif-45" d="M 353 0 
L 353 331 
L 947 331 
L 947 4331 
L 353 4331 
L 353 4666 
L 4109 4666 
L 4109 3628 
L 3725 3628 
L 3725 4281 
L 1581 4281 
L 1581 2719 
L 3109 2719 
L 3109 3303 
L 3494 3303 
L 3494 1753 
L 3109 1753 
L 3109 2338 
L 1581 2338 
L 1581 384 
L 3775 384 
L 3775 1038 
L 4159 1038 
L 4159 0 
L 353 0 
z
" transform="scale(0.015625)"/>
       <path id="DejaVuSerif-2e" d="M 603 325 
Q 603 500 722 622 
Q 841 744 1019 744 
Q 1191 744 1312 622 
Q 1434 500 1434 325 
Q 1434 153 1312 31 
Q 1191 -91 1019 -91 
Q 841 -91 722 29 
Q 603 150 603 325 
z
" transform="scale(0.015625)"/>
       <path id="DejaVuSerif-20" transform="scale(0.015625)"/>
       <path id="DejaVuSerif-6f" d="M 1925 219 
Q 2388 219 2623 584 
Q 2859 950 2859 1663 
Q 2859 2375 2623 2739 
Q 2388 3103 1925 3103 
Q 1463 3103 1227 2739 
Q 991 2375 991 1663 
Q 991 950 1228 584 
Q 1466 219 1925 219 
z
M 1925 -91 
Q 1200 -91 759 389 
Q 319 869 319 1663 
Q 319 2456 758 2934 
Q 1197 3413 1925 3413 
Q 2653 3413 3092 2934 
Q 3531 2456 3531 1663 
Q 3531 869 3092 389 
Q 2653 -91 1925 -91 
z
" transform="scale(0.015625)"/>
       <path id="DejaVuSerif-6c" d="M 1313 331 
L 1856 331 
L 1856 0 
L 184 0 
L 184 331 
L 738 331 
L 738 4531 
L 184 4531 
L 184 4863 
L 1313 4863 
L 1313 331 
z
" transform="scale(0.015625)"/>
      </defs>
      <use xlink:href="#DejaVuSerif-45"/>
      <use xlink:href="#DejaVuSerif-2e" x="72.998047"/>
      <use xlink:href="#DejaVuSerif-20" x="104.785156"/>
      <use xlink:href="#DejaVuSerif-63" x="136.572266"/>
      <use xlink:href="#DejaVuSerif-6f" x="192.578125"/>
      <use xlink:href="#DejaVuSerif-6c" x="252.783203"/>
      <use xlink:href="#DejaVuSerif-69" x="284.765625"/>
     </g>
    </g>
    <g id="patch_21">
     <path d="M 321.223125 53.154687 
L 341.223125 53.154687 
L 341.223125 46.154687 
L 321.223125 46.154687 
z
" style="fill: #9ce29c; stroke: #737373; stroke-linejoin: miter"/>
    </g>
    <g id="text_17">
     <!-- S. aureus -->
     <g transform="translate(349.223125 53.154687) scale(0.1 -0.1)">
      <defs>
       <path id="DejaVuSerif-53" d="M 594 225 
L 594 1288 
L 953 1284 
Q 969 753 1261 498 
Q 1553 244 2150 244 
Q 2706 244 2998 464 
Q 3291 684 3291 1106 
Q 3291 1444 3114 1625 
Q 2938 1806 2369 1978 
L 1753 2163 
Q 1084 2366 811 2669 
Q 538 2972 538 3500 
Q 538 4094 959 4422 
Q 1381 4750 2144 4750 
Q 2469 4750 2856 4679 
Q 3244 4609 3681 4475 
L 3681 3481 
L 3328 3481 
Q 3275 3975 2998 4195 
Q 2722 4416 2156 4416 
Q 1663 4416 1405 4214 
Q 1147 4013 1147 3628 
Q 1147 3294 1340 3103 
Q 1534 2913 2163 2725 
L 2741 2553 
Q 3375 2363 3645 2067 
Q 3916 1772 3916 1275 
Q 3916 597 3481 253 
Q 3047 -91 2188 -91 
Q 1803 -91 1404 -12 
Q 1006 66 594 225 
z
" transform="scale(0.015625)"/>
       <path id="DejaVuSerif-61" d="M 2547 1044 
L 2547 1747 
L 1806 1747 
Q 1378 1747 1168 1562 
Q 959 1378 959 997 
Q 959 650 1171 447 
Q 1384 244 1747 244 
Q 2106 244 2326 466 
Q 2547 688 2547 1044 
z
M 3122 2075 
L 3122 331 
L 3634 331 
L 3634 0 
L 2547 0 
L 2547 359 
Q 2356 128 2106 18 
Q 1856 -91 1522 -91 
Q 969 -91 644 203 
Q 319 497 319 997 
Q 319 1513 691 1797 
Q 1063 2081 1741 2081 
L 2547 2081 
L 2547 2309 
Q 2547 2688 2317 2895 
Q 2088 3103 1672 3103 
Q 1328 3103 1125 2947 
Q 922 2791 872 2484 
L 575 2484 
L 575 3156 
Q 875 3284 1158 3348 
Q 1441 3413 1709 3413 
Q 2400 3413 2761 3070 
Q 3122 2728 3122 2075 
z
" transform="scale(0.015625)"/>
       <path id="DejaVuSerif-75" d="M 2266 3322 
L 3341 3322 
L 3341 331 
L 3884 331 
L 3884 0 
L 2766 0 
L 2766 588 
Q 2606 256 2353 82 
Q 2100 -91 1766 -91 
Q 1213 -91 952 223 
Q 691 538 691 1209 
L 691 2988 
L 172 2988 
L 172 3322 
L 1269 3322 
L 1269 1388 
Q 1269 781 1417 556 
Q 1566 331 1947 331 
Q 2347 331 2556 625 
Q 2766 919 2766 1478 
L 2766 2988 
L 2266 2988 
L 2266 3322 
z
" transform="scale(0.015625)"/>
       <path id="DejaVuSerif-72" d="M 3059 3328 
L 3059 2497 
L 2728 2497 
Q 2713 2744 2591 2866 
Q 2469 2988 2234 2988 
Q 1809 2988 1582 2694 
Q 1356 2400 1356 1850 
L 1356 331 
L 2022 331 
L 2022 0 
L 263 0 
L 263 331 
L 781 331 
L 781 2994 
L 231 2994 
L 231 3322 
L 1356 3322 
L 1356 2731 
Q 1525 3078 1790 3245 
Q 2056 3413 2438 3413 
Q 2578 3413 2733 3391 
Q 2888 3369 3059 3328 
z
" transform="scale(0.015625)"/>
      </defs>
      <use xlink:href="#DejaVuSerif-53"/>
      <use xlink:href="#DejaVuSerif-2e" x="64.880859"/>
      <use xlink:href="#DejaVuSerif-20" x="96.667969"/>
      <use xlink:href="#DejaVuSerif-61" x="128.455078"/>
      <use xlink:href="#DejaVuSerif-75" x="188.074219"/>
      <use xlink:href="#DejaVuSerif-72" x="252.478516"/>
      <use xlink:href="#DejaVuSerif-65" x="300.28125"/>
      <use xlink:href="#DejaVuSerif-75" x="359.460938"/>
      <use xlink:href="#DejaVuSerif-73" x="423.865234"/>
     </g>
    </g>
   </g>
  </g>
 </g>
 <defs>
  <clipPath id="p64201d133e">
   <rect x="48.620313" y="7.2" width="357.12" height="266.112"/>
  </clipPath>
 </defs>
</svg>
