<?xml version="1.0" encoding="utf-8" standalone="no"?>
<!DOCTYPE svg PUBLIC "-//W3C//DTD SVG 1.1//EN"
  "http://www.w3.org/Graphics/SVG/1.1/DTD/svg11.dtd">
<svg xmlns:xlink="http://www.w3.org/1999/xlink" width="412.940313pt" height="326.905125pt" viewBox="0 0 412.940313 326.905125" xmlns="http://www.w3.org/2000/svg" version="1.1">
 <metadata>
  <rdf:RDF xmlns:dc="http://purl.org/dc/elements/1.1/" xmlns:cc="http://creativecommons.org/ns#" xmlns:rdf="http://www.w3.org/1999/02/22-rdf-syntax-ns#">
   <cc:Work>
    <dc:type rdf:resource="http://purl.org/dc/dcmitype/StillImage"/>
    <dc:date>2024-01-29T17:23:22.380181</dc:date>
    <dc:format>image/svg+xml</dc:format>
    <dc:creator>
     <cc:Agent>
      <dc:title>Matplotlib v3.7.1, https://matplotlib.org/</dc:title>
     </cc:Agent>
    </dc:creator>
   </cc:Work>
  </rdf:RDF>
 </metadata>
 <defs>
  <style type="text/css">*{stroke-linejoin: round; stroke-linecap: butt}</style>
 </defs>
 <g id="figure_1">
  <g id="patch_1">
   <path d="M 0 326.905125 
L 412.940313 326.905125 
L 412.940313 0 
L 0 0 
z
" style="fill: #ffffff"/>
  </g>
  <g id="axes_1">
   <g id="patch_2">
    <path d="M 48.620313 273.312 
L 405.740313 273.312 
L 405.740313 7.2 
L 48.620313 7.2 
z
" style="fill: #ffffff"/>
   </g>
   <g id="patch_3">
    <path d="M 74.128884 465.633768 
L 74.128884 465.633768 
L 74.128884 465.633768 
L 74.128884 465.633768 
z
" clip-path="url(#p4f1db05a1a)" style="fill: #b4d4df; stroke: #737373; stroke-linejoin: miter"/>
   </g>
   <g id="patch_4">
    <path d="M 74.128884 465.633768 
L 74.128884 465.633768 
L 74.128884 465.633768 
L 74.128884 465.633768 
z
" clip-path="url(#p4f1db05a1a)" style="fill: #9ce29c; stroke: #737373; stroke-linejoin: miter"/>
   </g>
   <g id="matplotlib.axis_1">
    <g id="xtick_1">
     <g id="line2d_1">
      <defs>
       <path id="mb37454477f" d="M 0 0 
L 0 3.5 
" style="stroke: #000000; stroke-width: 0.8"/>
      </defs>
      <g>
       <use xlink:href="#mb37454477f" x="74.128884" y="273.312" style="stroke: #000000; stroke-width: 0.8"/>
      </g>
     </g>
     <g id="text_1">
      <!-- SVM -->
      <g transform="translate(61.973415 287.910438) scale(0.1 -0.1)">
       <defs>
        <path id="DejaVuSerif-53" d="M 594 225 
L 594 1288 
L 953 1284 
Q 969 753 1261 498 
Q 1553 244 2150 244 
Q 2706 244 2998 464 
Q 3291 684 3291 1106 
Q 3291 1444 3114 1625 
Q 2938 1806 2369 1978 
L 1753 2163 
Q 1084 2366 811 2669 
Q 538 2972 538 3500 
Q 538 4094 959 4422 
Q 1381 4750 2144 4750 
Q 2469 4750 2856 4679 
Q 3244 4609 3681 4475 
L 3681 3481 
L 3328 3481 
Q 3275 3975 2998 4195 
Q 2722 4416 2156 4416 
Q 1663 4416 1405 4214 
Q 1147 4013 1147 3628 
Q 1147 3294 1340 3103 
Q 1534 2913 2163 2725 
L 2741 2553 
Q 3375 2363 3645 2067 
Q 3916 1772 3916 1275 
Q 3916 597 3481 253 
Q 3047 -91 2188 -91 
Q 1803 -91 1404 -12 
Q 1006 66 594 225 
z
" transform="scale(0.015625)"/>
        <path id="DejaVuSerif-56" d="M 1119 4331 
L 2497 750 
L 3872 4331 
L 3347 4331 
L 3347 4666 
L 4716 4666 
L 4716 4331 
L 4263 4331 
L 2597 0 
L 2059 0 
L 403 4331 
L -63 4331 
L -63 4666 
L 1638 4666 
L 1638 4331 
L 1119 4331 
z
" transform="scale(0.015625)"/>
        <path id="DejaVuSerif-4d" d="M 353 0 
L 353 331 
L 947 331 
L 947 4331 
L 319 4331 
L 319 4666 
L 1678 4666 
L 3316 1344 
L 4953 4666 
L 6228 4666 
L 6228 4331 
L 5606 4331 
L 5606 331 
L 6203 331 
L 6203 0 
L 4378 0 
L 4378 331 
L 4972 331 
L 4972 3938 
L 3372 684 
L 2931 684 
L 1331 3938 
L 1331 331 
L 1925 331 
L 1925 0 
L 353 0 
z
" transform="scale(0.015625)"/>
       </defs>
       <use xlink:href="#DejaVuSerif-53"/>
       <use xlink:href="#DejaVuSerif-56" x="68.505859"/>
       <use xlink:href="#DejaVuSerif-4d" x="140.722656"/>
      </g>
     </g>
    </g>
    <g id="xtick_2">
     <g id="line2d_2">
      <g>
       <use xlink:href="#mb37454477f" x="125.146027" y="273.312" style="stroke: #000000; stroke-width: 0.8"/>
      </g>
     </g>
     <g id="text_2">
      <!-- RF -->
      <g transform="translate(117.911652 287.910438) scale(0.1 -0.1)">
       <defs>
        <path id="DejaVuSerif-52" d="M 3066 2316 
Q 3284 2256 3442 2114 
Q 3600 1972 3725 1716 
L 4403 331 
L 4972 331 
L 4972 0 
L 3872 0 
L 3144 1484 
Q 2934 1916 2759 2042 
Q 2584 2169 2278 2169 
L 1581 2169 
L 1581 331 
L 2241 331 
L 2241 0 
L 353 0 
L 353 331 
L 947 331 
L 947 4331 
L 353 4331 
L 353 4666 
L 2719 4666 
Q 3400 4666 3770 4341 
Q 4141 4016 4141 3419 
Q 4141 2938 3870 2661 
Q 3600 2384 3066 2316 
z
M 1581 2503 
L 2503 2503 
Q 2975 2503 3200 2726 
Q 3425 2950 3425 3419 
Q 3425 3888 3200 4109 
Q 2975 4331 2503 4331 
L 1581 4331 
L 1581 2503 
z
" transform="scale(0.015625)"/>
        <path id="DejaVuSerif-46" d="M 353 0 
L 353 331 
L 947 331 
L 947 4331 
L 353 4331 
L 353 4666 
L 4172 4666 
L 4172 3628 
L 3788 3628 
L 3788 4281 
L 1581 4281 
L 1581 2719 
L 3175 2719 
L 3175 3303 
L 3559 3303 
L 3559 1753 
L 3175 1753 
L 3175 2338 
L 1581 2338 
L 1581 331 
L 2328 331 
L 2328 0 
L 353 0 
z
" transform="scale(0.015625)"/>
       </defs>
       <use xlink:href="#DejaVuSerif-52"/>
       <use xlink:href="#DejaVuSerif-46" x="75.292969"/>
      </g>
     </g>
    </g>
    <g id="xtick_3">
     <g id="line2d_3">
      <g>
       <use xlink:href="#mb37454477f" x="176.16317" y="273.312" style="stroke: #000000; stroke-width: 0.8"/>
      </g>
     </g>
     <g id="text_3">
      <!-- DT -->
      <g transform="translate(168.81942 287.910438) scale(0.1 -0.1)">
       <defs>
        <path id="DejaVuSerif-44" d="M 1581 331 
L 2163 331 
Q 3072 331 3558 850 
Q 4044 1369 4044 2338 
Q 4044 3306 3559 3818 
Q 3075 4331 2163 4331 
L 1581 4331 
L 1581 331 
z
M 353 0 
L 353 331 
L 947 331 
L 947 4331 
L 353 4331 
L 353 4666 
L 2209 4666 
Q 3416 4666 4089 4050 
Q 4763 3434 4763 2338 
Q 4763 1238 4088 619 
Q 3413 0 2209 0 
L 353 0 
z
" transform="scale(0.015625)"/>
        <path id="DejaVuSerif-54" d="M 1222 0 
L 1222 331 
L 1819 331 
L 1819 4294 
L 447 4294 
L 447 3566 
L 63 3566 
L 63 4666 
L 4206 4666 
L 4206 3566 
L 3822 3566 
L 3822 4294 
L 2450 4294 
L 2450 331 
L 3047 331 
L 3047 0 
L 1222 0 
z
" transform="scale(0.015625)"/>
       </defs>
       <use xlink:href="#DejaVuSerif-44"/>
       <use xlink:href="#DejaVuSerif-54" x="80.175781"/>
      </g>
     </g>
    </g>
    <g id="xtick_4">
     <g id="line2d_4">
      <g>
       <use xlink:href="#mb37454477f" x="227.180313" y="273.312" style="stroke: #000000; stroke-width: 0.8"/>
      </g>
     </g>
     <g id="text_4">
      <!-- KNN -->
      <g transform="translate(214.695156 287.910438) scale(0.1 -0.1)">
       <defs>
        <path id="DejaVuSerif-4b" d="M 353 0 
L 353 331 
L 947 331 
L 947 4331 
L 353 4331 
L 353 4666 
L 2175 4666 
L 2175 4331 
L 1581 4331 
L 1581 2566 
L 3591 4331 
L 3084 4331 
L 3084 4666 
L 4634 4666 
L 4634 4331 
L 4109 4331 
L 2106 2572 
L 4347 331 
L 4878 331 
L 4878 0 
L 3794 0 
L 1581 2216 
L 1581 331 
L 2175 331 
L 2175 0 
L 353 0 
z
" transform="scale(0.015625)"/>
        <path id="DejaVuSerif-4e" d="M 313 0 
L 313 331 
L 941 331 
L 941 4331 
L 313 4331 
L 313 4666 
L 1509 4666 
L 4306 984 
L 4306 4331 
L 3681 4331 
L 3681 4666 
L 5319 4666 
L 5319 4331 
L 4691 4331 
L 4691 -91 
L 4313 -91 
L 1325 3841 
L 1325 331 
L 1953 331 
L 1953 0 
L 313 0 
z
" transform="scale(0.015625)"/>
       </defs>
       <use xlink:href="#DejaVuSerif-4b"/>
       <use xlink:href="#DejaVuSerif-4e" x="74.707031"/>
       <use xlink:href="#DejaVuSerif-4e" x="162.207031"/>
      </g>
     </g>
    </g>
    <g id="xtick_5">
     <g id="line2d_5">
      <g>
       <use xlink:href="#mb37454477f" x="278.197455" y="273.312" style="stroke: #000000; stroke-width: 0.8"/>
      </g>
     </g>
     <g id="text_5">
      <!-- MBC -->
      <g transform="translate(265.484174 287.910438) scale(0.1 -0.1)">
       <defs>
        <path id="DejaVuSerif-42" d="M 1581 331 
L 2516 331 
Q 3078 331 3337 575 
Q 3597 819 3597 1350 
Q 3597 1878 3339 2120 
Q 3081 2363 2516 2363 
L 1581 2363 
L 1581 331 
z
M 1581 2694 
L 2375 2694 
Q 2888 2694 3123 2891 
Q 3359 3088 3359 3513 
Q 3359 3941 3123 4136 
Q 2888 4331 2375 4331 
L 1581 4331 
L 1581 2694 
z
M 353 0 
L 353 331 
L 947 331 
L 947 4331 
L 353 4331 
L 353 4666 
L 2656 4666 
Q 3363 4666 3720 4377 
Q 4078 4088 4078 3513 
Q 4078 3097 3829 2850 
Q 3581 2603 3103 2547 
Q 3697 2472 4005 2167 
Q 4313 1863 4313 1350 
Q 4313 656 3875 328 
Q 3438 0 2509 0 
L 353 0 
z
" transform="scale(0.015625)"/>
        <path id="DejaVuSerif-43" d="M 4513 1234 
Q 4306 581 3820 245 
Q 3334 -91 2591 -91 
Q 2134 -91 1743 65 
Q 1353 222 1050 525 
Q 700 875 529 1320 
Q 359 1766 359 2328 
Q 359 3416 987 4083 
Q 1616 4750 2644 4750 
Q 3025 4750 3456 4650 
Q 3888 4550 4384 4347 
L 4384 3272 
L 4031 3272 
Q 3916 3859 3567 4137 
Q 3219 4416 2591 4416 
Q 1844 4416 1459 3886 
Q 1075 3356 1075 2328 
Q 1075 1303 1459 773 
Q 1844 244 2591 244 
Q 3113 244 3450 492 
Q 3788 741 3938 1234 
L 4513 1234 
z
" transform="scale(0.015625)"/>
       </defs>
       <use xlink:href="#DejaVuSerif-4d"/>
       <use xlink:href="#DejaVuSerif-42" x="102.392578"/>
       <use xlink:href="#DejaVuSerif-43" x="177.753906"/>
      </g>
     </g>
    </g>
    <g id="xtick_6">
     <g id="line2d_6">
      <g>
       <use xlink:href="#mb37454477f" x="329.214598" y="273.312" style="stroke: #000000; stroke-width: 0.8"/>
      </g>
     </g>
     <g id="text_6">
      <!-- MBC- -->
      <g transform="translate(314.811473 287.910438) scale(0.1 -0.1)">
       <defs>
        <path id="DejaVuSerif-2d" d="M 281 1959 
L 1881 1959 
L 1881 1472 
L 281 1472 
L 281 1959 
z
" transform="scale(0.015625)"/>
       </defs>
       <use xlink:href="#DejaVuSerif-4d"/>
       <use xlink:href="#DejaVuSerif-42" x="102.392578"/>
       <use xlink:href="#DejaVuSerif-43" x="177.753906"/>
       <use xlink:href="#DejaVuSerif-2d" x="254.267578"/>
      </g>
      <!-- Attention -->
      <g transform="translate(305.653661 299.10825) scale(0.1 -0.1)">
       <defs>
        <path id="DejaVuSerif-41" d="M 1281 1691 
L 2994 1691 
L 2138 3909 
L 1281 1691 
z
M -38 0 
L -38 331 
L 372 331 
L 2034 4666 
L 2559 4666 
L 4225 331 
L 4684 331 
L 4684 0 
L 2988 0 
L 2988 331 
L 3506 331 
L 3116 1356 
L 1153 1356 
L 763 331 
L 1275 331 
L 1275 0 
L -38 0 
z
" transform="scale(0.015625)"/>
        <path id="DejaVuSerif-74" d="M 691 2988 
L 184 2988 
L 184 3322 
L 691 3322 
L 691 4353 
L 1269 4353 
L 1269 3322 
L 2350 3322 
L 2350 2988 
L 1269 2988 
L 1269 878 
Q 1269 456 1350 337 
Q 1431 219 1650 219 
Q 1875 219 1978 351 
Q 2081 484 2088 781 
L 2522 781 
Q 2497 328 2275 118 
Q 2053 -91 1600 -91 
Q 1103 -91 897 129 
Q 691 350 691 878 
L 691 2988 
z
" transform="scale(0.015625)"/>
        <path id="DejaVuSerif-65" d="M 3469 1600 
L 991 1600 
L 991 1575 
Q 991 903 1244 561 
Q 1497 219 1991 219 
Q 2369 219 2611 417 
Q 2853 616 2950 1006 
L 3413 1006 
Q 3275 459 2904 184 
Q 2534 -91 1931 -91 
Q 1203 -91 761 389 
Q 319 869 319 1663 
Q 319 2450 753 2931 
Q 1188 3413 1894 3413 
Q 2647 3413 3050 2948 
Q 3453 2484 3469 1600 
z
M 2791 1931 
Q 2772 2513 2545 2808 
Q 2319 3103 1894 3103 
Q 1497 3103 1269 2806 
Q 1041 2509 991 1931 
L 2791 1931 
z
" transform="scale(0.015625)"/>
        <path id="DejaVuSerif-6e" d="M 263 0 
L 263 331 
L 781 331 
L 781 2988 
L 231 2988 
L 231 3322 
L 1356 3322 
L 1356 2731 
Q 1516 3069 1770 3241 
Q 2025 3413 2363 3413 
Q 2913 3413 3172 3097 
Q 3431 2781 3431 2113 
L 3431 331 
L 3944 331 
L 3944 0 
L 2356 0 
L 2356 331 
L 2853 331 
L 2853 1931 
Q 2853 2541 2703 2767 
Q 2553 2994 2175 2994 
Q 1775 2994 1565 2701 
Q 1356 2409 1356 1850 
L 1356 331 
L 1856 331 
L 1856 0 
L 263 0 
z
" transform="scale(0.015625)"/>
        <path id="DejaVuSerif-69" d="M 622 4353 
Q 622 4497 726 4603 
Q 831 4709 978 4709 
Q 1122 4709 1226 4603 
Q 1331 4497 1331 4353 
Q 1331 4206 1228 4103 
Q 1125 4000 978 4000 
Q 831 4000 726 4103 
Q 622 4206 622 4353 
z
M 1356 331 
L 1900 331 
L 1900 0 
L 231 0 
L 231 331 
L 781 331 
L 781 2988 
L 231 2988 
L 231 3322 
L 1356 3322 
L 1356 331 
z
" transform="scale(0.015625)"/>
        <path id="DejaVuSerif-6f" d="M 1925 219 
Q 2388 219 2623 584 
Q 2859 950 2859 1663 
Q 2859 2375 2623 2739 
Q 2388 3103 1925 3103 
Q 1463 3103 1227 2739 
Q 991 2375 991 1663 
Q 991 950 1228 584 
Q 1466 219 1925 219 
z
M 1925 -91 
Q 1200 -91 759 389 
Q 319 869 319 1663 
Q 319 2456 758 2934 
Q 1197 3413 1925 3413 
Q 2653 3413 3092 2934 
Q 3531 2456 3531 1663 
Q 3531 869 3092 389 
Q 2653 -91 1925 -91 
z
" transform="scale(0.015625)"/>
       </defs>
       <use xlink:href="#DejaVuSerif-41"/>
       <use xlink:href="#DejaVuSerif-74" x="70.466797"/>
       <use xlink:href="#DejaVuSerif-74" x="110.652344"/>
       <use xlink:href="#DejaVuSerif-65" x="150.837891"/>
       <use xlink:href="#DejaVuSerif-6e" x="210.017578"/>
       <use xlink:href="#DejaVuSerif-74" x="274.421875"/>
       <use xlink:href="#DejaVuSerif-69" x="314.607422"/>
       <use xlink:href="#DejaVuSerif-6f" x="346.589844"/>
       <use xlink:href="#DejaVuSerif-6e" x="406.794922"/>
      </g>
     </g>
    </g>
    <g id="xtick_7">
     <g id="line2d_7">
      <g>
       <use xlink:href="#mb37454477f" x="380.231741" y="273.312" style="stroke: #000000; stroke-width: 0.8"/>
      </g>
     </g>
     <g id="text_7">
      <!-- Proposed -->
      <g transform="translate(356.53096 287.910438) scale(0.1 -0.1)">
       <defs>
        <path id="DejaVuSerif-50" d="M 1581 2375 
L 2406 2375 
Q 2872 2375 3115 2626 
Q 3359 2878 3359 3353 
Q 3359 3831 3115 4081 
Q 2872 4331 2406 4331 
L 1581 4331 
L 1581 2375 
z
M 353 0 
L 353 331 
L 947 331 
L 947 4331 
L 353 4331 
L 353 4666 
L 2559 4666 
Q 3259 4666 3668 4311 
Q 4078 3956 4078 3353 
Q 4078 2753 3668 2397 
Q 3259 2041 2559 2041 
L 1581 2041 
L 1581 331 
L 2303 331 
L 2303 0 
L 353 0 
z
" transform="scale(0.015625)"/>
        <path id="DejaVuSerif-72" d="M 3059 3328 
L 3059 2497 
L 2728 2497 
Q 2713 2744 2591 2866 
Q 2469 2988 2234 2988 
Q 1809 2988 1582 2694 
Q 1356 2400 1356 1850 
L 1356 331 
L 2022 331 
L 2022 0 
L 263 0 
L 263 331 
L 781 331 
L 781 2994 
L 231 2994 
L 231 3322 
L 1356 3322 
L 1356 2731 
Q 1525 3078 1790 3245 
Q 2056 3413 2438 3413 
Q 2578 3413 2733 3391 
Q 2888 3369 3059 3328 
z
" transform="scale(0.015625)"/>
        <path id="DejaVuSerif-70" d="M 1313 1825 
L 1313 1497 
Q 1313 897 1542 583 
Q 1772 269 2209 269 
Q 2650 269 2876 622 
Q 3103 975 3103 1663 
Q 3103 2353 2876 2703 
Q 2650 3053 2209 3053 
Q 1772 3053 1542 2737 
Q 1313 2422 1313 1825 
z
M 738 2988 
L 184 2988 
L 184 3322 
L 1313 3322 
L 1313 2803 
Q 1481 3116 1742 3264 
Q 2003 3413 2388 3413 
Q 3000 3413 3387 2928 
Q 3775 2444 3775 1663 
Q 3775 881 3387 395 
Q 3000 -91 2388 -91 
Q 2003 -91 1742 57 
Q 1481 206 1313 519 
L 1313 -997 
L 1856 -997 
L 1856 -1331 
L 184 -1331 
L 184 -997 
L 738 -997 
L 738 2988 
z
" transform="scale(0.015625)"/>
        <path id="DejaVuSerif-73" d="M 359 184 
L 359 959 
L 691 959 
Q 703 588 923 403 
Q 1144 219 1575 219 
Q 1963 219 2166 364 
Q 2369 509 2369 788 
Q 2369 1006 2220 1140 
Q 2072 1275 1594 1428 
L 1178 1569 
Q 750 1706 558 1912 
Q 366 2119 366 2438 
Q 366 2894 700 3153 
Q 1034 3413 1625 3413 
Q 1888 3413 2178 3344 
Q 2469 3275 2778 3144 
L 2778 2419 
L 2447 2419 
Q 2434 2741 2221 2922 
Q 2009 3103 1644 3103 
Q 1281 3103 1095 2975 
Q 909 2847 909 2591 
Q 909 2381 1050 2254 
Q 1191 2128 1613 1997 
L 2069 1856 
Q 2541 1709 2748 1489 
Q 2956 1269 2956 922 
Q 2956 450 2595 179 
Q 2234 -91 1600 -91 
Q 1278 -91 972 -22 
Q 666 47 359 184 
z
" transform="scale(0.015625)"/>
        <path id="DejaVuSerif-64" d="M 3359 331 
L 3909 331 
L 3909 0 
L 2784 0 
L 2784 519 
Q 2616 206 2355 57 
Q 2094 -91 1709 -91 
Q 1097 -91 708 395 
Q 319 881 319 1663 
Q 319 2444 706 2928 
Q 1094 3413 1709 3413 
Q 2094 3413 2355 3264 
Q 2616 3116 2784 2803 
L 2784 4531 
L 2241 4531 
L 2241 4863 
L 3359 4863 
L 3359 331 
z
M 2784 1497 
L 2784 1825 
Q 2784 2422 2554 2737 
Q 2325 3053 1888 3053 
Q 1444 3053 1217 2703 
Q 991 2353 991 1663 
Q 991 975 1217 622 
Q 1444 269 1888 269 
Q 2325 269 2554 583 
Q 2784 897 2784 1497 
z
" transform="scale(0.015625)"/>
       </defs>
       <use xlink:href="#DejaVuSerif-50"/>
       <use xlink:href="#DejaVuSerif-72" x="67.285156"/>
       <use xlink:href="#DejaVuSerif-6f" x="115.087891"/>
       <use xlink:href="#DejaVuSerif-70" x="175.292969"/>
       <use xlink:href="#DejaVuSerif-6f" x="239.306641"/>
       <use xlink:href="#DejaVuSerif-73" x="299.511719"/>
       <use xlink:href="#DejaVuSerif-65" x="350.830078"/>
       <use xlink:href="#DejaVuSerif-64" x="410.009766"/>
      </g>
      <!-- model -->
      <g transform="translate(364.720804 299.10825) scale(0.1 -0.1)">
       <defs>
        <path id="DejaVuSerif-6d" d="M 3316 2675 
Q 3481 3041 3739 3227 
Q 3997 3413 4341 3413 
Q 4863 3413 5119 3089 
Q 5375 2766 5375 2113 
L 5375 331 
L 5894 331 
L 5894 0 
L 4300 0 
L 4300 331 
L 4800 331 
L 4800 2047 
Q 4800 2556 4650 2772 
Q 4500 2988 4153 2988 
Q 3769 2988 3567 2697 
Q 3366 2406 3366 1850 
L 3366 331 
L 3866 331 
L 3866 0 
L 2291 0 
L 2291 331 
L 2791 331 
L 2791 2069 
Q 2791 2566 2641 2777 
Q 2491 2988 2144 2988 
Q 1759 2988 1557 2697 
Q 1356 2406 1356 1850 
L 1356 331 
L 1856 331 
L 1856 0 
L 263 0 
L 263 331 
L 781 331 
L 781 2994 
L 231 2994 
L 231 3322 
L 1356 3322 
L 1356 2731 
Q 1516 3063 1762 3238 
Q 2009 3413 2322 3413 
Q 2709 3413 2968 3220 
Q 3228 3028 3316 2675 
z
" transform="scale(0.015625)"/>
        <path id="DejaVuSerif-6c" d="M 1313 331 
L 1856 331 
L 1856 0 
L 184 0 
L 184 331 
L 738 331 
L 738 4531 
L 184 4531 
L 184 4863 
L 1313 4863 
L 1313 331 
z
" transform="scale(0.015625)"/>
       </defs>
       <use xlink:href="#DejaVuSerif-6d"/>
       <use xlink:href="#DejaVuSerif-6f" x="94.824219"/>
       <use xlink:href="#DejaVuSerif-64" x="155.029297"/>
       <use xlink:href="#DejaVuSerif-65" x="219.042969"/>
       <use xlink:href="#DejaVuSerif-6c" x="278.222656"/>
      </g>
     </g>
    </g>
    <g id="text_8">
     <!-- Models -->
     <g transform="translate(199.498281 316.585594) scale(0.15 -0.15)">
      <use xlink:href="#DejaVuSerif-4d"/>
      <use xlink:href="#DejaVuSerif-6f" x="102.392578"/>
      <use xlink:href="#DejaVuSerif-64" x="162.597656"/>
      <use xlink:href="#DejaVuSerif-65" x="226.611328"/>
      <use xlink:href="#DejaVuSerif-6c" x="285.791016"/>
      <use xlink:href="#DejaVuSerif-73" x="317.773438"/>
     </g>
    </g>
   </g>
   <g id="matplotlib.axis_2">
    <g id="ytick_1">
     <g id="line2d_8">
      <defs>
       <path id="m76926721e9" d="M 0 0 
L -3.5 0 
" style="stroke: #000000; stroke-width: 0.8"/>
      </defs>
      <g>
       <use xlink:href="#m76926721e9" x="48.620313" y="244.228493" style="stroke: #000000; stroke-width: 0.8"/>
      </g>
     </g>
     <g id="text_9">
      <!-- 0.4 -->
      <g transform="translate(25.717188 248.027711) scale(0.1 -0.1)">
       <defs>
        <path id="DejaVuSerif-30" d="M 2034 219 
Q 2513 219 2750 744 
Q 2988 1269 2988 2328 
Q 2988 3391 2750 3916 
Q 2513 4441 2034 4441 
Q 1556 4441 1318 3916 
Q 1081 3391 1081 2328 
Q 1081 1269 1318 744 
Q 1556 219 2034 219 
z
M 2034 -91 
Q 1275 -91 848 546 
Q 422 1184 422 2328 
Q 422 3475 848 4112 
Q 1275 4750 2034 4750 
Q 2797 4750 3222 4112 
Q 3647 3475 3647 2328 
Q 3647 1184 3222 546 
Q 2797 -91 2034 -91 
z
" transform="scale(0.015625)"/>
        <path id="DejaVuSerif-2e" d="M 603 325 
Q 603 500 722 622 
Q 841 744 1019 744 
Q 1191 744 1312 622 
Q 1434 500 1434 325 
Q 1434 153 1312 31 
Q 1191 -91 1019 -91 
Q 841 -91 722 29 
Q 603 150 603 325 
z
" transform="scale(0.015625)"/>
        <path id="DejaVuSerif-34" d="M 2234 1581 
L 2234 4063 
L 641 1581 
L 2234 1581 
z
M 3609 0 
L 1484 0 
L 1484 331 
L 2234 331 
L 2234 1247 
L 197 1247 
L 197 1588 
L 2241 4750 
L 2859 4750 
L 2859 1581 
L 3750 1581 
L 3750 1247 
L 2859 1247 
L 2859 331 
L 3609 331 
L 3609 0 
z
" transform="scale(0.015625)"/>
       </defs>
       <use xlink:href="#DejaVuSerif-30"/>
       <use xlink:href="#DejaVuSerif-2e" x="63.623047"/>
       <use xlink:href="#DejaVuSerif-34" x="95.410156"/>
      </g>
     </g>
    </g>
    <g id="ytick_2">
     <g id="line2d_9">
      <g>
       <use xlink:href="#m76926721e9" x="48.620313" y="188.877174" style="stroke: #000000; stroke-width: 0.8"/>
      </g>
     </g>
     <g id="text_10">
      <!-- 0.5 -->
      <g transform="translate(25.717188 192.676393) scale(0.1 -0.1)">
       <defs>
        <path id="DejaVuSerif-35" d="M 3219 4666 
L 3219 4153 
L 1081 4153 
L 1081 2816 
Q 1244 2928 1461 2984 
Q 1678 3041 1947 3041 
Q 2703 3041 3140 2622 
Q 3578 2203 3578 1478 
Q 3578 738 3136 323 
Q 2694 -91 1894 -91 
Q 1572 -91 1234 -12 
Q 897 66 544 225 
L 544 1131 
L 897 1131 
Q 925 688 1179 453 
Q 1434 219 1894 219 
Q 2388 219 2653 544 
Q 2919 869 2919 1478 
Q 2919 2084 2655 2407 
Q 2391 2731 1894 2731 
Q 1613 2731 1398 2631 
Q 1184 2531 1019 2322 
L 750 2322 
L 750 4666 
L 3219 4666 
z
" transform="scale(0.015625)"/>
       </defs>
       <use xlink:href="#DejaVuSerif-30"/>
       <use xlink:href="#DejaVuSerif-2e" x="63.623047"/>
       <use xlink:href="#DejaVuSerif-35" x="95.410156"/>
      </g>
     </g>
    </g>
    <g id="ytick_3">
     <g id="line2d_10">
      <g>
       <use xlink:href="#m76926721e9" x="48.620313" y="133.525855" style="stroke: #000000; stroke-width: 0.8"/>
      </g>
     </g>
     <g id="text_11">
      <!-- 0.6 -->
      <g transform="translate(25.717188 137.325074) scale(0.1 -0.1)">
       <defs>
        <path id="DejaVuSerif-36" d="M 2094 219 
Q 2534 219 2771 542 
Q 3009 866 3009 1472 
Q 3009 2078 2771 2401 
Q 2534 2725 2094 2725 
Q 1647 2725 1412 2412 
Q 1178 2100 1178 1509 
Q 1178 888 1415 553 
Q 1653 219 2094 219 
z
M 1075 2569 
Q 1288 2803 1556 2918 
Q 1825 3034 2163 3034 
Q 2859 3034 3264 2615 
Q 3669 2197 3669 1472 
Q 3669 763 3233 336 
Q 2797 -91 2069 -91 
Q 1278 -91 853 498 
Q 428 1088 428 2181 
Q 428 3406 931 4078 
Q 1434 4750 2350 4750 
Q 2597 4750 2869 4703 
Q 3141 4656 3425 4563 
L 3425 3794 
L 3072 3794 
Q 3034 4109 2831 4275 
Q 2628 4441 2284 4441 
Q 1678 4441 1381 3981 
Q 1084 3522 1075 2569 
z
" transform="scale(0.015625)"/>
       </defs>
       <use xlink:href="#DejaVuSerif-30"/>
       <use xlink:href="#DejaVuSerif-2e" x="63.623047"/>
       <use xlink:href="#DejaVuSerif-36" x="95.410156"/>
      </g>
     </g>
    </g>
    <g id="ytick_4">
     <g id="line2d_11">
      <g>
       <use xlink:href="#m76926721e9" x="48.620313" y="78.174536" style="stroke: #000000; stroke-width: 0.8"/>
      </g>
     </g>
     <g id="text_12">
      <!-- 0.7 -->
      <g transform="translate(25.717188 81.973755) scale(0.1 -0.1)">
       <defs>
        <path id="DejaVuSerif-37" d="M 3609 4347 
L 1784 0 
L 1319 0 
L 3059 4153 
L 903 4153 
L 903 3578 
L 538 3578 
L 538 4666 
L 3609 4666 
L 3609 4347 
z
" transform="scale(0.015625)"/>
       </defs>
       <use xlink:href="#DejaVuSerif-30"/>
       <use xlink:href="#DejaVuSerif-2e" x="63.623047"/>
       <use xlink:href="#DejaVuSerif-37" x="95.410156"/>
      </g>
     </g>
    </g>
    <g id="ytick_5">
     <g id="line2d_12">
      <g>
       <use xlink:href="#m76926721e9" x="48.620313" y="22.823217" style="stroke: #000000; stroke-width: 0.8"/>
      </g>
     </g>
     <g id="text_13">
      <!-- 0.8 -->
      <g transform="translate(25.717188 26.622436) scale(0.1 -0.1)">
       <defs>
        <path id="DejaVuSerif-38" d="M 2981 1275 
Q 2981 1775 2732 2051 
Q 2484 2328 2034 2328 
Q 1584 2328 1336 2051 
Q 1088 1775 1088 1275 
Q 1088 772 1336 495 
Q 1584 219 2034 219 
Q 2484 219 2732 495 
Q 2981 772 2981 1275 
z
M 2853 3541 
Q 2853 3966 2637 4203 
Q 2422 4441 2034 4441 
Q 1650 4441 1433 4203 
Q 1216 3966 1216 3541 
Q 1216 3113 1433 2875 
Q 1650 2638 2034 2638 
Q 2422 2638 2637 2875 
Q 2853 3113 2853 3541 
z
M 2516 2484 
Q 3047 2413 3344 2092 
Q 3641 1772 3641 1275 
Q 3641 619 3225 264 
Q 2809 -91 2034 -91 
Q 1263 -91 845 264 
Q 428 619 428 1275 
Q 428 1772 725 2092 
Q 1022 2413 1556 2484 
Q 1084 2569 832 2842 
Q 581 3116 581 3541 
Q 581 4103 968 4426 
Q 1356 4750 2034 4750 
Q 2713 4750 3100 4426 
Q 3488 4103 3488 3541 
Q 3488 3116 3236 2842 
Q 2984 2569 2516 2484 
z
" transform="scale(0.015625)"/>
       </defs>
       <use xlink:href="#DejaVuSerif-30"/>
       <use xlink:href="#DejaVuSerif-2e" x="63.623047"/>
       <use xlink:href="#DejaVuSerif-38" x="95.410156"/>
      </g>
     </g>
    </g>
    <g id="text_14">
     <!-- PCC -->
     <g transform="translate(18.597656 156.779437) rotate(-90) scale(0.15 -0.15)">
      <use xlink:href="#DejaVuSerif-50"/>
      <use xlink:href="#DejaVuSerif-43" x="67.285156"/>
      <use xlink:href="#DejaVuSerif-43" x="143.798828"/>
     </g>
    </g>
   </g>
   <g id="patch_5">
    <path d="M 53.722027 94.042134 
L 74.128884 94.042134 
L 74.128884 74.652293 
L 53.722027 74.652293 
L 53.722027 94.042134 
z
" clip-path="url(#p4f1db05a1a)" style="fill: #b4d4df; stroke: #737373; stroke-linejoin: miter"/>
   </g>
   <g id="line2d_13">
    <path d="M 63.925455 94.042134 
L 63.925455 106.779142 
" clip-path="url(#p4f1db05a1a)" style="fill: none; stroke: #737373"/>
   </g>
   <g id="line2d_14">
    <path d="M 63.925455 74.652293 
L 63.925455 68.189074 
" clip-path="url(#p4f1db05a1a)" style="fill: none; stroke: #737373"/>
   </g>
   <g id="line2d_15">
    <path d="M 58.823741 106.779142 
L 69.02717 106.779142 
" clip-path="url(#p4f1db05a1a)" style="fill: none; stroke: #737373; stroke-linecap: square"/>
   </g>
   <g id="line2d_16">
    <path d="M 58.823741 68.189074 
L 69.02717 68.189074 
" clip-path="url(#p4f1db05a1a)" style="fill: none; stroke: #737373; stroke-linecap: square"/>
   </g>
   <g id="patch_6">
    <path d="M 104.73917 59.263084 
L 125.146027 59.263084 
L 125.146027 56.738747 
L 104.73917 56.738747 
L 104.73917 59.263084 
z
" clip-path="url(#p4f1db05a1a)" style="fill: #b4d4df; stroke: #737373; stroke-linejoin: miter"/>
   </g>
   <g id="line2d_17">
    <path d="M 114.942598 59.263084 
L 114.942598 59.263084 
" clip-path="url(#p4f1db05a1a)" style="fill: none; stroke: #737373"/>
   </g>
   <g id="line2d_18">
    <path d="M 114.942598 56.738747 
L 114.942598 53.964497 
" clip-path="url(#p4f1db05a1a)" style="fill: none; stroke: #737373"/>
   </g>
   <g id="line2d_19">
    <path d="M 109.840884 59.263084 
L 120.044313 59.263084 
" clip-path="url(#p4f1db05a1a)" style="fill: none; stroke: #737373; stroke-linecap: square"/>
   </g>
   <g id="line2d_20">
    <path d="M 109.840884 53.964497 
L 120.044313 53.964497 
" clip-path="url(#p4f1db05a1a)" style="fill: none; stroke: #737373; stroke-linecap: square"/>
   </g>
   <g id="patch_7">
    <path d="M 155.756313 177.163515 
L 176.16317 177.163515 
L 176.16317 148.315707 
L 155.756313 148.315707 
L 155.756313 177.163515 
z
" clip-path="url(#p4f1db05a1a)" style="fill: #b4d4df; stroke: #737373; stroke-linejoin: miter"/>
   </g>
   <g id="line2d_21">
    <path d="M 165.959741 177.163515 
L 165.959741 190.170951 
" clip-path="url(#p4f1db05a1a)" style="fill: none; stroke: #737373"/>
   </g>
   <g id="line2d_22">
    <path d="M 165.959741 148.315707 
L 165.959741 146.008566 
" clip-path="url(#p4f1db05a1a)" style="fill: none; stroke: #737373"/>
   </g>
   <g id="line2d_23">
    <path d="M 160.858027 190.170951 
L 171.061455 190.170951 
" clip-path="url(#p4f1db05a1a)" style="fill: none; stroke: #737373; stroke-linecap: square"/>
   </g>
   <g id="line2d_24">
    <path d="M 160.858027 146.008566 
L 171.061455 146.008566 
" clip-path="url(#p4f1db05a1a)" style="fill: none; stroke: #737373; stroke-linecap: square"/>
   </g>
   <g id="patch_8">
    <path d="M 206.773455 99.974196 
L 227.180313 99.974196 
L 227.180313 89.953185 
L 206.773455 89.953185 
L 206.773455 99.974196 
z
" clip-path="url(#p4f1db05a1a)" style="fill: #b4d4df; stroke: #737373; stroke-linejoin: miter"/>
   </g>
   <g id="line2d_25">
    <path d="M 216.976884 99.974196 
L 216.976884 107.825355 
" clip-path="url(#p4f1db05a1a)" style="fill: none; stroke: #737373"/>
   </g>
   <g id="line2d_26">
    <path d="M 216.976884 89.953185 
L 216.976884 77.642416 
" clip-path="url(#p4f1db05a1a)" style="fill: none; stroke: #737373"/>
   </g>
   <g id="line2d_27">
    <path d="M 211.87517 107.825355 
L 222.078598 107.825355 
" clip-path="url(#p4f1db05a1a)" style="fill: none; stroke: #737373; stroke-linecap: square"/>
   </g>
   <g id="line2d_28">
    <path d="M 211.87517 77.642416 
L 222.078598 77.642416 
" clip-path="url(#p4f1db05a1a)" style="fill: none; stroke: #737373; stroke-linecap: square"/>
   </g>
   <g id="patch_9">
    <path d="M 257.790598 60.185358 
L 278.197455 60.185358 
L 278.197455 48.893689 
L 257.790598 48.893689 
L 257.790598 60.185358 
z
" clip-path="url(#p4f1db05a1a)" style="fill: #b4d4df; stroke: #737373; stroke-linejoin: miter"/>
   </g>
   <g id="line2d_29">
    <path d="M 267.994027 60.185358 
L 267.994027 71.310973 
" clip-path="url(#p4f1db05a1a)" style="fill: none; stroke: #737373"/>
   </g>
   <g id="line2d_30">
    <path d="M 267.994027 48.893689 
L 267.994027 38.432289 
" clip-path="url(#p4f1db05a1a)" style="fill: none; stroke: #737373"/>
   </g>
   <g id="line2d_31">
    <path d="M 262.892313 71.310973 
L 273.095741 71.310973 
" clip-path="url(#p4f1db05a1a)" style="fill: none; stroke: #737373; stroke-linecap: square"/>
   </g>
   <g id="line2d_32">
    <path d="M 262.892313 38.432289 
L 273.095741 38.432289 
" clip-path="url(#p4f1db05a1a)" style="fill: none; stroke: #737373; stroke-linecap: square"/>
   </g>
   <g id="patch_10">
    <path d="M 308.807741 41.753368 
L 329.214598 41.753368 
L 329.214598 30.849159 
L 308.807741 30.849159 
L 308.807741 41.753368 
z
" clip-path="url(#p4f1db05a1a)" style="fill: #b4d4df; stroke: #737373; stroke-linejoin: miter"/>
   </g>
   <g id="line2d_33">
    <path d="M 319.01117 41.753368 
L 319.01117 55.148388 
" clip-path="url(#p4f1db05a1a)" style="fill: none; stroke: #737373"/>
   </g>
   <g id="line2d_34">
    <path d="M 319.01117 30.849159 
L 319.01117 27.085269 
" clip-path="url(#p4f1db05a1a)" style="fill: none; stroke: #737373"/>
   </g>
   <g id="line2d_35">
    <path d="M 313.909455 55.148388 
L 324.112884 55.148388 
" clip-path="url(#p4f1db05a1a)" style="fill: none; stroke: #737373; stroke-linecap: square"/>
   </g>
   <g id="line2d_36">
    <path d="M 313.909455 27.085269 
L 324.112884 27.085269 
" clip-path="url(#p4f1db05a1a)" style="fill: none; stroke: #737373; stroke-linecap: square"/>
   </g>
   <g id="patch_11">
    <path d="M 359.824884 31.659274 
L 380.231741 31.659274 
L 380.231741 20.996775 
L 359.824884 20.996775 
L 359.824884 31.659274 
z
" clip-path="url(#p4f1db05a1a)" style="fill: #b4d4df; stroke: #737373; stroke-linejoin: miter"/>
   </g>
   <g id="line2d_37">
    <path d="M 370.028313 31.659274 
L 370.028313 33.547359 
" clip-path="url(#p4f1db05a1a)" style="fill: none; stroke: #737373"/>
   </g>
   <g id="line2d_38">
    <path d="M 370.028313 20.996775 
L 370.028313 19.296 
" clip-path="url(#p4f1db05a1a)" style="fill: none; stroke: #737373"/>
   </g>
   <g id="line2d_39">
    <path d="M 364.926598 33.547359 
L 375.130027 33.547359 
" clip-path="url(#p4f1db05a1a)" style="fill: none; stroke: #737373; stroke-linecap: square"/>
   </g>
   <g id="line2d_40">
    <path d="M 364.926598 19.296 
L 375.130027 19.296 
" clip-path="url(#p4f1db05a1a)" style="fill: none; stroke: #737373; stroke-linecap: square"/>
   </g>
   <g id="patch_12">
    <path d="M 74.128884 157.533382 
L 94.535741 157.533382 
L 94.535741 148.089431 
L 74.128884 148.089431 
L 74.128884 157.533382 
z
" clip-path="url(#p4f1db05a1a)" style="fill: #9ce29c; stroke: #737373; stroke-linejoin: miter"/>
   </g>
   <g id="line2d_41">
    <path d="M 84.332313 157.533382 
L 84.332313 157.533382 
" clip-path="url(#p4f1db05a1a)" style="fill: none; stroke: #737373"/>
   </g>
   <g id="line2d_42">
    <path d="M 84.332313 148.089431 
L 84.332313 148.089431 
" clip-path="url(#p4f1db05a1a)" style="fill: none; stroke: #737373"/>
   </g>
   <g id="line2d_43">
    <path d="M 79.230598 157.533382 
L 89.434027 157.533382 
" clip-path="url(#p4f1db05a1a)" style="fill: none; stroke: #737373; stroke-linecap: square"/>
   </g>
   <g id="line2d_44">
    <path d="M 79.230598 148.089431 
L 89.434027 148.089431 
" clip-path="url(#p4f1db05a1a)" style="fill: none; stroke: #737373; stroke-linecap: square"/>
   </g>
   <g id="patch_13">
    <path d="M 125.146027 92.504228 
L 145.552884 92.504228 
L 145.552884 79.314402 
L 125.146027 79.314402 
L 125.146027 92.504228 
z
" clip-path="url(#p4f1db05a1a)" style="fill: #9ce29c; stroke: #737373; stroke-linejoin: miter"/>
   </g>
   <g id="line2d_45">
    <path d="M 135.349455 92.504228 
L 135.349455 97.67077 
" clip-path="url(#p4f1db05a1a)" style="fill: none; stroke: #737373"/>
   </g>
   <g id="line2d_46">
    <path d="M 135.349455 79.314402 
L 135.349455 66.96006 
" clip-path="url(#p4f1db05a1a)" style="fill: none; stroke: #737373"/>
   </g>
   <g id="line2d_47">
    <path d="M 130.247741 97.67077 
L 140.45117 97.67077 
" clip-path="url(#p4f1db05a1a)" style="fill: none; stroke: #737373; stroke-linecap: square"/>
   </g>
   <g id="line2d_48">
    <path d="M 130.247741 66.96006 
L 140.45117 66.96006 
" clip-path="url(#p4f1db05a1a)" style="fill: none; stroke: #737373; stroke-linecap: square"/>
   </g>
   <g id="patch_14">
    <path d="M 176.16317 232.103717 
L 196.570027 232.103717 
L 196.570027 203.557177 
L 176.16317 203.557177 
L 176.16317 232.103717 
z
" clip-path="url(#p4f1db05a1a)" style="fill: #9ce29c; stroke: #737373; stroke-linejoin: miter"/>
   </g>
   <g id="line2d_49">
    <path d="M 186.366598 232.103717 
L 186.366598 261.216 
" clip-path="url(#p4f1db05a1a)" style="fill: none; stroke: #737373"/>
   </g>
   <g id="line2d_50">
    <path d="M 186.366598 203.557177 
L 186.366598 177.340995 
" clip-path="url(#p4f1db05a1a)" style="fill: none; stroke: #737373"/>
   </g>
   <g id="line2d_51">
    <path d="M 181.264884 261.216 
L 191.468313 261.216 
" clip-path="url(#p4f1db05a1a)" style="fill: none; stroke: #737373; stroke-linecap: square"/>
   </g>
   <g id="line2d_52">
    <path d="M 181.264884 177.340995 
L 191.468313 177.340995 
" clip-path="url(#p4f1db05a1a)" style="fill: none; stroke: #737373; stroke-linecap: square"/>
   </g>
   <g id="patch_15">
    <path d="M 227.180313 139.47408 
L 247.58717 139.47408 
L 247.58717 129.085655 
L 227.180313 129.085655 
L 227.180313 139.47408 
z
" clip-path="url(#p4f1db05a1a)" style="fill: #9ce29c; stroke: #737373; stroke-linejoin: miter"/>
   </g>
   <g id="line2d_53">
    <path d="M 237.383741 139.47408 
L 237.383741 139.47408 
" clip-path="url(#p4f1db05a1a)" style="fill: none; stroke: #737373"/>
   </g>
   <g id="line2d_54">
    <path d="M 237.383741 129.085655 
L 237.383741 128.010776 
" clip-path="url(#p4f1db05a1a)" style="fill: none; stroke: #737373"/>
   </g>
   <g id="line2d_55">
    <path d="M 232.282027 139.47408 
L 242.485455 139.47408 
" clip-path="url(#p4f1db05a1a)" style="fill: none; stroke: #737373; stroke-linecap: square"/>
   </g>
   <g id="line2d_56">
    <path d="M 232.282027 128.010776 
L 242.485455 128.010776 
" clip-path="url(#p4f1db05a1a)" style="fill: none; stroke: #737373; stroke-linecap: square"/>
   </g>
   <g id="patch_16">
    <path d="M 278.197455 92.399825 
L 298.604312 92.399825 
L 298.604312 66.329354 
L 278.197455 66.329354 
L 278.197455 92.399825 
z
" clip-path="url(#p4f1db05a1a)" style="fill: #9ce29c; stroke: #737373; stroke-linejoin: miter"/>
   </g>
   <g id="line2d_57">
    <path d="M 288.400884 92.399825 
L 288.400884 121.791375 
" clip-path="url(#p4f1db05a1a)" style="fill: none; stroke: #737373"/>
   </g>
   <g id="line2d_58">
    <path d="M 288.400884 66.329354 
L 288.400884 54.982334 
" clip-path="url(#p4f1db05a1a)" style="fill: none; stroke: #737373"/>
   </g>
   <g id="line2d_59">
    <path d="M 283.29917 121.791375 
L 293.502598 121.791375 
" clip-path="url(#p4f1db05a1a)" style="fill: none; stroke: #737373; stroke-linecap: square"/>
   </g>
   <g id="line2d_60">
    <path d="M 283.29917 54.982334 
L 293.502598 54.982334 
" clip-path="url(#p4f1db05a1a)" style="fill: none; stroke: #737373; stroke-linecap: square"/>
   </g>
   <g id="patch_17">
    <path d="M 329.214598 91.846312 
L 349.621455 91.846312 
L 349.621455 56.08936 
L 329.214598 56.08936 
L 329.214598 91.846312 
z
" clip-path="url(#p4f1db05a1a)" style="fill: #9ce29c; stroke: #737373; stroke-linejoin: miter"/>
   </g>
   <g id="line2d_61">
    <path d="M 339.418027 91.846312 
L 339.418027 93.838959 
" clip-path="url(#p4f1db05a1a)" style="fill: none; stroke: #737373"/>
   </g>
   <g id="line2d_62">
    <path d="M 339.418027 56.08936 
L 339.418027 41.144504 
" clip-path="url(#p4f1db05a1a)" style="fill: none; stroke: #737373"/>
   </g>
   <g id="line2d_63">
    <path d="M 334.316313 93.838959 
L 344.519741 93.838959 
" clip-path="url(#p4f1db05a1a)" style="fill: none; stroke: #737373; stroke-linecap: square"/>
   </g>
   <g id="line2d_64">
    <path d="M 334.316313 41.144504 
L 344.519741 41.144504 
" clip-path="url(#p4f1db05a1a)" style="fill: none; stroke: #737373; stroke-linecap: square"/>
   </g>
   <g id="patch_18">
    <path d="M 380.231741 51.067427 
L 400.638598 51.067427 
L 400.638598 44.362785 
L 380.231741 44.362785 
L 380.231741 51.067427 
z
" clip-path="url(#p4f1db05a1a)" style="fill: #9ce29c; stroke: #737373; stroke-linejoin: miter"/>
   </g>
   <g id="line2d_65">
    <path d="M 390.43517 51.067427 
L 390.43517 54.120594 
" clip-path="url(#p4f1db05a1a)" style="fill: none; stroke: #737373"/>
   </g>
   <g id="line2d_66">
    <path d="M 390.43517 44.362785 
L 390.43517 44.192793 
" clip-path="url(#p4f1db05a1a)" style="fill: none; stroke: #737373"/>
   </g>
   <g id="line2d_67">
    <path d="M 385.333455 54.120594 
L 395.536884 54.120594 
" clip-path="url(#p4f1db05a1a)" style="fill: none; stroke: #737373; stroke-linecap: square"/>
   </g>
   <g id="line2d_68">
    <path d="M 385.333455 44.192793 
L 395.536884 44.192793 
" clip-path="url(#p4f1db05a1a)" style="fill: none; stroke: #737373; stroke-linecap: square"/>
   </g>
   <g id="line2d_69">
    <path d="M 53.722027 93.910055 
L 74.128884 93.910055 
" clip-path="url(#p4f1db05a1a)" style="fill: none; stroke: #737373"/>
   </g>
   <g id="line2d_70">
    <path d="M 104.73917 58.102406 
L 125.146027 58.102406 
" clip-path="url(#p4f1db05a1a)" style="fill: none; stroke: #737373"/>
   </g>
   <g id="line2d_71">
    <path d="M 155.756313 165.938536 
L 176.16317 165.938536 
" clip-path="url(#p4f1db05a1a)" style="fill: none; stroke: #737373"/>
   </g>
   <g id="line2d_72">
    <path d="M 206.773455 99.046822 
L 227.180313 99.046822 
" clip-path="url(#p4f1db05a1a)" style="fill: none; stroke: #737373"/>
   </g>
   <g id="line2d_73">
    <path d="M 257.790598 52.934335 
L 278.197455 52.934335 
" clip-path="url(#p4f1db05a1a)" style="fill: none; stroke: #737373"/>
   </g>
   <g id="line2d_74">
    <path d="M 308.807741 40.590991 
L 329.214598 40.590991 
" clip-path="url(#p4f1db05a1a)" style="fill: none; stroke: #737373"/>
   </g>
   <g id="line2d_75">
    <path d="M 359.824884 21.177893 
L 380.231741 21.177893 
" clip-path="url(#p4f1db05a1a)" style="fill: none; stroke: #737373"/>
   </g>
   <g id="line2d_76">
    <path d="M 74.128884 155.97078 
L 94.535741 155.97078 
" clip-path="url(#p4f1db05a1a)" style="fill: none; stroke: #737373"/>
   </g>
   <g id="line2d_77">
    <path d="M 125.146027 87.812196 
L 145.552884 87.812196 
" clip-path="url(#p4f1db05a1a)" style="fill: none; stroke: #737373"/>
   </g>
   <g id="line2d_78">
    <path d="M 176.16317 215.313362 
L 196.570027 215.313362 
" clip-path="url(#p4f1db05a1a)" style="fill: none; stroke: #737373"/>
   </g>
   <g id="line2d_79">
    <path d="M 227.180313 137.62154 
L 247.58717 137.62154 
" clip-path="url(#p4f1db05a1a)" style="fill: none; stroke: #737373"/>
   </g>
   <g id="line2d_80">
    <path d="M 278.197455 82.879398 
L 298.604312 82.879398 
" clip-path="url(#p4f1db05a1a)" style="fill: none; stroke: #737373"/>
   </g>
   <g id="line2d_81">
    <path d="M 329.214598 83.986425 
L 349.621455 83.986425 
" clip-path="url(#p4f1db05a1a)" style="fill: none; stroke: #737373"/>
   </g>
   <g id="line2d_82">
    <path d="M 380.231741 50.489746 
L 400.638598 50.489746 
" clip-path="url(#p4f1db05a1a)" style="fill: none; stroke: #737373"/>
   </g>
   <g id="patch_19">
    <path d="M 48.620313 273.312 
L 48.620313 7.2 
" style="fill: none; stroke: #000000; stroke-width: 0.8; stroke-linejoin: miter; stroke-linecap: square"/>
   </g>
   <g id="patch_20">
    <path d="M 405.740313 273.312 
L 405.740313 7.2 
" style="fill: none; stroke: #000000; stroke-width: 0.8; stroke-linejoin: miter; stroke-linecap: square"/>
   </g>
   <g id="patch_21">
    <path d="M 48.620313 273.312 
L 405.740313 273.312 
" style="fill: none; stroke: #000000; stroke-width: 0.8; stroke-linejoin: miter; stroke-linecap: square"/>
   </g>
   <g id="patch_22">
    <path d="M 48.620313 7.2 
L 405.740313 7.2 
" style="fill: none; stroke: #000000; stroke-width: 0.8; stroke-linejoin: miter; stroke-linecap: square"/>
   </g>
   <g id="legend_1">
    <g id="patch_23">
     <path d="M 55.620313 268.312 
L 135.1375 268.312 
Q 137.1375 268.312 137.1375 266.312 
L 137.1375 223.277625 
Q 137.1375 221.277625 135.1375 221.277625 
L 55.620313 221.277625 
Q 53.620313 221.277625 53.620313 223.277625 
L 53.620313 266.312 
Q 53.620313 268.312 55.620313 268.312 
z
" style="fill: #ffffff; opacity: 0.8; stroke: #cccccc; stroke-linejoin: miter"/>
    </g>
    <g id="text_15">
     <!-- species -->
     <g transform="translate(76.728906 232.876062) scale(0.1 -0.1)">
      <defs>
       <path id="DejaVuSerif-63" d="M 3291 997 
Q 3169 466 2822 187 
Q 2475 -91 1925 -91 
Q 1200 -91 759 389 
Q 319 869 319 1663 
Q 319 2459 759 2936 
Q 1200 3413 1925 3413 
Q 2241 3413 2553 3339 
Q 2866 3266 3181 3116 
L 3181 2266 
L 2847 2266 
Q 2781 2703 2561 2903 
Q 2341 3103 1931 3103 
Q 1466 3103 1228 2742 
Q 991 2381 991 1663 
Q 991 944 1227 581 
Q 1463 219 1931 219 
Q 2303 219 2525 412 
Q 2747 606 2828 997 
L 3291 997 
z
" transform="scale(0.015625)"/>
      </defs>
      <use xlink:href="#DejaVuSerif-73"/>
      <use xlink:href="#DejaVuSerif-70" x="51.318359"/>
      <use xlink:href="#DejaVuSerif-65" x="115.332031"/>
      <use xlink:href="#DejaVuSerif-63" x="174.511719"/>
      <use xlink:href="#DejaVuSerif-69" x="230.517578"/>
      <use xlink:href="#DejaVuSerif-65" x="262.5"/>
      <use xlink:href="#DejaVuSerif-73" x="321.679688"/>
     </g>
    </g>
    <g id="patch_24">
     <path d="M 57.620313 247.554187 
L 77.620313 247.554187 
L 77.620313 240.554187 
L 57.620313 240.554187 
z
" style="fill: #b4d4df; stroke: #737373; stroke-linejoin: miter"/>
    </g>
    <g id="text_16">
     <!-- E. coli -->
     <g transform="translate(85.620313 247.554187) scale(0.1 -0.1)">
      <defs>
       <path id="DejaVuSerif-45" d="M 353 0 
L 353 331 
L 947 331 
L 947 4331 
L 353 4331 
L 353 4666 
L 4109 4666 
L 4109 3628 
L 3725 3628 
L 3725 4281 
L 1581 4281 
L 1581 2719 
L 3109 2719 
L 3109 3303 
L 3494 3303 
L 3494 1753 
L 3109 1753 
L 3109 2338 
L 1581 2338 
L 1581 384 
L 3775 384 
L 3775 1038 
L 4159 1038 
L 4159 0 
L 353 0 
z
" transform="scale(0.015625)"/>
       <path id="DejaVuSerif-20" transform="scale(0.015625)"/>
      </defs>
      <use xlink:href="#DejaVuSerif-45"/>
      <use xlink:href="#DejaVuSerif-2e" x="72.998047"/>
      <use xlink:href="#DejaVuSerif-20" x="104.785156"/>
      <use xlink:href="#DejaVuSerif-63" x="136.572266"/>
      <use xlink:href="#DejaVuSerif-6f" x="192.578125"/>
      <use xlink:href="#DejaVuSerif-6c" x="252.783203"/>
      <use xlink:href="#DejaVuSerif-69" x="284.765625"/>
     </g>
    </g>
    <g id="patch_25">
     <path d="M 57.620313 262.232312 
L 77.620313 262.232312 
L 77.620313 255.232312 
L 57.620313 255.232312 
z
" style="fill: #9ce29c; stroke: #737373; stroke-linejoin: miter"/>
    </g>
    <g id="text_17">
     <!-- S. aureus -->
     <g transform="translate(85.620313 262.232312) scale(0.1 -0.1)">
      <defs>
       <path id="DejaVuSerif-61" d="M 2547 1044 
L 2547 1747 
L 1806 1747 
Q 1378 1747 1168 1562 
Q 959 1378 959 997 
Q 959 650 1171 447 
Q 1384 244 1747 244 
Q 2106 244 2326 466 
Q 2547 688 2547 1044 
z
M 3122 2075 
L 3122 331 
L 3634 331 
L 3634 0 
L 2547 0 
L 2547 359 
Q 2356 128 2106 18 
Q 1856 -91 1522 -91 
Q 969 -91 644 203 
Q 319 497 319 997 
Q 319 1513 691 1797 
Q 1063 2081 1741 2081 
L 2547 2081 
L 2547 2309 
Q 2547 2688 2317 2895 
Q 2088 3103 1672 3103 
Q 1328 3103 1125 2947 
Q 922 2791 872 2484 
L 575 2484 
L 575 3156 
Q 875 3284 1158 3348 
Q 1441 3413 1709 3413 
Q 2400 3413 2761 3070 
Q 3122 2728 3122 2075 
z
" transform="scale(0.015625)"/>
       <path id="DejaVuSerif-75" d="M 2266 3322 
L 3341 3322 
L 3341 331 
L 3884 331 
L 3884 0 
L 2766 0 
L 2766 588 
Q 2606 256 2353 82 
Q 2100 -91 1766 -91 
Q 1213 -91 952 223 
Q 691 538 691 1209 
L 691 2988 
L 172 2988 
L 172 3322 
L 1269 3322 
L 1269 1388 
Q 1269 781 1417 556 
Q 1566 331 1947 331 
Q 2347 331 2556 625 
Q 2766 919 2766 1478 
L 2766 2988 
L 2266 2988 
L 2266 3322 
z
" transform="scale(0.015625)"/>
      </defs>
      <use xlink:href="#DejaVuSerif-53"/>
      <use xlink:href="#DejaVuSerif-2e" x="64.880859"/>
      <use xlink:href="#DejaVuSerif-20" x="96.667969"/>
      <use xlink:href="#DejaVuSerif-61" x="128.455078"/>
      <use xlink:href="#DejaVuSerif-75" x="188.074219"/>
      <use xlink:href="#DejaVuSerif-72" x="252.478516"/>
      <use xlink:href="#DejaVuSerif-65" x="300.28125"/>
      <use xlink:href="#DejaVuSerif-75" x="359.460938"/>
      <use xlink:href="#DejaVuSerif-73" x="423.865234"/>
     </g>
    </g>
   </g>
  </g>
 </g>
 <defs>
  <clipPath id="p4f1db05a1a">
   <rect x="48.620313" y="7.2" width="357.12" height="266.112"/>
  </clipPath>
 </defs>
</svg>
